G04*
G04 #@! TF.GenerationSoftware,Altium Limited,Altium Designer,24.9.1 (31)*
G04*
G04 Layer_Color=65535*
%FSTAX25Y25*%
%MOIN*%
G70*
G04*
G04 #@! TF.SameCoordinates,80357BE8-FB89-4C24-BB12-38274DCAA4D6*
G04*
G04*
G04 #@! TF.FilePolarity,Positive*
G04*
G01*
G75*
%ADD10C,0.00700*%
%ADD11C,0.00787*%
%ADD12C,0.01000*%
G36*
X0353Y0309D02*
X03545D01*
X0352Y03065D01*
X03495Y0309D01*
X0351D01*
Y03115D01*
X0353D01*
Y0309D01*
D02*
G37*
G36*
X0437Y03071D02*
X04395D01*
Y03051D01*
X0437D01*
Y03036D01*
X04345Y03061D01*
X0437Y03086D01*
Y03071D01*
D02*
G37*
G36*
X03155Y03055D02*
X0313Y0303D01*
Y03045D01*
X03105D01*
Y03065D01*
X0313D01*
Y0308D01*
X03155Y03055D01*
D02*
G37*
G36*
X0437Y02631D02*
X04395D01*
Y02611D01*
X0437D01*
Y02596D01*
X04345Y02621D01*
X0437Y02646D01*
Y02631D01*
D02*
G37*
G36*
X03155Y02615D02*
X0313Y0259D01*
Y02605D01*
X03105D01*
Y02625D01*
X0313D01*
Y0264D01*
X03155Y02615D01*
D02*
G37*
G36*
X04365Y02201D02*
X0439D01*
Y02181D01*
X04365D01*
Y02166D01*
X0434Y02191D01*
X04365Y02216D01*
Y02201D01*
D02*
G37*
G36*
X0315Y02185D02*
X03125Y0216D01*
Y02175D01*
X031D01*
Y02195D01*
X03125D01*
Y0221D01*
X0315Y02185D01*
D02*
G37*
G36*
X04Y0215D02*
X03985D01*
Y02125D01*
X03965D01*
Y0215D01*
X0395D01*
X03975Y02175D01*
X04Y0215D01*
D02*
G37*
G36*
X03525Y0214D02*
X0351D01*
Y02115D01*
X0349D01*
Y0214D01*
X03475D01*
X035Y02165D01*
X03525Y0214D01*
D02*
G37*
D10*
X0338024Y0310456D02*
G03*
X0337482Y0310995I0003976J0004544D01*
G01*
X036264Y02998D02*
G03*
X036264Y02998I-000064J0D01*
G01*
X034244Y02997D02*
G03*
X034244Y02997I-000064J0D01*
G01*
X0358096Y0310395D02*
G03*
X0357482Y0310995I0003904J0004605D01*
G01*
X0411476Y0213544D02*
G03*
X0412018Y0213005I-0003976J-0004544D01*
G01*
X038814Y02242D02*
G03*
X038814Y02242I-000064J0D01*
G01*
X040834Y02243D02*
G03*
X040834Y02243I-000064J0D01*
G01*
X0391404Y0213605D02*
G03*
X0392018Y0213005I-0003904J-0004605D01*
G01*
X0311044Y0204524D02*
G03*
X0310505Y0203982I-0004544J0003976D01*
G01*
X032234Y02285D02*
G03*
X032234Y02285I-000064J0D01*
G01*
X032244Y02083D02*
G03*
X032244Y02083I-000064J0D01*
G01*
X0311105Y0224596D02*
G03*
X0310505Y0223982I-0004605J0003904D01*
G01*
X0363976Y0212544D02*
G03*
X0364518Y0212005I-0003976J-0004544D01*
G01*
X034064Y02232D02*
G03*
X034064Y02232I-000064J0D01*
G01*
X036084Y02233D02*
G03*
X036084Y02233I-000064J0D01*
G01*
X0343904Y0212605D02*
G03*
X0344518Y0212005I-0003904J-0004605D01*
G01*
X0311544Y0291524D02*
G03*
X0311005Y0290982I-0004544J0003976D01*
G01*
X032284Y03155D02*
G03*
X032284Y03155I-000064J0D01*
G01*
X032294Y02953D02*
G03*
X032294Y02953I-000064J0D01*
G01*
X0311605Y0311596D02*
G03*
X0311005Y0310982I-0004605J0003904D01*
G01*
X0311544Y0247524D02*
G03*
X0311005Y0246982I-0004544J0003976D01*
G01*
X032284Y02715D02*
G03*
X032284Y02715I-000064J0D01*
G01*
X032294Y02513D02*
G03*
X032294Y02513I-000064J0D01*
G01*
X0311605Y0267596D02*
G03*
X0311005Y0266982I-0004605J0003904D01*
G01*
X0438456Y0320076D02*
G03*
X0438995Y0320618I0004544J-0003976D01*
G01*
X042844Y02961D02*
G03*
X042844Y02961I-000064J0D01*
G01*
X042834Y03163D02*
G03*
X042834Y03163I-000064J0D01*
G01*
X0438395Y0300004D02*
G03*
X0438995Y0300618I0004605J-0003904D01*
G01*
X0438456Y0276076D02*
G03*
X0438995Y0276618I0004544J-0003976D01*
G01*
X042844Y02521D02*
G03*
X042844Y02521I-000064J0D01*
G01*
X042834Y02723D02*
G03*
X042834Y02723I-000064J0D01*
G01*
X0438395Y0256004D02*
G03*
X0438995Y0256618I0004605J-0003904D01*
G01*
X0437956Y0233076D02*
G03*
X0438495Y0233618I0004544J-0003976D01*
G01*
X042794Y02091D02*
G03*
X042794Y02091I-000064J0D01*
G01*
X042784Y02293D02*
G03*
X042784Y02293I-000064J0D01*
G01*
X0437895Y0213004D02*
G03*
X0438495Y0213618I0004605J-0003904D01*
G01*
X0332Y0295D02*
Y02965D01*
X0333D01*
X0332Y0295D02*
X0372D01*
X0332Y0311D02*
Y03229D01*
Y0325D02*
X0372D01*
X033775Y031075D02*
X03462Y03192D01*
X03518Y03078D02*
Y03229D01*
X03726Y0297D02*
Y02995D01*
X0372Y0295D02*
Y031D01*
X0333Y02968D02*
Y02999D01*
X0332D02*
X0333D01*
X0332D02*
Y0325D01*
X0372Y031D02*
Y0325D01*
X0332Y0305D02*
X0372D01*
X03577Y03107D02*
X03662Y03192D01*
X04175Y02275D02*
Y0229D01*
X04165Y02275D02*
X04175D01*
X03775Y0229D02*
X04175D01*
Y02011D02*
Y0213D01*
X03775Y0199D02*
X04175D01*
X04033Y02048D02*
X041175Y021325D01*
X03977Y02011D02*
Y02162D01*
X03769Y02245D02*
Y0227D01*
X03775Y0214D02*
Y0229D01*
X04165Y02241D02*
Y02272D01*
Y02241D02*
X04175D01*
Y0199D02*
Y02241D01*
X03775Y0199D02*
Y0214D01*
Y0219D02*
X04175D01*
X03833Y02048D02*
X03918Y02133D01*
X0325Y01985D02*
X03265D01*
X0325D02*
Y01995D01*
X03265Y01985D02*
Y02385D01*
X02986Y01985D02*
X03105D01*
X02965D02*
Y02385D01*
X03023Y02127D02*
X031075Y020425D01*
X02986Y02183D02*
X03137D01*
X0322Y02391D02*
X03245D01*
X03115Y02385D02*
X03265D01*
X03216Y01995D02*
X03247D01*
X03216Y01985D02*
Y01995D01*
X02965Y01985D02*
X03216D01*
X02965Y02385D02*
X03115D01*
X03165Y01985D02*
Y02385D01*
X03023Y02327D02*
X03108Y02242D01*
X037Y02265D02*
Y0228D01*
X0369Y02265D02*
X037D01*
X033Y0228D02*
X037D01*
Y02001D02*
Y0212D01*
X033Y0198D02*
X037D01*
X03558Y02038D02*
X036425Y021225D01*
X03502Y02001D02*
Y02152D01*
X03294Y02235D02*
Y0226D01*
X033Y0213D02*
Y0228D01*
X0369Y02231D02*
Y02262D01*
Y02231D02*
X037D01*
Y0198D02*
Y02231D01*
X033Y0198D02*
Y0213D01*
Y0218D02*
X037D01*
X03358Y02038D02*
X03443Y02123D01*
X03255Y02855D02*
X0327D01*
X03255D02*
Y02865D01*
X0327Y02855D02*
Y03255D01*
X02991Y02855D02*
X0311D01*
X0297D02*
Y03255D01*
X03028Y02997D02*
X031125Y029125D01*
X02991Y03053D02*
X03142D01*
X03225Y03261D02*
X0325D01*
X0312Y03255D02*
X0327D01*
X03221Y02865D02*
X03252D01*
X03221Y02855D02*
Y02865D01*
X0297Y02855D02*
X03221D01*
X0297Y03255D02*
X0312D01*
X0317Y02855D02*
Y03255D01*
X03028Y03197D02*
X03113Y03112D01*
X03255Y02415D02*
X0327D01*
X03255D02*
Y02425D01*
X0327Y02415D02*
Y02815D01*
X02991Y02415D02*
X0311D01*
X0297D02*
Y02815D01*
X03028Y02557D02*
X031125Y024725D01*
X02991Y02613D02*
X03142D01*
X03225Y02821D02*
X0325D01*
X0312Y02815D02*
X0327D01*
X03221Y02425D02*
X03252D01*
X03221Y02415D02*
Y02425D01*
X0297Y02415D02*
X03221D01*
X0297Y02815D02*
X0312D01*
X0317Y02415D02*
Y02815D01*
X03028Y02757D02*
X03113Y02672D01*
X0423Y03261D02*
X04245D01*
Y03251D02*
Y03261D01*
X0423Y02861D02*
Y03261D01*
X0439D02*
X04509D01*
X0453Y02861D02*
Y03261D01*
X043875Y032035D02*
X04472Y03119D01*
X04358Y03063D02*
X04509D01*
X0425Y02855D02*
X04275D01*
X0423Y02861D02*
X0438D01*
X04248Y03251D02*
X04279D01*
Y03261D01*
X0453D01*
X0438Y02861D02*
X0453D01*
X0433D02*
Y03261D01*
X04387Y03004D02*
X04472Y02919D01*
X0423Y02821D02*
X04245D01*
Y02811D02*
Y02821D01*
X0423Y02421D02*
Y02821D01*
X0439D02*
X04509D01*
X0453Y02421D02*
Y02821D01*
X043875Y027635D02*
X04472Y02679D01*
X04358Y02623D02*
X04509D01*
X0425Y02415D02*
X04275D01*
X0423Y02421D02*
X0438D01*
X04248Y02811D02*
X04279D01*
Y02821D01*
X0453D01*
X0438Y02421D02*
X0453D01*
X0433D02*
Y02821D01*
X04387Y02564D02*
X04472Y02479D01*
X04225Y02391D02*
X0424D01*
Y02381D02*
Y02391D01*
X04225Y01991D02*
Y02391D01*
X04385D02*
X04504D01*
X04525Y01991D02*
Y02391D01*
X043825Y023335D02*
X04467Y02249D01*
X04353Y02193D02*
X04504D01*
X04245Y01985D02*
X0427D01*
X04225Y01991D02*
X04375D01*
X04243Y02381D02*
X04274D01*
Y02391D01*
X04525D01*
X04375Y01991D02*
X04525D01*
X04325D02*
Y02391D01*
X04382Y02134D02*
X04467Y02049D01*
D11*
X0367386Y0238D02*
Y0288D01*
X0340614D02*
X0367386D01*
X0340614Y0238D02*
X0367386D01*
X0340614D02*
Y0288D01*
X03895Y0321D02*
X04095D01*
X03895Y0311D02*
Y0321D01*
Y0311D02*
X04095D01*
Y0321D01*
D12*
X0411502Y0263999D02*
X0410502Y0262999D01*
Y0261D01*
X0411502Y026D01*
X04155D01*
X04165Y0261D01*
Y0262999D01*
X04155Y0263999D01*
X04165Y0265998D02*
X0412501D01*
X0410502Y0267997D01*
X0412501Y0269997D01*
X04165D01*
X0413501D01*
Y0265998D01*
X04165Y0271996D02*
X0410502D01*
X04165Y0275995D01*
X0410502D01*
X03855Y0195998D02*
Y019D01*
Y0192999D01*
X0389499D01*
Y0195998D01*
Y019D01*
X0409492Y0195998D02*
Y019D01*
X0413491D01*
X03435Y0193999D02*
X0347499D01*
X0345499Y0195998D02*
Y0192D01*
X0355496Y0193999D02*
X0359495D01*
X0291999Y0268D02*
Y0264001D01*
X0293998Y0266001D02*
X029D01*
X0291999Y0256004D02*
Y0252005D01*
X03585Y0330001D02*
X0354501D01*
X0356501Y0328002D02*
Y0332D01*
X0346504Y0330001D02*
X0342505D01*
X0292999Y03125D02*
Y0308501D01*
X0294998Y0310501D02*
X0291D01*
X0292999Y0300504D02*
Y0296505D01*
Y0226D02*
Y0222001D01*
X0294998Y0224001D02*
X0291D01*
X0292999Y0214004D02*
Y0210005D01*
X03315Y02835D02*
X0337498D01*
Y0280501D01*
X0336498Y0279501D01*
X0334499D01*
X0333499Y0280501D01*
Y02835D01*
X0337498Y0274503D02*
Y0276502D01*
X0336498Y0277502D01*
X03325D01*
X03315Y0276502D01*
Y0274503D01*
X03325Y0273503D01*
X0336498D01*
X0337498Y0274503D01*
Y0271504D02*
X03315D01*
X0333499Y0269504D01*
X03315Y0267505D01*
X0337498D01*
Y0261507D02*
Y0265506D01*
X03315D01*
Y0261507D01*
X0334499Y0265506D02*
Y0263507D01*
X03315Y0259508D02*
X0337498D01*
Y0256509D01*
X0336498Y0255509D01*
X0334499D01*
X0333499Y0256509D01*
Y0259508D01*
Y0257508D02*
X03315Y0255509D01*
X0458002Y02045D02*
X0464D01*
X0461001D01*
Y0208499D01*
X0458002D01*
X0464D01*
X0458002Y0228492D02*
X0464D01*
Y0232491D01*
X0458002Y025D02*
X0464D01*
X0461001D01*
Y0253999D01*
X0458002D01*
X0464D01*
X0458002Y0273992D02*
X0464D01*
Y0277991D01*
X0458002Y0289D02*
X0464D01*
X0461001D01*
Y0292999D01*
X0458002D01*
X0464D01*
X0458002Y0312992D02*
X0464D01*
Y0316991D01*
X03925Y0328998D02*
Y0323D01*
Y0325999D01*
X0396499D01*
Y0328998D01*
Y0323D01*
X0404496Y0328998D02*
Y0323D01*
X0408495D01*
X0392505Y0309499D02*
Y0303501D01*
X0395504D01*
X0396503Y0304501D01*
Y0308499D01*
X0395504Y0309499D01*
X0392505D01*
X0402501D02*
X0398503D01*
Y0303501D01*
X0402501D01*
X0398503Y03065D02*
X0400502D01*
X0404501Y0309499D02*
Y0303501D01*
X04075D01*
X0408499Y0304501D01*
Y03055D01*
X04075Y03065D01*
X0404501D01*
X04075D01*
X0408499Y03075D01*
Y0308499D01*
X04075Y0309499D01*
X0404501D01*
X0410499D02*
Y0304501D01*
X0411498Y0303501D01*
X0413498D01*
X0414497Y0304501D01*
Y0309499D01*
X0420496Y0308499D02*
X0419496Y0309499D01*
X0417496D01*
X0416497Y0308499D01*
Y0304501D01*
X0417496Y0303501D01*
X0419496D01*
X0420496Y0304501D01*
Y03065D01*
X0418496D01*
M02*
