G04*
G04 #@! TF.GenerationSoftware,Altium Limited,Altium Designer,24.9.1 (31)*
G04*
G04 Layer_Physical_Order=2*
G04 Layer_Color=16711680*
%FSTAX25Y25*%
%MOIN*%
G70*
G04*
G04 #@! TF.SameCoordinates,80357BE8-FB89-4C24-BB12-38274DCAA4D6*
G04*
G04*
G04 #@! TF.FilePolarity,Positive*
G04*
G01*
G75*
%ADD19C,0.05906*%
%ADD20O,0.15748X0.09843*%
%ADD21C,0.11000*%
%ADD22C,0.06299*%
%ADD23R,0.06299X0.06299*%
%ADD24C,0.13780*%
G36*
X0374Y0185368D02*
X0296679D01*
X0296225Y0186259D01*
X0296423Y0186532D01*
X0297169Y0187995D01*
X0297676Y0189557D01*
X0297933Y0191179D01*
Y0192821D01*
X0297676Y0194443D01*
X0297169Y0196005D01*
X0296423Y0197468D01*
X0295458Y0198797D01*
X0294297Y0199958D01*
X0292968Y0200923D01*
X0291505Y0201669D01*
X0289943Y0202176D01*
X0288321Y0202433D01*
X0286679D01*
X0285057Y0202176D01*
X0283495Y0201669D01*
X0282032Y0200923D01*
X0281759Y0200725D01*
X0280868Y0201179D01*
Y031805D01*
X0281868Y0318559D01*
X0282532Y0318077D01*
X0283995Y0317331D01*
X0285557Y0316824D01*
X0287179Y0316567D01*
X0288821D01*
X0290443Y0316824D01*
X0292005Y0317331D01*
X0293468Y0318077D01*
X0294797Y0319042D01*
X0295958Y0320203D01*
X0296923Y0321532D01*
X0297669Y0322995D01*
X0298176Y0324557D01*
X0298433Y0326179D01*
Y0327821D01*
X0298176Y0329443D01*
X0297669Y0331005D01*
X0296923Y0332468D01*
X0296455Y0333113D01*
X0296964Y0334113D01*
X0374D01*
Y0185368D01*
D02*
G37*
%LPC*%
G36*
X034264Y03215D02*
X03425D01*
Y03155D01*
X03485D01*
Y031564D01*
X034825Y0316896D01*
X034776Y0318079D01*
X0347049Y0319144D01*
X0346144Y0320049D01*
X0345079Y032076D01*
X0343896Y032125D01*
X034264Y03215D01*
D02*
G37*
G36*
X03415D02*
X034136D01*
X0340104Y032125D01*
X0338921Y032076D01*
X0337857Y0320049D01*
X0336951Y0319144D01*
X033624Y0318079D01*
X033575Y0316896D01*
X03355Y031564D01*
Y03155D01*
X03415D01*
Y03215D01*
D02*
G37*
G36*
X03485Y03145D02*
X03425D01*
Y03085D01*
X034264D01*
X0343896Y030875D01*
X0345079Y030924D01*
X0346144Y0309951D01*
X0347049Y0310857D01*
X034776Y0311921D01*
X034825Y0313104D01*
X03485Y031436D01*
Y03145D01*
D02*
G37*
G36*
X03415D02*
X03355D01*
Y031436D01*
X033575Y0313104D01*
X033624Y0311921D01*
X0336951Y0310857D01*
X0337857Y0309951D01*
X0338921Y030924D01*
X0340104Y030875D01*
X034136Y03085D01*
X03415D01*
Y03145D01*
D02*
G37*
G36*
X0307774Y0323362D02*
X0306226D01*
X0304707Y032306D01*
X0303276Y0322467D01*
X0301988Y0321607D01*
X0300893Y0320512D01*
X0300033Y0319224D01*
X029944Y0317793D01*
X0299138Y0316274D01*
Y0314726D01*
X029944Y0313207D01*
X0300033Y0311776D01*
X0300893Y0310488D01*
X0301988Y0309393D01*
X0303276Y0308533D01*
X0304707Y030794D01*
X0306226Y0307638D01*
X0307774D01*
X0309293Y030794D01*
X0310724Y0308533D01*
X0312012Y0309393D01*
X0313107Y0310488D01*
X0313967Y0311776D01*
X031456Y0313207D01*
X0314862Y0314726D01*
Y0316274D01*
X031456Y0317793D01*
X0313967Y0319224D01*
X0313107Y0320512D01*
X0312012Y0321607D01*
X0310724Y0322467D01*
X0309293Y032306D01*
X0307774Y0323362D01*
D02*
G37*
G36*
X0362774Y0322862D02*
X0361226D01*
X0359707Y032256D01*
X0358276Y0321967D01*
X0356988Y0321107D01*
X0355893Y0320012D01*
X0355033Y0318724D01*
X035444Y0317293D01*
X0354138Y0315774D01*
Y0314226D01*
X035444Y0312707D01*
X0355033Y0311276D01*
X0355893Y0309988D01*
X0356988Y0308893D01*
X0358276Y0308033D01*
X0359707Y030744D01*
X0361226Y0307138D01*
X0362774D01*
X0364293Y030744D01*
X0365724Y0308033D01*
X0367012Y0308893D01*
X0368107Y0309988D01*
X0368967Y0311276D01*
X036956Y0312707D01*
X0369862Y0314226D01*
Y0315774D01*
X036956Y0317293D01*
X0368967Y0318724D01*
X0368107Y0320012D01*
X0367012Y0321107D01*
X0365724Y0321967D01*
X0364293Y032256D01*
X0362774Y0322862D01*
D02*
G37*
G36*
X030764Y0302D02*
X03075D01*
Y0296D01*
X03135D01*
Y029614D01*
X031325Y0297396D01*
X031276Y0298579D01*
X0312049Y0299643D01*
X0311143Y0300549D01*
X0310079Y030126D01*
X0308896Y030175D01*
X030764Y0302D01*
D02*
G37*
G36*
X03065D02*
X030636D01*
X0305104Y030175D01*
X0303921Y030126D01*
X0302856Y0300549D01*
X0301951Y0299643D01*
X030124Y0298579D01*
X030075Y0297396D01*
X03005Y029614D01*
Y0296D01*
X03065D01*
Y0302D01*
D02*
G37*
G36*
X03135Y0295D02*
X03075D01*
Y0289D01*
X030764D01*
X0308896Y028925D01*
X0310079Y028974D01*
X0311143Y0290451D01*
X0312049Y0291356D01*
X031276Y0292421D01*
X031325Y0293604D01*
X03135Y029486D01*
Y0295D01*
D02*
G37*
G36*
X03065D02*
X03005D01*
Y029486D01*
X030075Y0293604D01*
X030124Y0292421D01*
X0301951Y0291356D01*
X0302856Y0290451D01*
X0303921Y028974D01*
X0305104Y028925D01*
X030636Y0289D01*
X03065D01*
Y0295D01*
D02*
G37*
G36*
X0356953Y0288823D02*
X0351047D01*
X0349619Y0288682D01*
X0348247Y0288265D01*
X0346981Y0287589D01*
X0345872Y0286679D01*
X0344962Y028557D01*
X0344286Y0284305D01*
X0343869Y0282932D01*
X0343728Y0281504D01*
X0343869Y0280076D01*
X0344286Y0278703D01*
X0344962Y0277438D01*
X0345872Y0276329D01*
X0346981Y0275419D01*
X0348247Y0274742D01*
X0349619Y0274326D01*
X0351047Y0274185D01*
X0356953D01*
X0358381Y0274326D01*
X0359753Y0274742D01*
X0361019Y0275419D01*
X0362128Y0276329D01*
X0363038Y0277438D01*
X0363714Y0278703D01*
X0364131Y0280076D01*
X0364271Y0281504D01*
X0364131Y0282932D01*
X0363714Y0284305D01*
X0363038Y028557D01*
X0362128Y0286679D01*
X0361019Y0287589D01*
X0359753Y0288265D01*
X0358381Y0288682D01*
X0356953Y0288823D01*
D02*
G37*
G36*
X0307774Y0279362D02*
X0306226D01*
X0304707Y027906D01*
X0303276Y0278467D01*
X0301988Y0277607D01*
X0300893Y0276512D01*
X0300033Y0275224D01*
X029944Y0273793D01*
X0299138Y0272274D01*
Y0270726D01*
X029944Y0269207D01*
X0300033Y0267776D01*
X0300893Y0266488D01*
X0301988Y0265393D01*
X0303276Y0264533D01*
X0304707Y026394D01*
X0306226Y0263638D01*
X0307774D01*
X0309293Y026394D01*
X0310724Y0264533D01*
X0312012Y0265393D01*
X0313107Y0266488D01*
X0313967Y0267776D01*
X031456Y0269207D01*
X0314862Y0270726D01*
Y0272274D01*
X031456Y0273793D01*
X0313967Y0275224D01*
X0313107Y0276512D01*
X0312012Y0277607D01*
X0310724Y0278467D01*
X0309293Y027906D01*
X0307774Y0279362D01*
D02*
G37*
G36*
X0356953Y0270319D02*
X0351047D01*
X0349619Y0270178D01*
X0348247Y0269762D01*
X0346981Y0269085D01*
X0345872Y0268175D01*
X0344962Y0267066D01*
X0344286Y0265801D01*
X0343869Y0264428D01*
X0343728Y0263D01*
X0343869Y0261572D01*
X0344286Y0260199D01*
X0344962Y0258934D01*
X0345872Y0257825D01*
X0346981Y0256915D01*
X0348247Y0256238D01*
X0349619Y0255822D01*
X0351047Y0255681D01*
X0356953D01*
X0358381Y0255822D01*
X0359753Y0256238D01*
X0361019Y0256915D01*
X0362128Y0257825D01*
X0363038Y0258934D01*
X0363714Y0260199D01*
X0364131Y0261572D01*
X0364271Y0263D01*
X0364131Y0264428D01*
X0363714Y0265801D01*
X0363038Y0267066D01*
X0362128Y0268175D01*
X0361019Y0269085D01*
X0359753Y0269762D01*
X0358381Y0270178D01*
X0356953Y0270319D01*
D02*
G37*
G36*
X030764Y0258D02*
X03075D01*
Y0252D01*
X03135D01*
Y025214D01*
X031325Y0253396D01*
X031276Y0254579D01*
X0312049Y0255644D01*
X0311143Y0256549D01*
X0310079Y025726D01*
X0308896Y025775D01*
X030764Y0258D01*
D02*
G37*
G36*
X03065D02*
X030636D01*
X0305104Y025775D01*
X0303921Y025726D01*
X0302856Y0256549D01*
X0301951Y0255644D01*
X030124Y0254579D01*
X030075Y0253396D01*
X03005Y025214D01*
Y0252D01*
X03065D01*
Y0258D01*
D02*
G37*
G36*
X03135Y0251D02*
X03075D01*
Y0245D01*
X030764D01*
X0308896Y024525D01*
X0310079Y024574D01*
X0311143Y0246451D01*
X0312049Y0247357D01*
X031276Y0248421D01*
X031325Y0249604D01*
X03135Y025086D01*
Y0251D01*
D02*
G37*
G36*
X03065D02*
X03005D01*
Y025086D01*
X030075Y0249604D01*
X030124Y0248421D01*
X0301951Y0247357D01*
X0302856Y0246451D01*
X0303921Y024574D01*
X0305104Y024525D01*
X030636Y0245D01*
X03065D01*
Y0251D01*
D02*
G37*
G36*
X0356953Y0251815D02*
X0351047D01*
X0349619Y0251674D01*
X0348247Y0251258D01*
X0346981Y0250581D01*
X0345872Y0249671D01*
X0344962Y0248562D01*
X0344286Y0247297D01*
X0343869Y0245924D01*
X0343728Y0244496D01*
X0343869Y0243068D01*
X0344286Y0241695D01*
X0344962Y024043D01*
X0345872Y0239321D01*
X0346981Y0238411D01*
X0348247Y0237735D01*
X0349619Y0237318D01*
X0351047Y0237177D01*
X0356953D01*
X0358381Y0237318D01*
X0359753Y0237735D01*
X0361019Y0238411D01*
X0362128Y0239321D01*
X0363038Y024043D01*
X0363714Y0241695D01*
X0364131Y0243068D01*
X0364271Y0244496D01*
X0364131Y0245924D01*
X0363714Y0247297D01*
X0363038Y0248562D01*
X0362128Y0249671D01*
X0361019Y0250581D01*
X0359753Y0251258D01*
X0358381Y0251674D01*
X0356953Y0251815D01*
D02*
G37*
G36*
X0307274Y0236362D02*
X0305726D01*
X0304207Y023606D01*
X0302776Y0235467D01*
X0301488Y0234607D01*
X0300393Y0233512D01*
X0299533Y0232224D01*
X029894Y0230793D01*
X0298638Y0229274D01*
Y0227726D01*
X029894Y0226207D01*
X0299533Y0224776D01*
X0300393Y0223488D01*
X0301488Y0222393D01*
X0302776Y0221533D01*
X0304207Y022094D01*
X0305726Y0220638D01*
X0307274D01*
X0308793Y022094D01*
X0310224Y0221533D01*
X0311512Y0222393D01*
X0312607Y0223488D01*
X0313467Y0224776D01*
X031406Y0226207D01*
X0314362Y0227726D01*
Y0229274D01*
X031406Y0230793D01*
X0313467Y0232224D01*
X0312607Y0233512D01*
X0311512Y0234607D01*
X0310224Y0235467D01*
X0308793Y023606D01*
X0307274Y0236362D01*
D02*
G37*
G36*
X030714Y0215D02*
X0307D01*
Y0209D01*
X0313D01*
Y020914D01*
X031275Y0210396D01*
X031226Y0211579D01*
X0311549Y0212644D01*
X0310644Y0213549D01*
X0309579Y021426D01*
X0308396Y021475D01*
X030714Y0215D01*
D02*
G37*
G36*
X0306D02*
X030586D01*
X0304604Y021475D01*
X0303421Y021426D01*
X0302357Y0213549D01*
X0301451Y0212644D01*
X030074Y0211579D01*
X030025Y0210396D01*
X03Y020914D01*
Y0209D01*
X0306D01*
Y0215D01*
D02*
G37*
G36*
X036064Y02145D02*
X03605D01*
Y02085D01*
X03665D01*
Y020864D01*
X036625Y0209896D01*
X036576Y0211079D01*
X0365049Y0212143D01*
X0364143Y0213049D01*
X0363079Y021376D01*
X0361896Y021425D01*
X036064Y02145D01*
D02*
G37*
G36*
X03595D02*
X035936D01*
X0358104Y021425D01*
X0356921Y021376D01*
X0355856Y0213049D01*
X0354951Y0212143D01*
X035424Y0211079D01*
X035375Y0209896D01*
X03535Y020864D01*
Y02085D01*
X03595D01*
Y02145D01*
D02*
G37*
G36*
X0313Y0208D02*
X0307D01*
Y0202D01*
X030714D01*
X0308396Y020225D01*
X0309579Y020274D01*
X0310644Y0203451D01*
X0311549Y0204357D01*
X031226Y0205421D01*
X031275Y0206604D01*
X0313Y020786D01*
Y0208D01*
D02*
G37*
G36*
X0306D02*
X03D01*
Y020786D01*
X030025Y0206604D01*
X030074Y0205421D01*
X0301451Y0204357D01*
X0302357Y0203451D01*
X0303421Y020274D01*
X0304604Y020225D01*
X030586Y0202D01*
X0306D01*
Y0208D01*
D02*
G37*
G36*
X03665Y02075D02*
X03605D01*
Y02015D01*
X036064D01*
X0361896Y020175D01*
X0363079Y020224D01*
X0364143Y0202951D01*
X0365049Y0203856D01*
X036576Y0204921D01*
X036625Y0206104D01*
X03665Y020736D01*
Y02075D01*
D02*
G37*
G36*
X03595D02*
X03535D01*
Y020736D01*
X035375Y0206104D01*
X035424Y0204921D01*
X0354951Y0203856D01*
X0355856Y0202951D01*
X0356921Y020224D01*
X0358104Y020175D01*
X035936Y02015D01*
X03595D01*
Y02075D01*
D02*
G37*
G36*
X0340774Y0215862D02*
X0339226D01*
X0337707Y021556D01*
X0336276Y0214967D01*
X0334988Y0214107D01*
X0333893Y0213012D01*
X0333033Y0211724D01*
X033244Y0210293D01*
X0332138Y0208774D01*
Y0207226D01*
X033244Y0205707D01*
X0333033Y0204276D01*
X0333893Y0202988D01*
X0334988Y0201893D01*
X0336276Y0201033D01*
X0337707Y020044D01*
X0339226Y0200138D01*
X0340774D01*
X0342293Y020044D01*
X0343724Y0201033D01*
X0345012Y0201893D01*
X0346107Y0202988D01*
X0346967Y0204276D01*
X034756Y0205707D01*
X0347862Y0207226D01*
Y0208774D01*
X034756Y0210293D01*
X0346967Y0211724D01*
X0346107Y0213012D01*
X0345012Y0214107D01*
X0343724Y0214967D01*
X0342293Y021556D01*
X0340774Y0215862D01*
D02*
G37*
%LPD*%
D19*
X03945Y0313172D02*
X0404172Y03035D01*
X04356D01*
X0443Y02961D01*
X03945Y0313172D02*
Y0316D01*
X0431579Y0263835D02*
Y0284366D01*
X0443Y0295787D01*
Y02521D02*
Y0252413D01*
X0431579Y0263835D02*
X0443Y0252413D01*
Y0295787D02*
Y02961D01*
Y0251787D02*
Y02521D01*
X0431079Y0239865D02*
X0443Y0251787D01*
X0431079Y0220834D02*
Y0239865D01*
Y0220834D02*
X04425Y0209413D01*
Y02091D02*
Y0209413D01*
X0399235Y0220421D02*
X0430865D01*
X0387813Y0209D02*
X0399235Y0220421D01*
X03875Y0209D02*
X0387813D01*
D20*
X0354Y0244496D02*
D03*
Y0263D02*
D03*
Y0281504D02*
D03*
D21*
X0342Y0315D02*
D03*
X0362D02*
D03*
X04075Y0209D02*
D03*
X03875D02*
D03*
X03065Y02085D02*
D03*
Y02285D02*
D03*
X036Y0208D02*
D03*
X034D02*
D03*
X0307Y02955D02*
D03*
Y03155D02*
D03*
Y02515D02*
D03*
Y02715D02*
D03*
X0443Y03161D02*
D03*
Y02961D02*
D03*
Y02721D02*
D03*
Y02521D02*
D03*
X04425Y02291D02*
D03*
Y02091D02*
D03*
D22*
X04045Y0316D02*
D03*
D23*
X03945D02*
D03*
D24*
X02875Y0192D02*
D03*
X0288Y0327D02*
D03*
X0462Y0192D02*
D03*
Y0327D02*
D03*
M02*
