G04*
G04 #@! TF.GenerationSoftware,Altium Limited,Altium Designer,24.9.1 (31)*
G04*
G04 Layer_Color=2752767*
%FSTAX25Y25*%
%MOIN*%
G70*
G04*
G04 #@! TF.SameCoordinates,80357BE8-FB89-4C24-BB12-38274DCAA4D6*
G04*
G04*
G04 #@! TF.FilePolarity,Positive*
G04*
G01*
G75*
%ADD26C,0.00500*%
%ADD27C,0.00667*%
D26*
X0353Y0243496D02*
Y0242496D01*
X0355D01*
Y0243496D01*
X0356D01*
Y0245496D01*
X0355D01*
Y0246496D01*
X0353D01*
Y0245496D01*
X0352D01*
Y0243496D01*
X0353D01*
Y0262D02*
Y0261D01*
X0355D01*
Y0262D01*
X0356D01*
Y0264D01*
X0355D01*
Y0265D01*
X0353D01*
Y0264D01*
X0352D01*
Y0262D01*
X0353D01*
Y0280504D02*
Y0279504D01*
X0355D01*
Y0280504D01*
X0356D01*
Y0282504D01*
X0355D01*
Y0283504D01*
X0353D01*
Y0282504D01*
X0352D01*
Y0280504D01*
X0353D01*
X04025Y0314D02*
Y0318D01*
X04065D01*
Y0314D01*
X04025D01*
X03925D02*
Y0318D01*
X03965D01*
Y0314D01*
X03925D01*
X02875Y019D02*
X02855Y0194D01*
X02895D01*
X02875Y019D01*
X0288Y0325D02*
X0286Y0329D01*
X029D01*
X0288Y0325D01*
X0462Y019D02*
X046Y0194D01*
X0464D01*
X0462Y019D01*
Y0325D02*
X046Y0329D01*
X0464D01*
X0462Y0325D01*
D27*
X0344Y0315D02*
G03*
X0344Y0315I-0002J0D01*
G01*
X0364D02*
G03*
X0364Y0315I-0002J0D01*
G01*
X04095Y0209D02*
G03*
X04095Y0209I-0002J0D01*
G01*
X03895D02*
G03*
X03895Y0209I-0002J0D01*
G01*
X03085Y02085D02*
G03*
X03085Y02085I-0002J0D01*
G01*
Y02285D02*
G03*
X03085Y02285I-0002J0D01*
G01*
X0362Y0208D02*
G03*
X0362Y0208I-0002J0D01*
G01*
X0342D02*
G03*
X0342Y0208I-0002J0D01*
G01*
X0309Y02955D02*
G03*
X0309Y02955I-0002J0D01*
G01*
Y03155D02*
G03*
X0309Y03155I-0002J0D01*
G01*
Y02515D02*
G03*
X0309Y02515I-0002J0D01*
G01*
Y02715D02*
G03*
X0309Y02715I-0002J0D01*
G01*
X0445Y03161D02*
G03*
X0445Y03161I-0002J0D01*
G01*
Y02961D02*
G03*
X0445Y02961I-0002J0D01*
G01*
Y02721D02*
G03*
X0445Y02721I-0002J0D01*
G01*
Y02521D02*
G03*
X0445Y02521I-0002J0D01*
G01*
X04445Y02291D02*
G03*
X04445Y02291I-0002J0D01*
G01*
Y02091D02*
G03*
X04445Y02091I-0002J0D01*
G01*
M02*
