M48
;Layer_Color=9474304
;FILE_FORMAT=2:4
INCH,LZ
;TYPE=PLATED
T01F00S00C0.0433
T03F00S00C0.0500
T04F00S00C0.1378
%
T01
X03945Y0316
X04045
T03
X034Y0208
X036
X03875Y0209
X04075
X04425Y02091
Y02291
X0443Y02521
Y02721
Y02961
X0307Y02955
Y02715
Y02515
X03065Y02285
Y02085
X0307Y03155
X0342Y0315
X0362
X0443Y03161
T04
X0462Y0192
X02875
X0288Y0327
X0462
M30
