G04*
G04 #@! TF.GenerationSoftware,Altium Limited,Altium Designer,24.9.1 (31)*
G04*
G04 Layer_Color=128*
%FSTAX25Y25*%
%MOIN*%
G70*
G04*
G04 #@! TF.SameCoordinates,80357BE8-FB89-4C24-BB12-38274DCAA4D6*
G04*
G04*
G04 #@! TF.FilePolarity,Positive*
G04*
G01*
G75*
%ADD26C,0.00500*%
D26*
X0348882Y0244496D02*
X0359118D01*
X0354Y0239378D02*
Y0249614D01*
X0348882Y0263D02*
X0359118D01*
X0354Y0257882D02*
Y0268118D01*
X0348882Y0281504D02*
X0359118D01*
X0354Y0276386D02*
Y0286622D01*
X03395Y0315D02*
X03445D01*
X0342Y03125D02*
Y03175D01*
X03595Y0315D02*
X03645D01*
X0362Y03125D02*
Y03175D01*
X0405Y0209D02*
X041D01*
X04075Y02065D02*
Y02115D01*
X0385Y0209D02*
X039D01*
X03875Y02065D02*
Y02115D01*
X0304Y02085D02*
X0309D01*
X03065Y0206D02*
Y0211D01*
X0304Y02285D02*
X0309D01*
X03065Y0226D02*
Y0231D01*
X03575Y0208D02*
X03625D01*
X036Y02055D02*
Y02105D01*
X03375Y0208D02*
X03425D01*
X034Y02055D02*
Y02105D01*
X03045Y02955D02*
X03095D01*
X0307Y0293D02*
Y0298D01*
X03045Y03155D02*
X03095D01*
X0307Y0313D02*
Y0318D01*
X03045Y02515D02*
X03095D01*
X0307Y0249D02*
Y0254D01*
X03045Y02715D02*
X03095D01*
X0307Y0269D02*
Y0274D01*
X0402335Y0316D02*
X0406665D01*
X04045Y0313835D02*
Y0318165D01*
X0392335Y0316D02*
X0396665D01*
X03945Y0313835D02*
Y0318165D01*
X04405Y03161D02*
X04455D01*
X0443Y03136D02*
Y03186D01*
X04405Y02961D02*
X04455D01*
X0443Y02936D02*
Y02986D01*
X04405Y02721D02*
X04455D01*
X0443Y02696D02*
Y02746D01*
X04405Y02521D02*
X04455D01*
X0443Y02496D02*
Y02546D01*
X044Y02291D02*
X0445D01*
X04425Y02266D02*
Y02316D01*
X044Y02091D02*
X0445D01*
X04425Y02066D02*
Y02116D01*
X028061Y0192D02*
X029439D01*
X02875Y018511D02*
Y019889D01*
X028111Y0327D02*
X029489D01*
X0288Y032011D02*
Y033389D01*
X045511Y0192D02*
X046889D01*
X0462Y018511D02*
Y019889D01*
X045511Y0327D02*
X046889D01*
X0462Y032011D02*
Y033389D01*
M02*
