G04*
G04 #@! TF.GenerationSoftware,Altium Limited,Altium Designer,21.9.2 (33)*
G04*
G04 Layer_Color=2752767*
%FSTAX24Y24*%
%MOIN*%
G70*
G04*
G04 #@! TF.SameCoordinates,B016B879-35A3-4FB3-9991-AC620A3742E7*
G04*
G04*
G04 #@! TF.FilePolarity,Positive*
G04*
G01*
G75*
%ADD51C,0.0020*%
%ADD52C,0.0027*%
%ADD53C,0.0013*%
D51*
X06714Y043471D02*
Y043631D01*
X0673D01*
Y043471D01*
X06714D01*
X06614D02*
Y043631D01*
X0663D01*
Y043471D01*
X06614D01*
X048732Y029164D02*
X048652Y029324D01*
X048812D01*
X048732Y029164D01*
Y025148D02*
X048652Y025308D01*
X048812D01*
X048732Y025148D01*
X046252Y029101D02*
X046172Y029261D01*
X046332D01*
X046252Y029101D01*
Y025085D02*
X046172Y025245D01*
X046332D01*
X046252Y025085D01*
X048701Y035196D02*
X048621Y035356D01*
X048781D01*
X048701Y035196D01*
Y03118D02*
X048621Y03134D01*
X048781D01*
X048701Y03118D01*
X046283Y031282D02*
X046203Y031442D01*
X046363D01*
X046283Y031282D01*
Y035298D02*
X046203Y035458D01*
X046363D01*
X046283Y035298D01*
X048669Y037416D02*
X048589Y037576D01*
X048749D01*
X048669Y037416D01*
Y041432D02*
X048589Y041592D01*
X048749D01*
X048669Y041432D01*
X046063Y037511D02*
X045983Y037671D01*
X046143D01*
X046063Y037511D01*
Y041526D02*
X045983Y041686D01*
X046143D01*
X046063Y041526D01*
X07174Y031251D02*
X07166Y031411D01*
X07182D01*
X07174Y031251D01*
Y027235D02*
X07166Y027395D01*
X07182D01*
X07174Y027235D01*
X057472Y032613D02*
X057392Y032773D01*
X057552D01*
X057472Y032613D01*
Y036629D02*
X057392Y036789D01*
X057552D01*
X057472Y036629D01*
X057457Y03044D02*
X057377Y0306D01*
X057537D01*
X057457Y03044D01*
Y026424D02*
X057377Y026584D01*
X057537D01*
X057457Y026424D01*
X05963Y026322D02*
X05955Y026482D01*
X05971D01*
X05963Y026322D01*
Y030337D02*
X05955Y030497D01*
X05971D01*
X05963Y030337D01*
X054404Y028121D02*
X054444Y028161D01*
X054484D01*
X054444Y028201D01*
X054484Y028241D01*
X054444D01*
X054404Y028281D01*
X054364Y028241D01*
X054324D01*
X054364Y028201D01*
X054324Y028161D01*
X054364D01*
X054404Y028121D01*
X061654Y043471D02*
X061694Y043511D01*
X061734D01*
X061694Y043551D01*
X061734Y043591D01*
X061694D01*
X061654Y043631D01*
X061614Y043591D01*
X061574D01*
X061614Y043551D01*
X061574Y043511D01*
X061614D01*
X061654Y043471D01*
X053524Y025721D02*
X053564Y025801D01*
X053524Y025881D01*
X053604Y025841D01*
X053684Y025881D01*
X053644Y025801D01*
X053684Y025721D01*
X053604Y025761D01*
X053524Y025721D01*
X061974D02*
X062014Y025801D01*
X061974Y025881D01*
X062054Y025841D01*
X062134Y025881D01*
X062094Y025801D01*
X062134Y025721D01*
X062054Y025761D01*
X061974Y025721D01*
X053524Y045771D02*
X053564Y045851D01*
X053524Y045931D01*
X053604Y045891D01*
X053684Y045931D01*
X053644Y045851D01*
X053684Y045771D01*
X053604Y045811D01*
X053524Y045771D01*
X062024D02*
X062064Y045851D01*
X062024Y045931D01*
X062104Y045891D01*
X062184Y045931D01*
X062144Y045851D01*
X062184Y045771D01*
X062104Y045811D01*
X062024Y045771D01*
X070087Y033881D02*
X070007Y034041D01*
X070167D01*
X070087Y033881D01*
X074102D02*
X074022Y034041D01*
X074182D01*
X074102Y033881D01*
X050598Y0194D02*
X050518Y01956D01*
X050678D01*
X050598Y0194D01*
X046583D02*
X046503Y01956D01*
X046663D01*
X046583Y0194D01*
X057882Y022857D02*
X057802Y023017D01*
X057962D01*
X057882Y022857D01*
X061898D02*
X061818Y023017D01*
X061978D01*
X061898Y022857D01*
X063213Y047416D02*
X063133Y047576D01*
X063293D01*
X063213Y047416D01*
X067228D02*
X067148Y047576D01*
X067308D01*
X067228Y047416D01*
X073086Y020338D02*
Y020298D01*
X073166D01*
Y020338D01*
X073206D01*
Y020418D01*
X073166D01*
Y020458D01*
X073086D01*
Y020418D01*
X073046D01*
Y020338D01*
X073086D01*
X064188D02*
Y020298D01*
X064268D01*
Y020338D01*
X064308D01*
Y020418D01*
X064268D01*
Y020458D01*
X064188D01*
Y020418D01*
X064148D01*
Y020338D01*
X064188D01*
X075329Y016747D02*
X075369D01*
X075409Y016787D01*
X075449Y016747D01*
X075489D01*
Y016787D01*
X075449Y016827D01*
X075489Y016867D01*
Y016907D01*
X075449D01*
X075409Y016867D01*
X075369Y016907D01*
X075329D01*
Y016867D01*
X075369Y016827D01*
X075329Y016787D01*
Y016747D01*
Y017747D02*
X075369D01*
X075409Y017787D01*
X075449Y017747D01*
X075489D01*
Y017787D01*
X075449Y017827D01*
X075489Y017867D01*
Y017907D01*
X075449D01*
X075409Y017867D01*
X075369Y017907D01*
X075329D01*
Y017867D01*
X075369Y017827D01*
X075329Y017787D01*
Y017747D01*
X074814Y027913D02*
X074894Y027993D01*
X074974Y027913D01*
X074894Y027833D01*
X074814Y027913D01*
X073814D02*
X073894Y027993D01*
X073974Y027913D01*
X073894Y027833D01*
X073814Y027913D01*
X056024Y021518D02*
X055944Y021678D01*
X056104D01*
X056024Y021518D01*
X052008D02*
X051928Y021678D01*
X052088D01*
X052008Y021518D01*
Y019495D02*
X051928Y019655D01*
X052088D01*
X052008Y019495D01*
X056024D02*
X055944Y019655D01*
X056104D01*
X056024Y019495D01*
X071835Y047471D02*
X071755Y047631D01*
X071915D01*
X071835Y047471D01*
Y043455D02*
X071755Y043615D01*
X071915D01*
X071835Y043455D01*
X040254Y043518D02*
Y043678D01*
X040414D01*
Y043518D01*
X040254D01*
X040294Y043558D02*
Y043638D01*
X040374D01*
Y043558D01*
X040294D01*
X040254Y045518D02*
Y045678D01*
X040414D01*
Y045518D01*
X040254D01*
X040294Y045558D02*
Y045638D01*
X040374D01*
Y045558D01*
X040294D01*
X040254Y044518D02*
Y044678D01*
X040414D01*
Y044518D01*
X040254D01*
X040294Y044558D02*
Y044638D01*
X040374D01*
Y044558D01*
X040294D01*
X040254Y042518D02*
Y042678D01*
X040414D01*
Y042518D01*
X040254D01*
X040294Y042558D02*
Y042638D01*
X040374D01*
Y042558D01*
X040294D01*
X040254Y041518D02*
Y041678D01*
X040414D01*
Y041518D01*
X040254D01*
X040294Y041558D02*
Y041638D01*
X040374D01*
Y041558D01*
X040294D01*
X040254Y040518D02*
Y040678D01*
X040414D01*
Y040518D01*
X040254D01*
X040294Y040558D02*
Y040638D01*
X040374D01*
Y040558D01*
X040294D01*
X050682Y04079D02*
Y04095D01*
X050842D01*
Y04079D01*
X050682D01*
Y04179D02*
Y04195D01*
X050842D01*
Y04179D01*
X050682D01*
Y04379D02*
Y04395D01*
X050842D01*
Y04379D01*
X050682D01*
Y03979D02*
Y03995D01*
X050842D01*
Y03979D01*
X050682D01*
Y04279D02*
Y04295D01*
X050842D01*
Y04279D01*
X050682D01*
Y03879D02*
Y03895D01*
X050842D01*
Y03879D01*
X050682D01*
X044692Y028786D02*
Y028946D01*
X044852D01*
Y028786D01*
X044692D01*
Y024786D02*
Y024946D01*
X044852D01*
Y024786D01*
X044692D01*
Y027786D02*
Y027946D01*
X044852D01*
Y027786D01*
X044692D01*
Y026786D02*
Y026946D01*
X044852D01*
Y026786D01*
X044692D01*
Y025786D02*
Y025946D01*
X044852D01*
Y025786D01*
X044692D01*
Y029786D02*
Y029946D01*
X044852D01*
Y029786D01*
X044692D01*
Y030786D02*
Y030946D01*
X044852D01*
Y030786D01*
X044692D01*
Y032786D02*
Y032946D01*
X044852D01*
Y032786D01*
X044692D01*
Y033786D02*
Y033946D01*
X044852D01*
Y033786D01*
X044692D01*
Y034786D02*
Y034946D01*
X044852D01*
Y034786D01*
X044692D01*
Y031786D02*
Y031946D01*
X044852D01*
Y031786D01*
X044692D01*
Y035786D02*
Y035946D01*
X044852D01*
Y035786D01*
X044692D01*
Y037786D02*
Y037946D01*
X044852D01*
Y037786D01*
X044692D01*
Y043786D02*
Y043946D01*
X044852D01*
Y043786D01*
X044692D01*
Y042786D02*
Y042946D01*
X044852D01*
Y042786D01*
X044692D01*
Y041786D02*
Y041946D01*
X044852D01*
Y041786D01*
X044692D01*
Y040786D02*
Y040946D01*
X044852D01*
Y040786D01*
X044692D01*
Y036786D02*
Y036946D01*
X044852D01*
Y036786D01*
X044692D01*
Y039786D02*
Y039946D01*
X044852D01*
Y039786D01*
X044692D01*
Y038786D02*
Y038946D01*
X044852D01*
Y038786D01*
X044692D01*
X050682Y02879D02*
Y02895D01*
X050842D01*
Y02879D01*
X050682D01*
Y02478D02*
Y02494D01*
X050842D01*
Y02478D01*
X050682D01*
Y02779D02*
Y02795D01*
X050842D01*
Y02779D01*
X050682D01*
Y02679D02*
Y02695D01*
X050842D01*
Y02679D01*
X050682D01*
Y02579D02*
Y02595D01*
X050842D01*
Y02579D01*
X050682D01*
Y02979D02*
Y02995D01*
X050842D01*
Y02979D01*
X050682D01*
Y03479D02*
Y03495D01*
X050842D01*
Y03479D01*
X050682D01*
Y03779D02*
Y03795D01*
X050842D01*
Y03779D01*
X050682D01*
Y03679D02*
Y03695D01*
X050842D01*
Y03679D01*
X050682D01*
Y03579D02*
Y03595D01*
X050842D01*
Y03579D01*
X050682D01*
Y03379D02*
Y03395D01*
X050842D01*
Y03379D01*
X050682D01*
Y03279D02*
Y03295D01*
X050842D01*
Y03279D01*
X050682D01*
Y03179D02*
Y03195D01*
X050842D01*
Y03179D01*
X050682D01*
Y03079D02*
Y03095D01*
X050842D01*
Y03079D01*
X050682D01*
X07477Y031558D02*
Y031718D01*
X07493D01*
Y031558D01*
X07477D01*
X07481Y031598D02*
Y031678D01*
X07489D01*
Y031598D01*
X07481D01*
X07477Y029558D02*
Y029718D01*
X07493D01*
Y029558D01*
X07477D01*
X07481Y029598D02*
Y029678D01*
X07489D01*
Y029598D01*
X07481D01*
X070055Y03981D02*
X069975Y03997D01*
X070135D01*
X070055Y03981D01*
Y035794D02*
X069975Y035954D01*
X070135D01*
X070055Y035794D01*
X072904Y024744D02*
X072984Y024824D01*
X073064Y024744D01*
X072984Y024664D01*
X072904Y024744D01*
Y023744D02*
X072984Y023824D01*
X073064Y023744D01*
X072984Y023664D01*
X072904Y023744D01*
X041568Y025081D02*
Y025241D01*
X041728D01*
Y025081D01*
X041568D01*
X041518Y023881D02*
Y024041D01*
X041678D01*
Y023881D01*
X041518D01*
X041568Y022681D02*
Y022841D01*
X041728D01*
Y022681D01*
X041568D01*
X069142Y017833D02*
X069062Y017993D01*
X069222D01*
X069142Y017833D01*
X065126D02*
X065046Y017993D01*
X065206D01*
X065126Y017833D01*
X065446Y015587D02*
Y015747D01*
X065606D01*
Y015587D01*
X065446D01*
X065486Y015627D02*
Y015707D01*
X065566D01*
Y015627D01*
X065486D01*
X063446Y015587D02*
Y015747D01*
X063606D01*
Y015587D01*
X063446D01*
X063486Y015627D02*
Y015707D01*
X063566D01*
Y015627D01*
X063486D01*
X062446Y015587D02*
Y015747D01*
X062606D01*
Y015587D01*
X062446D01*
X062486Y015627D02*
Y015707D01*
X062566D01*
Y015627D01*
X062486D01*
X064446Y015587D02*
Y015747D01*
X064606D01*
Y015587D01*
X064446D01*
X064486Y015627D02*
Y015707D01*
X064566D01*
Y015627D01*
X064486D01*
X071196Y015687D02*
Y015847D01*
X071356D01*
Y015687D01*
X071196D01*
X071236Y015727D02*
Y015807D01*
X071316D01*
Y015727D01*
X071236D01*
X069196Y015687D02*
Y015847D01*
X069356D01*
Y015687D01*
X069196D01*
X069236Y015727D02*
Y015807D01*
X069316D01*
Y015727D01*
X069236D01*
X068196Y015687D02*
Y015847D01*
X068356D01*
Y015687D01*
X068196D01*
X068236Y015727D02*
Y015807D01*
X068316D01*
Y015727D01*
X068236D01*
X070196Y015687D02*
Y015847D01*
X070356D01*
Y015687D01*
X070196D01*
X070236Y015727D02*
Y015807D01*
X070316D01*
Y015727D01*
X070236D01*
X039874Y014778D02*
X039914Y014818D01*
X039954D01*
X039914Y014858D01*
X039954Y014898D01*
X039914D01*
X039874Y014938D01*
X039834Y014898D01*
X039794D01*
X039834Y014858D01*
X039794Y014818D01*
X039834D01*
X039874Y014778D01*
X040337Y030369D02*
Y030529D01*
X040497D01*
Y030369D01*
X040337D01*
X040377Y030409D02*
Y030489D01*
X040457D01*
Y030409D01*
X040377D01*
X040337Y031369D02*
Y031529D01*
X040497D01*
Y031369D01*
X040337D01*
X040377Y031409D02*
Y031489D01*
X040457D01*
Y031409D01*
X040377D01*
X040337Y032369D02*
Y032529D01*
X040497D01*
Y032369D01*
X040337D01*
X040377Y032409D02*
Y032489D01*
X040457D01*
Y032409D01*
X040377D01*
X040337Y034369D02*
Y034529D01*
X040497D01*
Y034369D01*
X040337D01*
X040377Y034409D02*
Y034489D01*
X040457D01*
Y034409D01*
X040377D01*
X040337Y035369D02*
Y035529D01*
X040497D01*
Y035369D01*
X040337D01*
X040377Y035409D02*
Y035489D01*
X040457D01*
Y035409D01*
X040377D01*
X040337Y033369D02*
Y033529D01*
X040497D01*
Y033369D01*
X040337D01*
X040377Y033409D02*
Y033489D01*
X040457D01*
Y033409D01*
X040377D01*
X051796Y015637D02*
Y015797D01*
X051956D01*
Y015637D01*
X051796D01*
X051836Y015677D02*
Y015757D01*
X051916D01*
Y015677D01*
X051836D01*
X050796Y015637D02*
Y015797D01*
X050956D01*
Y015637D01*
X050796D01*
X050836Y015677D02*
Y015757D01*
X050916D01*
Y015677D01*
X050836D01*
X049796Y015637D02*
Y015797D01*
X049956D01*
Y015637D01*
X049796D01*
X049836Y015677D02*
Y015757D01*
X049916D01*
Y015677D01*
X049836D01*
X047796Y015637D02*
Y015797D01*
X047956D01*
Y015637D01*
X047796D01*
X047836Y015677D02*
Y015757D01*
X047916D01*
Y015677D01*
X047836D01*
X046796Y015637D02*
Y015797D01*
X046956D01*
Y015637D01*
X046796D01*
X046836Y015677D02*
Y015757D01*
X046916D01*
Y015677D01*
X046836D01*
X048796Y015637D02*
Y015797D01*
X048956D01*
Y015637D01*
X048796D01*
X048836Y015677D02*
Y015757D01*
X048916D01*
Y015677D01*
X048836D01*
X039882Y049424D02*
X039922Y049464D01*
X039962D01*
X039922Y049504D01*
X039962Y049544D01*
X039922D01*
X039882Y049584D01*
X039842Y049544D01*
X039802D01*
X039842Y049504D01*
X039802Y049464D01*
X039842D01*
X039882Y049424D01*
X07125Y023503D02*
X07129Y023543D01*
X07133D01*
X07129Y023583D01*
X07133Y023623D01*
X07129D01*
X07125Y023663D01*
X07121Y023623D01*
X07117D01*
X07121Y023583D01*
X07117Y023543D01*
X07121D01*
X07125Y023503D01*
X06426Y031511D02*
X0643Y031551D01*
X06434D01*
X0643Y031591D01*
X06434Y031631D01*
X0643D01*
X06426Y031671D01*
X06422Y031631D01*
X06418D01*
X06422Y031591D01*
X06418Y031551D01*
X06422D01*
X06426Y031511D01*
X074504Y01481D02*
X074544Y01485D01*
X074584D01*
X074544Y01489D01*
X074584Y01493D01*
X074544D01*
X074504Y01497D01*
X074464Y01493D01*
X074424D01*
X074464Y01489D01*
X074424Y01485D01*
X074464D01*
X074504Y01481D01*
X074535Y049448D02*
X074575Y049488D01*
X074615D01*
X074575Y049528D01*
X074615Y049568D01*
X074575D01*
X074535Y049608D01*
X074495Y049568D01*
X074455D01*
X074495Y049528D01*
X074455Y049488D01*
X074495D01*
X074535Y049448D01*
X068197Y041392D02*
X068237Y041432D01*
X068277D01*
X068237Y041472D01*
X068277Y041512D01*
X068237D01*
X068197Y041552D01*
X068157Y041512D01*
X068117D01*
X068157Y041472D01*
X068117Y041432D01*
X068157D01*
X068197Y041392D01*
Y035211D02*
X068237Y035251D01*
X068277D01*
X068237Y035291D01*
X068277Y035331D01*
X068237D01*
X068197Y035371D01*
X068157Y035331D01*
X068117D01*
X068157Y035291D01*
X068117Y035251D01*
X068157D01*
X068197Y035211D01*
X064043Y034841D02*
X064123Y034921D01*
X064203Y034841D01*
X064123Y034761D01*
X064043Y034841D01*
Y035841D02*
X064123Y035921D01*
X064203Y035841D01*
X064123Y035761D01*
X064043Y035841D01*
Y036841D02*
X064123Y036921D01*
X064203Y036841D01*
X064123Y036761D01*
X064043Y036841D01*
Y037841D02*
X064123Y037921D01*
X064203Y037841D01*
X064123Y037761D01*
X064043Y037841D01*
Y038841D02*
X064123Y038921D01*
X064203Y038841D01*
X064123Y038761D01*
X064043Y038841D01*
Y039841D02*
X064123Y039921D01*
X064203Y039841D01*
X064123Y039761D01*
X064043Y039841D01*
Y040841D02*
X064123Y040921D01*
X064203Y040841D01*
X064123Y040761D01*
X064043Y040841D01*
Y041841D02*
X064123Y041921D01*
X064203Y041841D01*
X064123Y041761D01*
X064043Y041841D01*
X044826Y015377D02*
X044865D01*
X044906Y015417D01*
X044946Y015377D01*
X044985D01*
Y015417D01*
X044946Y015457D01*
X044985Y015497D01*
Y015537D01*
X044946D01*
X044906Y015497D01*
X044865Y015537D01*
X044826D01*
Y015497D01*
X044865Y015457D01*
X044826Y015417D01*
Y015377D01*
X070215Y027972D02*
X070295Y028052D01*
X070375Y027972D01*
X070295Y027892D01*
X070215Y027972D01*
Y027122D02*
X070295Y027202D01*
X070375Y027122D01*
X070295Y027042D01*
X070215Y027122D01*
X064415Y029842D02*
Y030002D01*
X064575D01*
Y029842D01*
X064415D01*
X064455Y029882D02*
Y029962D01*
X064535D01*
Y029882D01*
X064455D01*
X064415Y028842D02*
Y029002D01*
X064575D01*
Y028842D01*
X064415D01*
X064455Y028882D02*
Y028962D01*
X064535D01*
Y028882D01*
X064455D01*
X064415Y027842D02*
Y028002D01*
X064575D01*
Y027842D01*
X064415D01*
X064455Y027882D02*
Y027962D01*
X064535D01*
Y027882D01*
X064455D01*
X064415Y026842D02*
Y027002D01*
X064575D01*
Y026842D01*
X064415D01*
X064455Y026882D02*
Y026962D01*
X064535D01*
Y026882D01*
X064455D01*
X064415Y025842D02*
Y026002D01*
X064575D01*
Y025842D01*
X064415D01*
X064455Y025882D02*
Y025962D01*
X064535D01*
Y025882D01*
X064455D01*
X064415Y024842D02*
Y025002D01*
X064575D01*
Y024842D01*
X064415D01*
X064455Y024882D02*
Y024962D01*
X064535D01*
Y024882D01*
X064455D01*
X073298Y038763D02*
Y038923D01*
X073458D01*
Y038763D01*
X073298D01*
X073338Y038803D02*
Y038883D01*
X073418D01*
Y038803D01*
X073338D01*
X073298Y036763D02*
Y036923D01*
X073458D01*
Y036763D01*
X073298D01*
X073338Y036803D02*
Y036883D01*
X073418D01*
Y036803D01*
X073338D01*
X073298Y037763D02*
Y037923D01*
X073458D01*
Y037763D01*
X073298D01*
X073338Y037803D02*
Y037883D01*
X073418D01*
Y037803D01*
X073338D01*
X073298Y039763D02*
Y039923D01*
X073458D01*
Y039763D01*
X073298D01*
X073338Y039803D02*
Y039883D01*
X073418D01*
Y039803D01*
X073338D01*
X073298Y040763D02*
Y040923D01*
X073458D01*
Y040763D01*
X073298D01*
X073338Y040803D02*
Y040883D01*
X073418D01*
Y040803D01*
X073338D01*
X073298Y041763D02*
Y041923D01*
X073458D01*
Y041763D01*
X073298D01*
X073338Y041803D02*
Y041883D01*
X073418D01*
Y041803D01*
X073338D01*
X056496Y015637D02*
Y015797D01*
X056656D01*
Y015637D01*
X056496D01*
X056536Y015677D02*
Y015757D01*
X056616D01*
Y015677D01*
X056536D01*
X054496Y015637D02*
Y015797D01*
X054656D01*
Y015637D01*
X054496D01*
X054536Y015677D02*
Y015757D01*
X054616D01*
Y015677D01*
X054536D01*
X055496Y015637D02*
Y015797D01*
X055656D01*
Y015637D01*
X055496D01*
X055536Y015677D02*
Y015757D01*
X055616D01*
Y015677D01*
X055536D01*
X057496Y015637D02*
Y015797D01*
X057656D01*
Y015637D01*
X057496D01*
X057536Y015677D02*
Y015757D01*
X057616D01*
Y015677D01*
X057536D01*
X058496Y015637D02*
Y015797D01*
X058656D01*
Y015637D01*
X058496D01*
X058536Y015677D02*
Y015757D01*
X058616D01*
Y015677D01*
X058536D01*
X059496Y015637D02*
Y015797D01*
X059656D01*
Y015637D01*
X059496D01*
X059536Y015677D02*
Y015757D01*
X059616D01*
Y015677D01*
X059536D01*
X074471Y045826D02*
Y045985D01*
X074631D01*
Y045826D01*
X074471D01*
X074511Y045866D02*
Y045946D01*
X074591D01*
Y045866D01*
X074511D01*
X074471Y046825D02*
Y046986D01*
X074631D01*
Y046825D01*
X074471D01*
X074511Y046866D02*
Y046946D01*
X074591D01*
Y046866D01*
X074511D01*
X074833Y02577D02*
Y02593D01*
X074993D01*
Y02577D01*
X074833D01*
X074873Y02581D02*
Y02589D01*
X074953D01*
Y02581D01*
X074873D01*
X074833Y02377D02*
Y02393D01*
X074993D01*
Y02377D01*
X074833D01*
X074873Y02381D02*
Y02389D01*
X074953D01*
Y02381D01*
X074873D01*
X057346Y018479D02*
X057266Y018639D01*
X057426D01*
X057346Y018479D01*
Y018519D02*
X057306Y018599D01*
X057386D01*
X057346Y018519D01*
X059078Y02189D02*
X058998Y02205D01*
X059158D01*
X059078Y02189D01*
Y02193D02*
X059038Y02201D01*
X059118D01*
X059078Y02193D01*
X0566Y027851D02*
X05652Y028011D01*
X05668D01*
X0566Y027851D01*
Y027891D02*
X05656Y027971D01*
X05664D01*
X0566Y027891D01*
X04719Y04497D02*
X04711Y04513D01*
X04727D01*
X04719Y04497D01*
Y04501D02*
X04715Y04509D01*
X04723D01*
X04719Y04501D01*
X04788Y03664D02*
X0478Y0368D01*
X04796D01*
X04788Y03664D01*
Y03668D02*
X04784Y03676D01*
X04792D01*
X04788Y03668D01*
X0672Y026842D02*
X06712Y027002D01*
X06728D01*
X0672Y026842D01*
Y026882D02*
X06716Y026962D01*
X06724D01*
X0672Y026882D01*
X05204Y02215D02*
X05196Y02231D01*
X05212D01*
X05204Y02215D01*
Y02219D02*
X052Y02227D01*
X05208D01*
X05204Y02219D01*
X04387Y04892D02*
X04379Y04908D01*
X04395D01*
X04387Y04892D01*
Y04896D02*
X04383Y04904D01*
X04391D01*
X04387Y04896D01*
X060678Y0198D02*
X060598Y01996D01*
X060758D01*
X060678Y0198D01*
Y01984D02*
X060638Y01992D01*
X060718D01*
X060678Y01984D01*
X05136Y02184D02*
X05128Y022D01*
X05144D01*
X05136Y02184D01*
Y02188D02*
X05132Y02196D01*
X0514D01*
X05136Y02188D01*
X04739Y02214D02*
X04731Y0223D01*
X04747D01*
X04739Y02214D01*
Y02218D02*
X04735Y02226D01*
X04743D01*
X04739Y02218D01*
Y02486D02*
X04731Y02502D01*
X04747D01*
X04739Y02486D01*
Y0249D02*
X04735Y02498D01*
X04743D01*
X04739Y0249D01*
X06477Y03621D02*
X06469Y03637D01*
X06485D01*
X06477Y03621D01*
Y03625D02*
X06473Y03633D01*
X06481D01*
X06477Y03625D01*
X06623Y03331D02*
X06615Y03347D01*
X06631D01*
X06623Y03331D01*
Y03335D02*
X06619Y03343D01*
X06627D01*
X06623Y03335D01*
X06668Y02903D02*
X0666Y02919D01*
X06676D01*
X06668Y02903D01*
Y02907D02*
X06664Y02915D01*
X06672D01*
X06668Y02907D01*
X06081Y02908D02*
X06073Y02924D01*
X06089D01*
X06081Y02908D01*
Y02912D02*
X06077Y0292D01*
X06085D01*
X06081Y02912D01*
X04301Y03674D02*
X04293Y0369D01*
X04309D01*
X04301Y03674D01*
Y03678D02*
X04297Y03686D01*
X04305D01*
X04301Y03678D01*
X05349Y03926D02*
X05341Y03942D01*
X05357D01*
X05349Y03926D01*
Y0393D02*
X05345Y03938D01*
X05353D01*
X05349Y0393D01*
D52*
X069506Y045575D02*
G03*
X069506Y045575I-00008J0D01*
G01*
X070506D02*
G03*
X070506Y045575I-00008J0D01*
G01*
X067432Y045622D02*
G03*
X067432Y045622I-00008J0D01*
G01*
X068432D02*
G03*
X068432Y045622I-00008J0D01*
G01*
X066432D02*
G03*
X066432Y045622I-00008J0D01*
G01*
X065432D02*
G03*
X065432Y045622I-00008J0D01*
G01*
X041678Y021511D02*
G03*
X041678Y021511I-00008J0D01*
G01*
X041728Y026411D02*
G03*
X041728Y026411I-00008J0D01*
G01*
D53*
X041638Y021511D02*
G03*
X041638Y021511I-00004J0D01*
G01*
X041688Y026411D02*
G03*
X041688Y026411I-00004J0D01*
G01*
M02*
