G04*
G04 #@! TF.GenerationSoftware,Altium Limited,Altium Designer,24.9.1 (31)*
G04*
G04 Layer_Color=2752767*
%FSTAX43Y43*%
%MOMM*%
G71*
G04*
G04 #@! TF.SameCoordinates,CBCBAFD4-78DD-4E97-AB5F-6E03977E6BC7*
G04*
G04*
G04 #@! TF.FilePolarity,Positive*
G04*
G01*
G75*
%ADD53C,0.051*%
%ADD54C,0.068*%
%ADD55C,0.034*%
D53*
X012718Y0124317D02*
X0126977Y0124723D01*
X0127383D01*
X012718Y0124317D01*
Y0126857D02*
X0126977Y0127263D01*
X0127383D01*
X012718Y0126857D01*
X0134777Y0058487D02*
Y0058893D01*
X0135183D01*
Y0058487D01*
X0134777D01*
X0134878Y0058588D02*
Y0058792D01*
X0135082D01*
Y0058588D01*
X0134878D01*
X0134777Y0055947D02*
Y0056353D01*
X0135183D01*
Y0055947D01*
X0134777D01*
X0134878Y0056048D02*
Y0056252D01*
X0135082D01*
Y0056048D01*
X0134878D01*
X0134777Y0053407D02*
Y0053813D01*
X0135183D01*
Y0053407D01*
X0134777D01*
X0134878Y0053508D02*
Y0053712D01*
X0135082D01*
Y0053508D01*
X0134878D01*
X0134777Y0050867D02*
Y0051273D01*
X0135183D01*
Y0050867D01*
X0134777D01*
X0134878Y0050968D02*
Y0051172D01*
X0135082D01*
Y0050968D01*
X0134878D01*
X0188667Y0096747D02*
Y0097153D01*
X0189073D01*
Y0096747D01*
X0188667D01*
X0130887Y0109597D02*
Y0110003D01*
X0131293D01*
Y0109597D01*
X0130887D01*
Y0096747D02*
Y0097153D01*
X0131293D01*
Y0096747D01*
X0130887D01*
X0188547Y0109597D02*
Y0110003D01*
X0188953D01*
Y0109597D01*
X0188547D01*
X0173276Y0125064D02*
X0173073Y012547D01*
X0173479D01*
X0173276Y0125064D01*
Y0125165D02*
X0173174Y0125369D01*
X0173378D01*
X0173276Y0125165D01*
X0170025Y0125064D02*
X0170126Y0125267D01*
X0170025Y012547D01*
X0170228Y0125369D01*
X0170431Y012547D01*
X017033Y0125267D01*
X0170431Y0125064D01*
X0170228Y0125165D01*
X0170025Y0125064D01*
X0170126Y0125165D02*
X0170177Y0125267D01*
X0170126Y0125369D01*
X0170228Y0125318D01*
X017033Y0125369D01*
X0170279Y0125267D01*
X017033Y0125165D01*
X0170228Y0125216D01*
X0170126Y0125165D01*
X0166977Y0124937D02*
X0167078Y012514D01*
X0166977Y0125343D01*
X016718Y0125242D01*
X0167383Y0125343D01*
X0167282Y012514D01*
X0167383Y0124937D01*
X016718Y0125038D01*
X0166977Y0124937D01*
X0167078Y0125038D02*
X0167129Y012514D01*
X0167078Y0125242D01*
X016718Y0125191D01*
X0167282Y0125242D01*
X0167231Y012514D01*
X0167282Y0125038D01*
X016718Y0125089D01*
X0167078Y0125038D01*
X0163929Y0124937D02*
X016403Y012514D01*
X0163929Y0125343D01*
X0164132Y0125242D01*
X0164335Y0125343D01*
X0164234Y012514D01*
X0164335Y0124937D01*
X0164132Y0125038D01*
X0163929Y0124937D01*
X016403Y0125038D02*
X0164081Y012514D01*
X016403Y0125242D01*
X0164132Y0125191D01*
X0164234Y0125242D01*
X0164183Y012514D01*
X0164234Y0125038D01*
X0164132Y0125089D01*
X016403Y0125038D01*
X0161084Y0124937D02*
X0160881Y0125343D01*
X0161287D01*
X0161084Y0124937D01*
Y0125038D02*
X0160982Y0125242D01*
X0161186D01*
X0161084Y0125038D01*
X018476Y0124517D02*
X0184862Y0124618D01*
X0184963D01*
X0184862Y012472D01*
X0184963Y0124822D01*
X0184862D01*
X018476Y0124923D01*
X0184658Y0124822D01*
X0184557D01*
X0184658Y012472D01*
X0184557Y0124618D01*
X0184658D01*
X018476Y0124517D01*
X017968D02*
X0179782Y0124618D01*
X0179883D01*
X0179782Y012472D01*
X0179883Y0124822D01*
X0179782D01*
X017968Y0124923D01*
X0179578Y0124822D01*
X0179477D01*
X0179578Y012472D01*
X0179477Y0124618D01*
X0179578D01*
X017968Y0124517D01*
X01557Y0076737D02*
X0155802Y0076838D01*
X0155903D01*
X0155802Y007694D01*
X0155903Y0077042D01*
X0155802D01*
X01557Y0077143D01*
X0155598Y0077042D01*
X0155497D01*
X0155598Y007694D01*
X0155497Y0076838D01*
X0155598D01*
X01557Y0076737D01*
Y0076838D02*
X0155751Y0076889D01*
X0155802D01*
X0155751Y007694D01*
X0155802Y0076991D01*
X0155751D01*
X01557Y0077042D01*
X0155649Y0076991D01*
X0155598D01*
X0155649Y007694D01*
X0155598Y0076889D01*
X0155649D01*
X01557Y0076838D01*
X0156838Y0066578D02*
Y0066477D01*
X0157042D01*
Y0066578D01*
X0157143D01*
Y0066782D01*
X0157042D01*
Y0066883D01*
X0156838D01*
Y0066782D01*
X0156737D01*
Y0066578D01*
X0156838D01*
X0154298D02*
Y0066477D01*
X0154502D01*
Y0066578D01*
X0154603D01*
Y0066782D01*
X0154502D01*
Y0066883D01*
X0154298D01*
Y0066782D01*
X0154197D01*
Y0066578D01*
X0154298D01*
X0151758D02*
Y0066477D01*
X0151962D01*
Y0066578D01*
X0152063D01*
Y0066782D01*
X0151962D01*
Y0066883D01*
X0151758D01*
Y0066782D01*
X0151657D01*
Y0066578D01*
X0151758D01*
X0149218D02*
Y0066477D01*
X0149422D01*
Y0066578D01*
X0149523D01*
Y0066782D01*
X0149422D01*
Y0066883D01*
X0149218D01*
Y0066782D01*
X0149117D01*
Y0066578D01*
X0149218D01*
X0146678D02*
Y0066477D01*
X0146882D01*
Y0066578D01*
X0146983D01*
Y0066782D01*
X0146882D01*
Y0066883D01*
X0146678D01*
Y0066782D01*
X0146577D01*
Y0066578D01*
X0146678D01*
X0144138D02*
Y0066477D01*
X0144342D01*
Y0066578D01*
X0144443D01*
Y0066782D01*
X0144342D01*
Y0066883D01*
X0144138D01*
Y0066782D01*
X0144037D01*
Y0066578D01*
X0144138D01*
X0141598D02*
Y0066477D01*
X0141802D01*
Y0066578D01*
X0141903D01*
Y0066782D01*
X0141802D01*
Y0066883D01*
X0141598D01*
Y0066782D01*
X0141497D01*
Y0066578D01*
X0141598D01*
X0139058D02*
Y0066477D01*
X0139262D01*
Y0066578D01*
X0139363D01*
Y0066782D01*
X0139262D01*
Y0066883D01*
X0139058D01*
Y0066782D01*
X0138957D01*
Y0066578D01*
X0139058D01*
X0183957Y0063949D02*
X0184058D01*
X018416Y006405D01*
X0184262Y0063949D01*
X0184363D01*
Y006405D01*
X0184262Y0064152D01*
X0184363Y0064254D01*
Y0064355D01*
X0184262D01*
X018416Y0064254D01*
X0184058Y0064355D01*
X0183957D01*
Y0064254D01*
X0184058Y0064152D01*
X0183957Y006405D01*
Y0063949D01*
X0181417D02*
X0181518D01*
X018162Y006405D01*
X0181722Y0063949D01*
X0181823D01*
Y006405D01*
X0181722Y0064152D01*
X0181823Y0064254D01*
Y0064355D01*
X0181722D01*
X018162Y0064254D01*
X0181518Y0064355D01*
X0181417D01*
Y0064254D01*
X0181518Y0064152D01*
X0181417Y006405D01*
Y0063949D01*
X0178877D02*
X0178978D01*
X017908Y006405D01*
X0179182Y0063949D01*
X0179283D01*
Y006405D01*
X0179182Y0064152D01*
X0179283Y0064254D01*
Y0064355D01*
X0179182D01*
X017908Y0064254D01*
X0178978Y0064355D01*
X0178877D01*
Y0064254D01*
X0178978Y0064152D01*
X0178877Y006405D01*
Y0063949D01*
X0176337D02*
X0176438D01*
X017654Y006405D01*
X0176642Y0063949D01*
X0176743D01*
Y006405D01*
X0176642Y0064152D01*
X0176743Y0064254D01*
Y0064355D01*
X0176642D01*
X017654Y0064254D01*
X0176438Y0064355D01*
X0176337D01*
Y0064254D01*
X0176438Y0064152D01*
X0176337Y006405D01*
Y0063949D01*
X0173797D02*
X0173898D01*
X0174Y006405D01*
X0174102Y0063949D01*
X0174203D01*
Y006405D01*
X0174102Y0064152D01*
X0174203Y0064254D01*
Y0064355D01*
X0174102D01*
X0174Y0064254D01*
X0173898Y0064355D01*
X0173797D01*
Y0064254D01*
X0173898Y0064152D01*
X0173797Y006405D01*
Y0063949D01*
X0171257D02*
X0171358D01*
X017146Y006405D01*
X0171562Y0063949D01*
X0171663D01*
Y006405D01*
X0171562Y0064152D01*
X0171663Y0064254D01*
Y0064355D01*
X0171562D01*
X017146Y0064254D01*
X0171358Y0064355D01*
X0171257D01*
Y0064254D01*
X0171358Y0064152D01*
X0171257Y006405D01*
Y0063949D01*
X0178978Y0079798D02*
Y0079697D01*
X0179182D01*
Y0079798D01*
X0179283D01*
Y0080002D01*
X0179182D01*
Y0080103D01*
X0178978D01*
Y0080002D01*
X0178877D01*
Y0079798D01*
X0178978D01*
X0175549D02*
Y0079697D01*
X0175753D01*
Y0079798D01*
X0175854D01*
Y0080002D01*
X0175753D01*
Y0080103D01*
X0175549D01*
Y0080002D01*
X0175448D01*
Y0079798D01*
X0175549D01*
X0119868Y0083774D02*
X0119665Y008418D01*
X0120071D01*
X0119868Y0083774D01*
Y0086314D02*
X0119665Y008672D01*
X0120071D01*
X0119868Y0086314D01*
Y0088854D02*
X0119665Y008926D01*
X0120071D01*
X0119868Y0088854D01*
Y0091394D02*
X0119665Y00918D01*
X0120071D01*
X0119868Y0091394D01*
Y0096474D02*
X0119665Y009688D01*
X0120071D01*
X0119868Y0096474D01*
Y0099014D02*
X0119665Y009942D01*
X0120071D01*
X0119868Y0099014D01*
Y0101554D02*
X0119665Y010196D01*
X0120071D01*
X0119868Y0101554D01*
Y0093934D02*
X0119665Y009434D01*
X0120071D01*
X0119868Y0093934D01*
Y0081234D02*
X0119665Y008164D01*
X0120071D01*
X0119868Y0081234D01*
Y0071074D02*
X0119665Y007148D01*
X0120071D01*
X0119868Y0071074D01*
Y0073614D02*
X0119665Y007402D01*
X0120071D01*
X0119868Y0073614D01*
Y0076154D02*
X0119665Y007656D01*
X0120071D01*
X0119868Y0076154D01*
Y0068508D02*
X0119665Y0068915D01*
X0120071D01*
X0119868Y0068508D01*
Y0078694D02*
X0119665Y00791D01*
X0120071D01*
X0119868Y0078694D01*
X0104654Y0104083D02*
X010445Y0104489D01*
X0104857D01*
X0104654Y0104083D01*
Y0106623D02*
X010445Y0107029D01*
X0104857D01*
X0104654Y0106623D01*
Y0099003D02*
X010445Y0099409D01*
X0104857D01*
X0104654Y0099003D01*
Y0109163D02*
X010445Y0109569D01*
X0104857D01*
X0104654Y0109163D01*
Y0111703D02*
X010445Y0112109D01*
X0104857D01*
X0104654Y0111703D01*
Y0114243D02*
X010445Y0114649D01*
X0104857D01*
X0104654Y0114243D01*
Y0116783D02*
X010445Y0117189D01*
X0104857D01*
X0104654Y0116783D01*
Y0101543D02*
X010445Y0101949D01*
X0104857D01*
X0104654Y0101543D01*
Y0096463D02*
X010445Y0096869D01*
X0104857D01*
X0104654Y0096463D01*
Y0086303D02*
X010445Y0086709D01*
X0104857D01*
X0104654Y0086303D01*
Y0093923D02*
X010445Y0094329D01*
X0104857D01*
X0104654Y0093923D01*
Y0091383D02*
X010445Y0091789D01*
X0104857D01*
X0104654Y0091383D01*
Y0088843D02*
X010445Y0089249D01*
X0104857D01*
X0104654Y0088843D01*
Y0083763D02*
X010445Y0084169D01*
X0104857D01*
X0104654Y0083763D01*
Y0081223D02*
X010445Y0081629D01*
X0104857D01*
X0104654Y0081223D01*
Y0071063D02*
X010445Y0071469D01*
X0104857D01*
X0104654Y0071063D01*
Y0073603D02*
X010445Y0074009D01*
X0104857D01*
X0104654Y0073603D01*
Y0076143D02*
X010445Y0076549D01*
X0104857D01*
X0104654Y0076143D01*
Y0068523D02*
X010445Y0068929D01*
X0104857D01*
X0104654Y0068523D01*
Y0078683D02*
X010445Y0079089D01*
X0104857D01*
X0104654Y0078683D01*
X0119868Y0104094D02*
X0119665Y01045D01*
X0120071D01*
X0119868Y0104094D01*
Y0114254D02*
X0119665Y011466D01*
X0120071D01*
X0119868Y0114254D01*
Y0106634D02*
X0119665Y010704D01*
X0120071D01*
X0119868Y0106634D01*
Y0116794D02*
X0119665Y01172D01*
X0120071D01*
X0119868Y0116794D01*
Y0111714D02*
X0119665Y011212D01*
X0120071D01*
X0119868Y0111714D01*
Y0109174D02*
X0119665Y010958D01*
X0120071D01*
X0119868Y0109174D01*
X0176457Y0050977D02*
X0176558D01*
X017666Y0051078D01*
X0176762Y0050977D01*
X0176863D01*
Y0051078D01*
X0176762Y005118D01*
X0176863Y0051282D01*
Y0051383D01*
X0176762D01*
X017666Y0051282D01*
X0176558Y0051383D01*
X0176457D01*
Y0051282D01*
X0176558Y005118D01*
X0176457Y0051078D01*
Y0050977D01*
X0171377D02*
X0171478D01*
X017158Y0051078D01*
X0171682Y0050977D01*
X0171783D01*
Y0051078D01*
X0171682Y005118D01*
X0171783Y0051282D01*
Y0051383D01*
X0171682D01*
X017158Y0051282D01*
X0171478Y0051383D01*
X0171377D01*
Y0051282D01*
X0171478Y005118D01*
X0171377Y0051078D01*
Y0050977D01*
X0173917D02*
X0174018D01*
X017412Y0051078D01*
X0174222Y0050977D01*
X0174323D01*
Y0051078D01*
X0174222Y005118D01*
X0174323Y0051282D01*
Y0051383D01*
X0174222D01*
X017412Y0051282D01*
X0174018Y0051383D01*
X0173917D01*
Y0051282D01*
X0174018Y005118D01*
X0173917Y0051078D01*
Y0050977D01*
X0178997D02*
X0179098D01*
X01792Y0051078D01*
X0179302Y0050977D01*
X0179403D01*
Y0051078D01*
X0179302Y005118D01*
X0179403Y0051282D01*
Y0051383D01*
X0179302D01*
X01792Y0051282D01*
X0179098Y0051383D01*
X0178997D01*
Y0051282D01*
X0179098Y005118D01*
X0178997Y0051078D01*
Y0050977D01*
X0181537D02*
X0181638D01*
X018174Y0051078D01*
X0181842Y0050977D01*
X0181943D01*
Y0051078D01*
X0181842Y005118D01*
X0181943Y0051282D01*
Y0051383D01*
X0181842D01*
X018174Y0051282D01*
X0181638Y0051383D01*
X0181537D01*
Y0051282D01*
X0181638Y005118D01*
X0181537Y0051078D01*
Y0050977D01*
X0184077D02*
X0184178D01*
X018428Y0051078D01*
X0184382Y0050977D01*
X0184483D01*
Y0051078D01*
X0184382Y005118D01*
X0184483Y0051282D01*
Y0051383D01*
X0184382D01*
X018428Y0051282D01*
X0184178Y0051383D01*
X0184077D01*
Y0051282D01*
X0184178Y005118D01*
X0184077Y0051078D01*
Y0050977D01*
X0155817Y0125137D02*
X0155918Y012534D01*
X0155817Y0125543D01*
X015602Y0125442D01*
X0156223Y0125543D01*
X0156122Y012534D01*
X0156223Y0125137D01*
X015602Y0125238D01*
X0155817Y0125137D01*
X0133217D02*
X0133318Y012534D01*
X0133217Y0125543D01*
X013342Y0125442D01*
X0133623Y0125543D01*
X0133522Y012534D01*
X0133623Y0125137D01*
X013342Y0125238D01*
X0133217Y0125137D01*
X0163277Y0051057D02*
X0163378D01*
X016348Y0051158D01*
X0163582Y0051057D01*
X0163683D01*
Y0051158D01*
X0163582Y005126D01*
X0163683Y0051362D01*
Y0051463D01*
X0163582D01*
X016348Y0051362D01*
X0163378Y0051463D01*
X0163277D01*
Y0051362D01*
X0163378Y005126D01*
X0163277Y0051158D01*
Y0051057D01*
X0160737D02*
X0160838D01*
X016094Y0051158D01*
X0161042Y0051057D01*
X0161143D01*
Y0051158D01*
X0161042Y005126D01*
X0161143Y0051362D01*
Y0051463D01*
X0161042D01*
X016094Y0051362D01*
X0160838Y0051463D01*
X0160737D01*
Y0051362D01*
X0160838Y005126D01*
X0160737Y0051158D01*
Y0051057D01*
X0158197D02*
X0158298D01*
X01584Y0051158D01*
X0158502Y0051057D01*
X0158603D01*
Y0051158D01*
X0158502Y005126D01*
X0158603Y0051362D01*
Y0051463D01*
X0158502D01*
X01584Y0051362D01*
X0158298Y0051463D01*
X0158197D01*
Y0051362D01*
X0158298Y005126D01*
X0158197Y0051158D01*
Y0051057D01*
X0153117D02*
X0153218D01*
X015332Y0051158D01*
X0153422Y0051057D01*
X0153523D01*
Y0051158D01*
X0153422Y005126D01*
X0153523Y0051362D01*
Y0051463D01*
X0153422D01*
X015332Y0051362D01*
X0153218Y0051463D01*
X0153117D01*
Y0051362D01*
X0153218Y005126D01*
X0153117Y0051158D01*
Y0051057D01*
X0150577D02*
X0150678D01*
X015078Y0051158D01*
X0150882Y0051057D01*
X0150983D01*
Y0051158D01*
X0150882Y005126D01*
X0150983Y0051362D01*
Y0051463D01*
X0150882D01*
X015078Y0051362D01*
X0150678Y0051463D01*
X0150577D01*
Y0051362D01*
X0150678Y005126D01*
X0150577Y0051158D01*
Y0051057D01*
X0155657D02*
X0155758D01*
X015586Y0051158D01*
X0155962Y0051057D01*
X0156063D01*
Y0051158D01*
X0155962Y005126D01*
X0156063Y0051362D01*
Y0051463D01*
X0155962D01*
X015586Y0051362D01*
X0155758Y0051463D01*
X0155657D01*
Y0051362D01*
X0155758Y005126D01*
X0155657Y0051158D01*
Y0051057D01*
X0141741Y0073904D02*
X0141944Y0074107D01*
X0142147Y0073904D01*
X0141944Y0073701D01*
X0141741Y0073904D01*
D54*
X0188321Y0092835D02*
G03*
X0188321Y0092835I-0000203J0D01*
G01*
Y0114171D02*
G03*
X0188321Y0114171I-0000203J0D01*
G01*
X0131552Y0092835D02*
G03*
X0131552Y0092835I-0000203J0D01*
G01*
Y0114171D02*
G03*
X0131552Y0114171I-0000203J0D01*
G01*
X0140583Y007718D02*
G03*
X0140583Y007718I-0000203J0D01*
G01*
X0190263Y012842D02*
G03*
X0190263Y012842I-0000203J0D01*
G01*
Y003688D02*
G03*
X0190263Y003688I-0000203J0D01*
G01*
X0098663D02*
G03*
X0098663Y003688I-0000203J0D01*
G01*
X0098723Y012844D02*
G03*
X0098723Y012844I-0000203J0D01*
G01*
D55*
X0140482Y007718D02*
G03*
X0140482Y007718I-0000102J0D01*
G01*
M02*
