M48
;Layer_Color=9474304
;FILE_FORMAT=2:4
INCH,LZ
;TYPE=PLATED
T01F00S00C0.0276
T02F00S00C0.0280
T03F00S00C0.0300
T04F00S00C0.0315
T05F00S00C0.0394
T06F00S00C0.0400
T07F00S00C0.0402
T08F00S00C0.0450
T09F00S00C0.0500
T10F00S00C0.0591
T11F00S00C0.1378
T12F00S00C0.1378
T13F00S00C0.1378
%
T01
X054787Y026252
X055787
X056787
X057787
X058787
X059787
X060787
X061787
X069154Y031457
X070504
T02
X055884Y029096
T03
X05161Y038169
Y043228
X074311
X074358Y038169
T04
X063362Y020181
X064362
X067551Y02015
X068551
X069551
X070551
X071551
X072551
X072504Y025257
X071504
X070504
X069504
X068504
X067504
X062362Y020181
X061362
X060362
X059362
T05
X047192Y027052
Y028062
Y029062
Y030062
Y031062
X041202Y031058
Y030057
Y029058
Y028057
Y027057
Y032057
Y033057
Y034058
Y035057
Y036058
Y037057
Y038057
Y039058
Y040058
Y041058
Y042057
Y043057
Y044057
Y045058
Y046058
X047192Y046062
Y045062
Y044062
Y043062
Y042062
Y041062
Y040062
Y039062
Y038062
Y037062
Y036062
Y035062
Y034062
Y033062
Y032062
X050071Y049024
Y050024
T06
X064619Y049268
X065819
X067019Y049318
T07
X053142Y020106
Y021106
Y022106
Y023106
T08
X063419Y049268
X068219Y049318
T09
X07074Y049102
X07274
T10
X052528Y049346
X061425
T11
X061299Y030291
T12
X055268Y030386
T13
X038764Y01452
X074827
X051712Y036549
Y044949
X074062
Y036549
X074827Y050559
X038787Y050567
M30
