G04*
G04 #@! TF.GenerationSoftware,Altium Limited,Altium Designer,21.9.2 (33)*
G04*
G04 Layer_Color=32896*
%FSTAX24Y24*%
%MOIN*%
G70*
G04*
G04 #@! TF.SameCoordinates,B016B879-35A3-4FB3-9991-AC620A3742E7*
G04*
G04*
G04 #@! TF.FilePolarity,Positive*
G04*
G01*
G75*
%ADD12C,0.0100*%
D12*
X04824Y028436D02*
X049224D01*
X04824Y026036D02*
Y028436D01*
Y026036D02*
X049224D01*
Y028436D01*
X048732Y025506D02*
Y026026D01*
Y028456D02*
Y028976D01*
X04576Y028373D02*
X046744D01*
X04576Y025973D02*
Y028373D01*
Y025973D02*
X046744D01*
Y028373D01*
X046252Y025443D02*
Y025963D01*
Y028393D02*
Y028913D01*
X048209Y034468D02*
X049193D01*
X048209Y032068D02*
Y034468D01*
Y032068D02*
X049193D01*
Y034468D01*
X048701Y031538D02*
Y032058D01*
Y034488D02*
Y035008D01*
X045791Y03217D02*
X046776D01*
Y03457D01*
X045791D02*
X046776D01*
X045791Y03217D02*
Y03457D01*
X046283Y03458D02*
Y0351D01*
Y03163D02*
Y03215D01*
X048177Y038304D02*
X049161D01*
Y040704D01*
X048177D02*
X049161D01*
X048177Y038304D02*
Y040704D01*
X048669Y040714D02*
Y041234D01*
Y037764D02*
Y038284D01*
X045571Y038398D02*
X046555D01*
Y040798D01*
X045571D02*
X046555D01*
X045571Y038398D02*
Y040798D01*
X046063Y040808D02*
Y041328D01*
Y037858D02*
Y038378D01*
X071248Y030523D02*
X072232D01*
X071248Y028123D02*
Y030523D01*
Y028123D02*
X072232D01*
Y030523D01*
X07174Y027593D02*
Y028113D01*
Y030543D02*
Y031063D01*
X05698Y033501D02*
X057965D01*
Y035901D01*
X05698D02*
X057965D01*
X05698Y033501D02*
Y035901D01*
X057472Y035911D02*
Y036431D01*
Y032961D02*
Y033481D01*
X056965Y029712D02*
X057949D01*
X056965Y027312D02*
Y029712D01*
Y027312D02*
X057949D01*
Y029712D01*
X057457Y026782D02*
Y027302D01*
Y029732D02*
Y030252D01*
X059138Y027209D02*
X060122D01*
Y029609D01*
X059138D02*
X060122D01*
X059138Y027209D02*
Y029609D01*
X05963Y029619D02*
Y030139D01*
Y026669D02*
Y027189D01*
X065394Y017913D02*
X065914D01*
X068344D02*
X068864D01*
X065934Y018406D02*
X068334D01*
Y017421D02*
Y018406D01*
X065934Y017421D02*
X068334D01*
X065934D02*
Y018406D01*
X049024Y02772D02*
X048425D01*
Y02742D01*
X048524Y02732D01*
X048724D01*
X048824Y02742D01*
Y02772D01*
Y02752D02*
X049024Y02732D01*
X048524Y02712D02*
X048425Y027021D01*
Y026821D01*
X048524Y026721D01*
X048624D01*
X048724Y026821D01*
Y026921D01*
Y026821D01*
X048824Y026721D01*
X048924D01*
X049024Y026821D01*
Y027021D01*
X048924Y02712D01*
X046536Y027657D02*
X045936D01*
Y027357D01*
X046036Y027257D01*
X046236D01*
X046336Y027357D01*
Y027657D01*
Y027457D02*
X046536Y027257D01*
Y026658D02*
Y027058D01*
X046136Y026658D01*
X046036D01*
X045936Y026758D01*
Y026958D01*
X046036Y027058D01*
X049001Y033846D02*
X048401D01*
Y033546D01*
X048501Y033446D01*
X048701D01*
X048801Y033546D01*
Y033846D01*
Y033646D02*
X049001Y033446D01*
X048401Y032847D02*
Y033246D01*
X048701D01*
X048601Y033047D01*
Y032947D01*
X048701Y032847D01*
X048901D01*
X049001Y032947D01*
Y033147D01*
X048901Y033246D01*
X046544Y033894D02*
X045944D01*
Y033594D01*
X046044Y033494D01*
X046244D01*
X046344Y033594D01*
Y033894D01*
Y033694D02*
X046544Y033494D01*
Y032994D02*
X045944D01*
X046244Y033294D01*
Y032894D01*
X048993Y040035D02*
X048393D01*
Y039735D01*
X048493Y039635D01*
X048693D01*
X048793Y039735D01*
Y040035D01*
Y039835D02*
X048993Y039635D01*
X048393Y039036D02*
X048493Y039236D01*
X048693Y039435D01*
X048893D01*
X048993Y039335D01*
Y039136D01*
X048893Y039036D01*
X048793D01*
X048693Y039136D01*
Y039435D01*
X04645Y039941D02*
X04585D01*
Y039641D01*
X04595Y039541D01*
X04615D01*
X04625Y039641D01*
Y039941D01*
Y039741D02*
X04645Y039541D01*
X04585Y039341D02*
Y038941D01*
X04595D01*
X04635Y039341D01*
X04645D01*
X072009Y030143D02*
X071409D01*
Y029844D01*
X071509Y029744D01*
X071709D01*
X071809Y029844D01*
Y030143D01*
Y029944D02*
X072009Y029744D01*
Y029544D02*
Y029344D01*
Y029444D01*
X071409D01*
X071509Y029544D01*
X071409Y028644D02*
X071509Y028844D01*
X071709Y029044D01*
X071909D01*
X072009Y028944D01*
Y028744D01*
X071909Y028644D01*
X071809D01*
X071709Y028744D01*
Y029044D01*
X057788Y03549D02*
X057188D01*
Y03519D01*
X057288Y03509D01*
X057488D01*
X057588Y03519D01*
Y03549D01*
Y03529D02*
X057788Y03509D01*
Y03489D02*
Y03469D01*
Y03479D01*
X057188D01*
X057288Y03489D01*
X057788Y03399D02*
Y03439D01*
X057388Y03399D01*
X057288D01*
X057188Y03409D01*
Y03429D01*
X057288Y03439D01*
X057701Y029206D02*
X057102D01*
Y028907D01*
X057202Y028807D01*
X057402D01*
X057502Y028907D01*
Y029206D01*
Y029007D02*
X057701Y028807D01*
Y028607D02*
Y028407D01*
Y028507D01*
X057102D01*
X057202Y028607D01*
X057701Y027807D02*
X057102D01*
X057402Y028107D01*
Y027707D01*
X059946Y029254D02*
X059346D01*
Y028954D01*
X059446Y028854D01*
X059646D01*
X059746Y028954D01*
Y029254D01*
Y029054D02*
X059946Y028854D01*
Y028654D02*
Y028454D01*
Y028554D01*
X059346D01*
X059446Y028654D01*
X059346Y028154D02*
Y027754D01*
X059446D01*
X059846Y028154D01*
X059946D01*
X06936Y01876D02*
Y01936D01*
X06906D01*
X06896Y01926D01*
Y01906D01*
X06906Y01896D01*
X06936D01*
X06916D02*
X06896Y01876D01*
X06876D02*
X06856D01*
X06866D01*
Y01936D01*
X06876Y01926D01*
X06826D02*
X06816Y01936D01*
X06796D01*
X06786Y01926D01*
Y01916D01*
X06796Y01906D01*
X06786Y01896D01*
Y01886D01*
X06796Y01876D01*
X06816D01*
X06826Y01886D01*
Y01896D01*
X06816Y01906D01*
X06826Y01916D01*
Y01926D01*
X06816Y01906D02*
X06796D01*
M02*
