G04*
G04 #@! TF.GenerationSoftware,Altium Limited,Altium Designer,21.9.2 (33)*
G04*
G04 Layer_Color=8388736*
%FSTAX24Y24*%
%MOIN*%
G70*
G04*
G04 #@! TF.SameCoordinates,B016B879-35A3-4FB3-9991-AC620A3742E7*
G04*
G04*
G04 #@! TF.FilePolarity,Negative*
G04*
G01*
G75*
%ADD22R,0.0592X0.0316*%
%ADD23R,0.0789X0.0789*%
%ADD24P,0.0790X8X22.5*%
%ADD25C,0.0730*%
%ADD26C,0.0631*%
%ADD27C,0.0680*%
%ADD28C,0.0966*%
%ADD29C,0.0710*%
%ADD30R,0.0710X0.0710*%
%ADD31C,0.0671*%
%ADD32O,0.0867X0.0867*%
%ADD33C,0.0911*%
%ADD34R,0.0710X0.0710*%
%ADD35C,0.1655*%
%ADD36C,0.0580*%
D22*
X061689Y018762D02*
D03*
Y019262D02*
D03*
Y019762D02*
D03*
Y020262D02*
D03*
X059602D02*
D03*
Y019762D02*
D03*
Y019262D02*
D03*
Y018762D02*
D03*
D23*
X06722Y043551D02*
D03*
X06622D02*
D03*
D24*
X069426Y045575D02*
D03*
X067352Y045622D02*
D03*
X065352D02*
D03*
D25*
X070426Y045575D02*
D03*
X068352Y045622D02*
D03*
X066352D02*
D03*
D26*
X048732Y029244D02*
D03*
Y025228D02*
D03*
X046252Y029181D02*
D03*
Y025165D02*
D03*
X048701Y035276D02*
D03*
Y03126D02*
D03*
X046283Y031362D02*
D03*
Y035378D02*
D03*
X048669Y037496D02*
D03*
Y041512D02*
D03*
X046063Y037591D02*
D03*
Y041606D02*
D03*
X07174Y031331D02*
D03*
Y027315D02*
D03*
X057472Y032693D02*
D03*
Y036709D02*
D03*
X057457Y03052D02*
D03*
Y026504D02*
D03*
X05963Y026402D02*
D03*
Y030417D02*
D03*
X070087Y033961D02*
D03*
X074102D02*
D03*
X050598Y01948D02*
D03*
X046583D02*
D03*
X057882Y022937D02*
D03*
X061898D02*
D03*
X063213Y047496D02*
D03*
X067228D02*
D03*
X056024Y021598D02*
D03*
X052008D02*
D03*
Y019575D02*
D03*
X056024D02*
D03*
X071835Y047551D02*
D03*
Y043535D02*
D03*
X070055Y03989D02*
D03*
Y035874D02*
D03*
X069142Y017913D02*
D03*
X065126D02*
D03*
D27*
X054404Y028201D02*
D03*
X061654Y043551D02*
D03*
X053604Y025801D02*
D03*
X062054D02*
D03*
X053604Y045851D02*
D03*
X062104D02*
D03*
X041598Y021511D02*
D03*
X041648Y026411D02*
D03*
Y025161D02*
D03*
X041598Y023961D02*
D03*
X041648Y022761D02*
D03*
X064123Y034841D02*
D03*
Y035841D02*
D03*
Y036841D02*
D03*
Y037841D02*
D03*
Y038841D02*
D03*
Y039841D02*
D03*
Y040841D02*
D03*
Y041841D02*
D03*
X070295Y027972D02*
D03*
Y027122D02*
D03*
X064495Y029922D02*
D03*
Y028922D02*
D03*
Y027922D02*
D03*
Y026922D02*
D03*
Y025922D02*
D03*
Y024922D02*
D03*
D28*
X073126Y020378D02*
D03*
X064228D02*
D03*
D29*
X075409Y016827D02*
D03*
X040334Y043598D02*
D03*
Y044598D02*
D03*
Y042598D02*
D03*
Y041598D02*
D03*
Y040598D02*
D03*
X065526Y015667D02*
D03*
X063526D02*
D03*
X064526D02*
D03*
X071276Y015767D02*
D03*
X069276D02*
D03*
X070276D02*
D03*
X040417Y030449D02*
D03*
Y031449D02*
D03*
Y032449D02*
D03*
Y034449D02*
D03*
Y033449D02*
D03*
X051876Y015717D02*
D03*
X050876D02*
D03*
X049876D02*
D03*
X047876D02*
D03*
X048876D02*
D03*
X073378Y038843D02*
D03*
Y037843D02*
D03*
Y039843D02*
D03*
Y040843D02*
D03*
Y041843D02*
D03*
X056576Y015717D02*
D03*
X055576D02*
D03*
X057576D02*
D03*
X058576D02*
D03*
X059576D02*
D03*
X074551Y046905D02*
D03*
D30*
X075409Y017827D02*
D03*
X040334Y045598D02*
D03*
X040417Y035449D02*
D03*
X044906Y015457D02*
D03*
X073378Y036843D02*
D03*
X074551Y045905D02*
D03*
D31*
X074894Y027913D02*
D03*
X073894D02*
D03*
X072984Y024744D02*
D03*
Y023744D02*
D03*
D32*
X050762Y04087D02*
D03*
Y04187D02*
D03*
Y04387D02*
D03*
Y03987D02*
D03*
Y04287D02*
D03*
Y03887D02*
D03*
X044772Y028866D02*
D03*
Y024866D02*
D03*
Y027866D02*
D03*
Y026866D02*
D03*
Y025866D02*
D03*
Y029866D02*
D03*
Y030866D02*
D03*
Y032866D02*
D03*
Y033866D02*
D03*
Y034866D02*
D03*
Y031866D02*
D03*
Y035866D02*
D03*
Y037866D02*
D03*
Y043866D02*
D03*
Y042866D02*
D03*
Y041866D02*
D03*
Y040866D02*
D03*
Y036866D02*
D03*
Y039866D02*
D03*
Y038866D02*
D03*
X050762Y02887D02*
D03*
Y02486D02*
D03*
Y02787D02*
D03*
Y02687D02*
D03*
Y02587D02*
D03*
Y02987D02*
D03*
Y03487D02*
D03*
Y03787D02*
D03*
Y03687D02*
D03*
Y03587D02*
D03*
Y03387D02*
D03*
Y03287D02*
D03*
Y03187D02*
D03*
Y03087D02*
D03*
D33*
X07485Y031638D02*
D03*
Y029638D02*
D03*
X074913Y02585D02*
D03*
Y02385D02*
D03*
D34*
X062526Y015667D02*
D03*
X068276Y015767D02*
D03*
X046876Y015717D02*
D03*
X054576D02*
D03*
D35*
X039874Y014858D02*
D03*
X039882Y049504D02*
D03*
X07125Y023583D02*
D03*
X06426Y031591D02*
D03*
X074504Y01489D02*
D03*
X074535Y049528D02*
D03*
X068197Y041472D02*
D03*
Y035291D02*
D03*
D36*
X057346Y018559D02*
D03*
X059078Y02197D02*
D03*
X0566Y027931D02*
D03*
X04719Y04505D02*
D03*
X04788Y03672D02*
D03*
X0672Y026922D02*
D03*
X05204Y02223D02*
D03*
X04387Y049D02*
D03*
X060678Y01988D02*
D03*
X05136Y02192D02*
D03*
X04739Y02222D02*
D03*
Y02494D02*
D03*
X06477Y03629D02*
D03*
X06623Y03339D02*
D03*
X06668Y02911D02*
D03*
X06081Y02916D02*
D03*
X04301Y03682D02*
D03*
X05349Y03934D02*
D03*
M02*
