G04*
G04 #@! TF.GenerationSoftware,Altium Limited,Altium Designer,21.9.2 (33)*
G04*
G04 Layer_Color=128*
%FSTAX24Y24*%
%MOIN*%
G70*
G04*
G04 #@! TF.SameCoordinates,5831BF1A-2185-4D37-B2B8-6E218B1F1BCB*
G04*
G04*
G04 #@! TF.FilePolarity,Positive*
G04*
G01*
G75*
%ADD45R,0.0551X0.0472*%
%ADD46R,0.0472X0.0551*%
D45*
X054583Y037884D02*
D03*
Y037136D02*
D03*
Y035931D02*
D03*
Y035183D02*
D03*
X056518Y025573D02*
D03*
X04722Y028729D02*
D03*
X04882Y034229D02*
D03*
X056518Y027523D02*
D03*
Y033423D02*
D03*
X048834Y036712D02*
D03*
X056518Y037323D02*
D03*
Y035373D02*
D03*
X069141Y029108D02*
D03*
Y029856D02*
D03*
X069291Y026313D02*
D03*
Y027061D02*
D03*
X047068Y035023D02*
D03*
Y034275D02*
D03*
X047168Y032423D02*
D03*
Y031675D02*
D03*
X056518Y034625D02*
D03*
Y036575D02*
D03*
X048834Y03746D02*
D03*
X056518Y032675D02*
D03*
Y026775D02*
D03*
X04882Y034977D02*
D03*
X04722Y029477D02*
D03*
X056518Y024825D02*
D03*
X072723Y026541D02*
D03*
Y025793D02*
D03*
D46*
X066943Y029622D02*
D03*
X067691D02*
D03*
X071231Y030441D02*
D03*
X070483D02*
D03*
X067687Y033078D02*
D03*
X066939D02*
D03*
X070908Y018858D02*
D03*
X07016D02*
D03*
X071231Y03233D02*
D03*
X070483D02*
D03*
X0669Y031251D02*
D03*
X067648D02*
D03*
M02*
