M48
;Layer_Color=9474304
;FILE_FORMAT=2:4
INCH,LZ
;TYPE=PLATED
T1F00S00C0.0236
T2F00S00C0.0276
T3F00S00C0.0280
T4F00S00C0.0300
T5F00S00C0.0315
T6F00S00C0.0394
T7F00S00C0.0400
T8F00S00C0.0433
T9F00S00C0.0472
T10F00S00C0.0591
T11F00S00C0.1378
%
T01
X065126Y017913
X069142
X07174Y027315
X05963Y026402
X057457Y026504
X057882Y022937
X056024Y021598
Y019575
X052008
X050598Y01948
X052008Y021598
X048732Y025228
Y029244
X057457Y03052
X05963Y030417
X061898Y022937
X046252Y025165
Y029181
X046583Y01948
X046283Y031362
Y035378
X046063Y037591
Y041606
X048669Y041512
Y037496
X048701Y035276
Y03126
X057472Y032693
Y036709
X070055Y035874
X070087Y033961
X074102
X07174Y031331
X070055Y03989
X071835Y043535
Y047551
X067228Y047496
X063213
T02
X072984Y023744
Y024744
X073894Y027913
X074894
X070295Y027972
Y027122
X064123Y034841
Y035841
Y036841
Y037841
Y038841
Y039841
Y040841
Y041841
T03
X0672Y026922
X06668Y02911
X06081Y02916
X0566Y027931
X059078Y02197
X060678Y01988
X057346Y018559
X05204Y02223
X05136Y02192
X04739Y02222
Y02494
X04301Y03682
X04788Y03672
X05349Y03934
X04719Y04505
X06477Y03629
X06623Y03339
X04387Y049
T04
X053604Y025801
X062054
X062104Y045851
X053604
T05
X062526Y015667
X063526
X064526
X065526
X068276Y015767
X069276
X070276
X071276
X074913Y02385
Y02585
X07485Y029638
X064495Y029922
Y028922
Y027922
Y026922
Y025922
Y024922
X059576Y015717
X058576
X057576
X056576
X055576
X054576
X051876
X050876
X049876
X048876
X047876
X046876
X040417Y030449
Y031449
Y032449
Y033449
Y034449
Y035449
X040334Y040598
Y041598
Y042598
Y043598
Y044598
Y045598
X074551Y045905
X073378Y041843
Y040843
Y039843
Y038843
Y037843
Y036843
X07485Y031638
X074551Y046905
T06
X050762Y02486
Y02587
Y02687
Y02787
Y02887
Y02987
Y03087
X044772Y030866
Y029866
Y028866
Y027866
Y026866
Y025866
Y024866
X041648Y025161
X041598Y023961
X041648Y022761
X044772Y031866
Y032866
Y033866
Y034866
Y035866
Y036866
Y037866
Y038866
Y039866
Y040866
Y041866
Y042866
Y043866
X050762Y04387
Y04287
Y04187
Y04087
Y03987
Y03887
Y03787
Y03687
Y03587
Y03487
Y03387
Y03287
Y03187
X06622Y043551
X06722
T07
X065352Y045622
X066352
X067352
X068352
X069426Y045575
X070426
T08
X044906Y015457
X075409Y016827
Y017827
T09
X041598Y021511
X041648Y026411
T10
X064228Y020378
X073126
T11
X039874Y014858
X074504Y01489
X07125Y023583
X054404Y028201
X061654Y043551
X068197Y041472
Y035291
X06426Y031591
X074535Y049528
X039882Y049504
M30
