G04*
G04 #@! TF.GenerationSoftware,Altium Limited,Altium Designer,21.9.2 (33)*
G04*
G04 Layer_Color=16711935*
%FSTAX24Y24*%
%MOIN*%
G70*
G04*
G04 #@! TF.SameCoordinates,B016B879-35A3-4FB3-9991-AC620A3742E7*
G04*
G04*
G04 #@! TF.FilePolarity,Positive*
G04*
G01*
G75*
%ADD14C,0.0080*%
G36*
X059858Y018858D02*
Y018665D01*
X059425D01*
Y018858D01*
X059858D01*
D02*
G37*
G36*
Y019358D02*
Y019165D01*
X059425D01*
Y019358D01*
X059858D01*
D02*
G37*
G36*
Y019858D02*
Y019665D01*
X059425D01*
Y019858D01*
X059858D01*
D02*
G37*
G36*
Y020358D02*
Y020165D01*
X059425D01*
Y020358D01*
X059858D01*
D02*
G37*
G36*
X061866Y018858D02*
Y018665D01*
X061433D01*
Y018858D01*
X061866D01*
D02*
G37*
G36*
Y019358D02*
Y019165D01*
X061433D01*
Y019358D01*
X061866D01*
D02*
G37*
G36*
Y019858D02*
Y019665D01*
X061433D01*
Y019858D01*
X061866D01*
D02*
G37*
G36*
Y020358D02*
Y020165D01*
X061433D01*
Y020358D01*
X061866D01*
D02*
G37*
D14*
X061197Y020457D02*
X061394D01*
Y018567D02*
Y020457D01*
X061197Y018567D02*
X061394D01*
X059898D02*
Y020457D01*
Y018567D02*
X061197D01*
X059898Y020457D02*
X061197D01*
M02*
