G04*
G04 #@! TF.GenerationSoftware,Altium Limited,Altium Designer,24.9.1 (31)*
G04*
G04 Layer_Physical_Order=1*
G04 Layer_Color=255*
%FSTAX43Y43*%
%MOMM*%
G71*
G04*
G04 #@! TF.SameCoordinates,CBCBAFD4-78DD-4E97-AB5F-6E03977E6BC7*
G04*
G04*
G04 #@! TF.FilePolarity,Positive*
G04*
G01*
G75*
%ADD20C,1.500*%
%ADD21R,1.300X2.700*%
%ADD36C,3.000*%
%ADD37R,1.800X1.800*%
%ADD38C,1.700*%
%ADD39R,1.700X1.700*%
%ADD40C,1.524*%
%ADD41C,4.100*%
%ADD42O,1.778X2.413*%
%ADD43O,1.778X2.286*%
%ADD44C,2.794*%
%ADD45O,2.000X2.000*%
%ADD46C,1.600*%
%ADD47R,1.600X1.600*%
%ADD48C,2.250*%
%ADD49C,1.270*%
G36*
X0187998Y0129924D02*
X01878Y0129628D01*
X0187608Y0129164D01*
X018751Y0128671D01*
Y0128169D01*
X0187608Y0127676D01*
X01878Y0127212D01*
X0188079Y0126794D01*
X0188434Y0126439D01*
X0188852Y012616D01*
X0189316Y0125968D01*
X0189809Y012587D01*
X0190311D01*
X0190804Y0125968D01*
X0191268Y012616D01*
X0191584Y0126371D01*
X0191711Y0126303D01*
Y00764D01*
X0174D01*
X016776Y008264D01*
Y010976D01*
X013496D01*
X0132779Y0111941D01*
X0132791Y0112068D01*
X0132975Y011219D01*
X013333Y0112545D01*
X0133609Y0112963D01*
X0133801Y0113427D01*
X0133899Y011392D01*
Y0114422D01*
X0133801Y0114915D01*
X0133609Y0115379D01*
X013333Y0115797D01*
X0132975Y0116152D01*
X0132557Y0116431D01*
X0132093Y0116623D01*
X01316Y0116721D01*
X0131098D01*
X0130605Y0116623D01*
X0130141Y0116431D01*
X0129723Y0116152D01*
X0129368Y0115797D01*
X0129246Y0115613D01*
X0129119Y0115601D01*
X012536Y011936D01*
X012512D01*
Y0130031D01*
X0125128Y0130051D01*
X0167582D01*
X0167625Y0129931D01*
X016758Y0129895D01*
X0165759Y0128074D01*
X0165509Y0127769D01*
X0165323Y0127422D01*
X0165209Y0127045D01*
X016517Y0126653D01*
Y0126508D01*
X0165043Y0126446D01*
X0164832Y0126607D01*
X0164495Y0126747D01*
X0164132Y0126795D01*
X0163769Y0126747D01*
X0163432Y0126607D01*
X0163141Y0126385D01*
X0162919Y0126094D01*
X0162779Y0125757D01*
X0162731Y0125394D01*
Y0124886D01*
X0162779Y0124523D01*
X0162919Y0124186D01*
X0163141Y0123895D01*
X0163432Y0123673D01*
X0163769Y0123533D01*
X0164132Y0123485D01*
X0164495Y0123533D01*
X0164832Y0123673D01*
X0165123Y0123895D01*
X0165306Y0124134D01*
X0165452Y012413D01*
X0165509Y0124023D01*
X0165759Y0123719D01*
X0166063Y0123469D01*
X0166411Y0123283D01*
X0166788Y0123169D01*
X016718Y012313D01*
X0167572Y0123169D01*
X0167949Y0123283D01*
X0168297Y0123469D01*
X0168601Y0123719D01*
X0168851Y0124023D01*
X0168944Y0124197D01*
X0169094Y0124209D01*
X0169237Y0124022D01*
X0169528Y01238D01*
X0169865Y012366D01*
X0170228Y0123612D01*
X0170591Y012366D01*
X0170928Y01238D01*
X0171219Y0124022D01*
X0171441Y0124313D01*
X0171581Y012465D01*
X0171629Y0125013D01*
Y0125521D01*
X0171581Y0125884D01*
X0171441Y0126221D01*
X0171343Y012635D01*
X0171399Y0126464D01*
X0172056D01*
X0172113Y012635D01*
X0172063Y0126285D01*
X0171923Y0125947D01*
X0171875Y0125585D01*
Y012495D01*
X0171923Y0124587D01*
X0172063Y0124249D01*
X0172285Y0123959D01*
X0172576Y0123736D01*
X0172913Y0123596D01*
X0173276Y0123549D01*
X0173639Y0123596D01*
X0173976Y0123736D01*
X0174267Y0123959D01*
X0174489Y0124249D01*
X0174629Y0124587D01*
X0174677Y012495D01*
Y0125585D01*
X0174629Y0125947D01*
X0174489Y0126285D01*
X0174439Y012635D01*
X0174496Y0126464D01*
X0176794D01*
X017767Y0125588D01*
Y012472D01*
X0177709Y0124328D01*
X0177823Y0123951D01*
X0178009Y0123603D01*
X0178259Y0123299D01*
X0178563Y0123049D01*
X0178911Y0122863D01*
X0179288Y0122749D01*
X017968Y012271D01*
X0180072Y0122749D01*
X0180449Y0122863D01*
X0180797Y0123049D01*
X0181101Y0123299D01*
X0181351Y0123603D01*
X0181537Y0123951D01*
X0181651Y0124328D01*
X018169Y012472D01*
Y012642D01*
X018169Y012642D01*
X0181651Y0126812D01*
X0181537Y0127189D01*
X0181351Y0127537D01*
X0181101Y0127841D01*
X0181101Y0127841D01*
X0179048Y0129895D01*
X0179003Y0129931D01*
X0179046Y0130051D01*
X018793D01*
X0187998Y0129924D01*
D02*
G37*
G36*
X01312Y011042D02*
X013322D01*
Y0094736D01*
X0133103Y0094688D01*
X0132975Y0094816D01*
X0132557Y0095095D01*
X0132093Y0095287D01*
X01316Y0095385D01*
X0131195D01*
X0131142Y0095512D01*
X0131322Y0095692D01*
X0131592Y0095728D01*
X0131896Y0095854D01*
X0131937Y0095885D01*
X0131992Y0095908D01*
X0132254Y0096108D01*
X0132454Y009637D01*
X013258Y0096674D01*
X0132623Y0097D01*
Y0102718D01*
X013258Y0103044D01*
X0132454Y0103348D01*
X0132254Y010361D01*
X012315Y0112713D01*
X0122889Y0112913D01*
X0122585Y0113039D01*
X0122259Y0113082D01*
X0120813D01*
X0120706Y011317D01*
X0120445Y0113309D01*
X0120162Y0113395D01*
X0119868Y0113424D01*
X0119574Y0113395D01*
X0119291Y0113309D01*
X0119031Y011317D01*
X0118802Y0112983D01*
X0118615Y0112754D01*
X0118476Y0112494D01*
X011839Y0112211D01*
X0118361Y0111917D01*
X011839Y0111623D01*
X0118476Y011134D01*
X0118615Y011108D01*
X0118802Y0110851D01*
X0118952Y0110729D01*
Y0110565D01*
X0118802Y0110443D01*
X0118615Y0110214D01*
X0118476Y0109954D01*
X011839Y0109671D01*
X0118361Y0109377D01*
X011839Y0109083D01*
X0118476Y01088D01*
X0118615Y010854D01*
X0118802Y0108311D01*
X0118952Y0108189D01*
Y0108025D01*
X0118802Y0107903D01*
X0118615Y0107674D01*
X0118476Y0107414D01*
X011839Y0107131D01*
X0118361Y0106837D01*
X011839Y0106543D01*
X0118476Y010626D01*
X0118615Y0106D01*
X0118802Y0105771D01*
X0118952Y0105649D01*
Y0105485D01*
X0118802Y0105363D01*
X0118615Y0105134D01*
X0118476Y0104874D01*
X011839Y0104591D01*
X0118361Y0104297D01*
X011839Y0104003D01*
X0118476Y010372D01*
X0118615Y010346D01*
X0118802Y0103231D01*
X0118952Y0103109D01*
Y0102945D01*
X0118884Y010289D01*
X0118804Y0102879D01*
X01185Y0102753D01*
X0118239Y0102553D01*
X0116727Y010104D01*
X0116526Y0100779D01*
X01164Y0100475D01*
X0116357Y0100149D01*
Y006778D01*
X01164Y0067453D01*
X0116526Y0067149D01*
X0116727Y0066888D01*
X0119838Y0063776D01*
X0120099Y0063576D01*
X0120403Y006345D01*
X012073Y0063407D01*
X0145073D01*
X01454Y006345D01*
X0145704Y0063576D01*
X0145965Y0063776D01*
X0146663Y0064474D01*
X0146779Y0064358D01*
X0146956Y0064127D01*
X0149307Y0061776D01*
X0149538Y0061599D01*
X0154599Y0056538D01*
Y0051577D01*
X015456Y0051431D01*
Y0051089D01*
X0154649Y0050758D01*
X015482Y0050462D01*
X0155062Y005022D01*
X0155358Y0050049D01*
X0155689Y004996D01*
X0156031D01*
X0156362Y0050049D01*
X0156658Y005022D01*
X01569Y0050462D01*
X0157051Y0050723D01*
X0157182Y0050701D01*
X0157201Y0050555D01*
X0157327Y0050251D01*
X0157528Y004999D01*
X0159279Y0048238D01*
X015954Y0048038D01*
X0159845Y0047912D01*
X0160171Y0047869D01*
X0177509D01*
X0177835Y0047912D01*
X017814Y0048038D01*
X0178401Y0048238D01*
X0179602Y0049439D01*
X0179802Y00497D01*
X0179928Y0050005D01*
X0179941Y0050107D01*
X0179998Y005014D01*
X018024Y0050382D01*
X0180402Y0050661D01*
X018047Y005067D01*
X0180538Y0050661D01*
X01807Y0050382D01*
X0180942Y005014D01*
X0181238Y0049969D01*
X0181569Y004988D01*
X0181911D01*
X0182242Y0049969D01*
X0182538Y005014D01*
X018278Y0050382D01*
X0182942Y0050661D01*
X018301Y005067D01*
X0183078Y0050661D01*
X018324Y0050382D01*
X0183482Y005014D01*
X0183778Y0049969D01*
X0184109Y004988D01*
X0184451D01*
X0184782Y0049969D01*
X0185078Y005014D01*
X018532Y0050382D01*
X0185491Y0050678D01*
X018558Y0051009D01*
Y0051351D01*
X0185491Y0051682D01*
X018532Y0051978D01*
X0185078Y005222D01*
X0184782Y0052391D01*
X0184451Y005248D01*
X0184109D01*
X0183778Y0052391D01*
X0183482Y005222D01*
X018324Y0051978D01*
X0183078Y0051699D01*
X018301Y005169D01*
X0182942Y0051699D01*
X018278Y0051978D01*
X0182538Y005222D01*
X0182242Y0052391D01*
X0181911Y005248D01*
X0181569D01*
X0181238Y0052391D01*
X0180942Y005222D01*
X01807Y0051978D01*
X0180538Y0051699D01*
X018047Y005169D01*
X0180402Y0051699D01*
X018024Y0051978D01*
X0179998Y005222D01*
X0179702Y0052391D01*
X0179371Y005248D01*
X0179029D01*
X0178698Y0052391D01*
X0178402Y005222D01*
X017816Y0051978D01*
X0178047Y0051783D01*
X0177985Y0051721D01*
X0177833Y0051748D01*
X01777Y0051978D01*
X0177458Y005222D01*
X0177162Y0052391D01*
X0176831Y005248D01*
X0176489D01*
X0176158Y0052391D01*
X0175862Y005222D01*
X017562Y0051978D01*
X0175449Y0051682D01*
X017536Y0051351D01*
Y0051009D01*
X0175449Y0050678D01*
X0175551Y0050501D01*
X0175488Y0050391D01*
X017288D01*
Y005248D01*
X017028D01*
Y0050391D01*
X016462D01*
X0164553Y0050518D01*
X0164691Y0050758D01*
X016478Y0051089D01*
Y0051431D01*
X0164691Y0051762D01*
X016452Y0052058D01*
X0164278Y00523D01*
X0163982Y0052471D01*
X0163651Y005256D01*
X0163309D01*
X0162978Y0052471D01*
X0162682Y00523D01*
X016244Y0052058D01*
X0162278Y0051779D01*
X016221Y005177D01*
X0162142Y0051779D01*
X016198Y0052058D01*
X0161738Y00523D01*
X0161442Y0052471D01*
X0161111Y005256D01*
X0160769D01*
X0160438Y0052471D01*
X0160142Y00523D01*
X01599Y0052058D01*
X0159788Y0051864D01*
X0159661Y0051898D01*
Y0057593D01*
X0159618Y005792D01*
X0159492Y0058224D01*
X0159292Y0058485D01*
X0152386Y0065391D01*
X0152414Y0065542D01*
X0152635Y006567D01*
X015287Y0065905D01*
X0153036Y0066193D01*
X0153064Y0066298D01*
X0153196D01*
X0153224Y0066193D01*
X015339Y0065905D01*
X0153625Y006567D01*
X0153913Y0065504D01*
X0154234Y0065418D01*
X0154566D01*
X0154887Y0065504D01*
X0155175Y006567D01*
X015541Y0065905D01*
X0155576Y0066193D01*
X0155604Y0066298D01*
X0155736D01*
X0155764Y0066193D01*
X015593Y0065905D01*
X0156165Y006567D01*
X0156453Y0065504D01*
X0156774Y0065418D01*
X0157106D01*
X0157427Y0065504D01*
X0157715Y006567D01*
X015795Y0065905D01*
X0158116Y0066193D01*
X0158202Y0066514D01*
Y0066846D01*
X0158116Y0067167D01*
X015795Y0067455D01*
X0157715Y006769D01*
X0157427Y0067856D01*
X0157106Y0067942D01*
X0156774D01*
X0156453Y0067856D01*
X0156165Y006769D01*
X015593Y0067455D01*
X0155764Y0067167D01*
X0155736Y0067062D01*
X0155604D01*
X0155576Y0067167D01*
X015541Y0067455D01*
X0155175Y006769D01*
X0154887Y0067856D01*
X0154566Y0067942D01*
X0154234D01*
X0153913Y0067856D01*
X0153625Y006769D01*
X015339Y0067455D01*
X0153224Y0067167D01*
X0153196Y0067062D01*
X0153064D01*
X0153036Y0067167D01*
X015287Y0067455D01*
X0152635Y006769D01*
X0152347Y0067856D01*
X0152026Y0067942D01*
X0151694D01*
X0151373Y0067856D01*
X0151085Y006769D01*
X015085Y0067455D01*
X0150722Y0067234D01*
X0150571Y0067206D01*
X0150341Y0067435D01*
X015033Y0067455D01*
X0150095Y006769D01*
X0150024Y0067731D01*
X015001Y006784D01*
X0149884Y0068144D01*
X0149684Y0068405D01*
X014603Y0072058D01*
X0145769Y0072259D01*
X0145465Y0072385D01*
X0145139Y0072427D01*
X013551D01*
X0132491Y0075446D01*
X0132452Y0075746D01*
X0132384Y007591D01*
Y0076089D01*
X0132501Y0076137D01*
X013565Y0072989D01*
X0135911Y0072788D01*
X0136215Y0072662D01*
X0136542Y0072619D01*
X014192D01*
X0142246Y0072662D01*
X014255Y0072788D01*
X0142812Y0072989D01*
X0142836Y0073013D01*
X0143036Y0073274D01*
X0143162Y0073578D01*
X0143205Y0073904D01*
X0143162Y0074231D01*
X0143036Y0074535D01*
X0142836Y0074796D01*
X0142575Y0074996D01*
X0142271Y0075122D01*
X0142127Y0075141D01*
X0142081Y0075275D01*
X0142361Y0075554D01*
X014264Y0075972D01*
X0142832Y0076436D01*
X014293Y0076929D01*
Y0077431D01*
X0142832Y0077924D01*
X014264Y0078388D01*
X0142361Y0078806D01*
X0142006Y0079161D01*
X0141588Y007944D01*
X0141124Y0079632D01*
X0140631Y007973D01*
X0140129D01*
X0139636Y0079632D01*
X0139172Y007944D01*
X0138754Y0079161D01*
X0138399Y0078806D01*
X013812Y0078388D01*
X0137928Y0077924D01*
X013783Y0077431D01*
Y0076929D01*
X0137928Y0076436D01*
X013812Y0075972D01*
X0138399Y0075554D01*
X0138686Y0075268D01*
X0138633Y0075141D01*
X0137064D01*
X0133088Y0079117D01*
X013308Y0079123D01*
X0132518Y0079685D01*
Y008244D01*
X0132475Y0082766D01*
X0132407Y008293D01*
Y008429D01*
X0130107D01*
Y008293D01*
X0130039Y0082766D01*
X0129996Y008244D01*
Y0079163D01*
X0130039Y0078837D01*
X0130165Y0078533D01*
X0130365Y0078271D01*
X013124Y0077397D01*
X0131187Y007727D01*
X0130084D01*
Y007591D01*
X0130016Y0075746D01*
X0129973Y007542D01*
Y007492D01*
X0130016Y0074594D01*
X0130084Y007443D01*
Y007357D01*
X0130801D01*
X0131826Y0072545D01*
X0131778Y0072427D01*
X0129342D01*
X0128317Y0073453D01*
X0128365Y007357D01*
X0129484D01*
Y0074914D01*
X0129563Y0075105D01*
X0129606Y0075432D01*
Y0082353D01*
X0129618Y008244D01*
X0129575Y0082766D01*
X0129518Y0082904D01*
Y008304D01*
X0129507Y0083122D01*
Y008429D01*
X0128712D01*
X0128461Y0084541D01*
Y0092831D01*
X0128672Y0093042D01*
X0128799Y0092989D01*
Y0092584D01*
X0128897Y0092091D01*
X0129089Y0091627D01*
X0129368Y0091209D01*
X0129723Y0090854D01*
X0130141Y0090575D01*
X0130605Y0090383D01*
X0131098Y0090285D01*
X01316D01*
X0132093Y0090383D01*
X0132557Y0090575D01*
X0132975Y0090854D01*
X0133103Y0090982D01*
X013322Y0090934D01*
Y008922D01*
X014238Y008006D01*
X016226D01*
Y006778D01*
X016376Y006628D01*
X0191711D01*
Y004418D01*
X0096929D01*
Y0119D01*
X012262D01*
X01312Y011042D01*
D02*
G37*
G36*
X0122625Y0100399D02*
Y00761D01*
X0122668Y0075774D01*
X0122794Y007547D01*
X0122995Y0075209D01*
X0127928Y0070275D01*
X0128189Y0070075D01*
X0128493Y0069949D01*
X012882Y0069906D01*
X0144616D01*
X0146498Y0068025D01*
X0146465Y0067902D01*
X0146293Y0067856D01*
X0146005Y006769D01*
X014577Y0067455D01*
X0145686Y0067309D01*
X0145684Y0067306D01*
X0145682Y0067302D01*
X0145604Y0067167D01*
X0145564Y0067016D01*
X0145558Y0067002D01*
X0145556Y0066986D01*
X0145536Y0066914D01*
X0144551Y0065929D01*
X0142851D01*
X0142787Y0066039D01*
X0142876Y0066193D01*
X0142962Y0066514D01*
Y0066846D01*
X0142876Y0067167D01*
X014271Y0067455D01*
X0142475Y006769D01*
X0142187Y0067856D01*
X0141866Y0067942D01*
X0141534D01*
X0141213Y0067856D01*
X0140925Y006769D01*
X014069Y0067455D01*
X0140524Y0067167D01*
X0140496Y0067062D01*
X0140364D01*
X0140336Y0067167D01*
X014017Y0067455D01*
X0139935Y006769D01*
X0139647Y0067856D01*
X0139326Y0067942D01*
X0138994D01*
X0138673Y0067856D01*
X0138385Y006769D01*
X013815Y0067455D01*
X0137984Y0067167D01*
X0137898Y0066846D01*
Y0066514D01*
X0137984Y0066193D01*
X0138073Y0066039D01*
X0138009Y0065929D01*
X0121252D01*
X0120072Y0067109D01*
X0120115Y0067229D01*
X0120162Y0067233D01*
X0120445Y0067319D01*
X0120706Y0067458D01*
X0120934Y0067646D01*
X0121122Y0067874D01*
X0121261Y0068135D01*
X0121347Y0068417D01*
X0121376Y0068712D01*
X0121347Y0069006D01*
X0121261Y0069288D01*
X0121122Y0069549D01*
X0120934Y0069777D01*
X0120767Y0069914D01*
X0120762Y0069923D01*
Y0070065D01*
X0120767Y0070074D01*
X0120934Y0070211D01*
X0121122Y007044D01*
X0121261Y00707D01*
X0121347Y0070983D01*
X0121376Y0071277D01*
X0121347Y0071571D01*
X0121261Y0071854D01*
X0121122Y0072114D01*
X0120934Y0072343D01*
X0120785Y0072465D01*
Y0072629D01*
X0120934Y0072751D01*
X0121122Y007298D01*
X0121261Y007324D01*
X0121347Y0073523D01*
X0121376Y0073817D01*
X0121347Y0074111D01*
X0121261Y0074394D01*
X0121122Y0074654D01*
X0120934Y0074883D01*
X0120785Y0075005D01*
Y0075169D01*
X0120934Y0075291D01*
X0121122Y007552D01*
X0121261Y007578D01*
X0121347Y0076063D01*
X0121376Y0076357D01*
X0121347Y0076651D01*
X0121261Y0076934D01*
X0121122Y0077194D01*
X0120934Y0077423D01*
X0120785Y0077545D01*
Y0077709D01*
X0120934Y0077831D01*
X0121122Y007806D01*
X0121261Y007832D01*
X0121347Y0078603D01*
X0121376Y0078897D01*
X0121347Y0079191D01*
X0121261Y0079474D01*
X0121122Y0079734D01*
X0120934Y0079963D01*
X0120785Y0080085D01*
Y0080249D01*
X0120934Y0080371D01*
X0121122Y00806D01*
X0121261Y008086D01*
X0121347Y0081143D01*
X0121376Y0081437D01*
X0121347Y0081731D01*
X0121261Y0082014D01*
X0121122Y0082274D01*
X0120934Y0082503D01*
X0120785Y0082625D01*
Y0082789D01*
X0120934Y0082911D01*
X0121122Y008314D01*
X0121261Y00834D01*
X0121347Y0083683D01*
X0121376Y0083977D01*
X0121347Y0084271D01*
X0121261Y0084554D01*
X0121122Y0084814D01*
X0120934Y0085043D01*
X0120785Y0085165D01*
Y0085329D01*
X0120934Y0085451D01*
X0121122Y008568D01*
X0121261Y008594D01*
X0121347Y0086223D01*
X0121376Y0086517D01*
X0121347Y0086811D01*
X0121261Y0087094D01*
X0121122Y0087354D01*
X0120934Y0087583D01*
X0120785Y0087705D01*
Y0087869D01*
X0120934Y0087991D01*
X0121122Y008822D01*
X0121261Y008848D01*
X0121347Y0088763D01*
X0121376Y0089057D01*
X0121347Y0089351D01*
X0121261Y0089634D01*
X0121122Y0089894D01*
X0120934Y0090123D01*
X0120785Y0090245D01*
Y0090409D01*
X0120934Y0090531D01*
X0121122Y009076D01*
X0121261Y009102D01*
X0121347Y0091303D01*
X0121376Y0091597D01*
X0121347Y0091891D01*
X0121261Y0092174D01*
X0121122Y0092434D01*
X0120934Y0092663D01*
X0120785Y0092785D01*
Y0092949D01*
X0120934Y0093071D01*
X0121122Y00933D01*
X0121261Y009356D01*
X0121347Y0093843D01*
X0121376Y0094137D01*
X0121347Y0094431D01*
X0121261Y0094714D01*
X0121122Y0094974D01*
X0120934Y0095203D01*
X0120785Y0095325D01*
Y0095489D01*
X0120934Y0095611D01*
X0121122Y009584D01*
X0121261Y00961D01*
X0121347Y0096383D01*
X0121376Y0096677D01*
X0121347Y0096971D01*
X0121261Y0097254D01*
X0121122Y0097514D01*
X0120934Y0097743D01*
X0120785Y0097865D01*
Y0098029D01*
X0120934Y0098151D01*
X0121122Y009838D01*
X0121261Y009864D01*
X0121347Y0098923D01*
X0121376Y0099217D01*
X0121347Y0099511D01*
X0121261Y0099794D01*
X0121122Y0100054D01*
X0120934Y0100283D01*
X0120785Y0100405D01*
Y0100569D01*
X0120934Y0100691D01*
X0121122Y010092D01*
X0121261Y010118D01*
X0121347Y0101463D01*
X0121351Y0101511D01*
X0121471Y0101553D01*
X0122625Y0100399D01*
D02*
G37*
%LPC*%
G36*
X015618Y0126965D02*
X015586D01*
X0155546Y0126903D01*
X015525Y012678D01*
X0154984Y0126602D01*
X0154758Y0126376D01*
X015458Y012611D01*
X0154457Y0125814D01*
X0154395Y01255D01*
Y012518D01*
X0154457Y0124866D01*
X015458Y012457D01*
X0154758Y0124304D01*
X0154984Y0124078D01*
X015525Y01239D01*
X0155546Y0123777D01*
X015586Y0123715D01*
X015618D01*
X0156494Y0123777D01*
X015679Y01239D01*
X0157056Y0124078D01*
X0157282Y0124304D01*
X015746Y012457D01*
X0157583Y0124866D01*
X0157645Y012518D01*
Y01255D01*
X0157583Y0125814D01*
X015746Y012611D01*
X0157282Y0126376D01*
X0157056Y0126602D01*
X015679Y012678D01*
X0156494Y0126903D01*
X015618Y0126965D01*
D02*
G37*
G36*
X0161084Y0126858D02*
X0160721Y0126811D01*
X0160384Y0126671D01*
X0160093Y0126448D01*
X0159871Y0126158D01*
X0159731Y012582D01*
X0159683Y0125457D01*
Y0124823D01*
X0159731Y012446D01*
X0159871Y0124122D01*
X0160093Y0123832D01*
X0160384Y0123609D01*
X0160721Y0123469D01*
X0161084Y0123422D01*
X0161447Y0123469D01*
X0161784Y0123609D01*
X0162075Y0123832D01*
X0162297Y0124122D01*
X0162437Y012446D01*
X0162485Y0124823D01*
Y0125457D01*
X0162437Y012582D01*
X0162297Y0126158D01*
X0162075Y0126448D01*
X0161784Y0126671D01*
X0161447Y0126811D01*
X0161084Y0126858D01*
D02*
G37*
G36*
X012858Y012846D02*
X012578D01*
Y012566D01*
Y012312D01*
X012858D01*
Y012566D01*
Y012846D01*
D02*
G37*
G36*
X0188369Y0116721D02*
X0187867D01*
X0187374Y0116623D01*
X018691Y0116431D01*
X0186492Y0116152D01*
X0186137Y0115797D01*
X0185858Y0115379D01*
X0185666Y0114915D01*
X0185568Y0114422D01*
Y011392D01*
X0185666Y0113427D01*
X0185858Y0112963D01*
X0186137Y0112545D01*
X0186492Y011219D01*
X018691Y0111911D01*
X0187374Y0111719D01*
X0187867Y0111621D01*
X0188369D01*
X0188862Y0111719D01*
X0189326Y0111911D01*
X0189744Y011219D01*
X0190099Y0112545D01*
X0190378Y0112963D01*
X019057Y0113427D01*
X0190668Y011392D01*
Y0114422D01*
X019057Y0114915D01*
X0190378Y0115379D01*
X0190099Y0115797D01*
X0189744Y0116152D01*
X0189326Y0116431D01*
X0188862Y0116623D01*
X0188369Y0116721D01*
D02*
G37*
G36*
X0189036Y0098212D02*
X0188704D01*
X0188383Y0098126D01*
X0188095Y009796D01*
X018786Y0097725D01*
X0187694Y0097437D01*
X0187608Y0097116D01*
Y0096784D01*
X0187694Y0096463D01*
X018786Y0096175D01*
X0188095Y009594D01*
X0188383Y0095774D01*
X0188704Y0095688D01*
X0189036D01*
X0189357Y0095774D01*
X0189645Y009594D01*
X018988Y0096175D01*
X0190046Y0096463D01*
X0190132Y0096784D01*
Y0097116D01*
X0190046Y0097437D01*
X018988Y0097725D01*
X0189645Y009796D01*
X0189357Y0098126D01*
X0189036Y0098212D01*
D02*
G37*
G36*
X0188369Y0095385D02*
X0187867D01*
X0187374Y0095287D01*
X018691Y0095095D01*
X0186492Y0094816D01*
X0186137Y0094461D01*
X0185858Y0094043D01*
X0185666Y0093579D01*
X0185568Y0093086D01*
Y0092584D01*
X0185666Y0092091D01*
X0185858Y0091627D01*
X0186137Y0091209D01*
X0186492Y0090854D01*
X018691Y0090575D01*
X0187374Y0090383D01*
X0187867Y0090285D01*
X0188369D01*
X0188862Y0090383D01*
X0189326Y0090575D01*
X0189744Y0090854D01*
X0190099Y0091209D01*
X0190378Y0091627D01*
X019057Y0092091D01*
X0190668Y0092584D01*
Y0093086D01*
X019057Y0093579D01*
X0190378Y0094043D01*
X0190099Y0094461D01*
X0189744Y0094816D01*
X0189326Y0095095D01*
X0188862Y0095287D01*
X0188369Y0095385D01*
D02*
G37*
G36*
X0175817Y0081162D02*
X0175485D01*
X0175164Y0081076D01*
X0174876Y008091D01*
X0174641Y0080675D01*
X0174475Y0080387D01*
X0174389Y0080066D01*
Y0079734D01*
X0174475Y0079413D01*
X0174641Y0079125D01*
X0174876Y007889D01*
X0175164Y0078724D01*
X0175485Y0078638D01*
X0175817D01*
X0176138Y0078724D01*
X0176426Y007889D01*
X0176661Y0079125D01*
X0176827Y0079413D01*
X0176913Y0079734D01*
Y0080066D01*
X0176827Y0080387D01*
X0176661Y0080675D01*
X0176426Y008091D01*
X0176138Y0081076D01*
X0175817Y0081162D01*
D02*
G37*
G36*
X013342Y012735D02*
X0133028Y0127311D01*
X0132651Y0127197D01*
X0132303Y0127011D01*
X0131999Y0126761D01*
X0131749Y0126457D01*
X0131563Y0126109D01*
X0131449Y0125732D01*
X013141Y012534D01*
X0131449Y0124948D01*
X0131563Y0124571D01*
X0131749Y0124223D01*
X0131999Y0123919D01*
X0140399Y0115519D01*
X0140399Y0115519D01*
X0140703Y0115269D01*
X0141051Y0115083D01*
X0141428Y0114969D01*
X014182Y011493D01*
X017649D01*
X017707Y011435D01*
Y00799D01*
X0177109Y0079508D01*
X0177223Y0079131D01*
X0177409Y0078783D01*
X0177659Y0078479D01*
X0177963Y0078229D01*
X0178311Y0078043D01*
X0178688Y0077929D01*
X017908Y007789D01*
X0179472Y0077929D01*
X0179849Y0078043D01*
X0180197Y0078229D01*
X0180501Y0078479D01*
X0180751Y0078783D01*
X0180937Y0079131D01*
X0181051Y0079508D01*
X018109Y00799D01*
Y0115183D01*
X018109Y0115183D01*
X0181051Y0115575D01*
X0180937Y0115952D01*
X0180751Y0116299D01*
X0180501Y0116604D01*
X0180501Y0116604D01*
X0178744Y0118361D01*
X0178439Y0118611D01*
X0178092Y0118797D01*
X0177715Y0118911D01*
X0177323Y011895D01*
X0142652D01*
X0134841Y0126761D01*
X0134537Y0127011D01*
X0134189Y0127197D01*
X0133812Y0127311D01*
X013342Y012735D01*
D02*
G37*
G36*
X0119868Y0118504D02*
X0119574Y0118475D01*
X0119291Y0118389D01*
X0119031Y011825D01*
X0118802Y0118063D01*
X0118615Y0117834D01*
X0118476Y0117574D01*
X011839Y0117291D01*
X0118361Y0116997D01*
X011839Y0116703D01*
X0118476Y011642D01*
X0118615Y011616D01*
X0118802Y0115931D01*
X0119031Y0115744D01*
X0119291Y0115604D01*
X0119574Y0115519D01*
X0119868Y011549D01*
X0120162Y0115519D01*
X0120445Y0115604D01*
X0120706Y0115744D01*
X0120934Y0115931D01*
X0121122Y011616D01*
X0121261Y011642D01*
X0121347Y0116703D01*
X0121376Y0116997D01*
X0121347Y0117291D01*
X0121261Y0117574D01*
X0121122Y0117834D01*
X0120934Y0118063D01*
X0120706Y011825D01*
X0120445Y0118389D01*
X0120162Y0118475D01*
X0119868Y0118504D01*
D02*
G37*
G36*
X0155951Y007949D02*
X0155449D01*
X0154956Y0079392D01*
X0154492Y00792D01*
X0154074Y0078921D01*
X0153719Y0078566D01*
X015344Y0078148D01*
X0153248Y0077684D01*
X015315Y0077191D01*
Y0076689D01*
X0153248Y0076196D01*
X015344Y0075732D01*
X0153719Y0075314D01*
X0154074Y0074959D01*
X0154492Y007468D01*
X0154956Y0074488D01*
X0155449Y007439D01*
X0155951D01*
X0156444Y0074488D01*
X0156908Y007468D01*
X0157326Y0074959D01*
X0157681Y0075314D01*
X015796Y0075732D01*
X0158152Y0076196D01*
X015825Y0076689D01*
Y0077191D01*
X0158152Y0077684D01*
X015796Y0078148D01*
X0157681Y0078566D01*
X0157326Y0078921D01*
X0156908Y00792D01*
X0156444Y0079392D01*
X0155951Y007949D01*
D02*
G37*
G36*
X0104654Y0118493D02*
X010436Y0118464D01*
X0104077Y0118379D01*
X0103816Y0118239D01*
X0103588Y0118052D01*
X01034Y0117823D01*
X0103261Y0117563D01*
X0103175Y011728D01*
X0103146Y0116986D01*
X0103175Y0116692D01*
X0103261Y0116409D01*
X01034Y0116149D01*
X0103588Y011592D01*
X0103737Y0115798D01*
Y0115634D01*
X0103588Y0115512D01*
X01034Y0115283D01*
X0103261Y0115023D01*
X0103175Y011474D01*
X0103146Y0114446D01*
X0103175Y0114152D01*
X0103261Y0113869D01*
X01034Y0113609D01*
X0103588Y011338D01*
X0103737Y0113258D01*
Y0113094D01*
X0103588Y0112972D01*
X01034Y0112743D01*
X0103261Y0112483D01*
X0103175Y01122D01*
X0103146Y0111906D01*
X0103175Y0111612D01*
X0103261Y0111329D01*
X01034Y0111069D01*
X0103588Y011084D01*
X0103737Y0110718D01*
Y0110554D01*
X0103588Y0110432D01*
X01034Y0110203D01*
X0103261Y0109943D01*
X0103175Y010966D01*
X0103146Y0109366D01*
X0103175Y0109072D01*
X0103261Y0108789D01*
X01034Y0108529D01*
X0103588Y01083D01*
X0103737Y0108178D01*
Y0108014D01*
X0103588Y0107892D01*
X01034Y0107663D01*
X0103261Y0107403D01*
X0103175Y010712D01*
X0103146Y0106826D01*
X0103175Y0106532D01*
X0103261Y0106249D01*
X01034Y0105989D01*
X0103588Y010576D01*
X0103737Y0105638D01*
Y0105474D01*
X0103588Y0105352D01*
X01034Y0105123D01*
X0103261Y0104863D01*
X0103175Y010458D01*
X0103146Y0104286D01*
X0103175Y0103992D01*
X0103261Y0103709D01*
X01034Y0103449D01*
X0103588Y010322D01*
X0103737Y0103098D01*
Y0102934D01*
X0103588Y0102812D01*
X01034Y0102583D01*
X0103261Y0102323D01*
X0103175Y010204D01*
X0103146Y0101746D01*
X0103175Y0101452D01*
X0103261Y0101169D01*
X01034Y0100909D01*
X0103588Y010068D01*
X0103737Y0100558D01*
Y0100394D01*
X0103588Y0100272D01*
X01034Y0100043D01*
X0103261Y0099783D01*
X0103175Y00995D01*
X0103146Y0099206D01*
X0103175Y0098912D01*
X0103261Y0098629D01*
X01034Y0098369D01*
X0103588Y009814D01*
X0103737Y0098018D01*
Y0097854D01*
X0103588Y0097732D01*
X01034Y0097503D01*
X0103261Y0097243D01*
X0103175Y009696D01*
X0103146Y0096666D01*
X0103175Y0096372D01*
X0103261Y0096089D01*
X01034Y0095829D01*
X0103588Y00956D01*
X0103737Y0095478D01*
Y0095314D01*
X0103588Y0095192D01*
X01034Y0094963D01*
X0103261Y0094703D01*
X0103175Y009442D01*
X0103146Y0094126D01*
X0103175Y0093832D01*
X0103261Y0093549D01*
X01034Y0093289D01*
X0103588Y009306D01*
X0103737Y0092938D01*
Y0092774D01*
X0103588Y0092652D01*
X01034Y0092423D01*
X0103261Y0092163D01*
X0103175Y009188D01*
X0103146Y0091586D01*
X0103175Y0091292D01*
X0103261Y0091009D01*
X01034Y0090749D01*
X0103588Y009052D01*
X0103737Y0090398D01*
Y0090234D01*
X0103588Y0090112D01*
X01034Y0089883D01*
X0103261Y0089623D01*
X0103175Y008934D01*
X0103146Y0089046D01*
X0103175Y0088752D01*
X0103261Y0088469D01*
X01034Y0088209D01*
X0103588Y008798D01*
X0103737Y0087858D01*
Y0087694D01*
X0103588Y0087572D01*
X01034Y0087343D01*
X0103261Y0087083D01*
X0103175Y00868D01*
X0103146Y0086506D01*
X0103175Y0086212D01*
X0103261Y0085929D01*
X01034Y0085669D01*
X0103588Y008544D01*
X0103737Y0085318D01*
Y0085154D01*
X0103588Y0085032D01*
X01034Y0084803D01*
X0103261Y0084543D01*
X0103175Y008426D01*
X0103146Y0083966D01*
X0103175Y0083672D01*
X0103261Y0083389D01*
X01034Y0083129D01*
X0103588Y00829D01*
X0103737Y0082778D01*
Y0082614D01*
X0103588Y0082492D01*
X01034Y0082263D01*
X0103261Y0082003D01*
X0103175Y008172D01*
X0103146Y0081426D01*
X0103175Y0081132D01*
X0103261Y0080849D01*
X01034Y0080589D01*
X0103588Y008036D01*
X0103737Y0080238D01*
Y0080074D01*
X0103588Y0079952D01*
X01034Y0079723D01*
X0103261Y0079463D01*
X0103175Y007918D01*
X0103146Y0078886D01*
X0103175Y0078592D01*
X0103261Y0078309D01*
X01034Y0078049D01*
X0103588Y007782D01*
X0103737Y0077698D01*
Y0077534D01*
X0103588Y0077412D01*
X01034Y0077183D01*
X0103261Y0076923D01*
X0103175Y007664D01*
X0103146Y0076346D01*
X0103175Y0076052D01*
X0103261Y0075769D01*
X01034Y0075509D01*
X0103588Y007528D01*
X0103737Y0075158D01*
Y0074994D01*
X0103588Y0074872D01*
X01034Y0074643D01*
X0103261Y0074383D01*
X0103175Y00741D01*
X0103146Y0073806D01*
X0103175Y0073512D01*
X0103261Y0073229D01*
X01034Y0072969D01*
X0103588Y007274D01*
X0103816Y0072553D01*
X0104077Y0072414D01*
X010436Y0072328D01*
X0104654Y0072299D01*
X0104948Y0072328D01*
X010523Y0072414D01*
X0105491Y0072553D01*
X0105719Y007274D01*
X0105907Y0072969D01*
X0106046Y0073229D01*
X0106132Y0073512D01*
X0106161Y0073806D01*
X0106132Y00741D01*
X0106046Y0074383D01*
X0105907Y0074643D01*
X0105719Y0074872D01*
X010557Y0074994D01*
Y0075158D01*
X0105719Y007528D01*
X0105907Y0075509D01*
X0106046Y0075769D01*
X0106132Y0076052D01*
X0106161Y0076346D01*
X0106132Y007664D01*
X0106046Y0076923D01*
X0105907Y0077183D01*
X0105719Y0077412D01*
X010557Y0077534D01*
Y0077698D01*
X0105719Y007782D01*
X0105907Y0078049D01*
X0106046Y0078309D01*
X0106132Y0078592D01*
X0106161Y0078886D01*
X0106132Y007918D01*
X0106046Y0079463D01*
X0105907Y0079723D01*
X0105719Y0079952D01*
X010557Y0080074D01*
Y0080238D01*
X0105719Y008036D01*
X0105907Y0080589D01*
X0106046Y0080849D01*
X0106132Y0081132D01*
X0106161Y0081426D01*
X0106132Y008172D01*
X0106046Y0082003D01*
X0105907Y0082263D01*
X0105719Y0082492D01*
X010557Y0082614D01*
Y0082778D01*
X0105719Y00829D01*
X0105907Y0083129D01*
X0106046Y0083389D01*
X0106132Y0083672D01*
X0106161Y0083966D01*
X0106132Y008426D01*
X0106046Y0084543D01*
X0105907Y0084803D01*
X0105719Y0085032D01*
X010557Y0085154D01*
Y0085318D01*
X0105719Y008544D01*
X0105907Y0085669D01*
X0106046Y0085929D01*
X0106132Y0086212D01*
X0106161Y0086506D01*
X0106132Y00868D01*
X0106046Y0087083D01*
X0105907Y0087343D01*
X0105719Y0087572D01*
X010557Y0087694D01*
Y0087858D01*
X0105719Y008798D01*
X0105907Y0088209D01*
X0106046Y0088469D01*
X0106132Y0088752D01*
X0106161Y0089046D01*
X0106132Y008934D01*
X0106046Y0089623D01*
X0105907Y0089883D01*
X0105719Y0090112D01*
X010557Y0090234D01*
Y0090398D01*
X0105719Y009052D01*
X0105907Y0090749D01*
X0106046Y0091009D01*
X0106132Y0091292D01*
X0106161Y0091586D01*
X0106132Y009188D01*
X0106046Y0092163D01*
X0105907Y0092423D01*
X0105719Y0092652D01*
X010557Y0092774D01*
Y0092938D01*
X0105719Y009306D01*
X0105907Y0093289D01*
X0106046Y0093549D01*
X0106132Y0093832D01*
X0106161Y0094126D01*
X0106132Y009442D01*
X0106046Y0094703D01*
X0105907Y0094963D01*
X0105719Y0095192D01*
X010557Y0095314D01*
Y0095478D01*
X0105719Y00956D01*
X0105907Y0095829D01*
X0106046Y0096089D01*
X0106132Y0096372D01*
X0106161Y0096666D01*
X0106132Y009696D01*
X0106046Y0097243D01*
X0105907Y0097503D01*
X0105719Y0097732D01*
X010557Y0097854D01*
Y0098018D01*
X0105719Y009814D01*
X0105907Y0098369D01*
X0106046Y0098629D01*
X0106132Y0098912D01*
X0106161Y0099206D01*
X0106132Y00995D01*
X0106046Y0099783D01*
X0105907Y0100043D01*
X0105719Y0100272D01*
X010557Y0100394D01*
Y0100558D01*
X0105719Y010068D01*
X0105907Y0100909D01*
X0106046Y0101169D01*
X0106132Y0101452D01*
X0106161Y0101746D01*
X0106132Y010204D01*
X0106046Y0102323D01*
X0105907Y0102583D01*
X0105719Y0102812D01*
X010557Y0102934D01*
Y0103098D01*
X0105719Y010322D01*
X0105907Y0103449D01*
X0106046Y0103709D01*
X0106132Y0103992D01*
X0106161Y0104286D01*
X0106132Y010458D01*
X0106046Y0104863D01*
X0105907Y0105123D01*
X0105719Y0105352D01*
X010557Y0105474D01*
Y0105638D01*
X0105719Y010576D01*
X0105907Y0105989D01*
X0106046Y0106249D01*
X0106132Y0106532D01*
X0106161Y0106826D01*
X0106132Y010712D01*
X0106046Y0107403D01*
X0105907Y0107663D01*
X0105719Y0107892D01*
X010557Y0108014D01*
Y0108178D01*
X0105719Y01083D01*
X0105907Y0108529D01*
X0106046Y0108789D01*
X0106132Y0109072D01*
X0106161Y0109366D01*
X0106132Y010966D01*
X0106046Y0109943D01*
X0105907Y0110203D01*
X0105719Y0110432D01*
X010557Y0110554D01*
Y0110718D01*
X0105719Y011084D01*
X0105907Y0111069D01*
X0106046Y0111329D01*
X0106132Y0111612D01*
X0106161Y0111906D01*
X0106132Y01122D01*
X0106046Y0112483D01*
X0105907Y0112743D01*
X0105719Y0112972D01*
X010557Y0113094D01*
Y0113258D01*
X0105719Y011338D01*
X0105907Y0113609D01*
X0106046Y0113869D01*
X0106132Y0114152D01*
X0106161Y0114446D01*
X0106132Y011474D01*
X0106046Y0115023D01*
X0105907Y0115283D01*
X0105719Y0115512D01*
X010557Y0115634D01*
Y0115798D01*
X0105719Y011592D01*
X0105907Y0116149D01*
X0106046Y0116409D01*
X0106132Y0116692D01*
X0106161Y0116986D01*
X0106132Y011728D01*
X0106046Y0117563D01*
X0105907Y0117823D01*
X0105719Y0118052D01*
X0105491Y0118239D01*
X010523Y0118379D01*
X0104948Y0118464D01*
X0104654Y0118493D01*
D02*
G37*
G36*
X0184326Y0065414D02*
X0183994D01*
X0183673Y0065328D01*
X0183385Y0065162D01*
X018315Y0064927D01*
X0182984Y0064639D01*
X0182956Y0064534D01*
X0182824D01*
X0182796Y0064639D01*
X018263Y0064927D01*
X0182395Y0065162D01*
X0182107Y0065328D01*
X0181786Y0065414D01*
X0181454D01*
X0181133Y0065328D01*
X0180845Y0065162D01*
X018061Y0064927D01*
X0180444Y0064639D01*
X0180416Y0064534D01*
X0180284D01*
X0180256Y0064639D01*
X018009Y0064927D01*
X0179855Y0065162D01*
X0179567Y0065328D01*
X0179246Y0065414D01*
X0178914D01*
X0178593Y0065328D01*
X0178305Y0065162D01*
X017807Y0064927D01*
X0177904Y0064639D01*
X0177876Y0064534D01*
X0177744D01*
X0177716Y0064639D01*
X017755Y0064927D01*
X0177315Y0065162D01*
X0177027Y0065328D01*
X0176706Y0065414D01*
X0176374D01*
X0176053Y0065328D01*
X0175765Y0065162D01*
X017553Y0064927D01*
X0175364Y0064639D01*
X0175278Y0064318D01*
Y0063986D01*
X0175364Y0063665D01*
X017553Y0063377D01*
X0175765Y0063142D01*
X0176053Y0062976D01*
X0176374Y006289D01*
X0176706D01*
X0177027Y0062976D01*
X0177315Y0063142D01*
X017755Y0063377D01*
X0177716Y0063665D01*
X0177744Y006377D01*
X0177876D01*
X0177904Y0063665D01*
X017807Y0063377D01*
X0178305Y0063142D01*
X0178593Y0062976D01*
X0178914Y006289D01*
X0179246D01*
X0179567Y0062976D01*
X0179855Y0063142D01*
X018009Y0063377D01*
X0180256Y0063665D01*
X0180284Y006377D01*
X0180416D01*
X0180444Y0063665D01*
X018061Y0063377D01*
X0180845Y0063142D01*
X0181133Y0062976D01*
X0181454Y006289D01*
X0181786D01*
X0182107Y0062976D01*
X0182395Y0063142D01*
X018263Y0063377D01*
X0182796Y0063665D01*
X0182824Y006377D01*
X0182956D01*
X0182984Y0063665D01*
X018315Y0063377D01*
X0183385Y0063142D01*
X0183673Y0062976D01*
X0183994Y006289D01*
X0184326D01*
X0184647Y0062976D01*
X0184935Y0063142D01*
X018517Y0063377D01*
X0185336Y0063665D01*
X0185422Y0063986D01*
Y0064318D01*
X0185336Y0064639D01*
X018517Y0064927D01*
X0184935Y0065162D01*
X0184647Y0065328D01*
X0184326Y0065414D01*
D02*
G37*
G36*
X0171626D02*
X0171294D01*
X0170973Y0065328D01*
X0170685Y0065162D01*
X017045Y0064927D01*
X0170284Y0064639D01*
X0170198Y0064318D01*
Y0063986D01*
X0170284Y0063665D01*
X017045Y0063377D01*
X0170685Y0063142D01*
X0170973Y0062976D01*
X0171294Y006289D01*
X0171626D01*
X0171947Y0062976D01*
X0172235Y0063142D01*
X017247Y0063377D01*
X0172636Y0063665D01*
X0172722Y0063986D01*
Y0064318D01*
X0172636Y0064639D01*
X017247Y0064927D01*
X0172235Y0065162D01*
X0171947Y0065328D01*
X0171626Y0065414D01*
D02*
G37*
G36*
X0135158Y006004D02*
X0134802D01*
X0134459Y0059948D01*
X0134151Y005977D01*
X01339Y0059519D01*
X0133722Y0059211D01*
X013363Y0058868D01*
Y0058512D01*
X0133722Y0058169D01*
X01339Y0057861D01*
X0134151Y005761D01*
X0134353Y0057493D01*
Y0057347D01*
X0134151Y005723D01*
X01339Y0056979D01*
X0133722Y0056671D01*
X013363Y0056328D01*
Y0055972D01*
X0133722Y0055629D01*
X01339Y0055321D01*
X0134151Y005507D01*
X0134459Y0054892D01*
X0134802Y00548D01*
X0135158D01*
X0135501Y0054892D01*
X0135809Y005507D01*
X013606Y0055321D01*
X0136238Y0055629D01*
X013633Y0055972D01*
Y0056328D01*
X0136238Y0056671D01*
X013606Y0056979D01*
X0135809Y005723D01*
X0135607Y0057347D01*
Y0057493D01*
X0135809Y005761D01*
X013606Y0057861D01*
X0136238Y0058169D01*
X013633Y0058512D01*
Y0058868D01*
X0136238Y0059211D01*
X013606Y0059519D01*
X0135809Y005977D01*
X0135501Y0059948D01*
X0135158Y006004D01*
D02*
G37*
G36*
X015208Y005256D02*
X014948D01*
Y004996D01*
X015208D01*
Y005256D01*
D02*
G37*
G36*
X013633Y005242D02*
X013363D01*
Y004972D01*
X013633D01*
Y005242D01*
D02*
G37*
%LPD*%
D20*
X0136542Y007388D02*
X014192D01*
X0141944Y0073904D01*
X0128257Y008254D02*
Y008304D01*
X01272Y0084019D02*
Y0093353D01*
X0128157Y008314D02*
X0128257Y008304D01*
X0128079Y008314D02*
X0128157D01*
X0128257Y008254D02*
X0128357Y008244D01*
X0130793Y0096945D02*
X0131079D01*
X01272Y0084019D02*
X0128079Y008314D01*
X01272Y0093353D02*
X0130793Y0096945D01*
X0123886Y00761D02*
X012882Y0071167D01*
X0120606Y0104201D02*
X0123886Y0100921D01*
Y00761D02*
Y0100921D01*
X0128346Y0082428D02*
X0128357Y008244D01*
X0131265Y0096945D02*
X013127Y009695D01*
X0130973Y0096945D02*
X0131265D01*
X0131362Y0097D02*
Y0102718D01*
X0119964Y0111821D02*
X0122259D01*
X0131362Y0102718D01*
X0119868Y0111917D02*
X0119964Y0111821D01*
X0151027Y0064668D02*
X0151326D01*
X01584Y005126D02*
Y0057593D01*
X0151326Y0064668D02*
X01584Y0057593D01*
X0149848Y0065847D02*
X0151027Y0064668D01*
X0149848Y0065847D02*
Y0066146D01*
X0147848Y0065018D02*
X0150198Y0062668D01*
X015586Y005126D02*
Y005706D01*
X0150198Y0062668D02*
X0150252D01*
X0147848Y0065018D02*
Y0065072D01*
X0146785Y0066135D02*
Y0066675D01*
X0150252Y0062668D02*
X015586Y005706D01*
X0146785Y0066135D02*
X0147848Y0065072D01*
X014678Y006668D02*
X0146785Y0066675D01*
X0145139Y0071167D02*
X0148792Y0067513D01*
X0134987Y0071167D02*
X0145139D01*
X0145073Y0064668D02*
X0146775Y006637D01*
Y0066675D02*
X014678Y006668D01*
X0146775Y006637D02*
Y0066675D01*
X012073Y0064668D02*
X0145073D01*
X0117618Y006778D02*
X012073Y0064668D01*
X0117618Y006778D02*
Y0100149D01*
X0119131Y0101661D01*
X0119773D01*
X0119868Y0101757D01*
X0119964Y0104201D02*
X0120606D01*
X012882Y0071167D02*
X0134987D01*
X0119868Y0104297D02*
X0119964Y0104201D01*
X0158419Y0050882D02*
X0160171Y004913D01*
X0177509D01*
X017871Y0050331D01*
Y0050663D01*
X0158419Y0050882D02*
Y0051241D01*
X017871Y0050663D02*
X01792Y0051153D01*
X01584Y005126D02*
X0158419Y0051241D01*
X01792Y0051153D02*
Y005118D01*
X014932Y0066674D02*
Y006668D01*
Y0066674D02*
X0149848Y0066146D01*
X0131234Y007492D02*
X0134987Y0071167D01*
X0131234Y007492D02*
Y007542D01*
X0131257Y0079163D02*
X0132195Y0078225D01*
X0132196D01*
X0136542Y007388D01*
X0131257Y0079163D02*
Y008244D01*
X0128334Y007542D02*
X0128346Y0075432D01*
Y0082428D01*
D21*
X0128334Y007542D02*
D03*
X0131234D02*
D03*
X0128357Y008244D02*
D03*
X0131257D02*
D03*
D36*
X017908Y00799D02*
Y0115183D01*
X0177323Y011694D02*
X017908Y0115183D01*
X014182Y011694D02*
X0177323D01*
X013342Y012534D02*
X014182Y011694D01*
X017968Y012472D02*
Y012642D01*
X0169001Y0128473D02*
X0177626D01*
X017968Y012642D01*
X016718Y0126653D02*
X0169001Y0128473D01*
X016718Y012514D02*
Y0126653D01*
D37*
X012718Y012452D02*
D03*
Y012706D02*
D03*
D38*
X013498Y005869D02*
D03*
Y005615D02*
D03*
Y005361D02*
D03*
D39*
Y005107D02*
D03*
D40*
X018887Y009695D02*
D03*
X013109Y01098D02*
D03*
Y009695D02*
D03*
X018875Y01098D02*
D03*
X015694Y006668D02*
D03*
X01544D02*
D03*
X015186D02*
D03*
X014932D02*
D03*
X014678D02*
D03*
X014424D02*
D03*
X01417D02*
D03*
X013916D02*
D03*
X018416Y0064152D02*
D03*
X018162D02*
D03*
X017908D02*
D03*
X017654D02*
D03*
X0174D02*
D03*
X017146D02*
D03*
X017908Y00799D02*
D03*
X0175651D02*
D03*
D41*
X0188118Y0092835D02*
D03*
Y0114171D02*
D03*
X0131349Y0092835D02*
D03*
Y0114171D02*
D03*
X01557Y007694D02*
D03*
X014038Y007718D02*
D03*
X019006Y012842D02*
D03*
Y003688D02*
D03*
X009846D02*
D03*
X009852Y012844D02*
D03*
D42*
X0173276Y0125267D02*
D03*
X0161084Y012514D02*
D03*
D43*
X0170228Y0125267D02*
D03*
X016718Y012514D02*
D03*
X0164132D02*
D03*
D44*
X018476Y012472D02*
D03*
X017968D02*
D03*
D45*
X0119868Y0083977D02*
D03*
Y0086517D02*
D03*
Y0089057D02*
D03*
Y0091597D02*
D03*
Y0096677D02*
D03*
Y0099217D02*
D03*
Y0101757D02*
D03*
Y0094137D02*
D03*
Y0081437D02*
D03*
Y0071277D02*
D03*
Y0073817D02*
D03*
Y0076357D02*
D03*
Y0068712D02*
D03*
Y0078897D02*
D03*
X0104654Y0104286D02*
D03*
Y0106826D02*
D03*
Y0099206D02*
D03*
Y0109366D02*
D03*
Y0111906D02*
D03*
Y0114446D02*
D03*
Y0116986D02*
D03*
Y0101746D02*
D03*
Y0096666D02*
D03*
Y0086506D02*
D03*
Y0094126D02*
D03*
Y0091586D02*
D03*
Y0089046D02*
D03*
Y0083966D02*
D03*
Y0081426D02*
D03*
Y0071266D02*
D03*
Y0073806D02*
D03*
Y0076346D02*
D03*
Y0068726D02*
D03*
Y0078886D02*
D03*
X0119868Y0104297D02*
D03*
Y0114457D02*
D03*
Y0106837D02*
D03*
Y0116997D02*
D03*
Y0111917D02*
D03*
Y0109377D02*
D03*
D46*
X017666Y005118D02*
D03*
X017412D02*
D03*
X01792D02*
D03*
X018174D02*
D03*
X018428D02*
D03*
X016348Y005126D02*
D03*
X016094D02*
D03*
X01584D02*
D03*
X015332D02*
D03*
X015586D02*
D03*
D47*
X017158Y005118D02*
D03*
X015078Y005126D02*
D03*
D48*
X015602Y012534D02*
D03*
X013342D02*
D03*
D49*
X0141944Y0073904D02*
D03*
M02*
