G04*
G04 #@! TF.GenerationSoftware,Altium Limited,Altium Designer,21.9.2 (33)*
G04*
G04 Layer_Physical_Order=2*
G04 Layer_Color=16711680*
%FSTAX24Y24*%
%MOIN*%
G70*
G04*
G04 #@! TF.SameCoordinates,B016B879-35A3-4FB3-9991-AC620A3742E7*
G04*
G04*
G04 #@! TF.FilePolarity,Positive*
G04*
G01*
G75*
%ADD19C,0.0197*%
%ADD37R,0.0709X0.0709*%
%ADD38P,0.0704X8X22.5*%
%ADD39C,0.0650*%
%ADD40C,0.0551*%
%ADD41C,0.0600*%
%ADD42C,0.0886*%
%ADD43C,0.0630*%
%ADD44R,0.0630X0.0630*%
%ADD45C,0.0591*%
%ADD46O,0.0787X0.0787*%
%ADD47C,0.0750*%
%ADD48R,0.0630X0.0630*%
%ADD49C,0.1575*%
%ADD50C,0.0500*%
G36*
X076189Y013205D02*
X038205D01*
Y051189D01*
X076189D01*
Y013205D01*
D02*
G37*
%LPC*%
G36*
X074623Y050415D02*
X074448D01*
X074277Y050381D01*
X074115Y050314D01*
X07397Y050217D01*
X073846Y050093D01*
X073749Y049948D01*
X073682Y049786D01*
X073648Y049615D01*
Y04944D01*
X073682Y049269D01*
X073749Y049107D01*
X073846Y048962D01*
X07397Y048838D01*
X074115Y048741D01*
X074277Y048674D01*
X074448Y04864D01*
X074623D01*
X074794Y048674D01*
X074956Y048741D01*
X075101Y048838D01*
X075225Y048962D01*
X075322Y049107D01*
X075389Y049269D01*
X075423Y04944D01*
Y049615D01*
X075389Y049786D01*
X075322Y049948D01*
X075225Y050093D01*
X075101Y050217D01*
X074956Y050314D01*
X074794Y050381D01*
X074623Y050415D01*
D02*
G37*
G36*
X039969Y050391D02*
X039794D01*
X039623Y050357D01*
X039462Y05029D01*
X039316Y050193D01*
X039193Y05007D01*
X039095Y049924D01*
X039029Y049763D01*
X038995Y049591D01*
Y049417D01*
X039029Y049245D01*
X039095Y049084D01*
X039193Y048938D01*
X039316Y048815D01*
X039462Y048718D01*
X039623Y048651D01*
X039794Y048617D01*
X039969D01*
X040141Y048651D01*
X040302Y048718D01*
X040448Y048815D01*
X040571Y048938D01*
X040668Y049084D01*
X040735Y049245D01*
X040769Y049417D01*
Y049591D01*
X040735Y049763D01*
X040668Y049924D01*
X040571Y05007D01*
X040448Y050193D01*
X040302Y05029D01*
X040141Y050357D01*
X039969Y050391D01*
D02*
G37*
G36*
X071884Y047927D02*
X071785D01*
X07169Y047901D01*
X071604Y047852D01*
X071534Y047782D01*
X071485Y047696D01*
X071459Y047601D01*
Y047502D01*
X071485Y047406D01*
X071534Y047321D01*
X071604Y047251D01*
X07169Y047201D01*
X071785Y047176D01*
X071884D01*
X07198Y047201D01*
X072065Y047251D01*
X072135Y047321D01*
X072185Y047406D01*
X07221Y047502D01*
Y047601D01*
X072185Y047696D01*
X072135Y047782D01*
X072065Y047852D01*
X07198Y047901D01*
X071884Y047927D01*
D02*
G37*
G36*
X043916Y04935D02*
X043824D01*
X043735Y049326D01*
X043655Y04928D01*
X04359Y049215D01*
X043544Y049135D01*
X04352Y049046D01*
Y048954D01*
X043544Y048865D01*
X04359Y048785D01*
X043655Y04872D01*
X043735Y048674D01*
X043824Y04865D01*
X043916D01*
X044005Y048674D01*
X044085Y04872D01*
X04415Y048785D01*
X044157Y048798D01*
X073186D01*
X074619Y047365D01*
X074593Y04732D01*
X074497D01*
X074391Y047292D01*
X074296Y047238D01*
X074219Y04716D01*
X074189Y047108D01*
X067407D01*
X067394Y047158D01*
X067459Y047196D01*
X067529Y047265D01*
X067578Y047351D01*
X067604Y047447D01*
Y047546D01*
X067578Y047641D01*
X067529Y047727D01*
X067459Y047797D01*
X067373Y047846D01*
X067278Y047872D01*
X067179D01*
X067083Y047846D01*
X066998Y047797D01*
X066928Y047727D01*
X066878Y047641D01*
X066853Y047546D01*
Y047447D01*
X066878Y047351D01*
X066928Y047265D01*
X066998Y047196D01*
X067063Y047158D01*
X06705Y047108D01*
X063391D01*
X063378Y047158D01*
X063443Y047196D01*
X063513Y047265D01*
X063563Y047351D01*
X063588Y047447D01*
Y047546D01*
X063563Y047641D01*
X063513Y047727D01*
X063443Y047797D01*
X063358Y047846D01*
X063262Y047872D01*
X063163D01*
X063068Y047846D01*
X062982Y047797D01*
X062912Y047727D01*
X062863Y047641D01*
X062837Y047546D01*
Y047447D01*
X062863Y047351D01*
X062912Y047265D01*
X062982Y047196D01*
X063047Y047158D01*
X063034Y047108D01*
X054658D01*
X05458Y047092D01*
X054515Y047049D01*
X053704Y046238D01*
X053656Y046251D01*
X053551D01*
X053449Y046224D01*
X053358Y046171D01*
X053283Y046097D01*
X053231Y046006D01*
X053204Y045904D01*
Y045799D01*
X053231Y045697D01*
X053283Y045606D01*
X053291Y045599D01*
X053271Y045552D01*
X053194D01*
X053005Y045741D01*
X052939Y045785D01*
X052862Y0458D01*
X040749D01*
Y046013D01*
X039919D01*
Y045469D01*
X039381Y044931D01*
X039337Y044865D01*
X039321Y044788D01*
Y036343D01*
X039337Y036265D01*
X039381Y0362D01*
X040002Y035578D01*
Y035034D01*
X040738D01*
Y034781D01*
X040691Y034762D01*
X040672Y034781D01*
X040578Y034836D01*
X040472Y034864D01*
X040467D01*
Y034449D01*
Y034034D01*
X040472D01*
X040578Y034062D01*
X040672Y034117D01*
X040691Y034136D01*
X040738Y034117D01*
Y033781D01*
X040691Y033762D01*
X040672Y033781D01*
X040578Y033836D01*
X040472Y033864D01*
X040363D01*
X040257Y033836D01*
X040163Y033781D01*
X040085Y033704D01*
X040031Y033609D01*
X040002Y033503D01*
Y033394D01*
X040018Y033336D01*
X039757Y033075D01*
X039713Y033009D01*
X039698Y032931D01*
Y025061D01*
X039713Y024983D01*
X039757Y024918D01*
X040257Y024418D01*
X040323Y024374D01*
X0404Y024358D01*
X041387D01*
X041401Y024308D01*
X041353Y024281D01*
X041278Y024206D01*
X041226Y024115D01*
X041198Y024013D01*
Y023908D01*
X041226Y023806D01*
X041278Y023715D01*
X041353Y023641D01*
X041444Y023588D01*
X041546Y023561D01*
X041651D01*
X041753Y023588D01*
X04184Y023638D01*
X042149Y023329D01*
Y022345D01*
X042164Y022267D01*
X042208Y022202D01*
X047568Y016842D01*
X047547Y016792D01*
X04468D01*
X044603Y016777D01*
X044537Y016733D01*
X044247Y016443D01*
X044203Y016377D01*
X044188Y0163D01*
Y01505D01*
X044203Y014973D01*
X044247Y014907D01*
X044357Y014797D01*
X044423Y014753D01*
X0445Y014738D01*
X0461D01*
X046177Y014753D01*
X046243Y014797D01*
X046748Y015302D01*
X047005D01*
X04865Y013657D01*
X048715Y013613D01*
X048793Y013598D01*
X06066D01*
X060737Y013613D01*
X060803Y013657D01*
X062398Y015252D01*
X062941D01*
Y016081D01*
X062111D01*
Y015538D01*
X060576Y014002D01*
X048877D01*
X047291Y015588D01*
Y016091D01*
X047603D01*
X047614Y016041D01*
X047544Y015971D01*
X04749Y015877D01*
X047461Y015771D01*
Y015767D01*
X048291D01*
Y015771D01*
X048263Y015877D01*
X048208Y015971D01*
X048139Y016041D01*
X04815Y016091D01*
X048603D01*
X048614Y016041D01*
X048544Y015971D01*
X04849Y015877D01*
X048461Y015771D01*
Y015662D01*
X04849Y015556D01*
X048544Y015462D01*
X048622Y015384D01*
X048716Y01533D01*
X048822Y015302D01*
X048931D01*
X049037Y01533D01*
X049131Y015384D01*
X049208Y015462D01*
X049263Y015556D01*
X049291Y015662D01*
Y015771D01*
X049263Y015877D01*
X049208Y015971D01*
X049139Y016041D01*
X04915Y016091D01*
X049216D01*
X049477Y01583D01*
X049461Y015771D01*
Y015662D01*
X04949Y015556D01*
X049544Y015462D01*
X049622Y015384D01*
X049716Y01533D01*
X049822Y015302D01*
X049931D01*
X050037Y01533D01*
X050131Y015384D01*
X050208Y015462D01*
X050263Y015556D01*
X050291Y015662D01*
Y015771D01*
X050263Y015877D01*
X050208Y015971D01*
X050131Y016049D01*
X050037Y016103D01*
X049931Y016131D01*
X049822D01*
X049763Y016116D01*
X049538Y016341D01*
X049557Y016388D01*
X053619D01*
X054161Y015845D01*
Y015302D01*
X054991D01*
Y016131D01*
X054448D01*
X053888Y016691D01*
X053908Y016741D01*
X067015D01*
X067861Y015895D01*
Y015352D01*
X068691D01*
Y016181D01*
X068148D01*
X067242Y017087D01*
X067177Y017131D01*
X067099Y017146D01*
X047836D01*
X042554Y022428D01*
Y023158D01*
X0426Y023177D01*
X046216Y019561D01*
X046207Y01953D01*
Y019431D01*
X046233Y019335D01*
X046282Y01925D01*
X046352Y01918D01*
X046438Y01913D01*
X046533Y019105D01*
X046632D01*
X046728Y01913D01*
X046813Y01918D01*
X046883Y01925D01*
X046933Y019335D01*
X046958Y019431D01*
Y01953D01*
X046933Y019625D01*
X046883Y019711D01*
X046813Y019781D01*
X046728Y01983D01*
X046632Y019856D01*
X046533D01*
X046502Y019847D01*
X04285Y023499D01*
Y023602D01*
X042896Y023627D01*
X046272Y020251D01*
X046338Y020207D01*
X046415Y020191D01*
X050958D01*
X050977Y020145D01*
X050679Y019847D01*
X050648Y019856D01*
X050549D01*
X050453Y01983D01*
X050368Y019781D01*
X050298Y019711D01*
X050248Y019625D01*
X050223Y01953D01*
Y019431D01*
X050248Y019335D01*
X050298Y01925D01*
X050368Y01918D01*
X050453Y01913D01*
X050549Y019105D01*
X050648D01*
X050743Y01913D01*
X050829Y01918D01*
X050899Y01925D01*
X050948Y019335D01*
X050974Y019431D01*
Y01953D01*
X050966Y019561D01*
X051292Y019888D01*
X051719D01*
X05174Y019838D01*
X051707Y019805D01*
X051658Y01972D01*
X051632Y019624D01*
Y019525D01*
X051658Y01943D01*
X051707Y019344D01*
X051777Y019274D01*
X051863Y019225D01*
X051958Y019199D01*
X052057D01*
X052089Y019208D01*
X05347Y017827D01*
X053535Y017783D01*
X053613Y017768D01*
X056757D01*
X056835Y017783D01*
X0569Y017827D01*
X057286Y018213D01*
X0573Y018209D01*
X057393D01*
X057482Y018233D01*
X057561Y018279D01*
X057627Y018344D01*
X057673Y018424D01*
X057696Y018513D01*
Y018605D01*
X057673Y018694D01*
X057627Y018774D01*
X057561Y018839D01*
X057482Y018885D01*
X057393Y018909D01*
X0573D01*
X057211Y018885D01*
X057132Y018839D01*
X057066Y018774D01*
X05702Y018694D01*
X056996Y018605D01*
Y018513D01*
X057Y018499D01*
X056674Y018172D01*
X053696D01*
X052375Y019494D01*
X052383Y019525D01*
Y019624D01*
X052358Y01972D01*
X052308Y019805D01*
X052276Y019838D01*
X052297Y019888D01*
X055425D01*
X055656Y019656D01*
X055648Y019624D01*
Y019525D01*
X055674Y01943D01*
X055723Y019344D01*
X055793Y019274D01*
X055879Y019225D01*
X055974Y019199D01*
X056073D01*
X056169Y019225D01*
X056254Y019274D01*
X056324Y019344D01*
X056374Y01943D01*
X056399Y019525D01*
Y019624D01*
X056374Y01972D01*
X056324Y019805D01*
X056254Y019875D01*
X056169Y019925D01*
X056073Y01995D01*
X055974D01*
X055943Y019942D01*
X055739Y020145D01*
X055758Y020191D01*
X060424D01*
X060445Y020141D01*
X060398Y020095D01*
X060352Y020015D01*
X060328Y019926D01*
Y019834D01*
X060352Y019745D01*
X060398Y019665D01*
X060463Y0196D01*
X060543Y019554D01*
X060632Y01953D01*
X060724D01*
X060738Y019534D01*
X062502Y01777D01*
X062567Y017726D01*
X062645Y017711D01*
X064809D01*
X064825Y017683D01*
X064895Y017613D01*
X064981Y017563D01*
X065077Y017538D01*
X065175D01*
X065271Y017563D01*
X065357Y017613D01*
X065427Y017683D01*
X065443Y017711D01*
X0674D01*
X06814Y016971D01*
X068206Y016927D01*
X068283Y016912D01*
X068845D01*
X069877Y01588D01*
X069861Y015821D01*
Y015712D01*
X06989Y015606D01*
X069944Y015512D01*
X070022Y015434D01*
X070116Y01538D01*
X070222Y015352D01*
X070331D01*
X070437Y01538D01*
X070531Y015434D01*
X070608Y015512D01*
X070663Y015606D01*
X070691Y015712D01*
Y015821D01*
X070663Y015927D01*
X070608Y016021D01*
X070531Y016099D01*
X070437Y016153D01*
X070331Y016181D01*
X070222D01*
X070163Y016166D01*
X069148Y017181D01*
X069167Y017228D01*
X069529D01*
X070877Y01588D01*
X070861Y015821D01*
Y015712D01*
X07089Y015606D01*
X070944Y015512D01*
X071022Y015434D01*
X071116Y01538D01*
X071222Y015352D01*
X071331D01*
X071437Y01538D01*
X071531Y015434D01*
X071608Y015512D01*
X071663Y015606D01*
X071691Y015712D01*
Y015821D01*
X071676Y01588D01*
X07242Y016624D01*
X075047D01*
X075077Y016572D01*
X075155Y016495D01*
X075249Y01644D01*
X075355Y016412D01*
X075464D01*
X07557Y01644D01*
X075664Y016495D01*
X075741Y016572D01*
X075796Y016667D01*
X075824Y016772D01*
Y016881D01*
X075796Y016987D01*
X075741Y017082D01*
X075664Y017159D01*
X07557Y017213D01*
X075464Y017242D01*
X075355D01*
X075249Y017213D01*
X075155Y017159D01*
X075077Y017082D01*
X075047Y017029D01*
X072337D01*
X072259Y017014D01*
X072194Y01697D01*
X07139Y016166D01*
X071331Y016181D01*
X071222D01*
X071163Y016166D01*
X069756Y017573D01*
X06969Y017617D01*
X069613Y017632D01*
X069472D01*
X06945Y017679D01*
X069471Y017711D01*
X072146D01*
X072174Y017684D01*
X072239Y01764D01*
X072317Y017624D01*
X074994D01*
Y017412D01*
X075824D01*
Y018242D01*
X074994D01*
Y018029D01*
X0724D01*
X072373Y018056D01*
X072307Y0181D01*
X07223Y018116D01*
X069459D01*
X069442Y018144D01*
X069372Y018214D01*
X069287Y018263D01*
X069191Y018289D01*
X069092D01*
X068997Y018263D01*
X068911Y018214D01*
X068841Y018144D01*
X068792Y018058D01*
X068766Y017963D01*
Y017864D01*
X068782Y017805D01*
X068737Y017779D01*
X064403Y022113D01*
X064337Y022157D01*
X06426Y022172D01*
X062228D01*
X062223Y022222D01*
X062277Y022233D01*
X062343Y022277D01*
X062523Y022457D01*
X062567Y022523D01*
X062582Y0226D01*
Y023651D01*
X062567Y023729D01*
X062523Y023795D01*
X062206Y024111D01*
X062225Y024158D01*
X06599D01*
X066067Y024173D01*
X066133Y024217D01*
X066314Y024398D01*
X070782D01*
X070797Y024348D01*
X070684Y024272D01*
X07056Y024149D01*
X070463Y024003D01*
X070396Y023842D01*
X070362Y02367D01*
Y023496D01*
X070396Y023324D01*
X070463Y023163D01*
X07056Y023017D01*
X070684Y022894D01*
X070829Y022797D01*
X070991Y02273D01*
X071162Y022696D01*
X071337D01*
X071509Y02273D01*
X07167Y022797D01*
X071815Y022894D01*
X071939Y023017D01*
X072036Y023163D01*
X072103Y023324D01*
X072137Y023496D01*
Y02367D01*
X072103Y023842D01*
X072036Y024003D01*
X071939Y024149D01*
X071815Y024272D01*
X071703Y024348D01*
X071718Y024398D01*
X072045D01*
X072601Y023841D01*
X072589Y023796D01*
Y023692D01*
X072616Y023592D01*
X072668Y023501D01*
X072742Y023428D01*
X072832Y023376D01*
X072932Y023349D01*
X073036D01*
X073137Y023376D01*
X073227Y023428D01*
X073301Y023501D01*
X073353Y023592D01*
X07338Y023692D01*
Y023796D01*
X073353Y023897D01*
X073301Y023987D01*
X073227Y02406D01*
X073137Y024112D01*
X073036Y024139D01*
X072932D01*
X072887Y024127D01*
X072271Y024743D01*
X072206Y024787D01*
X072128Y024802D01*
X06623D01*
X066153Y024787D01*
X066087Y024743D01*
X065906Y024562D01*
X064766D01*
X064751Y024612D01*
X064815Y024676D01*
X064868Y024768D01*
X064895Y024869D01*
Y024975D01*
X064868Y025076D01*
X064815Y025168D01*
X064741Y025242D01*
X06465Y025295D01*
X064548Y025322D01*
X064443D01*
X064341Y025295D01*
X06425Y025242D01*
X064175Y025168D01*
X064123Y025076D01*
X064095Y024975D01*
Y024869D01*
X064123Y024768D01*
X064175Y024676D01*
X064239Y024612D01*
X064225Y024562D01*
X061755D01*
X059997Y026321D01*
X060006Y026352D01*
Y026451D01*
X05998Y026547D01*
X05993Y026632D01*
X059861Y026702D01*
X059775Y026752D01*
X059679Y026777D01*
X05958D01*
X059485Y026752D01*
X059399Y026702D01*
X059329Y026632D01*
X059313Y026604D01*
X058676D01*
X058633Y026647D01*
X058567Y026691D01*
X05849Y026706D01*
X057774D01*
X057757Y026735D01*
X057687Y026804D01*
X057602Y026854D01*
X057506Y02688D01*
X057407D01*
X057312Y026854D01*
X057226Y026804D01*
X057156Y026735D01*
X057107Y026649D01*
X057081Y026553D01*
Y026454D01*
X057107Y026359D01*
X057156Y026273D01*
X057226Y026203D01*
X057312Y026154D01*
X057407Y026128D01*
X057506D01*
X057602Y026154D01*
X057687Y026203D01*
X057757Y026273D01*
X057774Y026302D01*
X058406D01*
X058449Y026259D01*
X058515Y026215D01*
X058592Y026199D01*
X059313D01*
X059329Y026171D01*
X059399Y026101D01*
X059485Y026052D01*
X05958Y026026D01*
X059679D01*
X059711Y026034D01*
X061528Y024217D01*
X062178Y023568D01*
Y023253D01*
X062131Y023234D01*
X062128Y023238D01*
X062043Y023287D01*
X061948Y023312D01*
Y022937D01*
X061898D01*
Y022887D01*
X061522D01*
X061548Y022792D01*
X061597Y022706D01*
X061631Y022672D01*
X06161Y022622D01*
X058169D01*
X058148Y022672D01*
X058182Y022706D01*
X058232Y022792D01*
X058257Y022888D01*
Y022986D01*
X058232Y023082D01*
X058182Y023168D01*
X058113Y023238D01*
X058027Y023287D01*
X057931Y023313D01*
X057832D01*
X057737Y023287D01*
X057651Y023238D01*
X057581Y023168D01*
X057532Y023082D01*
X057506Y022986D01*
Y022888D01*
X057532Y022792D01*
X057581Y022706D01*
X057615Y022672D01*
X057595Y022622D01*
X053564D01*
X053365Y022822D01*
X053299Y022865D01*
X053222Y022881D01*
X045725D01*
X043642Y024964D01*
Y031042D01*
X044264Y031664D01*
X044321D01*
X04434Y031617D01*
X04442Y031514D01*
X044523Y031435D01*
X044623Y031393D01*
Y031339D01*
X044523Y031297D01*
X04442Y031218D01*
X04434Y031115D01*
X044291Y030995D01*
X044274Y030866D01*
X044291Y030737D01*
X04434Y030617D01*
X04442Y030514D01*
X044523Y030435D01*
X044623Y030393D01*
Y030339D01*
X044523Y030297D01*
X04442Y030218D01*
X04434Y030115D01*
X044291Y029995D01*
X044274Y029866D01*
X044291Y029737D01*
X04434Y029617D01*
X04442Y029514D01*
X044523Y029435D01*
X044623Y029393D01*
Y029339D01*
X044523Y029297D01*
X04442Y029218D01*
X04434Y029115D01*
X044291Y028995D01*
X044274Y028866D01*
X044291Y028737D01*
X04434Y028617D01*
X04442Y028514D01*
X044523Y028435D01*
X044623Y028393D01*
Y028339D01*
X044523Y028297D01*
X04442Y028218D01*
X04434Y028115D01*
X044291Y027995D01*
X044274Y027866D01*
X044291Y027737D01*
X04434Y027617D01*
X04442Y027514D01*
X044523Y027435D01*
X044623Y027393D01*
Y027339D01*
X044523Y027297D01*
X04442Y027218D01*
X04434Y027115D01*
X044291Y026995D01*
X044274Y026866D01*
X044291Y026737D01*
X04434Y026617D01*
X04442Y026514D01*
X044523Y026435D01*
X044623Y026393D01*
Y026339D01*
X044523Y026297D01*
X04442Y026218D01*
X04434Y026115D01*
X044291Y025995D01*
X04428Y025916D01*
X044772D01*
X045263D01*
X045253Y025995D01*
X045203Y026115D01*
X045124Y026218D01*
X045021Y026297D01*
X04492Y026339D01*
Y026393D01*
X045021Y026435D01*
X045124Y026514D01*
X045203Y026617D01*
X045253Y026737D01*
X04527Y026866D01*
X045253Y026995D01*
X045203Y027115D01*
X045124Y027218D01*
X045021Y027297D01*
X04492Y027339D01*
Y027393D01*
X045021Y027435D01*
X045124Y027514D01*
X045203Y027617D01*
X045253Y027737D01*
X04527Y027866D01*
X045253Y027995D01*
X045203Y028115D01*
X045124Y028218D01*
X045021Y028297D01*
X04492Y028339D01*
Y028393D01*
X045021Y028435D01*
X045124Y028514D01*
X045203Y028617D01*
X045253Y028737D01*
X04527Y028866D01*
X045253Y028995D01*
X045203Y029115D01*
X045124Y029218D01*
X045021Y029297D01*
X04492Y029339D01*
Y029393D01*
X045021Y029435D01*
X045124Y029514D01*
X045203Y029617D01*
X045253Y029737D01*
X04527Y029866D01*
X045253Y029995D01*
X045203Y030115D01*
X045124Y030218D01*
X045021Y030297D01*
X04492Y030339D01*
Y030393D01*
X045021Y030435D01*
X045124Y030514D01*
X045196Y030608D01*
X045252Y030622D01*
X045358Y030516D01*
Y0291D01*
X045373Y029023D01*
X045417Y028957D01*
X048724Y02565D01*
X048705Y025604D01*
X048683D01*
X048587Y025578D01*
X048502Y025529D01*
X048432Y025459D01*
X048415Y025431D01*
X047678D01*
X047601Y025415D01*
X047535Y025371D01*
X04745Y025286D01*
X047436Y02529D01*
X047344D01*
X047255Y025266D01*
X047175Y02522D01*
X04711Y025155D01*
X047064Y025075D01*
X04704Y024986D01*
Y024894D01*
X047064Y024805D01*
X04711Y024725D01*
X047175Y02466D01*
X047255Y024614D01*
X047344Y02459D01*
X047436D01*
X047525Y024614D01*
X047605Y02466D01*
X04767Y024725D01*
X047716Y024805D01*
X04774Y024894D01*
Y024986D01*
X047775Y025026D01*
X048415D01*
X048432Y024998D01*
X048502Y024928D01*
X048587Y024878D01*
X048683Y024853D01*
X048782D01*
X048877Y024878D01*
X048963Y024928D01*
X049033Y024998D01*
X049082Y025083D01*
X049108Y025179D01*
Y025201D01*
X049154Y02522D01*
X050257Y024117D01*
X050323Y024073D01*
X0504Y024058D01*
X05107D01*
X051147Y024073D01*
X051213Y024117D01*
X053194Y026098D01*
X053269D01*
X053288Y026051D01*
X053283Y026047D01*
X053231Y025956D01*
X053204Y025854D01*
Y025851D01*
X053604D01*
X054004D01*
Y025854D01*
X053976Y025956D01*
X053924Y026047D01*
X053919Y026051D01*
X053938Y026098D01*
X05628D01*
X056357Y026113D01*
X056423Y026157D01*
X058478Y028212D01*
X061331D01*
X06136Y028218D01*
X06416D01*
X06418Y028172D01*
X064175Y028168D01*
X064123Y028076D01*
X064095Y027975D01*
Y027869D01*
X064123Y027768D01*
X064175Y027676D01*
X06425Y027602D01*
X064341Y027549D01*
X064443Y027522D01*
X064548D01*
X06465Y027549D01*
X064741Y027602D01*
X064815Y027676D01*
X064868Y027768D01*
X064895Y027869D01*
Y027975D01*
X064868Y028076D01*
X064815Y028168D01*
X064811Y028172D01*
X06483Y028218D01*
X065849D01*
X065855Y028213D01*
X06592Y028169D01*
X065998Y028154D01*
X067424D01*
X067501Y028169D01*
X067567Y028213D01*
X067672Y028318D01*
X070005D01*
X070025Y028268D01*
X069975Y028218D01*
X069923Y028126D01*
X069895Y028025D01*
Y027919D01*
X069923Y027818D01*
X069975Y027726D01*
X07005Y027652D01*
X070141Y027599D01*
X070243Y027572D01*
X070348D01*
X07045Y027599D01*
X070541Y027652D01*
X070615Y027726D01*
X070668Y027818D01*
X070695Y027919D01*
Y028025D01*
X070668Y028126D01*
X070615Y028218D01*
X070565Y028268D01*
X070586Y028318D01*
X073203D01*
X07351Y02801D01*
X073498Y027965D01*
Y027861D01*
X073525Y027761D01*
X073577Y027671D01*
X073651Y027597D01*
X073703Y027567D01*
X073689Y027517D01*
X072057D01*
X072041Y027546D01*
X071971Y027616D01*
X071885Y027665D01*
X07179Y027691D01*
X071691D01*
X071595Y027665D01*
X07151Y027616D01*
X07144Y027546D01*
X07139Y02746D01*
X071365Y027364D01*
Y027266D01*
X07139Y02717D01*
X07144Y027084D01*
X07151Y027014D01*
X071595Y026965D01*
X071691Y026939D01*
X07179D01*
X071885Y026965D01*
X071971Y027014D01*
X072041Y027084D01*
X072057Y027113D01*
X075155D01*
X075232Y027128D01*
X075298Y027172D01*
X075481Y027355D01*
X075528Y027336D01*
Y024751D01*
X075076Y024299D01*
X074976Y024325D01*
X074851D01*
X07473Y024293D01*
X074622Y02423D01*
X074533Y024142D01*
X074471Y024034D01*
X074438Y023913D01*
Y023788D01*
X074471Y023667D01*
X074533Y023559D01*
X074622Y02347D01*
X07473Y023408D01*
X074851Y023375D01*
X074976D01*
X075097Y023408D01*
X075205Y02347D01*
X075293Y023559D01*
X075356Y023667D01*
X075388Y023788D01*
Y023913D01*
X075362Y024013D01*
X075873Y024524D01*
X075917Y02459D01*
X075932Y024667D01*
Y03316D01*
X075917Y033237D01*
X075873Y033303D01*
X074393Y034783D01*
X074327Y034827D01*
X07425Y034842D01*
X0693D01*
X069223Y034827D01*
X069157Y034783D01*
X065126Y030752D01*
X064683D01*
X064673Y030801D01*
X06468Y030804D01*
X064826Y030901D01*
X064949Y031025D01*
X065046Y03117D01*
X065113Y031332D01*
X065147Y031503D01*
Y031678D01*
X065113Y031849D01*
X065046Y032011D01*
X064949Y032156D01*
X064826Y03228D01*
X06468Y032377D01*
X064519Y032444D01*
X064347Y032478D01*
X064172D01*
X064001Y032444D01*
X06384Y032377D01*
X063694Y03228D01*
X063571Y032156D01*
X063473Y032011D01*
X063407Y031849D01*
X063372Y031678D01*
Y031503D01*
X063407Y031332D01*
X063473Y03117D01*
X063571Y031025D01*
X063694Y030901D01*
X06384Y030804D01*
X063846Y030801D01*
X063836Y030752D01*
X060253D01*
X060175Y030737D01*
X06011Y030693D01*
X060036Y03062D01*
X059947D01*
X05993Y030648D01*
X059861Y030718D01*
X059775Y030767D01*
X059679Y030793D01*
X05958D01*
X059485Y030767D01*
X059399Y030718D01*
X059329Y030648D01*
X05928Y030562D01*
X059254Y030467D01*
Y030368D01*
X05928Y030272D01*
X059329Y030187D01*
X059346Y030171D01*
X059326Y030124D01*
X058138D01*
X057824Y030439D01*
X057832Y03047D01*
Y030569D01*
X057807Y030665D01*
X057757Y03075D01*
X057687Y03082D01*
X057602Y03087D01*
X057506Y030895D01*
X057407D01*
X057312Y03087D01*
X057226Y03082D01*
X057156Y03075D01*
X057107Y030665D01*
X057081Y030569D01*
Y03047D01*
X057107Y030375D01*
X057156Y030289D01*
X057226Y030219D01*
X057312Y03017D01*
X057407Y030144D01*
X057506D01*
X057538Y030153D01*
X057911Y029779D01*
X057977Y029735D01*
X058054Y02972D01*
X06415D01*
X064175Y029676D01*
X064183Y029669D01*
X064164Y029623D01*
X06172D01*
X061643Y029607D01*
X061577Y029564D01*
X061205Y029191D01*
X061158Y029215D01*
X061136Y029295D01*
X06109Y029375D01*
X061025Y02944D01*
X060945Y029486D01*
X060856Y02951D01*
X060764D01*
X060675Y029486D01*
X060595Y02944D01*
X06053Y029375D01*
X060523Y029362D01*
X057824D01*
X057043Y030143D01*
X056977Y030187D01*
X0569Y030202D01*
X053884D01*
X052073Y032013D01*
X052007Y032057D01*
X05193Y032073D01*
X051212D01*
X051193Y032119D01*
X051114Y032223D01*
X051011Y032302D01*
X05091Y032343D01*
Y032397D01*
X051011Y032439D01*
X051114Y032518D01*
X051193Y032621D01*
X051212Y032668D01*
X05135D01*
X051427Y032684D01*
X051493Y032727D01*
X051953Y033188D01*
X065943D01*
X06595Y033175D01*
X066015Y03311D01*
X066095Y033064D01*
X066184Y03304D01*
X066276D01*
X066365Y033064D01*
X066445Y03311D01*
X06651Y033175D01*
X066556Y033255D01*
X06658Y033344D01*
Y033436D01*
X066556Y033525D01*
X06651Y033605D01*
X066445Y03367D01*
X066365Y033716D01*
X066276Y03374D01*
X066184D01*
X066095Y033716D01*
X066015Y03367D01*
X06595Y033605D01*
X065943Y033592D01*
X05187D01*
X051792Y033577D01*
X051727Y033533D01*
X051266Y033073D01*
X051212D01*
X051193Y033119D01*
X051114Y033223D01*
X051011Y033302D01*
X05091Y033343D01*
Y033397D01*
X051011Y033439D01*
X051114Y033518D01*
X051193Y033621D01*
X051243Y033742D01*
X05126Y03387D01*
X051243Y033999D01*
X051193Y034119D01*
X051114Y034223D01*
X051011Y034302D01*
X05091Y034343D01*
Y034397D01*
X051011Y034439D01*
X051114Y034518D01*
X051193Y034621D01*
X051243Y034742D01*
X05126Y03487D01*
X051243Y034999D01*
X051193Y035119D01*
X051114Y035223D01*
X051011Y035302D01*
X05091Y035343D01*
Y035397D01*
X051011Y035439D01*
X051114Y035518D01*
X051193Y035621D01*
X051243Y035742D01*
X05126Y03587D01*
X051243Y035999D01*
X051193Y036119D01*
X051114Y036223D01*
X051011Y036302D01*
X05091Y036343D01*
Y036397D01*
X051011Y036439D01*
X051114Y036518D01*
X051193Y036621D01*
X051243Y036742D01*
X05126Y03687D01*
X051243Y036999D01*
X051193Y037119D01*
X051114Y037223D01*
X051011Y037302D01*
X05091Y037343D01*
Y037397D01*
X051011Y037439D01*
X051114Y037518D01*
X051193Y037621D01*
X051212Y037668D01*
X055336D01*
X055807Y037197D01*
X055873Y037153D01*
X05595Y037138D01*
X063789D01*
X063808Y037091D01*
X063803Y037086D01*
X06375Y036995D01*
X063723Y036893D01*
Y036788D01*
X06375Y036686D01*
X063803Y036595D01*
X063877Y03652D01*
X063968Y036468D01*
X06407Y036441D01*
X064176D01*
X064277Y036468D01*
X064368Y03652D01*
X064443Y036595D01*
X064496Y036686D01*
X064523Y036788D01*
Y036893D01*
X064496Y036995D01*
X064443Y037086D01*
X064435Y037094D01*
X064452Y037148D01*
X064477Y037153D01*
X064543Y037197D01*
X064773Y037427D01*
X064817Y037493D01*
X064832Y03757D01*
Y038333D01*
X064817Y038411D01*
X064773Y038476D01*
X064657Y038592D01*
X064677Y038638D01*
X06874D01*
X06875Y03864D01*
X073016D01*
X073046Y038588D01*
X073123Y03851D01*
X073218Y038456D01*
X073323Y038428D01*
X073433D01*
X073538Y038456D01*
X073633Y03851D01*
X073651Y038529D01*
X073698Y03851D01*
Y038175D01*
X073651Y038156D01*
X073633Y038175D01*
X073538Y038229D01*
X073433Y038257D01*
X073428D01*
Y037843D01*
Y037428D01*
X073433D01*
X073538Y037456D01*
X073633Y03751D01*
X073651Y037529D01*
X073698Y03751D01*
Y037257D01*
X072963D01*
Y037045D01*
X071024D01*
X070946Y037029D01*
X070881Y036986D01*
X070136Y036241D01*
X070105Y03625D01*
X070006D01*
X06991Y036224D01*
X069825Y036175D01*
X069755Y036105D01*
X069705Y036019D01*
X06968Y035923D01*
Y035825D01*
X069705Y035729D01*
X069749Y035652D01*
X069732Y035602D01*
X069664D01*
X068833Y036433D01*
X068767Y036477D01*
X06869Y036492D01*
X065057D01*
X06505Y036505D01*
X064985Y03657D01*
X064905Y036616D01*
X064816Y03664D01*
X064724D01*
X064635Y036616D01*
X064555Y03657D01*
X06449Y036505D01*
X064444Y036425D01*
X06442Y036336D01*
Y036244D01*
X064444Y036155D01*
X064402Y036127D01*
X064368Y036161D01*
X064277Y036213D01*
X064176Y036241D01*
X06407D01*
X063968Y036213D01*
X063877Y036161D01*
X063803Y036086D01*
X06375Y035995D01*
X063723Y035893D01*
Y035788D01*
X06375Y035686D01*
X063803Y035595D01*
X063877Y03552D01*
X063968Y035468D01*
X06407Y035441D01*
X064176D01*
X064277Y035468D01*
X064368Y03552D01*
X064443Y035595D01*
X064496Y035686D01*
X064523Y035788D01*
Y035893D01*
X064496Y035995D01*
X06449Y036004D01*
X06453Y036035D01*
X064555Y03601D01*
X064635Y035964D01*
X064724Y03594D01*
X064816D01*
X064905Y035964D01*
X064985Y03601D01*
X06505Y036075D01*
X065057Y036088D01*
X067701D01*
X067717Y036038D01*
X067631Y035981D01*
X067508Y035857D01*
X06741Y035712D01*
X067344Y03555D01*
X067309Y035379D01*
Y035204D01*
X067344Y035032D01*
X06741Y034871D01*
X067508Y034726D01*
X067631Y034602D01*
X067777Y034505D01*
X067938Y034438D01*
X068109Y034404D01*
X068284D01*
X068456Y034438D01*
X068617Y034505D01*
X068763Y034602D01*
X068886Y034726D01*
X068983Y034871D01*
X06905Y035032D01*
X069084Y035204D01*
Y035379D01*
X06905Y03555D01*
X069033Y035591D01*
X069075Y035619D01*
X069437Y035257D01*
X069503Y035213D01*
X06958Y035198D01*
X07288D01*
X072957Y035213D01*
X073023Y035257D01*
X074043Y036277D01*
X074087Y036343D01*
X074102Y03642D01*
Y03932D01*
X074087Y039398D01*
X074043Y039464D01*
X073777Y039729D01*
X073793Y039788D01*
Y039897D01*
X073765Y040003D01*
X07371Y040097D01*
X073633Y040175D01*
X073538Y040229D01*
X073433Y040257D01*
X073323D01*
X073218Y040229D01*
X073123Y040175D01*
X073046Y040097D01*
X072991Y040003D01*
X072963Y039897D01*
Y039788D01*
X072991Y039682D01*
X073046Y039588D01*
X073123Y03951D01*
X073218Y039456D01*
X073323Y039428D01*
X073433D01*
X073491Y039443D01*
X073698Y039237D01*
Y039175D01*
X073651Y039156D01*
X073633Y039175D01*
X073538Y039229D01*
X073433Y039257D01*
X073323D01*
X073218Y039229D01*
X073123Y039175D01*
X073046Y039097D01*
X073016Y039045D01*
X068742D01*
X068732Y039043D01*
X064468D01*
X064443Y039086D01*
X064438Y039091D01*
X064457Y039138D01*
X071875D01*
X071953Y039153D01*
X072018Y039197D01*
X073265Y040443D01*
X073323Y040428D01*
X073433D01*
X073538Y040456D01*
X073633Y04051D01*
X07371Y040588D01*
X073765Y040682D01*
X073793Y040788D01*
Y040897D01*
X073765Y041003D01*
X07371Y041097D01*
X073633Y041175D01*
X073538Y041229D01*
X073433Y041257D01*
X073323D01*
X073218Y041229D01*
X073123Y041175D01*
X073046Y041097D01*
X072991Y041003D01*
X072963Y040897D01*
Y040788D01*
X072979Y040729D01*
X071792Y039542D01*
X070298D01*
X070291Y039571D01*
X070289Y039592D01*
X070356Y039659D01*
X070405Y039745D01*
X070431Y03984D01*
Y039939D01*
X070422Y039971D01*
X072092Y04164D01*
X073016D01*
X073046Y041588D01*
X073123Y04151D01*
X073218Y041456D01*
X073323Y041428D01*
X073433D01*
X073538Y041456D01*
X073633Y04151D01*
X07371Y041588D01*
X073765Y041682D01*
X073793Y041788D01*
Y041897D01*
X073777Y041956D01*
X075213Y043392D01*
X075257Y043457D01*
X075272Y043535D01*
Y0472D01*
X075257Y047277D01*
X075213Y047343D01*
X073413Y049143D01*
X073347Y049187D01*
X07327Y049202D01*
X044157D01*
X04415Y049215D01*
X044085Y04928D01*
X044005Y049326D01*
X043916Y04935D01*
D02*
G37*
G36*
X073328Y038257D02*
X073323D01*
X073218Y038229D01*
X073123Y038175D01*
X073046Y038097D01*
X072991Y038003D01*
X072963Y037897D01*
Y037893D01*
X073328D01*
Y038257D01*
D02*
G37*
G36*
Y037793D02*
X072963D01*
Y037788D01*
X072991Y037682D01*
X073046Y037588D01*
X073123Y03751D01*
X073218Y037456D01*
X073323Y037428D01*
X073328D01*
Y037793D01*
D02*
G37*
G36*
X057522Y037084D02*
X057423D01*
X057327Y037059D01*
X057242Y037009D01*
X057172Y036939D01*
X057122Y036854D01*
X057097Y036758D01*
Y036659D01*
X057122Y036564D01*
X057172Y036478D01*
X057242Y036408D01*
X057327Y036359D01*
X057423Y036333D01*
X057522D01*
X057617Y036359D01*
X057703Y036408D01*
X057773Y036478D01*
X057822Y036564D01*
X057848Y036659D01*
Y036758D01*
X057822Y036854D01*
X057773Y036939D01*
X057703Y037009D01*
X057617Y037059D01*
X057522Y037084D01*
D02*
G37*
G36*
X040367Y034864D02*
X040363D01*
X040257Y034836D01*
X040163Y034781D01*
X040085Y034704D01*
X040031Y034609D01*
X040002Y034503D01*
Y034499D01*
X040367D01*
Y034864D01*
D02*
G37*
G36*
X064176Y035241D02*
X06407D01*
X063968Y035213D01*
X063877Y035161D01*
X063803Y035086D01*
X06375Y034995D01*
X063723Y034893D01*
Y034788D01*
X06375Y034686D01*
X063803Y034595D01*
X063877Y03452D01*
X063968Y034468D01*
X06407Y034441D01*
X064176D01*
X064277Y034468D01*
X064368Y03452D01*
X064443Y034595D01*
X064496Y034686D01*
X064523Y034788D01*
Y034893D01*
X064496Y034995D01*
X064443Y035086D01*
X064368Y035161D01*
X064277Y035213D01*
X064176Y035241D01*
D02*
G37*
G36*
X040367Y034399D02*
X040002D01*
Y034394D01*
X040031Y034289D01*
X040085Y034194D01*
X040163Y034117D01*
X040257Y034062D01*
X040363Y034034D01*
X040367D01*
Y034399D01*
D02*
G37*
G36*
X057522Y033069D02*
X057423D01*
X057327Y033043D01*
X057242Y032993D01*
X057172Y032924D01*
X057122Y032838D01*
X057097Y032742D01*
Y032643D01*
X057122Y032548D01*
X057172Y032462D01*
X057242Y032392D01*
X057327Y032343D01*
X057423Y032317D01*
X057522D01*
X057617Y032343D01*
X057703Y032392D01*
X057773Y032462D01*
X057822Y032548D01*
X057848Y032643D01*
Y032742D01*
X057822Y032838D01*
X057773Y032924D01*
X057703Y032993D01*
X057617Y033043D01*
X057522Y033069D01*
D02*
G37*
G36*
X070348Y027522D02*
X070243D01*
X070141Y027495D01*
X07005Y027442D01*
X069975Y027368D01*
X069923Y027276D01*
X069895Y027175D01*
Y027069D01*
X069923Y026968D01*
X069975Y026876D01*
X07005Y026802D01*
X070141Y026749D01*
X070243Y026722D01*
X070348D01*
X07045Y026749D01*
X070541Y026802D01*
X070615Y026876D01*
X070668Y026968D01*
X070695Y027069D01*
Y027175D01*
X070668Y027276D01*
X070615Y027368D01*
X070541Y027442D01*
X07045Y027495D01*
X070348Y027522D01*
D02*
G37*
G36*
X064548Y027322D02*
X064443D01*
X064341Y027295D01*
X06425Y027242D01*
X064175Y027168D01*
X064123Y027076D01*
X064095Y026975D01*
Y026869D01*
X064123Y026768D01*
X064175Y026676D01*
X06425Y026602D01*
X064341Y026549D01*
X064443Y026522D01*
X064548D01*
X06465Y026549D01*
X064741Y026602D01*
X064815Y026676D01*
X06484Y02672D01*
X066913D01*
X06692Y026707D01*
X066985Y026642D01*
X067065Y026596D01*
X067154Y026572D01*
X067246D01*
X067335Y026596D01*
X067415Y026642D01*
X06748Y026707D01*
X067526Y026787D01*
X06755Y026876D01*
Y026968D01*
X067526Y027057D01*
X06748Y027137D01*
X067415Y027202D01*
X067335Y027248D01*
X067246Y027272D01*
X067154D01*
X067065Y027248D01*
X066985Y027202D01*
X06692Y027137D01*
X066913Y027124D01*
X06484D01*
X064815Y027168D01*
X064741Y027242D01*
X06465Y027295D01*
X064548Y027322D01*
D02*
G37*
G36*
X074976Y026325D02*
X074963D01*
Y0259D01*
X075388D01*
Y025913D01*
X075356Y026034D01*
X075293Y026142D01*
X075205Y02623D01*
X075097Y026293D01*
X074976Y026325D01*
D02*
G37*
G36*
X074863D02*
X074851D01*
X07473Y026293D01*
X074622Y02623D01*
X074533Y026142D01*
X074471Y026034D01*
X074438Y025913D01*
Y0259D01*
X074863D01*
Y026325D01*
D02*
G37*
G36*
X064548Y026322D02*
X064443D01*
X064341Y026295D01*
X06425Y026242D01*
X064175Y026168D01*
X064123Y026076D01*
X064095Y025975D01*
Y025869D01*
X064123Y025768D01*
X064175Y025676D01*
X06425Y025602D01*
X064341Y025549D01*
X064443Y025522D01*
X064548D01*
X06465Y025549D01*
X064741Y025602D01*
X064815Y025676D01*
X064868Y025768D01*
X064895Y025869D01*
Y025975D01*
X064868Y026076D01*
X064815Y026168D01*
X064741Y026242D01*
X06465Y026295D01*
X064548Y026322D01*
D02*
G37*
G36*
X062106Y026201D02*
X062001D01*
X061899Y026174D01*
X061808Y026121D01*
X061733Y026047D01*
X061681Y025956D01*
X061654Y025854D01*
Y025749D01*
X061681Y025647D01*
X061733Y025556D01*
X061808Y025481D01*
X061899Y025428D01*
X062001Y025401D01*
X062106D01*
X062208Y025428D01*
X062299Y025481D01*
X062374Y025556D01*
X062426Y025647D01*
X062454Y025749D01*
Y025854D01*
X062426Y025956D01*
X062374Y026047D01*
X062299Y026121D01*
X062208Y026174D01*
X062106Y026201D01*
D02*
G37*
G36*
X054004Y025751D02*
X053654D01*
Y025401D01*
X053656D01*
X053758Y025428D01*
X053849Y025481D01*
X053924Y025556D01*
X053976Y025647D01*
X054004Y025749D01*
Y025751D01*
D02*
G37*
G36*
X053554D02*
X053204D01*
Y025749D01*
X053231Y025647D01*
X053283Y025556D01*
X053358Y025481D01*
X053449Y025428D01*
X053551Y025401D01*
X053554D01*
Y025751D01*
D02*
G37*
G36*
X075388Y0258D02*
X074963D01*
Y025375D01*
X074976D01*
X075097Y025408D01*
X075205Y02547D01*
X075293Y025559D01*
X075356Y025667D01*
X075388Y025788D01*
Y0258D01*
D02*
G37*
G36*
X074863D02*
X074438D01*
Y025788D01*
X074471Y025667D01*
X074533Y025559D01*
X074622Y02547D01*
X07473Y025408D01*
X074851Y025375D01*
X074863D01*
Y0258D01*
D02*
G37*
G36*
X045263Y025816D02*
X044772D01*
X04428D01*
X044291Y025737D01*
X04434Y025617D01*
X04442Y025514D01*
X044523Y025435D01*
X044623Y025393D01*
Y025339D01*
X044523Y025297D01*
X04442Y025218D01*
X04434Y025115D01*
X044291Y024995D01*
X04428Y024916D01*
X044772D01*
X045263D01*
X045253Y024995D01*
X045203Y025115D01*
X045124Y025218D01*
X045021Y025297D01*
X04492Y025339D01*
Y025393D01*
X045021Y025435D01*
X045124Y025514D01*
X045203Y025617D01*
X045253Y025737D01*
X045263Y025816D01*
D02*
G37*
G36*
X073036Y025139D02*
X073034D01*
Y024794D01*
X07338D01*
Y024796D01*
X073353Y024897D01*
X073301Y024987D01*
X073227Y02506D01*
X073137Y025112D01*
X073036Y025139D01*
D02*
G37*
G36*
X072934D02*
X072932D01*
X072832Y025112D01*
X072742Y02506D01*
X072668Y024987D01*
X072616Y024897D01*
X072589Y024796D01*
Y024794D01*
X072934D01*
Y025139D01*
D02*
G37*
G36*
X046301Y025541D02*
X046203D01*
X046107Y025515D01*
X046021Y025466D01*
X045951Y025396D01*
X045902Y02531D01*
X045876Y025215D01*
Y025116D01*
X045902Y02502D01*
X045951Y024935D01*
X046021Y024865D01*
X046107Y024815D01*
X046203Y02479D01*
X046301D01*
X046397Y024815D01*
X046483Y024865D01*
X046553Y024935D01*
X046602Y02502D01*
X046628Y025116D01*
Y025215D01*
X046602Y02531D01*
X046553Y025396D01*
X046483Y025466D01*
X046397Y025515D01*
X046301Y025541D01*
D02*
G37*
G36*
X045263Y024816D02*
X044822D01*
Y024375D01*
X044901Y024385D01*
X045021Y024435D01*
X045124Y024514D01*
X045203Y024617D01*
X045253Y024737D01*
X045263Y024816D01*
D02*
G37*
G36*
X044722D02*
X04428D01*
X044291Y024737D01*
X04434Y024617D01*
X04442Y024514D01*
X044523Y024435D01*
X044643Y024385D01*
X044722Y024375D01*
Y024816D01*
D02*
G37*
G36*
X07338Y024694D02*
X073034D01*
Y024349D01*
X073036D01*
X073137Y024376D01*
X073227Y024428D01*
X073301Y024501D01*
X073353Y024592D01*
X07338Y024692D01*
Y024694D01*
D02*
G37*
G36*
X072934D02*
X072589D01*
Y024692D01*
X072616Y024592D01*
X072668Y024501D01*
X072742Y024428D01*
X072832Y024376D01*
X072932Y024349D01*
X072934D01*
Y024694D01*
D02*
G37*
G36*
X061848Y023312D02*
X061753Y023287D01*
X061667Y023238D01*
X061597Y023168D01*
X061548Y023082D01*
X061522Y022987D01*
X061848D01*
Y023312D01*
D02*
G37*
G36*
X041701Y023161D02*
X041596D01*
X041494Y023133D01*
X041403Y023081D01*
X041328Y023006D01*
X041276Y022915D01*
X041248Y022813D01*
Y022708D01*
X041276Y022606D01*
X041328Y022515D01*
X041403Y022441D01*
X041494Y022388D01*
X041596Y022361D01*
X041701D01*
X041803Y022388D01*
X041894Y022441D01*
X041968Y022515D01*
X042021Y022606D01*
X042048Y022708D01*
Y022813D01*
X042021Y022915D01*
X041968Y023006D01*
X041894Y023081D01*
X041803Y023133D01*
X041701Y023161D01*
D02*
G37*
G36*
X041651Y021911D02*
X041546D01*
X041444Y021883D01*
X041353Y021831D01*
X041278Y021756D01*
X041226Y021665D01*
X041198Y021563D01*
Y021458D01*
X041226Y021356D01*
X041278Y021265D01*
X041353Y021191D01*
X041444Y021138D01*
X041546Y021111D01*
X041651D01*
X041753Y021138D01*
X041844Y021191D01*
X041919Y021265D01*
X041971Y021356D01*
X041998Y021458D01*
Y021563D01*
X041971Y021665D01*
X041919Y021756D01*
X041844Y021831D01*
X041753Y021883D01*
X041651Y021911D01*
D02*
G37*
G36*
X073197Y020921D02*
X073055D01*
X072916Y020884D01*
X072793Y020812D01*
X072692Y020711D01*
X07262Y020588D01*
X072583Y020449D01*
Y020306D01*
X07262Y020168D01*
X072692Y020045D01*
X072793Y019944D01*
X072916Y019872D01*
X073055Y019835D01*
X073197D01*
X073336Y019872D01*
X073459Y019944D01*
X07356Y020045D01*
X073632Y020168D01*
X073669Y020306D01*
Y020449D01*
X073632Y020588D01*
X07356Y020711D01*
X073459Y020812D01*
X073336Y020884D01*
X073197Y020921D01*
D02*
G37*
G36*
X055631Y016131D02*
X055626D01*
Y015767D01*
X055991D01*
Y015771D01*
X055963Y015877D01*
X055908Y015971D01*
X055831Y016049D01*
X055737Y016103D01*
X055631Y016131D01*
D02*
G37*
G36*
X055526D02*
X055522D01*
X055416Y016103D01*
X055322Y016049D01*
X055244Y015971D01*
X05519Y015877D01*
X055161Y015771D01*
Y015767D01*
X055526D01*
Y016131D01*
D02*
G37*
G36*
X063581Y016081D02*
X063576D01*
Y015717D01*
X063941D01*
Y015721D01*
X063913Y015827D01*
X063858Y015921D01*
X063781Y015999D01*
X063687Y016053D01*
X063581Y016081D01*
D02*
G37*
G36*
X063476D02*
X063472D01*
X063366Y016053D01*
X063272Y015999D01*
X063194Y015921D01*
X06314Y015827D01*
X063111Y015721D01*
Y015717D01*
X063476D01*
Y016081D01*
D02*
G37*
G36*
X069331Y016181D02*
X069222D01*
X069116Y016153D01*
X069022Y016099D01*
X068944Y016021D01*
X06889Y015927D01*
X068861Y015821D01*
Y015712D01*
X06889Y015606D01*
X068944Y015512D01*
X069022Y015434D01*
X069116Y01538D01*
X069222Y015352D01*
X069331D01*
X069437Y01538D01*
X069531Y015434D01*
X069608Y015512D01*
X069663Y015606D01*
X069691Y015712D01*
Y015821D01*
X069663Y015927D01*
X069608Y016021D01*
X069531Y016099D01*
X069437Y016153D01*
X069331Y016181D01*
D02*
G37*
G36*
X059631Y016131D02*
X059522D01*
X059416Y016103D01*
X059322Y016049D01*
X059244Y015971D01*
X05919Y015877D01*
X059161Y015771D01*
Y015662D01*
X05919Y015556D01*
X059244Y015462D01*
X059322Y015384D01*
X059416Y01533D01*
X059522Y015302D01*
X059631D01*
X059737Y01533D01*
X059831Y015384D01*
X059908Y015462D01*
X059963Y015556D01*
X059991Y015662D01*
Y015771D01*
X059963Y015877D01*
X059908Y015971D01*
X059831Y016049D01*
X059737Y016103D01*
X059631Y016131D01*
D02*
G37*
G36*
X058631D02*
X058522D01*
X058416Y016103D01*
X058322Y016049D01*
X058244Y015971D01*
X05819Y015877D01*
X058161Y015771D01*
Y015662D01*
X05819Y015556D01*
X058244Y015462D01*
X058322Y015384D01*
X058416Y01533D01*
X058522Y015302D01*
X058631D01*
X058737Y01533D01*
X058831Y015384D01*
X058908Y015462D01*
X058963Y015556D01*
X058991Y015662D01*
Y015771D01*
X058963Y015877D01*
X058908Y015971D01*
X058831Y016049D01*
X058737Y016103D01*
X058631Y016131D01*
D02*
G37*
G36*
X057631D02*
X057522D01*
X057416Y016103D01*
X057322Y016049D01*
X057244Y015971D01*
X05719Y015877D01*
X057161Y015771D01*
Y015662D01*
X05719Y015556D01*
X057244Y015462D01*
X057322Y015384D01*
X057416Y01533D01*
X057522Y015302D01*
X057631D01*
X057737Y01533D01*
X057831Y015384D01*
X057908Y015462D01*
X057963Y015556D01*
X057991Y015662D01*
Y015771D01*
X057963Y015877D01*
X057908Y015971D01*
X057831Y016049D01*
X057737Y016103D01*
X057631Y016131D01*
D02*
G37*
G36*
X056631D02*
X056522D01*
X056416Y016103D01*
X056322Y016049D01*
X056244Y015971D01*
X05619Y015877D01*
X056161Y015771D01*
Y015662D01*
X05619Y015556D01*
X056244Y015462D01*
X056322Y015384D01*
X056416Y01533D01*
X056522Y015302D01*
X056631D01*
X056737Y01533D01*
X056831Y015384D01*
X056908Y015462D01*
X056963Y015556D01*
X056991Y015662D01*
Y015771D01*
X056963Y015877D01*
X056908Y015971D01*
X056831Y016049D01*
X056737Y016103D01*
X056631Y016131D01*
D02*
G37*
G36*
X055991Y015667D02*
X055626D01*
Y015302D01*
X055631D01*
X055737Y01533D01*
X055831Y015384D01*
X055908Y015462D01*
X055963Y015556D01*
X055991Y015662D01*
Y015667D01*
D02*
G37*
G36*
X055526D02*
X055161D01*
Y015662D01*
X05519Y015556D01*
X055244Y015462D01*
X055322Y015384D01*
X055416Y01533D01*
X055522Y015302D01*
X055526D01*
Y015667D01*
D02*
G37*
G36*
X051931Y016131D02*
X051822D01*
X051716Y016103D01*
X051622Y016049D01*
X051544Y015971D01*
X05149Y015877D01*
X051461Y015771D01*
Y015662D01*
X05149Y015556D01*
X051544Y015462D01*
X051622Y015384D01*
X051716Y01533D01*
X051822Y015302D01*
X051931D01*
X052037Y01533D01*
X052131Y015384D01*
X052208Y015462D01*
X052263Y015556D01*
X052291Y015662D01*
Y015771D01*
X052263Y015877D01*
X052208Y015971D01*
X052131Y016049D01*
X052037Y016103D01*
X051931Y016131D01*
D02*
G37*
G36*
X050931D02*
X050822D01*
X050716Y016103D01*
X050622Y016049D01*
X050544Y015971D01*
X05049Y015877D01*
X050461Y015771D01*
Y015662D01*
X05049Y015556D01*
X050544Y015462D01*
X050622Y015384D01*
X050716Y01533D01*
X050822Y015302D01*
X050931D01*
X051037Y01533D01*
X051131Y015384D01*
X051208Y015462D01*
X051263Y015556D01*
X051291Y015662D01*
Y015771D01*
X051263Y015877D01*
X051208Y015971D01*
X051131Y016049D01*
X051037Y016103D01*
X050931Y016131D01*
D02*
G37*
G36*
X048291Y015667D02*
X047926D01*
Y015302D01*
X047931D01*
X048037Y01533D01*
X048131Y015384D01*
X048208Y015462D01*
X048263Y015556D01*
X048291Y015662D01*
Y015667D01*
D02*
G37*
G36*
X047826D02*
X047461D01*
Y015662D01*
X04749Y015556D01*
X047544Y015462D01*
X047622Y015384D01*
X047716Y01533D01*
X047822Y015302D01*
X047826D01*
Y015667D01*
D02*
G37*
G36*
X065581Y016081D02*
X065472D01*
X065366Y016053D01*
X065272Y015999D01*
X065194Y015921D01*
X06514Y015827D01*
X065111Y015721D01*
Y015612D01*
X06514Y015506D01*
X065194Y015412D01*
X065272Y015334D01*
X065366Y01528D01*
X065472Y015252D01*
X065581D01*
X065687Y01528D01*
X065781Y015334D01*
X065858Y015412D01*
X065913Y015506D01*
X065941Y015612D01*
Y015721D01*
X065913Y015827D01*
X065858Y015921D01*
X065781Y015999D01*
X065687Y016053D01*
X065581Y016081D01*
D02*
G37*
G36*
X064581D02*
X064472D01*
X064366Y016053D01*
X064272Y015999D01*
X064194Y015921D01*
X06414Y015827D01*
X064111Y015721D01*
Y015612D01*
X06414Y015506D01*
X064194Y015412D01*
X064272Y015334D01*
X064366Y01528D01*
X064472Y015252D01*
X064581D01*
X064687Y01528D01*
X064781Y015334D01*
X064858Y015412D01*
X064913Y015506D01*
X064941Y015612D01*
Y015721D01*
X064913Y015827D01*
X064858Y015921D01*
X064781Y015999D01*
X064687Y016053D01*
X064581Y016081D01*
D02*
G37*
G36*
X063941Y015617D02*
X063576D01*
Y015252D01*
X063581D01*
X063687Y01528D01*
X063781Y015334D01*
X063858Y015412D01*
X063913Y015506D01*
X063941Y015612D01*
Y015617D01*
D02*
G37*
G36*
X063476D02*
X063111D01*
Y015612D01*
X06314Y015506D01*
X063194Y015412D01*
X063272Y015334D01*
X063366Y01528D01*
X063472Y015252D01*
X063476D01*
Y015617D01*
D02*
G37*
G36*
X074591Y015777D02*
X074417D01*
X074245Y015743D01*
X074084Y015676D01*
X073938Y015579D01*
X073815Y015455D01*
X073718Y01531D01*
X073651Y015149D01*
X073617Y014977D01*
Y014802D01*
X073651Y014631D01*
X073718Y014469D01*
X073815Y014324D01*
X073938Y0142D01*
X074084Y014103D01*
X074245Y014036D01*
X074417Y014002D01*
X074591D01*
X074763Y014036D01*
X074924Y014103D01*
X07507Y0142D01*
X075193Y014324D01*
X07529Y014469D01*
X075357Y014631D01*
X075391Y014802D01*
Y014977D01*
X075357Y015149D01*
X07529Y01531D01*
X075193Y015455D01*
X07507Y015579D01*
X074924Y015676D01*
X074763Y015743D01*
X074591Y015777D01*
D02*
G37*
G36*
X039961Y015746D02*
X039787D01*
X039615Y015712D01*
X039454Y015645D01*
X039308Y015548D01*
X039185Y015424D01*
X039088Y015279D01*
X039021Y015117D01*
X038987Y014946D01*
Y014771D01*
X039021Y014599D01*
X039088Y014438D01*
X039185Y014293D01*
X039308Y014169D01*
X039454Y014072D01*
X039615Y014005D01*
X039787Y013971D01*
X039961D01*
X040133Y014005D01*
X040294Y014072D01*
X04044Y014169D01*
X040563Y014293D01*
X04066Y014438D01*
X040727Y014599D01*
X040761Y014771D01*
Y014946D01*
X040727Y015117D01*
X04066Y015279D01*
X040563Y015424D01*
X04044Y015548D01*
X040294Y015645D01*
X040133Y015712D01*
X039961Y015746D01*
D02*
G37*
%LPD*%
G36*
X074219Y046651D02*
X074296Y046573D01*
X074391Y046519D01*
X074497Y046491D01*
X074606D01*
X074711Y046519D01*
X074806Y046573D01*
X074821Y046589D01*
X074868Y04657D01*
Y04632D01*
X074136D01*
Y045491D01*
X074868D01*
Y043618D01*
X073491Y042242D01*
X073433Y042257D01*
X073323D01*
X073218Y042229D01*
X073123Y042175D01*
X073046Y042097D01*
X073016Y042045D01*
X072008D01*
X07193Y042029D01*
X071865Y041986D01*
X070136Y040257D01*
X070105Y040265D01*
X070006D01*
X06991Y04024D01*
X069825Y04019D01*
X069755Y04012D01*
X069705Y040035D01*
X06968Y039939D01*
Y03984D01*
X069705Y039745D01*
X069755Y039659D01*
X069821Y039592D01*
X069819Y039571D01*
X069812Y039542D01*
X064456D01*
X064436Y039589D01*
X064443Y039595D01*
X064496Y039686D01*
X064523Y039788D01*
Y039791D01*
X064123D01*
X063723D01*
Y039788D01*
X06375Y039686D01*
X063803Y039595D01*
X063809Y039589D01*
X06379Y039542D01*
X053777D01*
X05377Y039555D01*
X053705Y03962D01*
X053625Y039666D01*
X053536Y03969D01*
X053444D01*
X053355Y039666D01*
X053275Y03962D01*
X05321Y039555D01*
X053164Y039475D01*
X05314Y039386D01*
Y039294D01*
X053164Y039205D01*
X05321Y039125D01*
X053216Y039119D01*
X053197Y039073D01*
X051212D01*
X051193Y039119D01*
X051114Y039223D01*
X051011Y039302D01*
X05091Y039343D01*
Y039397D01*
X051011Y039439D01*
X051114Y039518D01*
X051193Y039621D01*
X051243Y039742D01*
X05126Y03987D01*
X051243Y039999D01*
X051193Y040119D01*
X051114Y040223D01*
X051011Y040302D01*
X05091Y040343D01*
Y040397D01*
X051011Y040439D01*
X051114Y040518D01*
X051193Y040621D01*
X051243Y040742D01*
X05126Y04087D01*
X051243Y040999D01*
X051193Y041119D01*
X051114Y041223D01*
X051011Y041302D01*
X05091Y041343D01*
Y041397D01*
X051011Y041439D01*
X051114Y041518D01*
X051193Y041621D01*
X051243Y041742D01*
X05126Y04187D01*
X051243Y041999D01*
X051193Y042119D01*
X051114Y042223D01*
X051011Y042302D01*
X05091Y042343D01*
Y042397D01*
X051011Y042439D01*
X051114Y042518D01*
X051193Y042621D01*
X051243Y042742D01*
X051253Y04282D01*
X050762D01*
X05027D01*
X050281Y042742D01*
X05033Y042621D01*
X05041Y042518D01*
X050513Y042439D01*
X050613Y042397D01*
Y042343D01*
X050513Y042302D01*
X05041Y042223D01*
X05033Y042119D01*
X050281Y041999D01*
X050264Y04187D01*
X050281Y041742D01*
X05033Y041621D01*
X05041Y041518D01*
X050513Y041439D01*
X050613Y041397D01*
Y041343D01*
X050513Y041302D01*
X05041Y041223D01*
X05033Y041119D01*
X050281Y040999D01*
X050264Y04087D01*
X050281Y040742D01*
X05033Y040621D01*
X05041Y040518D01*
X050513Y040439D01*
X050613Y040397D01*
Y040343D01*
X050513Y040302D01*
X05041Y040223D01*
X05033Y040119D01*
X050281Y039999D01*
X050264Y03987D01*
X050281Y039742D01*
X05033Y039621D01*
X05041Y039518D01*
X050513Y039439D01*
X050613Y039397D01*
Y039343D01*
X050513Y039302D01*
X05041Y039223D01*
X05033Y039119D01*
X050322Y0391D01*
X050265Y039092D01*
X050202Y039155D01*
Y04185D01*
X050186Y041928D01*
X050143Y041993D01*
X049343Y042793D01*
X049277Y042837D01*
X0492Y042852D01*
X047107D01*
X047029Y042837D01*
X046964Y042793D01*
X046312Y042141D01*
X046265Y04216D01*
Y043627D01*
X04625Y043704D01*
X046206Y04377D01*
X045375Y044601D01*
X045309Y044645D01*
X045232Y044661D01*
X04418D01*
X044103Y044645D01*
X044037Y044601D01*
X042236Y0428D01*
X040696D01*
X040666Y042853D01*
X040589Y04293D01*
X040494Y042985D01*
X040388Y043013D01*
X040279D01*
X040174Y042985D01*
X040079Y04293D01*
X040002Y042853D01*
X039947Y042758D01*
X039919Y042653D01*
Y042543D01*
X039935Y042485D01*
X039772Y042322D01*
X039726Y042342D01*
Y044704D01*
X040205Y045183D01*
X040749D01*
Y045396D01*
X046989D01*
X047002Y045346D01*
X046975Y04533D01*
X04691Y045265D01*
X046864Y045185D01*
X04684Y045096D01*
Y045004D01*
X046864Y044915D01*
X04691Y044835D01*
X046975Y04477D01*
X047055Y044724D01*
X047144Y0447D01*
X047236D01*
X047325Y044724D01*
X047405Y04477D01*
X04747Y044835D01*
X047477Y044848D01*
X062256D01*
X064437Y042667D01*
X064503Y042623D01*
X06458Y042608D01*
X071109D01*
X071187Y042623D01*
X071252Y042667D01*
X071754Y043168D01*
X071785Y04316D01*
X071884D01*
X07198Y043185D01*
X072065Y043235D01*
X072135Y043305D01*
X072185Y04339D01*
X07221Y043486D01*
Y043585D01*
X072185Y04368D01*
X072135Y043766D01*
X072065Y043836D01*
X07198Y043885D01*
X071884Y043911D01*
X071785D01*
X07169Y043885D01*
X071604Y043836D01*
X071534Y043766D01*
X071485Y04368D01*
X071459Y043585D01*
Y043486D01*
X071468Y043454D01*
X071025Y043012D01*
X064664D01*
X064372Y043304D01*
X064397Y04335D01*
X064404Y043349D01*
X065766D01*
Y043097D01*
X066675D01*
Y044006D01*
X065766D01*
Y043753D01*
X064487D01*
X062491Y04575D01*
X062504Y045799D01*
Y045904D01*
X062476Y046006D01*
X062424Y046097D01*
X062419Y046101D01*
X062438Y046147D01*
X06454D01*
X064927Y045761D01*
Y045409D01*
X065139Y045197D01*
X065491D01*
X065741Y044947D01*
X065806Y044903D01*
X065884Y044888D01*
X06682D01*
X066898Y044903D01*
X066963Y044947D01*
X067213Y045197D01*
X067491D01*
X067781Y044907D01*
X067846Y044863D01*
X067924Y044848D01*
X068902D01*
X068979Y044863D01*
X069045Y044907D01*
X069287Y04515D01*
X069639D01*
X069851Y045362D01*
Y045787D01*
X069639Y046D01*
X069214D01*
X069001Y045787D01*
Y045436D01*
X068818Y045252D01*
X068654D01*
X068634Y045302D01*
X068692Y045361D01*
X068748Y045458D01*
X068777Y045566D01*
Y045678D01*
X068748Y045786D01*
X068692Y045883D01*
X068613Y045962D01*
X068516Y046018D01*
X068408Y046047D01*
X068296D01*
X068188Y046018D01*
X068091Y045962D01*
X068012Y045883D01*
X067956Y045786D01*
X067927Y045678D01*
Y045566D01*
X067956Y045458D01*
X068012Y045361D01*
X068066Y045306D01*
X068049Y045261D01*
X068003Y045256D01*
X067777Y045483D01*
Y045834D01*
X067564Y046047D01*
X067139D01*
X066927Y045834D01*
Y045483D01*
X066736Y045292D01*
X066689D01*
X06667Y045339D01*
X066692Y045361D01*
X066748Y045458D01*
X066777Y045566D01*
Y045678D01*
X066748Y045786D01*
X066692Y045883D01*
X066613Y045962D01*
X066516Y046018D01*
X066408Y046047D01*
X066296D01*
X066188Y046018D01*
X066091Y045962D01*
X066012Y045883D01*
X065956Y045786D01*
X065927Y045678D01*
Y045566D01*
X065956Y045458D01*
X066012Y045361D01*
X066034Y045339D01*
X066015Y045292D01*
X065967D01*
X065777Y045483D01*
Y045834D01*
X065564Y046047D01*
X065213D01*
X064767Y046493D01*
X064701Y046537D01*
X064624Y046552D01*
X05553D01*
X055452Y046537D01*
X055387Y046493D01*
X054446Y045552D01*
X053936D01*
X053917Y045599D01*
X053924Y045606D01*
X053976Y045697D01*
X054004Y045799D01*
Y045904D01*
X053991Y045952D01*
X054742Y046703D01*
X074189D01*
X074219Y046651D01*
D02*
G37*
G36*
X074239Y034365D02*
X074213Y03432D01*
X074152Y034336D01*
X074053D01*
X073957Y034311D01*
X073872Y034261D01*
X073802Y034191D01*
X073752Y034106D01*
X073727Y03401D01*
Y033911D01*
X073752Y033816D01*
X073802Y03373D01*
X073872Y03366D01*
X073957Y033611D01*
X074053Y033585D01*
X074152D01*
X074247Y033611D01*
X074333Y03366D01*
X074403Y03373D01*
X074452Y033816D01*
X074478Y033911D01*
Y03401D01*
X074461Y034072D01*
X074506Y034098D01*
X075528Y033076D01*
Y031312D01*
X075481Y031293D01*
X075299Y031476D01*
X075325Y031575D01*
Y0317D01*
X075293Y031821D01*
X07523Y031929D01*
X075142Y032018D01*
X075034Y03208D01*
X074913Y032113D01*
X074788D01*
X074667Y03208D01*
X074559Y032018D01*
X07447Y031929D01*
X074408Y031821D01*
X074375Y0317D01*
Y031575D01*
X074408Y031454D01*
X07447Y031346D01*
X074559Y031258D01*
X074667Y031195D01*
X074788Y031163D01*
X074913D01*
X075013Y03119D01*
X075228Y030974D01*
Y029998D01*
X075181Y029978D01*
X075142Y030018D01*
X075034Y03008D01*
X074913Y030113D01*
X0749D01*
Y029638D01*
Y029163D01*
X074913D01*
X075034Y029195D01*
X075142Y029258D01*
X075181Y029297D01*
X075228Y029278D01*
Y028209D01*
X075178Y028188D01*
X075136Y02823D01*
X075046Y028282D01*
X074946Y028309D01*
X074944D01*
Y027913D01*
X074894D01*
Y027863D01*
X074498D01*
Y027861D01*
X074525Y027761D01*
X074577Y027671D01*
X074651Y027597D01*
X074703Y027567D01*
X074689Y027517D01*
X074098D01*
X074085Y027567D01*
X074136Y027597D01*
X07421Y027671D01*
X074262Y027761D01*
X074289Y027861D01*
Y027965D01*
X074262Y028066D01*
X07421Y028156D01*
X074136Y02823D01*
X074046Y028282D01*
X073946Y028309D01*
X073842D01*
X073797Y028297D01*
X07343Y028663D01*
X073365Y028707D01*
X073287Y028722D01*
X067588D01*
X06751Y028707D01*
X067445Y028663D01*
X06734Y028558D01*
X066081D01*
X066076Y028564D01*
X066011Y028607D01*
X065933Y028623D01*
X064827D01*
X064808Y028669D01*
X064815Y028676D01*
X064868Y028768D01*
X064895Y028869D01*
Y028872D01*
X064495D01*
X064095D01*
Y028869D01*
X064123Y028768D01*
X064175Y028676D01*
X064183Y028669D01*
X064164Y028623D01*
X061337D01*
X061308Y028617D01*
X061268D01*
X061249Y028663D01*
X061804Y029218D01*
X06416D01*
X06418Y029172D01*
X064175Y029168D01*
X064123Y029076D01*
X064095Y028975D01*
Y028972D01*
X064495D01*
X064895D01*
Y028975D01*
X064868Y029076D01*
X064815Y029168D01*
X064811Y029172D01*
X06483Y029218D01*
X066286D01*
X066334Y02917D01*
X06633Y029156D01*
Y029064D01*
X066354Y028975D01*
X0664Y028895D01*
X066465Y02883D01*
X066545Y028784D01*
X066634Y02876D01*
X066726D01*
X066815Y028784D01*
X066895Y02883D01*
X06696Y028895D01*
X067006Y028975D01*
X06703Y029064D01*
Y029156D01*
X067006Y029245D01*
X06696Y029325D01*
X066895Y02939D01*
X066815Y029436D01*
X066726Y02946D01*
X066634D01*
X06662Y029456D01*
X066513Y029564D01*
X066447Y029607D01*
X06637Y029623D01*
X064827D01*
X064808Y029669D01*
X064815Y029676D01*
X06484Y02972D01*
X066048D01*
X066125Y029735D01*
X066191Y029779D01*
X070006Y033594D01*
X070037Y033585D01*
X070136D01*
X070232Y033611D01*
X070317Y03366D01*
X070387Y03373D01*
X070437Y033816D01*
X070462Y033911D01*
Y03401D01*
X070437Y034106D01*
X070387Y034191D01*
X070317Y034261D01*
X070232Y034311D01*
X070136Y034336D01*
X070037D01*
X069942Y034311D01*
X069856Y034261D01*
X069786Y034191D01*
X069737Y034106D01*
X069711Y03401D01*
Y033911D01*
X069719Y03388D01*
X065964Y030124D01*
X06484D01*
X064815Y030168D01*
X064741Y030242D01*
X06465Y030295D01*
X064639Y030298D01*
X064645Y030348D01*
X06521D01*
X065287Y030363D01*
X065353Y030407D01*
X069384Y034438D01*
X074166D01*
X074239Y034365D01*
D02*
G37*
%LPC*%
G36*
X070482Y046D02*
X07037D01*
X070262Y045971D01*
X070165Y045915D01*
X070086Y045836D01*
X07003Y045739D01*
X070001Y045631D01*
Y045519D01*
X07003Y045411D01*
X070086Y045314D01*
X070165Y045235D01*
X070262Y045179D01*
X07037Y04515D01*
X070482D01*
X07059Y045179D01*
X070687Y045235D01*
X070766Y045314D01*
X070822Y045411D01*
X070851Y045519D01*
Y045631D01*
X070822Y045739D01*
X070766Y045836D01*
X070687Y045915D01*
X07059Y045971D01*
X070482Y046D01*
D02*
G37*
G36*
X040388Y045013D02*
X040384D01*
Y044648D01*
X040749D01*
Y044653D01*
X040721Y044758D01*
X040666Y044853D01*
X040589Y04493D01*
X040494Y044985D01*
X040388Y045013D01*
D02*
G37*
G36*
X040284D02*
X040279D01*
X040174Y044985D01*
X040079Y04493D01*
X040002Y044853D01*
X039947Y044758D01*
X039919Y044653D01*
Y044648D01*
X040284D01*
Y045013D01*
D02*
G37*
G36*
X040749Y044548D02*
X040384D01*
Y044183D01*
X040388D01*
X040494Y044211D01*
X040589Y044266D01*
X040666Y044343D01*
X040721Y044438D01*
X040749Y044543D01*
Y044548D01*
D02*
G37*
G36*
X040284D02*
X039919D01*
Y044543D01*
X039947Y044438D01*
X040002Y044343D01*
X040079Y044266D01*
X040174Y044211D01*
X040279Y044183D01*
X040284D01*
Y044548D01*
D02*
G37*
G36*
X040388Y044013D02*
X040279D01*
X040174Y043985D01*
X040079Y04393D01*
X040002Y043853D01*
X039947Y043758D01*
X039919Y043653D01*
Y043543D01*
X039947Y043438D01*
X040002Y043343D01*
X040079Y043266D01*
X040174Y043211D01*
X040279Y043183D01*
X040388D01*
X040494Y043211D01*
X040589Y043266D01*
X040666Y043343D01*
X040721Y043438D01*
X040749Y043543D01*
Y043653D01*
X040721Y043758D01*
X040666Y043853D01*
X040589Y04393D01*
X040494Y043985D01*
X040388Y044013D01*
D02*
G37*
G36*
X067675Y044006D02*
X066766D01*
Y043097D01*
X067675D01*
Y044006D01*
D02*
G37*
G36*
X050762Y044368D02*
X050633Y044351D01*
X050513Y044302D01*
X05041Y044223D01*
X05033Y044119D01*
X050281Y043999D01*
X050264Y04387D01*
X050281Y043742D01*
X05033Y043621D01*
X05041Y043518D01*
X050513Y043439D01*
X050613Y043397D01*
Y043343D01*
X050513Y043302D01*
X05041Y043223D01*
X05033Y043119D01*
X050281Y042999D01*
X05027Y04292D01*
X050762D01*
X051253D01*
X051243Y042999D01*
X051193Y043119D01*
X051114Y043223D01*
X051011Y043302D01*
X05091Y043343D01*
Y043397D01*
X051011Y043439D01*
X051114Y043518D01*
X051193Y043621D01*
X051243Y043742D01*
X05126Y04387D01*
X051243Y043999D01*
X051193Y044119D01*
X051114Y044223D01*
X051011Y044302D01*
X050891Y044351D01*
X050762Y044368D01*
D02*
G37*
G36*
X061731Y04434D02*
X061576D01*
X061423Y04431D01*
X06128Y04425D01*
X061151Y044164D01*
X061041Y044054D01*
X060954Y043925D01*
X060895Y043781D01*
X060865Y043629D01*
Y043473D01*
X060895Y043321D01*
X060954Y043177D01*
X061041Y043048D01*
X061151Y042938D01*
X06128Y042852D01*
X061423Y042793D01*
X061576Y042762D01*
X061731D01*
X061884Y042793D01*
X062027Y042852D01*
X062156Y042938D01*
X062266Y043048D01*
X062353Y043177D01*
X062412Y043321D01*
X062443Y043473D01*
Y043629D01*
X062412Y043781D01*
X062353Y043925D01*
X062266Y044054D01*
X062156Y044164D01*
X062027Y04425D01*
X061884Y04431D01*
X061731Y04434D01*
D02*
G37*
G36*
X064176Y042241D02*
X06407D01*
X063968Y042213D01*
X063877Y042161D01*
X063803Y042086D01*
X06375Y041995D01*
X063723Y041893D01*
Y041788D01*
X06375Y041686D01*
X063803Y041595D01*
X063877Y04152D01*
X063968Y041468D01*
X06407Y041441D01*
X064176D01*
X064277Y041468D01*
X064368Y04152D01*
X064443Y041595D01*
X064496Y041686D01*
X064523Y041788D01*
Y041893D01*
X064496Y041995D01*
X064443Y042086D01*
X064368Y042161D01*
X064277Y042213D01*
X064176Y042241D01*
D02*
G37*
G36*
X068284Y04236D02*
X068109D01*
X067938Y042326D01*
X067777Y042259D01*
X067631Y042162D01*
X067508Y042038D01*
X06741Y041893D01*
X067344Y041731D01*
X067309Y04156D01*
Y041385D01*
X067344Y041214D01*
X06741Y041052D01*
X067508Y040907D01*
X067631Y040783D01*
X067777Y040686D01*
X067938Y040619D01*
X068109Y040585D01*
X068284D01*
X068456Y040619D01*
X068617Y040686D01*
X068763Y040783D01*
X068886Y040907D01*
X068983Y041052D01*
X06905Y041214D01*
X069084Y041385D01*
Y04156D01*
X06905Y041731D01*
X068983Y041893D01*
X068886Y042038D01*
X068763Y042162D01*
X068617Y042259D01*
X068456Y042326D01*
X068284Y04236D01*
D02*
G37*
G36*
X064176Y041241D02*
X06407D01*
X063968Y041213D01*
X063877Y041161D01*
X063803Y041086D01*
X06375Y040995D01*
X063723Y040893D01*
Y040788D01*
X06375Y040686D01*
X063803Y040595D01*
X063877Y04052D01*
X063968Y040468D01*
X06407Y040441D01*
X064176D01*
X064277Y040468D01*
X064368Y04052D01*
X064443Y040595D01*
X064496Y040686D01*
X064523Y040788D01*
Y040893D01*
X064496Y040995D01*
X064443Y041086D01*
X064368Y041161D01*
X064277Y041213D01*
X064176Y041241D01*
D02*
G37*
G36*
Y040241D02*
X064173D01*
Y039891D01*
X064523D01*
Y039893D01*
X064496Y039995D01*
X064443Y040086D01*
X064368Y040161D01*
X064277Y040213D01*
X064176Y040241D01*
D02*
G37*
G36*
X064073D02*
X06407D01*
X063968Y040213D01*
X063877Y040161D01*
X063803Y040086D01*
X06375Y039995D01*
X063723Y039893D01*
Y039891D01*
X064073D01*
Y040241D01*
D02*
G37*
G36*
X07179Y031706D02*
X071691D01*
X071595Y031681D01*
X07151Y031631D01*
X07144Y031561D01*
X07139Y031476D01*
X071365Y03138D01*
Y031281D01*
X07139Y031186D01*
X07144Y0311D01*
X07151Y03103D01*
X071595Y030981D01*
X071691Y030955D01*
X07179D01*
X071885Y030981D01*
X071971Y03103D01*
X072041Y0311D01*
X07209Y031186D01*
X072116Y031281D01*
Y03138D01*
X07209Y031476D01*
X072041Y031561D01*
X071971Y031631D01*
X071885Y031681D01*
X07179Y031706D01*
D02*
G37*
G36*
X0748Y030113D02*
X074788D01*
X074667Y03008D01*
X074559Y030018D01*
X07447Y029929D01*
X074408Y029821D01*
X074375Y0297D01*
Y029688D01*
X0748D01*
Y030113D01*
D02*
G37*
G36*
Y029588D02*
X074375D01*
Y029575D01*
X074408Y029454D01*
X07447Y029346D01*
X074559Y029258D01*
X074667Y029195D01*
X074788Y029163D01*
X0748D01*
Y029588D01*
D02*
G37*
G36*
X074844Y028309D02*
X074842D01*
X074741Y028282D01*
X074651Y02823D01*
X074577Y028156D01*
X074525Y028066D01*
X074498Y027965D01*
Y027963D01*
X074844D01*
Y028309D01*
D02*
G37*
%LPD*%
D19*
X053613Y01797D02*
X056757D01*
X057346Y018559D01*
X041703Y024561D02*
X042648Y023616D01*
X0404Y024561D02*
X041703D01*
X042648Y023415D02*
Y023616D01*
Y023415D02*
X046583Y01948D01*
X042351Y022345D02*
Y023413D01*
X041598Y023961D02*
X041676Y023884D01*
X04188D01*
X042351Y023413D01*
X061672Y02436D02*
X06238Y023651D01*
X05963Y026402D02*
X061672Y02436D01*
X044772Y024866D02*
Y025866D01*
Y024427D02*
Y024866D01*
Y04146D02*
X045262D01*
X067352Y045622D02*
X067924Y04505D01*
X068902D01*
X069426Y045575D01*
X06682Y04509D02*
X067352Y045622D01*
X065884Y04509D02*
X06682D01*
X065352Y045622D02*
X065884Y04509D01*
X071024Y036843D02*
X073378D01*
X070055Y035874D02*
X071024Y036843D01*
X057457Y03052D02*
X058054Y029922D01*
X064495D01*
X046876Y015717D02*
X048793Y0138D01*
X06066D01*
X062526Y015667D01*
X050598Y01948D02*
X051208Y02009D01*
X055508D01*
X056024Y019575D01*
X039524Y044788D02*
X040334Y045598D01*
X039524Y036343D02*
Y044788D01*
Y036343D02*
X040417Y035449D01*
X073287Y02852D02*
X073894Y027913D01*
X067588Y02852D02*
X073287D01*
X067424Y028356D02*
X067588Y02852D01*
X065998Y028356D02*
X067424D01*
X065933Y028421D02*
X065998Y028356D01*
X061337Y028421D02*
X065933D01*
X061331Y028415D02*
X061337Y028421D01*
X058395Y028415D02*
X061331D01*
X05628Y0263D02*
X058395Y028415D01*
X05311Y0263D02*
X05628D01*
X05107Y02426D02*
X05311Y0263D01*
X0504Y02426D02*
X05107D01*
X04556Y0291D02*
X0504Y02426D01*
X04556Y0291D02*
Y0306D01*
X045294Y030866D02*
X04556Y0306D01*
X044772Y030866D02*
X045294D01*
X059078Y02197D02*
X06426D01*
X0688Y01743D01*
X069613D01*
X071276Y015767D01*
X072337Y016827D02*
X075409D01*
X071276Y015767D02*
X072337Y016827D01*
X050762Y03087D02*
X05193D01*
X05321Y02959D01*
X05494D01*
X0566Y027931D01*
X053604Y025801D02*
X059033D01*
X061898Y022937D01*
X044772Y04146D02*
Y041866D01*
X045262Y04146D02*
X04559Y041132D01*
X046272D01*
X04723Y04209D01*
X04886D01*
X04915Y0418D01*
Y03702D02*
Y0418D01*
X04831Y03618D02*
X04915Y03702D01*
X0461Y03618D02*
X04831D01*
X0458Y03588D02*
X0461Y03618D01*
X0458Y034161D02*
Y03588D01*
Y034161D02*
X048701Y03126D01*
X040602Y041866D02*
X044772D01*
X040334Y041598D02*
X040602Y041866D01*
X052008Y019575D02*
X053613Y01797D01*
X071109Y04281D02*
X071835Y043535D01*
X06458Y04281D02*
X071109D01*
X06234Y04505D02*
X06458Y04281D01*
X04719Y04505D02*
X06234D01*
X07174Y027315D02*
X075155D01*
X07543Y02759D01*
Y031058D01*
X07485Y031638D02*
X07543Y031058D01*
X044772Y036866D02*
X047734D01*
X04788Y03672D01*
X0399Y032931D02*
X040417Y033449D01*
X0399Y025061D02*
Y032931D01*
Y025061D02*
X0404Y024561D01*
X064495Y026922D02*
X0672D01*
X040417Y032449D02*
X04094Y032971D01*
Y03908D01*
X03982Y0402D02*
X04094Y03908D01*
X03982Y0402D02*
Y042085D01*
X040334Y042598D01*
X040602Y040866D02*
X044772D01*
X040334Y040598D02*
X040602Y040866D01*
X044772D02*
X045292D01*
X045323Y040835D01*
X047993D01*
X048669Y041512D01*
X05204Y02223D02*
X05267D01*
X053302Y021598D01*
X056024D01*
X046776Y03587D02*
X050762D01*
X046283Y035378D02*
X046776Y03587D01*
X073378Y041843D02*
X07507Y043535D01*
Y0472D01*
X07327Y049D02*
X07507Y0472D01*
X04387Y049D02*
X07327D01*
X065126Y017913D02*
X067484D01*
X068283Y017114D01*
X068929D01*
X070276Y015767D01*
X060678Y01988D02*
X062645Y017913D01*
X065126D01*
X067099Y016944D02*
X068276Y015767D01*
X047752Y016944D02*
X067099D01*
X042351Y022345D02*
X047752Y016944D01*
X044906Y015457D02*
X045742Y016293D01*
X0493D01*
X049876Y015717D01*
X0461Y01494D02*
X046876Y015717D01*
X0445Y01494D02*
X0461D01*
X04439Y01505D02*
X0445Y01494D01*
X04439Y01505D02*
Y0163D01*
X04468Y01659D01*
X053703D01*
X054576Y015717D01*
X046415Y020394D02*
X064213D01*
X041648Y025161D02*
X046415Y020394D01*
X044772Y024427D02*
X045498Y0237D01*
X051502D01*
X053604Y025801D01*
X06238Y0226D02*
Y023651D01*
X0622Y02242D02*
X06238Y0226D01*
X05348Y02242D02*
X0622D01*
X053222Y022678D02*
X05348Y02242D01*
X045642Y022678D02*
X053222D01*
X04344Y02488D02*
X045642Y022678D01*
X04344Y02488D02*
Y031126D01*
X04418Y031866D01*
X044772D01*
X051096Y021656D02*
X05136Y02192D01*
X045604Y021656D02*
X051096D01*
X0426Y02466D02*
X045604Y021656D01*
X0426Y02466D02*
Y028266D01*
X040417Y030449D02*
X0426Y028266D01*
X040417Y031449D02*
X04302Y028846D01*
Y02466D02*
Y028846D01*
Y02466D02*
X04546Y02222D01*
X04739D01*
Y02494D02*
X047678Y025228D01*
X048732D01*
X073378Y039843D02*
X0739Y03932D01*
Y03642D02*
Y03932D01*
X07288Y0354D02*
X0739Y03642D01*
X06958Y0354D02*
X07288D01*
X06869Y03629D02*
X06958Y0354D01*
X06477Y03629D02*
X06869D01*
X064495Y029922D02*
X066048D01*
X070087Y033961D01*
X05963Y030417D02*
X06012D01*
X060253Y03055D01*
X06521D01*
X0693Y03464D01*
X07425D01*
X07573Y03316D01*
Y024667D02*
Y03316D01*
X074913Y02385D02*
X07573Y024667D01*
X05187Y03339D02*
X06623D01*
X05135Y03287D02*
X05187Y03339D01*
X050762Y03287D02*
X05135D01*
X068112Y029638D02*
X07485D01*
X067127Y028653D02*
X068112Y029638D01*
X066499Y028653D02*
X067127D01*
X06623Y028922D02*
X066499Y028653D01*
X064495Y028922D02*
X06623D01*
X050762Y02987D02*
X05135D01*
X05391Y02731D01*
X05663D01*
X058032Y028712D01*
X061012D01*
X06172Y02942D01*
X06637D01*
X06668Y02911D01*
X05774Y02916D02*
X06081D01*
X0569Y03D02*
X05774Y02916D01*
X0538Y03D02*
X0569D01*
X05193Y03187D02*
X0538Y03D01*
X050762Y03187D02*
X05193D01*
X05407Y01421D02*
X055576Y015717D01*
X049383Y01421D02*
X05407D01*
X047876Y015717D02*
X049383Y01421D01*
X040334Y045598D02*
X052862D01*
X05311Y04535D01*
X05453D01*
X05553Y04635D01*
X064624D01*
X065352Y045622D01*
X044056Y037866D02*
X044772D01*
X04301Y03682D02*
X044056Y037866D01*
X0502Y03887D02*
X050762D01*
X05Y039071D02*
X0502Y03887D01*
X05Y039071D02*
Y04185D01*
X0492Y04265D02*
X05Y04185D01*
X047107Y04265D02*
X0492D01*
X046063Y041606D02*
X047107Y04265D01*
X054658Y046905D02*
X074551D01*
X053604Y045851D02*
X054658Y046905D01*
X050762Y03887D02*
X063093D01*
X064123Y037841D01*
X071875Y03934D02*
X073378Y040843D01*
X05349Y03934D02*
X071875D01*
X064123Y038841D02*
X06463Y038333D01*
Y03757D02*
Y038333D01*
X0644Y03734D02*
X06463Y03757D01*
X05595Y03734D02*
X0644D01*
X05542Y03787D02*
X05595Y03734D01*
X050762Y03787D02*
X05542D01*
X050762Y04287D02*
X05857D01*
X061599Y039841D01*
X064123D01*
X05Y04287D02*
X050762D01*
X048276Y044594D02*
X05Y04287D01*
X046903Y044594D02*
X048276D01*
X046742Y044755D02*
X046903Y044594D01*
X04404Y044755D02*
X046742D01*
X043883Y044598D02*
X04404Y044755D01*
X040334Y044598D02*
X043883D01*
X072008Y041843D02*
X073378D01*
X070055Y03989D02*
X072008Y041843D01*
X073807Y024744D02*
X074913Y02585D01*
X072984Y024744D02*
X073807D01*
X062104Y045851D02*
X064404Y043551D01*
X06622D01*
X061672Y02436D02*
X06599D01*
X06623Y0246D01*
X072128D01*
X072984Y023744D01*
X040334Y042598D02*
X04232D01*
X04418Y044458D01*
X045232D01*
X046063Y043627D01*
Y041606D02*
Y043627D01*
X062803Y01639D02*
X063526Y015667D01*
X05625Y01639D02*
X062803D01*
X055576Y015717D02*
X05625Y01639D01*
X047404Y037496D02*
X048669D01*
X04731Y037591D02*
X047404Y037496D01*
X046063Y037591D02*
X04731D01*
X047523Y029244D02*
X048732D01*
X04746Y029181D02*
X047523Y029244D01*
X046252Y029181D02*
X04746D01*
X058592Y026402D02*
X05963D01*
X05849Y026504D02*
X058592Y026402D01*
X057457Y026504D02*
X05849D01*
X072317Y017827D02*
X075409D01*
X07223Y017913D02*
X072317Y017827D01*
X069142Y017913D02*
X07223D01*
X068742Y038843D02*
X073378D01*
X06874Y038841D02*
X068742Y038843D01*
X064123Y038841D02*
X06874D01*
D37*
X06722Y043551D02*
D03*
X06622D02*
D03*
D38*
X069426Y045575D02*
D03*
X067352Y045622D02*
D03*
X065352D02*
D03*
D39*
X070426Y045575D02*
D03*
X068352Y045622D02*
D03*
X066352D02*
D03*
D40*
X048732Y029244D02*
D03*
Y025228D02*
D03*
X046252Y029181D02*
D03*
Y025165D02*
D03*
X048701Y035276D02*
D03*
Y03126D02*
D03*
X046283Y031362D02*
D03*
Y035378D02*
D03*
X048669Y037496D02*
D03*
Y041512D02*
D03*
X046063Y037591D02*
D03*
Y041606D02*
D03*
X07174Y031331D02*
D03*
Y027315D02*
D03*
X057472Y032693D02*
D03*
Y036709D02*
D03*
X057457Y03052D02*
D03*
Y026504D02*
D03*
X05963Y026402D02*
D03*
Y030417D02*
D03*
X070087Y033961D02*
D03*
X074102D02*
D03*
X050598Y01948D02*
D03*
X046583D02*
D03*
X057882Y022937D02*
D03*
X061898D02*
D03*
X063213Y047496D02*
D03*
X067228D02*
D03*
X056024Y021598D02*
D03*
X052008D02*
D03*
Y019575D02*
D03*
X056024D02*
D03*
X071835Y047551D02*
D03*
Y043535D02*
D03*
X070055Y03989D02*
D03*
Y035874D02*
D03*
X069142Y017913D02*
D03*
X065126D02*
D03*
D41*
X054404Y028201D02*
D03*
X061654Y043551D02*
D03*
X053604Y025801D02*
D03*
X062054D02*
D03*
X053604Y045851D02*
D03*
X062104D02*
D03*
X041598Y021511D02*
D03*
X041648Y026411D02*
D03*
Y025161D02*
D03*
X041598Y023961D02*
D03*
X041648Y022761D02*
D03*
X064123Y034841D02*
D03*
Y035841D02*
D03*
Y036841D02*
D03*
Y037841D02*
D03*
Y038841D02*
D03*
Y039841D02*
D03*
Y040841D02*
D03*
Y041841D02*
D03*
X070295Y027972D02*
D03*
Y027122D02*
D03*
X064495Y029922D02*
D03*
Y028922D02*
D03*
Y027922D02*
D03*
Y026922D02*
D03*
Y025922D02*
D03*
Y024922D02*
D03*
D42*
X073126Y020378D02*
D03*
X064228D02*
D03*
D43*
X075409Y016827D02*
D03*
X040334Y043598D02*
D03*
Y044598D02*
D03*
Y042598D02*
D03*
Y041598D02*
D03*
Y040598D02*
D03*
X065526Y015667D02*
D03*
X063526D02*
D03*
X064526D02*
D03*
X071276Y015767D02*
D03*
X069276D02*
D03*
X070276D02*
D03*
X040417Y030449D02*
D03*
Y031449D02*
D03*
Y032449D02*
D03*
Y034449D02*
D03*
Y033449D02*
D03*
X051876Y015717D02*
D03*
X050876D02*
D03*
X049876D02*
D03*
X047876D02*
D03*
X048876D02*
D03*
X073378Y038843D02*
D03*
Y037843D02*
D03*
Y039843D02*
D03*
Y040843D02*
D03*
Y041843D02*
D03*
X056576Y015717D02*
D03*
X055576D02*
D03*
X057576D02*
D03*
X058576D02*
D03*
X059576D02*
D03*
X074551Y046905D02*
D03*
D44*
X075409Y017827D02*
D03*
X040334Y045598D02*
D03*
X040417Y035449D02*
D03*
X044906Y015457D02*
D03*
X073378Y036843D02*
D03*
X074551Y045905D02*
D03*
D45*
X074894Y027913D02*
D03*
X073894D02*
D03*
X072984Y024744D02*
D03*
Y023744D02*
D03*
D46*
X050762Y04087D02*
D03*
Y04187D02*
D03*
Y04387D02*
D03*
Y03987D02*
D03*
Y04287D02*
D03*
Y03887D02*
D03*
X044772Y028866D02*
D03*
Y024866D02*
D03*
Y027866D02*
D03*
Y026866D02*
D03*
Y025866D02*
D03*
Y029866D02*
D03*
Y030866D02*
D03*
Y032866D02*
D03*
Y033866D02*
D03*
Y034866D02*
D03*
Y031866D02*
D03*
Y035866D02*
D03*
Y037866D02*
D03*
Y043866D02*
D03*
Y042866D02*
D03*
Y041866D02*
D03*
Y040866D02*
D03*
Y036866D02*
D03*
Y039866D02*
D03*
Y038866D02*
D03*
X050762Y02887D02*
D03*
Y02486D02*
D03*
Y02787D02*
D03*
Y02687D02*
D03*
Y02587D02*
D03*
Y02987D02*
D03*
Y03487D02*
D03*
Y03787D02*
D03*
Y03687D02*
D03*
Y03587D02*
D03*
Y03387D02*
D03*
Y03287D02*
D03*
Y03187D02*
D03*
Y03087D02*
D03*
D47*
X07485Y031638D02*
D03*
Y029638D02*
D03*
X074913Y02585D02*
D03*
Y02385D02*
D03*
D48*
X062526Y015667D02*
D03*
X068276Y015767D02*
D03*
X046876Y015717D02*
D03*
X054576D02*
D03*
D49*
X039874Y014858D02*
D03*
X039882Y049504D02*
D03*
X07125Y023583D02*
D03*
X06426Y031591D02*
D03*
X074504Y01489D02*
D03*
X074535Y049528D02*
D03*
X068197Y041472D02*
D03*
Y035291D02*
D03*
D50*
X057346Y018559D02*
D03*
X059078Y02197D02*
D03*
X0566Y027931D02*
D03*
X04719Y04505D02*
D03*
X04788Y03672D02*
D03*
X0672Y026922D02*
D03*
X05204Y02223D02*
D03*
X04387Y049D02*
D03*
X060678Y01988D02*
D03*
X05136Y02192D02*
D03*
X04739Y02222D02*
D03*
Y02494D02*
D03*
X06477Y03629D02*
D03*
X06623Y03339D02*
D03*
X06668Y02911D02*
D03*
X06081Y02916D02*
D03*
X04301Y03682D02*
D03*
X05349Y03934D02*
D03*
M02*
