M48
;Layer_Color=9474304
;FILE_FORMAT=2:4
INCH,LZ
;TYPE=PLATED
T01F00S00C0.0280
T02F00S00C0.0300
T03F00S00C0.0315
T04F00S00C0.0354
T05F00S00C0.0394
T06F00S00C0.0400
T07F00S00C0.0402
T08F00S00C0.0450
T09F00S00C0.0500
T10F00S00C0.0591
T11F00S00C0.1378
%
T01
X026615Y026765
T02
X0265Y032689
Y037748
X049201
X049248Y032689
T03
X047039Y022047
X046039
X045039
X044039
T04
X023694Y023826
Y024826
Y025826
Y026826
Y027826
Y028826
Y029826
Y030826
X014843Y030843
Y029843
Y028843
Y027843
Y026843
Y025843
Y024843
Y023843
Y031843
Y032843
Y033843
Y034843
Y035843
Y036843
Y037843
Y038843
Y039843
Y040843
Y041843
X023694Y041826
Y040826
Y039826
Y038826
Y037826
Y036826
Y035826
Y034826
Y033826
Y032826
Y031826
T05
X026772Y042598
Y043598
T06
X040961Y042971
X042161
X043361Y043021
T07
X03685Y025268
Y026268
Y027268
Y028268
T08
X039761Y042971
X044561Y043021
T09
X046465Y044291
X048465
T10
X028937Y043583
X037835
T11
X050276Y021063
X048952Y031069
X026602
X014213Y021063
Y045354
X026602Y039469
X048952
X050276Y045354
M30
