G04*
G04 #@! TF.GenerationSoftware,Altium Limited,Altium Designer,21.9.2 (33)*
G04*
G04 Layer_Color=32896*
%FSTAX24Y24*%
%MOIN*%
G70*
G04*
G04 #@! TF.SameCoordinates,D1A32080-4ACB-4024-A22C-927F9C0922C7*
G04*
G04*
G04 #@! TF.FilePolarity,Positive*
G04*
G01*
G75*
%ADD10C,0.0100*%
%ADD16C,0.0079*%
%ADD19C,0.0070*%
D10*
X023196Y025603D02*
Y026203D01*
X022897D01*
X022797Y026103D01*
Y025903D01*
X022897Y025803D01*
X023196D01*
X022997D02*
X022797Y025603D01*
X022597Y026203D02*
X022197D01*
Y026103D01*
X022597Y025703D01*
Y025603D01*
X020696Y025653D02*
Y026253D01*
X020397D01*
X020297Y026153D01*
Y025953D01*
X020397Y025853D01*
X020696D01*
X020497D02*
X020297Y025653D01*
X019697Y026253D02*
X019897Y026153D01*
X020097Y025953D01*
Y025753D01*
X019997Y025653D01*
X019797D01*
X019697Y025753D01*
Y025853D01*
X019797Y025953D01*
X020097D01*
X025196Y035153D02*
Y035753D01*
X024897D01*
X024797Y035653D01*
Y035453D01*
X024897Y035353D01*
X025196D01*
X024997D02*
X024797Y035153D01*
X024197Y035753D02*
X024597D01*
Y035453D01*
X024397Y035553D01*
X024297D01*
X024197Y035453D01*
Y035253D01*
X024297Y035153D01*
X024497D01*
X024597Y035253D01*
X023835Y030358D02*
Y030957D01*
X023535D01*
X023435Y030857D01*
Y030657D01*
X023535Y030558D01*
X023835D01*
X023635D02*
X023435Y030358D01*
X023235Y030857D02*
X023135Y030957D01*
X022935D01*
X022835Y030857D01*
Y030757D01*
X022935Y030657D01*
X023035D01*
X022935D01*
X022835Y030558D01*
Y030458D01*
X022935Y030358D01*
X023135D01*
X023235Y030458D01*
X024595Y026337D02*
X024695Y026437D01*
X024895D01*
X024995Y026337D01*
Y025937D01*
X024895Y025837D01*
X024695D01*
X024595Y025937D01*
X023995Y025837D02*
X024395D01*
X023995Y026237D01*
Y026337D01*
X024095Y026437D01*
X024295D01*
X024395Y026337D01*
X021845D02*
X021945Y026437D01*
X022145D01*
X022245Y026337D01*
Y025937D01*
X022145Y025837D01*
X021945D01*
X021845Y025937D01*
X021645Y025837D02*
X021445D01*
X021545D01*
Y026437D01*
X021645Y026337D01*
X018046Y029853D02*
Y030453D01*
X017747D01*
X017647Y030353D01*
Y030153D01*
X017747Y030053D01*
X018046D01*
X017847D02*
X017647Y029853D01*
X017047D02*
X017447D01*
X017047Y030253D01*
Y030353D01*
X017147Y030453D01*
X017347D01*
X017447Y030353D01*
X017996Y032703D02*
Y033303D01*
X017697D01*
X017597Y033203D01*
Y033003D01*
X017697Y032903D01*
X017996D01*
X017797D02*
X017597Y032703D01*
X017397D02*
X017197D01*
X017297D01*
Y033303D01*
X017397Y033203D01*
D16*
X023261Y023882D02*
Y024411D01*
X022551Y023882D02*
X023261D01*
X022551D02*
Y024411D01*
Y024716D02*
Y02526D01*
X023261Y024716D02*
Y02526D01*
X022551D02*
X023261D01*
X023881Y025311D02*
X024581D01*
X023881Y023931D02*
X024581D01*
X023881Y024782D02*
Y025311D01*
Y023931D02*
Y024477D01*
X024581Y023931D02*
Y024477D01*
Y024782D02*
Y025311D01*
X020761Y023932D02*
Y024461D01*
X020051Y023932D02*
X020761D01*
X020051D02*
Y024461D01*
Y024766D02*
Y02531D01*
X020761Y024766D02*
Y02531D01*
X020051D02*
X020761D01*
X017401Y028132D02*
X018111D01*
X017401D02*
Y028677D01*
X018111Y028132D02*
Y028677D01*
Y028982D02*
Y02951D01*
X017401D02*
X018111D01*
X017401Y028982D02*
Y02951D01*
X017351Y03236D02*
X018061D01*
Y031816D02*
Y03236D01*
X017351Y031816D02*
Y03236D01*
Y030982D02*
Y031511D01*
Y030982D02*
X018061D01*
Y031511D01*
X021331Y025311D02*
X022031D01*
X021331Y023931D02*
X022031D01*
X021331Y024782D02*
Y025311D01*
Y023931D02*
Y024477D01*
X022031Y023931D02*
Y024477D01*
Y024782D02*
Y025311D01*
X024551Y034282D02*
Y03481D01*
X025261D01*
Y034282D02*
Y03481D01*
Y033432D02*
Y033977D01*
X024551Y033432D02*
Y033977D01*
Y033432D02*
X025261D01*
X024551Y030532D02*
Y03106D01*
X025261D01*
Y030532D02*
Y03106D01*
Y029682D02*
Y030227D01*
X024551Y029682D02*
Y030227D01*
Y029682D02*
X025261D01*
D19*
X023175Y02448D02*
Y02466D01*
X022635Y02448D02*
Y02466D01*
X023959Y024533D02*
Y024713D01*
X024499Y024533D02*
Y024713D01*
X020675Y02453D02*
Y02471D01*
X020135Y02453D02*
Y02471D01*
X018027Y028733D02*
Y028913D01*
X017487Y028733D02*
Y028913D01*
X017435Y03158D02*
Y03176D01*
X017975Y03158D02*
Y03176D01*
X021409Y024533D02*
Y024713D01*
X021949Y024533D02*
Y024713D01*
X024637Y034033D02*
Y034213D01*
X025177Y034033D02*
Y034213D01*
X024637Y030283D02*
Y030463D01*
X025177Y030283D02*
Y030463D01*
M02*
