G04*
G04 #@! TF.GenerationSoftware,Altium Limited,Altium Designer,24.9.1 (31)*
G04*
G04 Layer_Color=128*
%FSTAX24Y24*%
%MOIN*%
G70*
G04*
G04 #@! TF.SameCoordinates,937A2281-D82C-41EB-8C72-0E8F8F28929F*
G04*
G04*
G04 #@! TF.FilePolarity,Positive*
G04*
G01*
G75*
%ADD56C,0.0020*%
D56*
X03665Y025268D02*
X037051D01*
X03685Y025067D02*
Y025468D01*
X03665Y026268D02*
X037051D01*
X03685Y026067D02*
Y026469D01*
X03665Y027268D02*
X037051D01*
X03685Y027067D02*
Y027469D01*
X03665Y028268D02*
X037051D01*
X03685Y028067D02*
Y028468D01*
X023517Y023826D02*
X023871D01*
X023694Y023649D02*
Y024004D01*
X023517Y024826D02*
X023871D01*
X023694Y024649D02*
Y025004D01*
X023517Y025826D02*
X023871D01*
X023694Y025649D02*
Y026004D01*
X023517Y026826D02*
X023871D01*
X023694Y026649D02*
Y027004D01*
X023517Y027826D02*
X023871D01*
X023694Y027649D02*
Y028004D01*
X023517Y028826D02*
X023871D01*
X023694Y028649D02*
Y029004D01*
X023517Y029826D02*
X023871D01*
X023694Y029649D02*
Y030004D01*
X023517Y030826D02*
X023871D01*
X023694Y030649D02*
Y031004D01*
X023517Y031826D02*
X023871D01*
X023694Y031649D02*
Y032004D01*
X023517Y032826D02*
X023871D01*
X023694Y032649D02*
Y033004D01*
X023517Y033826D02*
X023871D01*
X023694Y033649D02*
Y034004D01*
X023517Y035826D02*
X023871D01*
X023694Y035649D02*
Y036004D01*
X023517Y039826D02*
X023871D01*
X023694Y039649D02*
Y040004D01*
X023517Y036826D02*
X023871D01*
X023694Y036649D02*
Y037004D01*
X023517Y037826D02*
X023871D01*
X023694Y037649D02*
Y038004D01*
X023517Y038826D02*
X023871D01*
X023694Y038649D02*
Y039004D01*
X023517Y040826D02*
X023871D01*
X023694Y040649D02*
Y041004D01*
X023517Y041826D02*
X023871D01*
X023694Y041649D02*
Y042004D01*
X023517Y034826D02*
X023871D01*
X023694Y034649D02*
Y035004D01*
X014665Y024843D02*
X01502D01*
X014843Y024665D02*
Y02502D01*
X014665Y023843D02*
X01502D01*
X014843Y023665D02*
Y02402D01*
X014665Y025843D02*
X01502D01*
X014843Y025665D02*
Y02602D01*
X014665Y038843D02*
X01502D01*
X014843Y038665D02*
Y03902D01*
X014665Y037843D02*
X01502D01*
X014843Y037665D02*
Y03802D01*
X014665Y036843D02*
X01502D01*
X014843Y036665D02*
Y03702D01*
X014665Y035843D02*
X01502D01*
X014843Y035665D02*
Y03602D01*
X014665Y034843D02*
X01502D01*
X014843Y034665D02*
Y03502D01*
X014665Y039843D02*
X01502D01*
X014843Y039665D02*
Y04002D01*
X014665Y041843D02*
X01502D01*
X014843Y041665D02*
Y04202D01*
X014665Y040843D02*
X01502D01*
X014843Y040665D02*
Y04102D01*
X014665Y033843D02*
X01502D01*
X014843Y033665D02*
Y03402D01*
X014665Y032843D02*
X01502D01*
X014843Y032665D02*
Y03302D01*
X014665Y031843D02*
X01502D01*
X014843Y031665D02*
Y03202D01*
X014665Y030843D02*
X01502D01*
X014843Y030665D02*
Y03102D01*
X014665Y029843D02*
X01502D01*
X014843Y029665D02*
Y03002D01*
X014665Y028843D02*
X01502D01*
X014843Y028665D02*
Y02902D01*
X014665Y027843D02*
X01502D01*
X014843Y027665D02*
Y02802D01*
X014665Y026843D02*
X01502D01*
X014843Y026665D02*
Y02702D01*
X049098Y032689D02*
X049398D01*
X049248Y032539D02*
Y032839D01*
X02635Y037748D02*
X02665D01*
X0265Y037598D02*
Y037898D01*
X02635Y032689D02*
X02665D01*
X0265Y032539D02*
Y032839D01*
X048263Y031069D02*
X049641D01*
X048952Y03038D02*
Y031758D01*
X048263Y039469D02*
X049641D01*
X048952Y03878D02*
Y040158D01*
X025913Y031069D02*
X027291D01*
X026602Y03038D02*
Y031758D01*
X025913Y039469D02*
X027291D01*
X026602Y03878D02*
Y040158D01*
X049051Y037748D02*
X049351D01*
X049201Y037598D02*
Y037898D01*
X044336Y043021D02*
X044786D01*
X044561Y042796D02*
Y043246D01*
X043161Y043021D02*
X043561D01*
X043361Y042821D02*
Y043221D01*
X041961Y042971D02*
X042361D01*
X042161Y042771D02*
Y043171D01*
X040761Y042971D02*
X041161D01*
X040961Y042771D02*
Y043171D01*
X039536Y042971D02*
X039986D01*
X039761Y042746D02*
Y043196D01*
X048215Y044291D02*
X048715D01*
X048465Y044041D02*
Y044541D01*
X046215Y044291D02*
X046715D01*
X046465Y044041D02*
Y044541D01*
X049587Y045354D02*
X050965D01*
X050276Y044665D02*
Y046043D01*
X046882Y022047D02*
X047197D01*
X047039Y02189D02*
Y022205D01*
X044882Y022047D02*
X045197D01*
X045039Y02189D02*
Y022205D01*
X043882Y022047D02*
X044197D01*
X044039Y02189D02*
Y022205D01*
X045882Y022047D02*
X046197D01*
X046039Y02189D02*
Y022205D01*
X037539Y043583D02*
X03813D01*
X037835Y043287D02*
Y043878D01*
X028642Y043583D02*
X029232D01*
X028937Y043287D02*
Y043878D01*
X013524Y021063D02*
X014902D01*
X014213Y020374D02*
Y021752D01*
X049587Y021063D02*
X050965D01*
X050276Y020374D02*
Y021752D01*
X013524Y045354D02*
X014902D01*
X014213Y044665D02*
Y046043D01*
X026575Y042598D02*
X026969D01*
X026772Y042402D02*
Y042795D01*
X026575Y043598D02*
X026969D01*
X026772Y043402D02*
Y043795D01*
X026475Y026765D02*
X026755D01*
X026615Y026625D02*
Y026905D01*
M02*
