G04*
G04 #@! TF.GenerationSoftware,Altium Limited,Altium Designer,21.9.2 (33)*
G04*
G04 Layer_Color=255*
%FSTAX24Y24*%
%MOIN*%
G70*
G04*
G04 #@! TF.SameCoordinates,353BE734-12B4-41FD-ADCD-0B3A32D8510F*
G04*
G04*
G04 #@! TF.FilePolarity,Positive*
G04*
G01*
G75*
%ADD37C,0.0630*%
%ADD38R,0.0630X0.0630*%
%ADD39C,0.0750*%
%ADD40R,0.0630X0.0630*%
%ADD41R,0.0709X0.0709*%
%ADD42C,0.0551*%
%ADD43C,0.0886*%
%ADD44C,0.0591*%
%ADD45C,0.0650*%
%ADD46P,0.0704X8X22.5*%
%ADD47C,0.0531*%
%ADD48R,0.0531X0.0531*%
%ADD49C,0.0600*%
%ADD50C,0.1575*%
D37*
X050197Y015732D02*
D03*
X044204Y046009D02*
D03*
X045204D02*
D03*
X043204D02*
D03*
X042204D02*
D03*
X041204D02*
D03*
X049135Y041425D02*
D03*
Y040425D02*
D03*
Y039425D02*
D03*
Y037425D02*
D03*
Y038425D02*
D03*
X028496Y014226D02*
D03*
X027496D02*
D03*
X029496D02*
D03*
X034191D02*
D03*
X033191D02*
D03*
X035191D02*
D03*
X039807D02*
D03*
X038807D02*
D03*
X040807D02*
D03*
X045613D02*
D03*
X044613D02*
D03*
X046613D02*
D03*
D38*
X050197Y016732D02*
D03*
X049135Y036425D02*
D03*
D39*
X021756Y014488D02*
D03*
X023756D02*
D03*
X017425Y014606D02*
D03*
X019425D02*
D03*
D40*
X046204Y046009D02*
D03*
X026496Y014226D02*
D03*
X032191D02*
D03*
X037807D02*
D03*
X043613D02*
D03*
D41*
X039646Y037268D02*
D03*
Y038268D02*
D03*
D42*
X043465Y03563D02*
D03*
Y031614D02*
D03*
X042047Y025512D02*
D03*
Y029528D02*
D03*
X04811Y022008D02*
D03*
Y017992D02*
D03*
X04685Y017677D02*
D03*
X042835D02*
D03*
X021929Y020394D02*
D03*
X025945D02*
D03*
X044134Y029567D02*
D03*
Y025551D02*
D03*
X020236Y018346D02*
D03*
X01622D02*
D03*
X025984Y018425D02*
D03*
X021969D02*
D03*
X01622Y020315D02*
D03*
X020236D02*
D03*
X041732Y035709D02*
D03*
Y031693D02*
D03*
X045197Y035591D02*
D03*
Y031575D02*
D03*
D43*
X029016Y019134D02*
D03*
X037913D02*
D03*
X025551Y043307D02*
D03*
X015709D02*
D03*
X025551Y022835D02*
D03*
X015709D02*
D03*
D44*
X022374Y01689D02*
D03*
X023374D02*
D03*
X018055Y016811D02*
D03*
X019055D02*
D03*
D45*
X045962Y038228D02*
D03*
X044071Y038268D02*
D03*
X042024Y038307D02*
D03*
D46*
X044962Y038228D02*
D03*
X043071Y038268D02*
D03*
X041024Y038307D02*
D03*
D47*
X025748Y024071D02*
D03*
Y025071D02*
D03*
Y026071D02*
D03*
Y027071D02*
D03*
Y028071D02*
D03*
Y029071D02*
D03*
Y030071D02*
D03*
Y031071D02*
D03*
Y032071D02*
D03*
Y033071D02*
D03*
Y034071D02*
D03*
Y035071D02*
D03*
Y036071D02*
D03*
Y037071D02*
D03*
Y038071D02*
D03*
Y039071D02*
D03*
Y040071D02*
D03*
Y041071D02*
D03*
X015512Y042071D02*
D03*
Y041071D02*
D03*
Y040071D02*
D03*
Y039071D02*
D03*
Y038071D02*
D03*
Y037071D02*
D03*
Y036071D02*
D03*
Y035071D02*
D03*
Y034071D02*
D03*
Y033071D02*
D03*
Y032071D02*
D03*
Y031071D02*
D03*
Y030071D02*
D03*
Y029071D02*
D03*
Y028071D02*
D03*
Y027071D02*
D03*
Y026071D02*
D03*
Y025071D02*
D03*
D48*
X025748Y042071D02*
D03*
X015512Y024071D02*
D03*
D49*
X036351Y043455D02*
D03*
X027851D02*
D03*
X036301Y023405D02*
D03*
X027851D02*
D03*
X035901Y041155D02*
D03*
X028651Y025805D02*
D03*
X047932Y031746D02*
D03*
X047882Y026846D02*
D03*
Y028096D02*
D03*
X047932Y029296D02*
D03*
X047882Y030496D02*
D03*
D50*
X015118Y01248D02*
D03*
Y047126D02*
D03*
X049764Y01248D02*
D03*
Y047126D02*
D03*
M02*
