G04*
G04 #@! TF.GenerationSoftware,Altium Limited,Altium Designer,24.9.1 (31)*
G04*
G04 Layer_Color=65535*
%FSTAX24Y24*%
%MOIN*%
G70*
G04*
G04 #@! TF.SameCoordinates,937A2281-D82C-41EB-8C72-0E8F8F28929F*
G04*
G04*
G04 #@! TF.FilePolarity,Positive*
G04*
G01*
G75*
%ADD10C,0.0070*%
%ADD11C,0.0100*%
%ADD12C,0.0079*%
%ADD13C,0.0472*%
%ADD14C,0.0200*%
%ADD15C,0.0250*%
%ADD16C,0.0050*%
%ADD17C,0.0394*%
%ADD18C,0.0591*%
%ADD19R,0.3819X0.2598*%
G36*
X047565Y043691D02*
X047715D01*
X047465Y043441D01*
X047215Y043691D01*
X047365D01*
Y043941D01*
X047565D01*
Y043691D01*
D02*
G37*
G36*
X027272Y042648D02*
X026272Y042648D01*
X026272Y042898D01*
X026272Y043198D01*
X026342Y043198D01*
X027272Y043198D01*
Y043198D01*
X027272Y042648D01*
D02*
G37*
G36*
X032669Y022626D02*
X032806D01*
Y022603D01*
X032875D01*
Y02258D01*
X032944D01*
Y022557D01*
X032989D01*
Y022535D01*
X033035D01*
Y022512D01*
X033058D01*
Y022489D01*
X033081D01*
Y022466D01*
X033104D01*
Y022443D01*
X03315D01*
Y02242D01*
X033172D01*
Y022397D01*
X03315D01*
Y022374D01*
X033127D01*
Y022352D01*
X033104D01*
Y022329D01*
X033081D01*
Y022306D01*
X033058D01*
Y022283D01*
X033035D01*
Y02226D01*
X033012D01*
Y022237D01*
X032989D01*
Y022214D01*
X032967D01*
Y022191D01*
X032944D01*
Y022169D01*
X032921D01*
Y022191D01*
X032875D01*
Y022214D01*
X032852D01*
Y022237D01*
X032829D01*
Y02226D01*
X032784D01*
Y022283D01*
X032715D01*
Y022306D01*
X032509D01*
Y022283D01*
X032463D01*
Y02226D01*
X03244D01*
Y022237D01*
X032418D01*
Y022191D01*
X032395D01*
Y022123D01*
X032418D01*
Y022077D01*
X03244D01*
Y022054D01*
X032486D01*
Y022031D01*
X032532D01*
Y022008D01*
X032601D01*
Y021985D01*
X032715D01*
Y021963D01*
X032806D01*
Y02194D01*
X032898D01*
Y021917D01*
X032944D01*
Y021894D01*
X032989D01*
Y021871D01*
X033035D01*
Y021848D01*
X033058D01*
Y021825D01*
X033081D01*
Y021802D01*
X033104D01*
Y02178D01*
X033127D01*
Y021757D01*
X03315D01*
Y021711D01*
X033172D01*
Y021642D01*
X033195D01*
Y021368D01*
X033172D01*
Y021299D01*
X03315D01*
Y021253D01*
X033127D01*
Y021231D01*
X033104D01*
Y021185D01*
X033081D01*
Y021162D01*
X033058D01*
Y021139D01*
X033012D01*
Y021116D01*
X032989D01*
Y021093D01*
X032944D01*
Y02107D01*
X032921D01*
Y021048D01*
X032852D01*
Y021025D01*
X032784D01*
Y021002D01*
X032372D01*
Y021025D01*
X03228D01*
Y021048D01*
X032212D01*
Y02107D01*
X032166D01*
Y021093D01*
X032143D01*
Y021116D01*
X032097D01*
Y021139D01*
X032074D01*
Y021162D01*
X032052D01*
Y021185D01*
X032006D01*
Y021208D01*
X031983D01*
Y021231D01*
X03196D01*
Y021276D01*
X031937D01*
Y021299D01*
X03196D01*
Y021322D01*
X031983D01*
Y021345D01*
X032006D01*
Y021368D01*
X032029D01*
Y021391D01*
X032052D01*
Y021414D01*
X032074D01*
Y021436D01*
X032097D01*
Y021459D01*
X03212D01*
Y021482D01*
X032143D01*
Y021505D01*
X032166D01*
Y021528D01*
X032189D01*
Y021505D01*
X032212D01*
Y021482D01*
X032235D01*
Y021459D01*
X032257D01*
Y021436D01*
X03228D01*
Y021414D01*
X032303D01*
Y021391D01*
X032349D01*
Y021368D01*
X032395D01*
Y021345D01*
X032463D01*
Y021322D01*
X032692D01*
Y021345D01*
X032738D01*
Y021368D01*
X032761D01*
Y021391D01*
X032784D01*
Y021414D01*
X032806D01*
Y021551D01*
X032784D01*
Y021574D01*
X032761D01*
Y021597D01*
X032715D01*
Y021619D01*
X032669D01*
Y021642D01*
X032578D01*
Y021665D01*
X032463D01*
Y021688D01*
X032372D01*
Y021711D01*
X032303D01*
Y021734D01*
X032257D01*
Y021757D01*
X032212D01*
Y02178D01*
X032189D01*
Y021802D01*
X032166D01*
Y021825D01*
X03212D01*
Y021871D01*
X032097D01*
Y021894D01*
X032074D01*
Y021917D01*
X032052D01*
Y021985D01*
X032029D01*
Y022054D01*
X032006D01*
Y022237D01*
X032029D01*
Y022329D01*
X032052D01*
Y022374D01*
X032074D01*
Y02242D01*
X032097D01*
Y022443D01*
X03212D01*
Y022466D01*
X032143D01*
Y022489D01*
X032166D01*
Y022512D01*
X032189D01*
Y022535D01*
X032235D01*
Y022557D01*
X032257D01*
Y02258D01*
X032326D01*
Y022603D01*
X032395D01*
Y022626D01*
X032509D01*
Y022649D01*
X032669D01*
Y022626D01*
D02*
G37*
G36*
X034271Y022603D02*
X034362D01*
Y02258D01*
X034408D01*
Y022557D01*
X034454D01*
Y022535D01*
X034476D01*
Y022512D01*
X034522D01*
Y022489D01*
X034545D01*
Y022466D01*
X034568D01*
Y022443D01*
X034591D01*
Y02242D01*
X034614D01*
Y022397D01*
X034637D01*
Y022352D01*
X034659D01*
Y022329D01*
X034682D01*
Y022283D01*
X034659D01*
Y02226D01*
X034614D01*
Y022237D01*
X034591D01*
Y022214D01*
X034545D01*
Y022191D01*
X034522D01*
Y022169D01*
X034476D01*
Y022146D01*
X034454D01*
Y022123D01*
X034408D01*
Y0221D01*
X034362D01*
Y022146D01*
X034339D01*
Y022169D01*
X034316D01*
Y022191D01*
X034293D01*
Y022214D01*
X034271D01*
Y022237D01*
X034225D01*
Y02226D01*
X033973D01*
Y022237D01*
X033927D01*
Y022214D01*
X033905D01*
Y022191D01*
X033882D01*
Y022169D01*
X033859D01*
Y022146D01*
X033836D01*
Y022123D01*
X033813D01*
Y0221D01*
X03379D01*
Y022054D01*
X033767D01*
Y021985D01*
X033744D01*
Y021665D01*
X033767D01*
Y021597D01*
X03379D01*
Y021551D01*
X033813D01*
Y021505D01*
X033836D01*
Y021482D01*
X033859D01*
Y021459D01*
X033882D01*
Y021436D01*
X033905D01*
Y021414D01*
X033927D01*
Y021391D01*
X033973D01*
Y021368D01*
X034065D01*
Y021345D01*
X034156D01*
Y021368D01*
X034225D01*
Y021391D01*
X034271D01*
Y021414D01*
X034293D01*
Y021436D01*
X034316D01*
Y021459D01*
X034339D01*
Y021482D01*
X034362D01*
Y021505D01*
X034385D01*
Y021528D01*
X034408D01*
Y021505D01*
X034454D01*
Y021482D01*
X034476D01*
Y021459D01*
X034522D01*
Y021436D01*
X034545D01*
Y021414D01*
X034591D01*
Y021391D01*
X034614D01*
Y021368D01*
X034659D01*
Y021345D01*
X034682D01*
Y021322D01*
X034705D01*
Y021299D01*
X034682D01*
Y021276D01*
X034659D01*
Y021253D01*
X034637D01*
Y021208D01*
X034614D01*
Y021185D01*
X034591D01*
Y021162D01*
X034568D01*
Y021139D01*
X034545D01*
Y021116D01*
X034499D01*
Y021093D01*
X034476D01*
Y02107D01*
X034431D01*
Y021048D01*
X034385D01*
Y021025D01*
X034316D01*
Y021002D01*
X034202D01*
Y020979D01*
X033996D01*
Y021002D01*
X033882D01*
Y021025D01*
X033813D01*
Y021048D01*
X033767D01*
Y02107D01*
X033722D01*
Y021093D01*
X033676D01*
Y021116D01*
X033653D01*
Y021139D01*
X03363D01*
Y021162D01*
X033607D01*
Y021185D01*
X033584D01*
Y021208D01*
X033561D01*
Y021231D01*
X033538D01*
Y021253D01*
X033516D01*
Y021276D01*
X033493D01*
Y021322D01*
X03347D01*
Y021368D01*
X033447D01*
Y021414D01*
X033424D01*
Y021459D01*
X033401D01*
Y021528D01*
X033378D01*
Y021642D01*
X033355D01*
Y022008D01*
X033378D01*
Y0221D01*
X033401D01*
Y022169D01*
X033424D01*
Y022237D01*
X033447D01*
Y022283D01*
X03347D01*
Y022306D01*
X033493D01*
Y022352D01*
X033516D01*
Y022374D01*
X033538D01*
Y02242D01*
X033561D01*
Y022443D01*
X033584D01*
Y022466D01*
X03363D01*
Y022489D01*
X033653D01*
Y022512D01*
X033676D01*
Y022535D01*
X033722D01*
Y022557D01*
X033767D01*
Y02258D01*
X033813D01*
Y022603D01*
X033905D01*
Y022626D01*
X034271D01*
Y022603D01*
D02*
G37*
G36*
X036192Y021025D02*
X03578D01*
Y021642D01*
X035277D01*
Y021025D01*
X034865D01*
Y0221D01*
Y022123D01*
Y022603D01*
X035277D01*
Y022008D01*
X03578D01*
Y022603D01*
X036192D01*
Y021025D01*
D02*
G37*
G36*
X02981Y02258D02*
X029901D01*
Y022557D01*
X02997D01*
Y022535D01*
X030016D01*
Y022512D01*
X030038D01*
Y022489D01*
X030061D01*
Y022466D01*
X030084D01*
Y022443D01*
X030107D01*
Y02242D01*
X03013D01*
Y022374D01*
X030153D01*
Y022329D01*
X030176D01*
Y022031D01*
X030153D01*
Y021985D01*
X03013D01*
Y021963D01*
X030107D01*
Y02194D01*
X030084D01*
Y021917D01*
X030061D01*
Y021894D01*
X030038D01*
Y021871D01*
X029993D01*
Y021848D01*
X02997D01*
Y021825D01*
X030038D01*
Y021802D01*
X030084D01*
Y02178D01*
X030107D01*
Y021757D01*
X03013D01*
Y021734D01*
X030153D01*
Y021711D01*
X030176D01*
Y021688D01*
X030199D01*
Y021642D01*
X030221D01*
Y021597D01*
X030244D01*
Y021322D01*
X030221D01*
Y021276D01*
X030199D01*
Y021231D01*
X030176D01*
Y021208D01*
X030153D01*
Y021185D01*
X03013D01*
Y021162D01*
X030107D01*
Y021139D01*
X030084D01*
Y021116D01*
X030061D01*
Y021093D01*
X030016D01*
Y02107D01*
X02997D01*
Y021048D01*
X029878D01*
Y021025D01*
X028963D01*
Y021436D01*
Y021459D01*
Y022603D01*
X02981D01*
Y02258D01*
D02*
G37*
G36*
X031159Y022626D02*
X03132D01*
Y022603D01*
X031388D01*
Y02258D01*
X031457D01*
Y022557D01*
X03148D01*
Y022535D01*
X031525D01*
Y022512D01*
X031548D01*
Y022489D01*
X031594D01*
Y022466D01*
X031617D01*
Y022443D01*
X03164D01*
Y02242D01*
X031663D01*
Y022374D01*
X031686D01*
Y022352D01*
X031708D01*
Y022329D01*
X031731D01*
Y022283D01*
X031754D01*
Y022237D01*
X031777D01*
Y022169D01*
X0318D01*
Y0221D01*
X031823D01*
Y022008D01*
X031846D01*
Y021619D01*
X031823D01*
Y021528D01*
X0318D01*
Y021459D01*
X031777D01*
Y021391D01*
X031754D01*
Y021345D01*
X031731D01*
Y021299D01*
X031708D01*
Y021276D01*
X031686D01*
Y021253D01*
X031663D01*
Y021208D01*
X03164D01*
Y021185D01*
X031617D01*
Y021162D01*
X031594D01*
Y021139D01*
X031548D01*
Y021116D01*
X031525D01*
Y021093D01*
X031503D01*
Y02107D01*
X031457D01*
Y021048D01*
X031388D01*
Y021025D01*
X03132D01*
Y021002D01*
X031182D01*
Y020979D01*
X031068D01*
Y021002D01*
X030931D01*
Y021025D01*
X030862D01*
Y021048D01*
X030793D01*
Y02107D01*
X03077D01*
Y021093D01*
X030725D01*
Y021116D01*
X030702D01*
Y021139D01*
X030656D01*
Y021162D01*
X030633D01*
Y021185D01*
X03061D01*
Y021208D01*
X030587D01*
Y021253D01*
X030565D01*
Y021276D01*
X030542D01*
Y021299D01*
X030519D01*
Y021345D01*
X030496D01*
Y021391D01*
X030473D01*
Y021459D01*
X03045D01*
Y021528D01*
X030427D01*
Y021619D01*
X030404D01*
Y022008D01*
X030427D01*
Y0221D01*
X03045D01*
Y022169D01*
X030473D01*
Y022237D01*
X030496D01*
Y022283D01*
X030519D01*
Y022306D01*
X030542D01*
Y022352D01*
X030565D01*
Y022374D01*
X030587D01*
Y02242D01*
X03061D01*
Y022443D01*
X030633D01*
Y022466D01*
X030656D01*
Y022489D01*
X030702D01*
Y022512D01*
X030725D01*
Y022535D01*
X03077D01*
Y022557D01*
X030816D01*
Y02258D01*
X030862D01*
Y022603D01*
X030931D01*
Y022626D01*
X031091D01*
Y022649D01*
X031159D01*
Y022626D01*
D02*
G37*
G36*
X026607Y022992D02*
X02679D01*
Y022969D01*
X026882D01*
Y022946D01*
X02695D01*
Y022923D01*
X027019D01*
Y022901D01*
X027065D01*
Y022878D01*
X02711D01*
Y022855D01*
X027156D01*
Y022832D01*
X027179D01*
Y022809D01*
X027225D01*
Y022786D01*
X027248D01*
Y022763D01*
X02727D01*
Y02274D01*
X027316D01*
Y022718D01*
X027339D01*
Y022695D01*
X027362D01*
Y022672D01*
X027385D01*
Y022649D01*
X027408D01*
Y022626D01*
X027431D01*
Y022603D01*
X027453D01*
Y02258D01*
X027476D01*
Y022535D01*
X027499D01*
Y022512D01*
X027522D01*
Y022489D01*
X027545D01*
Y022443D01*
X027568D01*
Y02242D01*
X027591D01*
Y022374D01*
X027614D01*
Y022329D01*
X027636D01*
Y022283D01*
X027659D01*
Y022214D01*
X027682D01*
Y022146D01*
X027705D01*
Y022054D01*
X027728D01*
Y021894D01*
X027751D01*
Y021734D01*
X027728D01*
Y021551D01*
X027705D01*
Y021459D01*
X027682D01*
Y021391D01*
X027659D01*
Y021345D01*
X027636D01*
Y021276D01*
X027614D01*
Y021253D01*
X027591D01*
Y021208D01*
X027568D01*
Y021162D01*
X027545D01*
Y021139D01*
X027522D01*
Y021093D01*
X027499D01*
Y02107D01*
X027476D01*
Y021048D01*
X027453D01*
Y021002D01*
X027431D01*
Y020979D01*
X027408D01*
Y020956D01*
X027385D01*
Y020933D01*
X027362D01*
Y02091D01*
X027339D01*
Y020887D01*
X027293D01*
Y020865D01*
X02727D01*
Y020842D01*
X027248D01*
Y020819D01*
X027202D01*
Y020796D01*
X027179D01*
Y020773D01*
X027133D01*
Y02075D01*
X027087D01*
Y020727D01*
X027042D01*
Y020704D01*
X026996D01*
Y020682D01*
X026927D01*
Y020659D01*
X026859D01*
Y020636D01*
X026767D01*
Y020613D01*
X02631D01*
Y020636D01*
X026218D01*
Y020659D01*
X02615D01*
Y020682D01*
X026081D01*
Y020704D01*
X026035D01*
Y020727D01*
X025989D01*
Y02075D01*
X025944D01*
Y020773D01*
X025898D01*
Y020796D01*
X025852D01*
Y020819D01*
X025829D01*
Y020842D01*
X025806D01*
Y020865D01*
X025761D01*
Y020887D01*
X025738D01*
Y02091D01*
X025715D01*
Y020933D01*
X025692D01*
Y020956D01*
X025669D01*
Y020979D01*
X025646D01*
Y021002D01*
X025623D01*
Y021025D01*
X025601D01*
Y021048D01*
X025578D01*
Y021093D01*
X025555D01*
Y021116D01*
X025532D01*
Y021162D01*
X025509D01*
Y021185D01*
X025486D01*
Y021231D01*
X025463D01*
Y021276D01*
X02544D01*
Y021322D01*
X025417D01*
Y021391D01*
X025395D01*
Y021459D01*
X025372D01*
Y021528D01*
X025349D01*
Y021665D01*
X025326D01*
Y02194D01*
X025349D01*
Y022077D01*
X025372D01*
Y022169D01*
X025395D01*
Y022237D01*
X025417D01*
Y022283D01*
X02544D01*
Y022329D01*
X025463D01*
Y022374D01*
X025486D01*
Y02242D01*
X025509D01*
Y022443D01*
Y022466D01*
X025532D01*
Y022489D01*
X025555D01*
Y022512D01*
X025578D01*
Y022557D01*
X025601D01*
Y02258D01*
X025623D01*
Y022603D01*
X025646D01*
Y022626D01*
X025669D01*
Y022649D01*
X025692D01*
Y022672D01*
X025715D01*
Y022695D01*
X025738D01*
Y022718D01*
X025761D01*
Y02274D01*
X025784D01*
Y022763D01*
X025829D01*
Y022786D01*
X025852D01*
Y022809D01*
X025898D01*
Y022832D01*
X025921D01*
Y022855D01*
X025967D01*
Y022878D01*
X026012D01*
Y022901D01*
X026058D01*
Y022923D01*
X026127D01*
Y022946D01*
X026195D01*
Y022969D01*
X026287D01*
Y022992D01*
X026447D01*
Y023015D01*
X026607D01*
Y022992D01*
D02*
G37*
%LPC*%
G36*
X029695Y022283D02*
X029329D01*
Y022031D01*
Y022008D01*
Y021985D01*
X029352D01*
Y021963D01*
X02965D01*
Y021985D01*
X029718D01*
Y022008D01*
X029741D01*
Y022031D01*
X029764D01*
Y022054D01*
X029787D01*
Y022191D01*
X029764D01*
Y022237D01*
X029741D01*
Y02226D01*
X029695D01*
Y022283D01*
D02*
G37*
G36*
X029718Y021665D02*
X029329D01*
Y021345D01*
X029741D01*
Y021368D01*
X029787D01*
Y021391D01*
X02981D01*
Y021414D01*
X029833D01*
Y021482D01*
X029855D01*
Y021528D01*
X029833D01*
Y021597D01*
X02981D01*
Y021619D01*
X029787D01*
Y021642D01*
X029718D01*
Y021665D01*
D02*
G37*
G36*
X031251Y02226D02*
X030999D01*
Y022237D01*
X030954D01*
Y022214D01*
X030931D01*
Y022191D01*
X030908D01*
Y022169D01*
X030885D01*
Y022146D01*
X030862D01*
Y0221D01*
X030839D01*
Y022077D01*
X030816D01*
Y022008D01*
X030793D01*
Y021871D01*
X03077D01*
Y021757D01*
X030793D01*
Y021619D01*
X030816D01*
Y021551D01*
X030839D01*
Y021505D01*
X030862D01*
Y021482D01*
X030885D01*
Y021459D01*
X030908D01*
Y021436D01*
X030931D01*
Y021414D01*
X030954D01*
Y021391D01*
X030999D01*
Y021368D01*
X031091D01*
Y021345D01*
X031182D01*
Y021368D01*
X031251D01*
Y021391D01*
X031297D01*
Y021414D01*
X03132D01*
Y021436D01*
X031342D01*
Y021459D01*
X031365D01*
Y021482D01*
X031388D01*
Y021505D01*
X031411D01*
Y021551D01*
X031434D01*
Y021619D01*
X031457D01*
Y021711D01*
X03148D01*
Y021894D01*
X031457D01*
Y022008D01*
X031434D01*
Y022077D01*
X031411D01*
Y022123D01*
X031388D01*
Y022146D01*
X031365D01*
Y022169D01*
X031342D01*
Y022191D01*
X03132D01*
Y022214D01*
X031297D01*
Y022237D01*
X031251D01*
Y02226D01*
D02*
G37*
G36*
X026699Y022901D02*
X026378D01*
Y022878D01*
X026264D01*
Y022855D01*
X026172D01*
Y022832D01*
X026127D01*
Y022809D01*
X026081D01*
Y022786D01*
X026035D01*
Y022763D01*
X025989D01*
Y02274D01*
X025944D01*
Y022718D01*
X025921D01*
Y022695D01*
X025875D01*
Y022672D01*
X025852D01*
Y022649D01*
X025829D01*
Y022626D01*
X025806D01*
Y022603D01*
X025761D01*
Y02258D01*
X025738D01*
Y022535D01*
X025715D01*
Y022512D01*
X025692D01*
Y022489D01*
X025669D01*
Y022466D01*
X025646D01*
Y022443D01*
X025623D01*
Y022397D01*
X025601D01*
Y022352D01*
X025578D01*
Y022329D01*
X025555D01*
Y022283D01*
X025532D01*
Y022237D01*
X025509D01*
Y022169D01*
X025486D01*
Y0221D01*
X025463D01*
Y021985D01*
X02544D01*
Y021619D01*
X025463D01*
Y021505D01*
X025486D01*
Y021436D01*
X025509D01*
Y021391D01*
X025532D01*
Y021322D01*
X025555D01*
Y021299D01*
X025578D01*
Y021253D01*
X025601D01*
Y021208D01*
X025623D01*
Y021185D01*
X025646D01*
Y021139D01*
X025669D01*
Y021116D01*
X025692D01*
Y021093D01*
X025715D01*
Y02107D01*
X025738D01*
Y021048D01*
X025761D01*
Y021025D01*
X025784D01*
Y021002D01*
X025806D01*
Y020979D01*
X025829D01*
Y020956D01*
X025852D01*
Y020933D01*
X025898D01*
Y02091D01*
X025921D01*
Y020887D01*
X025944D01*
Y020865D01*
X025989D01*
Y020842D01*
X026035D01*
Y020819D01*
X026081D01*
Y020796D01*
X026127D01*
Y020773D01*
X026195D01*
Y02075D01*
X026287D01*
Y020727D01*
X026424D01*
Y020704D01*
X026653D01*
Y020727D01*
X02679D01*
Y02075D01*
X026859D01*
Y020773D01*
X026927D01*
Y020796D01*
X026996D01*
Y020819D01*
X027042D01*
Y020842D01*
X027087D01*
Y020865D01*
X02711D01*
Y020887D01*
X027156D01*
Y02091D01*
X027179D01*
Y020933D01*
X027225D01*
Y020956D01*
X027248D01*
Y020979D01*
X02727D01*
Y021002D01*
X027293D01*
Y021025D01*
X027316D01*
Y021048D01*
X027339D01*
Y02107D01*
X027362D01*
Y021093D01*
X027385D01*
Y021116D01*
X027408D01*
Y021162D01*
X027431D01*
Y021185D01*
X027453D01*
Y021231D01*
X027476D01*
Y021253D01*
X027499D01*
Y021299D01*
X027522D01*
Y021345D01*
X027545D01*
Y021391D01*
X027568D01*
Y021459D01*
X027591D01*
Y021528D01*
X027614D01*
Y021665D01*
X027636D01*
Y021963D01*
X027614D01*
Y022077D01*
X027591D01*
Y022146D01*
X027568D01*
Y022214D01*
X027545D01*
Y02226D01*
X027522D01*
Y022306D01*
X027499D01*
Y022352D01*
X027476D01*
Y022397D01*
X027453D01*
Y02242D01*
X027431D01*
Y022466D01*
X027408D01*
Y022489D01*
X027385D01*
Y022512D01*
X027362D01*
Y022535D01*
X027339D01*
Y022557D01*
X027316D01*
Y02258D01*
X027293D01*
Y022603D01*
X02727D01*
Y022626D01*
X027248D01*
Y022649D01*
X027225D01*
Y022672D01*
X027202D01*
Y022695D01*
X027156D01*
Y022718D01*
X027133D01*
Y02274D01*
X027087D01*
Y022763D01*
X027042D01*
Y022786D01*
X026996D01*
Y022809D01*
X02695D01*
Y022832D01*
X026882D01*
Y022855D01*
X026813D01*
Y022878D01*
X026699D01*
Y022901D01*
D02*
G37*
%LPD*%
G36*
X027042Y022535D02*
X027087D01*
Y022512D01*
X02711D01*
Y022489D01*
X027133D01*
Y022466D01*
X027156D01*
Y022443D01*
X027179D01*
Y02242D01*
X027202D01*
Y022397D01*
X027225D01*
Y022374D01*
X027248D01*
Y022352D01*
X02727D01*
Y022306D01*
X027293D01*
Y022283D01*
X027316D01*
Y022237D01*
X027339D01*
Y022191D01*
X027362D01*
Y022146D01*
X027385D01*
Y022077D01*
X027408D01*
Y021985D01*
X027431D01*
Y021619D01*
X027408D01*
Y021528D01*
X027385D01*
Y021459D01*
X027362D01*
Y021414D01*
X027339D01*
Y021368D01*
X027316D01*
Y021322D01*
X027293D01*
Y021299D01*
X02727D01*
Y021276D01*
X027248D01*
Y021231D01*
X027225D01*
Y021208D01*
X027202D01*
Y021185D01*
X027179D01*
Y021162D01*
X027156D01*
Y021139D01*
X027133D01*
Y021116D01*
X02711D01*
Y021093D01*
X027065D01*
Y02107D01*
X027042D01*
Y021048D01*
X02695D01*
Y021459D01*
X026127D01*
Y021048D01*
X026035D01*
Y02107D01*
X025989D01*
Y021093D01*
X025967D01*
Y021116D01*
X025944D01*
Y021139D01*
X025921D01*
Y021162D01*
X025898D01*
Y021185D01*
X025875D01*
Y021208D01*
X025852D01*
Y021231D01*
X025829D01*
Y021253D01*
X025806D01*
Y021299D01*
X025784D01*
Y021322D01*
X025761D01*
Y021368D01*
X025738D01*
Y021414D01*
X025715D01*
Y021459D01*
X025692D01*
Y021505D01*
X025669D01*
Y021597D01*
X025646D01*
Y021757D01*
X025623D01*
Y021871D01*
X025646D01*
Y022008D01*
X025669D01*
Y0221D01*
X025692D01*
Y022146D01*
X025715D01*
Y022214D01*
X025738D01*
Y022237D01*
X025761D01*
Y022283D01*
X025784D01*
Y022329D01*
X025806D01*
Y022352D01*
X025829D01*
Y022374D01*
X025852D01*
Y022397D01*
X025875D01*
Y02242D01*
X025898D01*
Y022443D01*
X025921D01*
Y022466D01*
X025944D01*
Y022489D01*
X025967D01*
Y022512D01*
X025989D01*
Y022535D01*
X026012D01*
Y022557D01*
X026127D01*
Y022146D01*
X02695D01*
Y022557D01*
X027042D01*
Y022535D01*
D02*
G37*
%LPC*%
G36*
X02695Y022031D02*
X026127D01*
Y021574D01*
X02695D01*
Y022031D01*
D02*
G37*
G36*
X027087Y022397D02*
X027065D01*
Y021231D01*
X027087D01*
Y021253D01*
X02711D01*
Y021276D01*
X027133D01*
Y021299D01*
X027156D01*
Y021322D01*
X027179D01*
Y021368D01*
X027202D01*
Y021391D01*
X027225D01*
Y021436D01*
X027248D01*
Y021482D01*
X02727D01*
Y021528D01*
X027293D01*
Y021597D01*
X027316D01*
Y021734D01*
X027339D01*
Y021894D01*
X027316D01*
Y022008D01*
X027293D01*
Y022077D01*
X02727D01*
Y022146D01*
X027248D01*
Y022191D01*
X027225D01*
Y022214D01*
X027202D01*
Y02226D01*
X027179D01*
Y022283D01*
X027156D01*
Y022306D01*
X027133D01*
Y022352D01*
X02711D01*
Y022374D01*
X027087D01*
Y022397D01*
D02*
G37*
G36*
X026012D02*
X025989D01*
Y022374D01*
X025967D01*
Y022352D01*
X025944D01*
Y022329D01*
X025921D01*
Y022306D01*
X025898D01*
Y02226D01*
X025875D01*
Y022237D01*
X025852D01*
Y022191D01*
X025829D01*
Y022146D01*
X025806D01*
Y0221D01*
X025784D01*
Y022031D01*
X025761D01*
Y02194D01*
X025738D01*
Y021665D01*
X025761D01*
Y021574D01*
X025784D01*
Y021505D01*
X025806D01*
Y021459D01*
X025829D01*
Y021414D01*
X025852D01*
Y021368D01*
X025875D01*
Y021345D01*
X025898D01*
Y021322D01*
X025921D01*
Y021276D01*
X025944D01*
Y021253D01*
X025967D01*
Y021231D01*
X026012D01*
Y022397D01*
D02*
G37*
%LPD*%
D10*
X048074Y043831D02*
G03*
X048013Y043891I00039J000461D01*
G01*
X046509Y042761D02*
G03*
X046509Y042761I-000064J0D01*
G01*
X048529Y042771D02*
G03*
X048529Y042771I-000064J0D01*
G01*
X046067Y043837D02*
G03*
X046013Y043891I000398J000454D01*
G01*
X039761Y043971D02*
X044561D01*
X039761Y041971D02*
X044561D01*
Y042546D01*
Y043446D02*
Y043971D01*
X039761Y041971D02*
Y042496D01*
Y043446D02*
Y043971D01*
X048035Y043861D02*
X048885Y044711D01*
X045465Y043291D02*
X049465D01*
Y043791D02*
Y045291D01*
X045465Y042781D02*
Y045291D01*
Y042781D02*
X045565D01*
Y042471D02*
Y042781D01*
X049465Y042291D02*
Y043791D01*
X049525Y042491D02*
Y042741D01*
X047445Y043571D02*
Y045081D01*
X04604Y043866D02*
X046885Y044711D01*
X045465Y045291D02*
X049465D01*
X045465Y043891D02*
Y045081D01*
Y042291D02*
X049465D01*
X045465Y042441D02*
X045565D01*
X045465Y042291D02*
Y042441D01*
D11*
X050197Y024646D02*
Y028976D01*
X036417Y024646D02*
Y028976D01*
X050197D01*
X036417Y024646D02*
X050197D01*
X041142Y041614D02*
X042874D01*
Y041575D02*
Y041614D01*
X042638Y041358D02*
X042874Y041575D01*
X042638Y04185D02*
X042874Y041614D01*
X041611Y042121D02*
Y042521D01*
X041411Y042321D02*
X041611Y042121D01*
X041411Y042321D02*
X041611Y042521D01*
X042711Y042121D02*
X042911Y042321D01*
X042711Y042521D02*
X042911Y042321D01*
X042711Y042121D02*
Y042521D01*
X035669Y035217D02*
X035689D01*
X035669Y035197D02*
Y035236D01*
X026772Y042448D02*
Y042598D01*
Y043398D02*
Y043598D01*
X026272Y042648D02*
Y043398D01*
Y042648D02*
X027272D01*
Y043398D01*
X026272D02*
X027272D01*
X027344Y037418D02*
X027744D01*
X027344Y03282D02*
X027744D01*
X027544Y03302D02*
Y03262D01*
X048446Y037261D02*
X048846D01*
X048446Y032662D02*
X048846D01*
X048646Y032862D02*
Y032462D01*
X048752Y034619D02*
Y034819D01*
Y034719D01*
X049352D01*
Y034619D01*
Y034819D01*
Y035119D02*
X048752D01*
X049352Y035519D01*
X048752D01*
X026902Y035469D02*
Y035669D01*
X026802Y035769D01*
X026402D01*
X026302Y035669D01*
Y035469D01*
X026402Y035369D01*
X026802D01*
X026902Y035469D01*
Y035169D02*
X026402D01*
X026302Y035069D01*
Y034869D01*
X026402Y034769D01*
X026902D01*
Y034569D02*
Y034169D01*
Y034369D01*
X026302D01*
X04632Y045636D02*
X04672D01*
X04652Y045836D02*
Y045436D01*
X04812Y045636D02*
X04852D01*
X03695Y02978D02*
X03685Y02988D01*
X03665D01*
X03655Y02978D01*
Y02938D01*
X03665Y02928D01*
X03685D01*
X03695Y02938D01*
X03715Y02928D02*
Y02968D01*
X03735Y02988D01*
X03755Y02968D01*
Y02928D01*
Y02958D01*
X03715D01*
X03775Y02928D02*
Y02988D01*
X038149Y02928D01*
Y02988D01*
X01451Y04402D02*
X01411D01*
Y04342D01*
X01451D01*
X01411Y04372D02*
X01431D01*
X01511Y04392D02*
X01501Y04402D01*
X01481D01*
X01471Y04392D01*
Y04382D01*
X01481Y04372D01*
X01501D01*
X01511Y04362D01*
Y04352D01*
X01501Y04342D01*
X01481D01*
X01471Y04352D01*
X01531Y04342D02*
Y04402D01*
X01561D01*
X015709Y04392D01*
Y04372D01*
X01561Y04362D01*
X01531D01*
X015909Y04392D02*
X016009Y04402D01*
X016209D01*
X016309Y04392D01*
Y04382D01*
X016209Y04372D01*
X016109D01*
X016209D01*
X016309Y04362D01*
Y04352D01*
X016209Y04342D01*
X016009D01*
X015909Y04352D01*
X016909Y04342D02*
X016509D01*
X016909Y04382D01*
Y04392D01*
X016809Y04402D01*
X016609D01*
X016509Y04392D01*
X02542Y04166D02*
X02582Y04106D01*
Y04166D02*
X02542Y04106D01*
X02602Y04166D02*
Y04106D01*
X02642D01*
X02692D02*
Y04166D01*
X02662Y04136D01*
X027019D01*
X027219Y04156D02*
X027319Y04166D01*
X027519D01*
X027619Y04156D01*
Y04116D01*
X027519Y04106D01*
X027319D01*
X027219Y04116D01*
Y04156D01*
X027819Y04106D02*
X028019D01*
X027919D01*
Y04166D01*
X027819Y04156D01*
X028719Y04166D02*
X028319D01*
Y04136D01*
X028519Y04146D01*
X028619D01*
X028719Y04136D01*
Y04116D01*
X028619Y04106D01*
X028419D01*
X028319Y04116D01*
X040995Y044885D02*
X040895Y044985D01*
X040695D01*
X040595Y044885D01*
Y044785D01*
X040695Y044685D01*
X040895D01*
X040995Y044585D01*
Y044485D01*
X040895Y044385D01*
X040695D01*
X040595Y044485D01*
X041194Y044985D02*
Y044385D01*
X041394Y044585D01*
X041594Y044385D01*
Y044985D01*
X041794D02*
X041994D01*
X041894D01*
Y044385D01*
X041794D01*
X041994D01*
X042294Y044985D02*
X042694D01*
X042494D01*
Y044385D01*
X043294Y044885D02*
X043194Y044985D01*
X042994D01*
X042894Y044885D01*
Y044485D01*
X042994Y044385D01*
X043194D01*
X043294Y044485D01*
X043494Y044985D02*
Y044385D01*
Y044685D01*
X043894D01*
Y044985D01*
Y044385D01*
X04334Y02443D02*
X04314D01*
X04304Y02433D01*
Y02393D01*
X04314Y02383D01*
X04334D01*
X04344Y02393D01*
Y02433D01*
X04334Y02443D01*
X04364D02*
Y02383D01*
X04404D01*
X044639Y02443D02*
X04424D01*
Y02383D01*
X044639D01*
X04424Y02413D02*
X04444D01*
X044839Y02443D02*
Y02383D01*
X045139D01*
X045239Y02393D01*
Y02433D01*
X045139Y02443D01*
X044839D01*
X046465Y041714D02*
Y042108D01*
X046662D01*
X046728Y042042D01*
Y041911D01*
X046662Y041845D01*
X046465D01*
X047055Y042108D02*
X046924D01*
X046859Y042042D01*
Y04178D01*
X046924Y041714D01*
X047055D01*
X047121Y04178D01*
Y042042D01*
X047055Y042108D01*
X047252D02*
Y041714D01*
X047383Y041845D01*
X047515Y041714D01*
Y042108D01*
X047908D02*
X047646D01*
Y041714D01*
X047908D01*
X047646Y041911D02*
X047777D01*
X048039Y041714D02*
Y042108D01*
X048236D01*
X048302Y042042D01*
Y041911D01*
X048236Y041845D01*
X048039D01*
X048171D02*
X048302Y041714D01*
X034479Y042653D02*
X034879D01*
Y042953D01*
X034679D01*
X034879D01*
Y043253D01*
X034279Y042653D02*
Y043153D01*
X034179Y043253D01*
X033979D01*
X033879Y043153D01*
Y042653D01*
X03328Y042753D02*
X03338Y042653D01*
X03358D01*
X03368Y042753D01*
Y042853D01*
X03358Y042953D01*
X03338D01*
X03328Y043053D01*
Y043153D01*
X03338Y043253D01*
X03358D01*
X03368Y043153D01*
X03268Y042653D02*
X03308D01*
Y043253D01*
X03268D01*
X03308Y042953D02*
X03288D01*
X02632Y04489D02*
Y04429D01*
X02662D01*
X02672Y04439D01*
Y04479D01*
X02662Y04489D01*
X02632D01*
X02692Y04429D02*
X02712D01*
X02702D01*
Y04489D01*
X02692Y04479D01*
D12*
X03745Y028866D02*
X0408D01*
Y024668D02*
Y028866D01*
X03745Y024668D02*
X0408D01*
X03745D02*
Y028866D01*
X035236Y028216D02*
X03542D01*
X035328Y028308D02*
Y028124D01*
X035512Y028308D02*
X035558Y028354D01*
X035649D01*
X035695Y028308D01*
Y028262D01*
X035649Y028216D01*
X035604D01*
X035649D01*
X035695Y02817D01*
Y028124D01*
X035649Y028078D01*
X035558D01*
X035512Y028124D01*
X035787Y028078D02*
Y028124D01*
X035833D01*
Y028078D01*
X035787D01*
X036017Y028308D02*
X036063Y028354D01*
X036155D01*
X0362Y028308D01*
Y028262D01*
X036155Y028216D01*
X036109D01*
X036155D01*
X0362Y02817D01*
Y028124D01*
X036155Y028078D01*
X036063D01*
X036017Y028124D01*
X03542Y027269D02*
X035374Y027314D01*
X035282D01*
X035236Y027269D01*
Y027085D01*
X035282Y027039D01*
X035374D01*
X03542Y027085D01*
Y027177D01*
X035328D01*
X035512Y027039D02*
Y027314D01*
X035695Y027039D01*
Y027314D01*
X035787D02*
Y027039D01*
X035925D01*
X035971Y027085D01*
Y027269D01*
X035925Y027314D01*
X035787D01*
X035236Y026D02*
Y026275D01*
X035374D01*
X03542Y026229D01*
Y026138D01*
X035374Y026092D01*
X035236D01*
X035328D02*
X03542Y026D01*
X035512Y026275D02*
X035695Y026D01*
Y026275D02*
X035512Y026D01*
X035236Y025236D02*
X03542D01*
X035328D01*
Y024961D01*
X035512Y025236D02*
X035695Y024961D01*
Y025236D02*
X035512Y024961D01*
X043205Y020718D02*
X043375D01*
X04329Y020804D02*
Y020633D01*
X043461Y020804D02*
X043503Y020846D01*
X043588D01*
X043631Y020804D01*
Y020761D01*
X043588Y020718D01*
X043546D01*
X043588D01*
X043631Y020676D01*
Y020633D01*
X043588Y020591D01*
X043503D01*
X043461Y020633D01*
X043716Y020591D02*
Y020633D01*
X043759D01*
Y020591D01*
X043716D01*
X04393Y020804D02*
X043972Y020846D01*
X044057D01*
X0441Y020804D01*
Y020761D01*
X044057Y020718D01*
X044015D01*
X044057D01*
X0441Y020676D01*
Y020633D01*
X044057Y020591D01*
X043972D01*
X04393Y020633D01*
X044868Y020804D02*
X044825Y020846D01*
X04474D01*
X044697Y020804D01*
Y020633D01*
X04474Y020591D01*
X044825D01*
X044868Y020633D01*
Y020718D01*
X044782D01*
X044953Y020591D02*
Y020846D01*
X045123Y020591D01*
Y020846D01*
X045209D02*
Y020591D01*
X045337D01*
X045379Y020633D01*
Y020804D01*
X045337Y020846D01*
X045209D01*
X046147Y020804D02*
X046104Y020846D01*
X046019D01*
X045976Y020804D01*
Y020761D01*
X046019Y020718D01*
X046104D01*
X046147Y020676D01*
Y020633D01*
X046104Y020591D01*
X046019D01*
X045976Y020633D01*
X046403Y020804D02*
X04636Y020846D01*
X046275D01*
X046232Y020804D01*
Y020633D01*
X046275Y020591D01*
X04636D01*
X046403Y020633D01*
X046488Y020846D02*
Y020591D01*
X046658D01*
X047426Y020804D02*
X047383Y020846D01*
X047298D01*
X047255Y020804D01*
Y020761D01*
X047298Y020718D01*
X047383D01*
X047426Y020676D01*
Y020633D01*
X047383Y020591D01*
X047298D01*
X047255Y020633D01*
X047511Y020846D02*
Y020591D01*
X047639D01*
X047682Y020633D01*
Y020804D01*
X047639Y020846D01*
X047511D01*
X047767Y020591D02*
Y020761D01*
X047852Y020846D01*
X047937Y020761D01*
Y020591D01*
Y020718D01*
X047767D01*
D13*
X014245Y022685D02*
Y042882D01*
X024442Y022685D02*
Y042882D01*
X014245D02*
X024442D01*
X014245Y022685D02*
X024442D01*
X050002Y030019D02*
Y040519D01*
X025552Y030019D02*
Y040519D01*
Y030019D02*
X050002D01*
X025552Y040519D02*
X050002D01*
D14*
X041511Y042321D02*
X042811D01*
D15*
X043063Y021157D02*
X048016D01*
Y023409D01*
X043063D02*
X048016D01*
X043063Y021157D02*
Y023409D01*
D16*
X037717Y041811D02*
Y045354D01*
X029055Y041811D02*
X037717D01*
X029055D02*
Y045354D01*
X037717D01*
D17*
X035669Y035197D02*
X036673Y034193D01*
X035689Y035217D02*
X036732Y03626D01*
X035669Y035197D02*
X039055D01*
X029265Y036062D02*
X027953D01*
Y035078D01*
X028609Y035406D01*
X028937D01*
X029265Y035078D01*
Y034422D01*
X028937Y034094D01*
X028281D01*
X027953Y034422D01*
X029921Y036062D02*
Y03475D01*
X030577Y034094D01*
X031233Y03475D01*
Y036062D01*
X042598Y034213D02*
X043254D01*
X042926D01*
Y03618D01*
X042598Y035852D01*
X04555Y034213D02*
X044238D01*
X04555Y035525D01*
Y035852D01*
X045222Y03618D01*
X044566D01*
X044238Y035852D01*
X046206Y03618D02*
Y034869D01*
X046862Y034213D01*
X047518Y034869D01*
Y03618D01*
D18*
X030918Y027585D02*
X03059Y027913D01*
X029934D01*
X029606Y027585D01*
Y026273D01*
X029934Y025945D01*
X03059D01*
X030918Y026273D01*
Y026929D01*
X030262D01*
X031574Y027913D02*
Y025945D01*
X03223Y026601D01*
X032886Y025945D01*
Y027913D01*
D19*
X019304Y04174D02*
D03*
M02*
