M48
;Layer_Color=9474304
;FILE_FORMAT=2:4
INCH,LZ
;TYPE=PLATED
T1F00S00C0.0236
T2F00S00C0.0276
T3F00S00C0.0280
T4F00S00C0.0300
T5F00S00C0.0315
T6F00S00C0.0354
T7F00S00C0.0394
T8F00S00C0.0400
T9F00S00C0.0433
T10F00S00C0.0472
T11F00S00C0.0591
T12F00S00C0.1378
;TYPE=NON_PLATED
T13F00S00C0.0886
%
T01
X04811Y017992
Y022008
X04685Y017677
X042835
X042047Y025512
X044134Y025551
Y029567
X042047Y029528
X025945Y020394
X025984Y018425
X021969
X020236Y018346
Y020315
X021929Y020394
X01622Y020315
Y018346
X041732Y031693
X043465Y031614
X045197Y031575
Y035591
X043465Y03563
X041732Y035709
T02
X018055Y016811
X019055
X022374Y01689
X023374
T03
X02958Y01511
X04478Y023031
X04612Y02621
X0466Y02694
X01744Y02094
X015671Y0215
X02273Y0466
X040005Y04481
X02165Y04768
T04
X036301Y023405
X027851
Y043455
X036351
T05
X017425Y014606
X019425
X021756Y014488
X023756
X026496Y014226
X027496
X028496
X029496
X032191
X033191
X034191
X035191
X037807
X038807
X039807
X040807
X043613
X044613
X045613
X046613
X046204Y046009
X045204
X044204
X043204
X042204
X041204
X049135Y041425
Y040425
Y039425
Y038425
Y037425
Y036425
T06
X025748Y024071
Y025071
Y026071
Y027071
Y028071
Y029071
Y030071
Y031071
X015512
Y030071
Y029071
Y028071
Y027071
Y026071
Y025071
Y024071
Y032071
Y033071
Y034071
Y035071
Y036071
Y037071
Y038071
Y039071
Y040071
Y041071
Y042071
X025748
Y041071
Y040071
Y039071
Y038071
Y037071
Y036071
Y035071
Y034071
Y033071
Y032071
T07
X047882Y028096
X047932Y029296
X047882Y030496
X039646Y037268
Y038268
T08
X041024Y038307
X042024
X043071Y038268
X044071
X044962Y038228
X045962
T09
X050197Y015732
Y016732
T10
X047882Y026846
X047932Y031746
T11
X037913Y019134
X029016
T12
X015118Y01248
X049764
X028651Y025805
X035901Y041155
X049764Y047126
X015118
T13
X015709Y022835
X025551
Y043307
X015709
M30
