G04*
G04 #@! TF.GenerationSoftware,Altium Limited,Altium Designer,21.9.2 (33)*
G04*
G04 Layer_Physical_Order=1*
G04 Layer_Color=255*
%FSTAX24Y24*%
%MOIN*%
G70*
G04*
G04 #@! TF.SameCoordinates,353BE734-12B4-41FD-ADCD-0B3A32D8510F*
G04*
G04*
G04 #@! TF.FilePolarity,Positive*
G04*
G01*
G75*
%ADD17C,0.0394*%
%ADD20R,0.0236X0.0512*%
%ADD37C,0.0630*%
%ADD38R,0.0630X0.0630*%
%ADD39C,0.0750*%
%ADD40R,0.0630X0.0630*%
%ADD41R,0.0709X0.0709*%
%ADD42C,0.0551*%
%ADD43C,0.0886*%
%ADD44C,0.0591*%
%ADD45C,0.0650*%
%ADD46P,0.0704X8X22.5*%
%ADD47C,0.0531*%
%ADD48R,0.0531X0.0531*%
%ADD49C,0.0600*%
%ADD50C,0.1575*%
%ADD51C,0.0500*%
G36*
X051433Y010811D02*
X013449D01*
Y048795D01*
X051433D01*
Y010811D01*
D02*
G37*
%LPC*%
G36*
X049851Y048013D02*
X049676D01*
X049505Y047979D01*
X049343Y047912D01*
X049198Y047815D01*
X049074Y047692D01*
X048977Y047546D01*
X04891Y047385D01*
X048876Y047213D01*
Y047039D01*
X04891Y046867D01*
X048977Y046706D01*
X049074Y04656D01*
X049198Y046437D01*
X049343Y04634D01*
X049505Y046273D01*
X049676Y046239D01*
X049851D01*
X050023Y046273D01*
X050184Y04634D01*
X050329Y046437D01*
X050453Y04656D01*
X05055Y046706D01*
X050617Y046867D01*
X050651Y047039D01*
Y047213D01*
X050617Y047385D01*
X05055Y047546D01*
X050453Y047692D01*
X050329Y047815D01*
X050184Y047912D01*
X050023Y047979D01*
X049851Y048013D01*
D02*
G37*
G36*
X015206D02*
X015031D01*
X014859Y047979D01*
X014698Y047912D01*
X014552Y047815D01*
X014429Y047692D01*
X014332Y047546D01*
X014265Y047385D01*
X014231Y047213D01*
Y047039D01*
X014265Y046867D01*
X014332Y046706D01*
X014429Y04656D01*
X014552Y046437D01*
X014698Y04634D01*
X014859Y046273D01*
X015031Y046239D01*
X015206D01*
X015377Y046273D01*
X015538Y04634D01*
X015684Y046437D01*
X015807Y04656D01*
X015905Y046706D01*
X015971Y046867D01*
X016006Y047039D01*
Y047213D01*
X015971Y047385D01*
X015905Y047546D01*
X015807Y047692D01*
X015684Y047815D01*
X015538Y047912D01*
X015377Y047979D01*
X015206Y048013D01*
D02*
G37*
G36*
X045259Y046424D02*
X045254D01*
Y046059D01*
X045619D01*
Y046064D01*
X045591Y046169D01*
X045536Y046264D01*
X045459Y046341D01*
X045365Y046396D01*
X045259Y046424D01*
D02*
G37*
G36*
X045154D02*
X04515D01*
X045044Y046396D01*
X04495Y046341D01*
X044872Y046264D01*
X044818Y046169D01*
X044789Y046064D01*
Y046059D01*
X045154D01*
Y046424D01*
D02*
G37*
G36*
X045619Y045959D02*
X045254D01*
Y045594D01*
X045259D01*
X045365Y045622D01*
X045459Y045677D01*
X045536Y045754D01*
X045591Y045849D01*
X045619Y045954D01*
Y045959D01*
D02*
G37*
G36*
X045154D02*
X044789D01*
Y045954D01*
X044818Y045849D01*
X044872Y045754D01*
X04495Y045677D01*
X045044Y045622D01*
X04515Y045594D01*
X045154D01*
Y045959D01*
D02*
G37*
G36*
X044259Y046424D02*
X04415D01*
X044044Y046396D01*
X04395Y046341D01*
X043872Y046264D01*
X043818Y046169D01*
X043789Y046064D01*
Y045954D01*
X043818Y045849D01*
X043872Y045754D01*
X04395Y045677D01*
X044044Y045622D01*
X04415Y045594D01*
X044259D01*
X044365Y045622D01*
X044459Y045677D01*
X044536Y045754D01*
X044591Y045849D01*
X044619Y045954D01*
Y046064D01*
X044591Y046169D01*
X044536Y046264D01*
X044459Y046341D01*
X044365Y046396D01*
X044259Y046424D01*
D02*
G37*
G36*
X043259D02*
X04315D01*
X043044Y046396D01*
X04295Y046341D01*
X042872Y046264D01*
X042818Y046169D01*
X042789Y046064D01*
Y045954D01*
X042818Y045849D01*
X042872Y045754D01*
X04295Y045677D01*
X043044Y045622D01*
X04315Y045594D01*
X043259D01*
X043365Y045622D01*
X043459Y045677D01*
X043536Y045754D01*
X043591Y045849D01*
X043619Y045954D01*
Y046064D01*
X043591Y046169D01*
X043536Y046264D01*
X043459Y046341D01*
X043365Y046396D01*
X043259Y046424D01*
D02*
G37*
G36*
X042259D02*
X04215D01*
X042044Y046396D01*
X04195Y046341D01*
X041872Y046264D01*
X041818Y046169D01*
X041789Y046064D01*
Y045954D01*
X041818Y045849D01*
X041872Y045754D01*
X04195Y045677D01*
X042044Y045622D01*
X04215Y045594D01*
X042259D01*
X042365Y045622D01*
X042459Y045677D01*
X042536Y045754D01*
X042591Y045849D01*
X042619Y045954D01*
Y046064D01*
X042591Y046169D01*
X042536Y046264D01*
X042459Y046341D01*
X042365Y046396D01*
X042259Y046424D01*
D02*
G37*
G36*
X041259D02*
X04115D01*
X041044Y046396D01*
X04095Y046341D01*
X040872Y046264D01*
X040818Y046169D01*
X040789Y046064D01*
Y046018D01*
X039922Y04515D01*
X03987Y045136D01*
X03979Y04509D01*
X039725Y045025D01*
X039679Y044945D01*
X039655Y044856D01*
Y044764D01*
X039679Y044675D01*
X039725Y044595D01*
X03979Y04453D01*
X03987Y044484D01*
X039959Y04446D01*
X040051D01*
X04014Y044484D01*
X04022Y04453D01*
X040285Y044595D01*
X040331Y044675D01*
X040345Y044727D01*
X041213Y045594D01*
X041259D01*
X041365Y045622D01*
X041459Y045677D01*
X041536Y045754D01*
X041591Y045849D01*
X041619Y045954D01*
Y046064D01*
X041591Y046169D01*
X041536Y046264D01*
X041459Y046341D01*
X041365Y046396D01*
X041259Y046424D01*
D02*
G37*
G36*
X025623Y04385D02*
X02548D01*
X025342Y043813D01*
X025218Y043742D01*
X025117Y04364D01*
X025045Y043517D01*
X025008Y043379D01*
Y043236D01*
X025045Y043098D01*
X025117Y042974D01*
X025218Y042873D01*
X025342Y042801D01*
X02548Y042764D01*
X025623D01*
X025761Y042801D01*
X025885Y042873D01*
X025986Y042974D01*
X026057Y043098D01*
X026094Y043236D01*
Y043379D01*
X026057Y043517D01*
X025986Y04364D01*
X025885Y043742D01*
X025761Y043813D01*
X025623Y04385D01*
D02*
G37*
G36*
X01578D02*
X015637D01*
X015499Y043813D01*
X015375Y043742D01*
X015274Y04364D01*
X015203Y043517D01*
X015166Y043379D01*
Y043236D01*
X015203Y043098D01*
X015274Y042974D01*
X015375Y042873D01*
X015499Y042801D01*
X015637Y042764D01*
X01578D01*
X015918Y042801D01*
X016042Y042873D01*
X016143Y042974D01*
X016215Y043098D01*
X016252Y043236D01*
Y043379D01*
X016215Y043517D01*
X016143Y04364D01*
X016042Y043742D01*
X015918Y043813D01*
X01578Y04385D01*
D02*
G37*
G36*
X046619Y046424D02*
X045789D01*
Y045594D01*
X045905D01*
Y039595D01*
X044963Y038653D01*
X044749D01*
X044537Y038441D01*
Y038364D01*
X044487Y038357D01*
X044467Y038432D01*
X044411Y038529D01*
X044332Y038608D01*
X044235Y038664D01*
X044127Y038693D01*
X044015D01*
X043907Y038664D01*
X04381Y038608D01*
X043731Y038529D01*
X043675Y038432D01*
X043646Y038324D01*
Y038212D01*
X043675Y038104D01*
X043731Y038007D01*
X043771Y037966D01*
Y03636D01*
X043417Y036006D01*
X043415D01*
X04332Y03598D01*
X043234Y03593D01*
X043164Y035861D01*
X043115Y035775D01*
X043089Y035679D01*
Y03558D01*
X043115Y035485D01*
X043164Y035399D01*
X043234Y035329D01*
X04332Y03528D01*
X043415Y035254D01*
X043514D01*
X04361Y03528D01*
X043695Y035329D01*
X043765Y035399D01*
X043815Y035485D01*
X04384Y03558D01*
Y035582D01*
X044271Y036012D01*
X044321Y035996D01*
Y03012D01*
X044331Y030043D01*
X044361Y02997D01*
X04439Y029932D01*
X044389Y029909D01*
X044378Y0299D01*
X044331Y029887D01*
X044279Y029917D01*
X044183Y029943D01*
X044084D01*
X043989Y029917D01*
X043903Y029867D01*
X043833Y029798D01*
X043784Y029712D01*
X043758Y029616D01*
Y029615D01*
X034998Y020855D01*
X034951Y020793D01*
X034921Y020721D01*
X034911Y020643D01*
Y018604D01*
X030216Y013909D01*
X029831D01*
X029812Y013956D01*
X029828Y013972D01*
X029883Y014066D01*
X029911Y014172D01*
Y014218D01*
X034092Y018399D01*
X034139Y018461D01*
X034152Y018491D01*
X034169Y018533D01*
X034179Y01861D01*
Y022986D01*
X040422Y029228D01*
X041816D01*
X041817Y029227D01*
X041902Y029178D01*
X041998Y029152D01*
X042097D01*
X042192Y029178D01*
X042278Y029227D01*
X042348Y029297D01*
X042397Y029383D01*
X042423Y029478D01*
Y029577D01*
X042397Y029673D01*
X042348Y029758D01*
X042278Y029828D01*
X042192Y029878D01*
X042097Y029903D01*
X041998D01*
X041902Y029878D01*
X041817Y029828D01*
X041816Y029827D01*
X040298D01*
X04022Y029817D01*
X040148Y029787D01*
X040086Y029739D01*
X039958Y029611D01*
X039916Y02964D01*
X039935Y029686D01*
X039945Y029764D01*
Y036813D01*
X0401D01*
Y037722D01*
X039191D01*
Y036813D01*
X039346D01*
Y029888D01*
X029125Y019667D01*
X029087Y019677D01*
X028944D01*
X028806Y01964D01*
X028753Y019609D01*
X028723Y019649D01*
X029852Y020778D01*
X029899Y02084D01*
X029929Y020913D01*
X029939Y02099D01*
Y041666D01*
X029929Y041743D01*
X029912Y041786D01*
X029899Y041816D01*
X029852Y041878D01*
X028251Y043478D01*
Y043507D01*
X028224Y043609D01*
X028171Y0437D01*
X028097Y043775D01*
X028006Y043827D01*
X027904Y043855D01*
X027799D01*
X027697Y043827D01*
X027606Y043775D01*
X027531Y0437D01*
X027478Y043609D01*
X027451Y043507D01*
Y043402D01*
X027478Y0433D01*
X027531Y043209D01*
X027606Y043135D01*
X027697Y043082D01*
X027799Y043055D01*
X027828D01*
X029341Y041542D01*
Y026279D01*
X029293Y026265D01*
X029264Y026308D01*
X029154Y026418D01*
X029025Y026504D01*
X028881Y026563D01*
X028729Y026594D01*
X028573D01*
X028421Y026563D01*
X028277Y026504D01*
X028148Y026418D01*
X028038Y026308D01*
X027952Y026178D01*
X027893Y026035D01*
X027862Y025882D01*
Y025727D01*
X027893Y025575D01*
X027952Y025431D01*
X028038Y025302D01*
X028148Y025192D01*
X028277Y025106D01*
X028421Y025046D01*
X028573Y025016D01*
X028729D01*
X028881Y025046D01*
X029025Y025106D01*
X029154Y025192D01*
X029264Y025302D01*
X029293Y025345D01*
X029341Y02533D01*
Y021114D01*
X028064Y019838D01*
X028017Y019776D01*
X027987Y019703D01*
X027977Y019626D01*
Y016414D01*
X027987Y016337D01*
X028017Y016264D01*
X028064Y016202D01*
X02924Y015026D01*
X029254Y014975D01*
X0293Y014895D01*
X029365Y01483D01*
X029445Y014784D01*
X029534Y01476D01*
X029541D01*
X02956Y014714D01*
X029488Y014641D01*
X029441D01*
X029336Y014613D01*
X029241Y014558D01*
X029164Y014481D01*
X029109Y014387D01*
X029081Y014281D01*
Y014172D01*
X029094Y014122D01*
X02905Y014096D01*
X028911Y014235D01*
Y014281D01*
X028883Y014387D01*
X028828Y014481D01*
X028751Y014558D01*
X028656Y014613D01*
X028551Y014641D01*
X028441D01*
X028336Y014613D01*
X028241Y014558D01*
X028164Y014481D01*
X028109Y014387D01*
X028081Y014281D01*
Y014172D01*
X028109Y014066D01*
X028164Y013972D01*
X028241Y013894D01*
X028336Y01384D01*
X028441Y013811D01*
X028488D01*
X028901Y013398D01*
X028963Y013351D01*
X029035Y013321D01*
X029112Y013311D01*
X03034D01*
X030417Y013321D01*
X03049Y013351D01*
X030552Y013398D01*
X03173Y014576D01*
X031776Y014557D01*
Y013811D01*
X032606D01*
Y014641D01*
X03186D01*
X031841Y014688D01*
X035422Y018268D01*
X035469Y01833D01*
X035482Y01836D01*
X035499Y018403D01*
X035509Y01848D01*
Y020519D01*
X044182Y029191D01*
X044183D01*
X044279Y029217D01*
X044361Y029264D01*
X044387Y029257D01*
X044411Y029247D01*
Y02819D01*
X043922Y027702D01*
X043875Y02764D01*
X043845Y027567D01*
X043834Y02749D01*
Y025783D01*
X043833Y025782D01*
X043784Y025696D01*
X043758Y025601D01*
Y025502D01*
X043784Y025406D01*
X043833Y025321D01*
X043903Y025251D01*
X043989Y025201D01*
X044084Y025176D01*
X044183D01*
X044194Y025179D01*
X04422Y025134D01*
X043402Y024315D01*
X043354Y024253D01*
X043324Y024181D01*
X043314Y024103D01*
Y014641D01*
X043198D01*
Y014043D01*
X043148Y014017D01*
X043134Y014028D01*
Y017445D01*
X043135Y017447D01*
X043185Y017532D01*
X04321Y017628D01*
Y017727D01*
X043185Y017822D01*
X043135Y017908D01*
X043065Y017978D01*
X04298Y018027D01*
X042884Y018053D01*
X042785D01*
X04269Y018027D01*
X042604Y017978D01*
X042603Y017977D01*
X037642D01*
X037564Y017966D01*
X037522Y017949D01*
X037492Y017936D01*
X03743Y017889D01*
X034182Y014641D01*
X034136D01*
X034031Y014613D01*
X033936Y014558D01*
X033859Y014481D01*
X033804Y014387D01*
X033776Y014281D01*
Y014172D01*
X033804Y014066D01*
X033859Y013972D01*
X033936Y013894D01*
X034031Y01384D01*
X034136Y013811D01*
X034246D01*
X034351Y01384D01*
X034446Y013894D01*
X034523Y013972D01*
X034578Y014066D01*
X034606Y014172D01*
Y014218D01*
X034744Y014356D01*
X034789Y014331D01*
X034776Y014281D01*
Y014172D01*
X034804Y014066D01*
X034859Y013972D01*
X034936Y013894D01*
X035031Y01384D01*
X035136Y013811D01*
X035182D01*
X035936Y013058D01*
X035998Y013011D01*
X03607Y012981D01*
X036147Y012971D01*
X03985D01*
X039928Y012981D01*
X04Y013011D01*
X040062Y013058D01*
X040807Y013803D01*
X041981Y012628D01*
X042043Y012581D01*
X042116Y012551D01*
X042193Y012541D01*
X045227D01*
X045305Y012551D01*
X045377Y012581D01*
X045439Y012628D01*
X046622Y013811D01*
X046668D01*
X046774Y01384D01*
X046868Y013894D01*
X046945Y013972D01*
X047Y014066D01*
X047028Y014172D01*
Y014281D01*
X047Y014387D01*
X046945Y014481D01*
X046868Y014558D01*
X046774Y014613D01*
X046668Y014641D01*
X046559D01*
X046453Y014613D01*
X046359Y014558D01*
X046281Y014481D01*
X046227Y014387D01*
X046198Y014281D01*
Y014235D01*
X04606Y014096D01*
X046015Y014122D01*
X046028Y014172D01*
Y014281D01*
X046Y014387D01*
X045945Y014481D01*
X045913Y014514D01*
Y01705D01*
X045903Y017127D01*
X045873Y0172D01*
X045825Y017262D01*
X045786Y017301D01*
Y019272D01*
X045832Y019291D01*
X047096Y018027D01*
X047065Y017987D01*
X046995Y018027D01*
X0469Y018053D01*
X046801D01*
X046705Y018027D01*
X04662Y017978D01*
X04655Y017908D01*
X0465Y017822D01*
X046475Y017727D01*
Y017628D01*
X0465Y017532D01*
X04655Y017447D01*
X04662Y017377D01*
X046705Y017327D01*
X046801Y017302D01*
X0469D01*
X046995Y017327D01*
X047081Y017377D01*
X047151Y017447D01*
X0472Y017532D01*
X047226Y017628D01*
Y017727D01*
X0472Y017822D01*
X04716Y017892D01*
X0472Y017923D01*
X047342Y01778D01*
X047404Y017733D01*
X047434Y01772D01*
X047477Y017703D01*
X047554Y017693D01*
X047878D01*
X04788Y017692D01*
X047965Y017642D01*
X048061Y017617D01*
X04816D01*
X048255Y017642D01*
X048341Y017692D01*
X048411Y017761D01*
X04846Y017847D01*
X048486Y017943D01*
Y018042D01*
X04846Y018137D01*
X048411Y018223D01*
X048341Y018293D01*
X048255Y018342D01*
X04816Y018368D01*
X048061D01*
X047965Y018342D01*
X04788Y018293D01*
X047878Y018292D01*
X047678D01*
X046286Y019684D01*
Y02002D01*
X046275Y020097D01*
X046246Y020169D01*
X046204Y020223D01*
Y020273D01*
X047464D01*
X050511Y017226D01*
Y017147D01*
X049782D01*
Y016317D01*
X050511D01*
Y016076D01*
X050468Y016048D01*
X050452Y016064D01*
X050357Y016119D01*
X050251Y016147D01*
X050142D01*
X050037Y016119D01*
X049942Y016064D01*
X049865Y015987D01*
X04981Y015892D01*
X049782Y015787D01*
Y015678D01*
X04981Y015572D01*
X049865Y015477D01*
X049942Y0154D01*
X050037Y015346D01*
X050142Y015317D01*
X050251D01*
X050357Y015346D01*
X050452Y0154D01*
X050484Y015433D01*
X0506D01*
X050677Y015443D01*
X05075Y015473D01*
X050812Y015521D01*
X051022Y015731D01*
X051069Y015793D01*
X051099Y015865D01*
X051109Y015942D01*
Y01735D01*
X051099Y017427D01*
X051069Y0175D01*
X051022Y017562D01*
X047799Y020784D01*
X047737Y020832D01*
X047665Y020862D01*
X047588Y020872D01*
X0452D01*
X045123Y020862D01*
X04508Y020844D01*
X04505Y020832D01*
X044988Y020784D01*
X044775Y02057D01*
X044727Y020508D01*
X044697Y020436D01*
X044689Y020376D01*
X044268D01*
Y019664D01*
X044704D01*
Y019772D01*
X044754Y019797D01*
X044768Y019786D01*
Y019664D01*
X045187D01*
Y017177D01*
X045197Y0171D01*
X045227Y017027D01*
X045275Y016965D01*
X045314Y016926D01*
Y014514D01*
X045281Y014481D01*
X045227Y014387D01*
X045198Y014281D01*
Y014235D01*
X04506Y014096D01*
X045015Y014122D01*
X045028Y014172D01*
Y014281D01*
X045Y014387D01*
X044945Y014481D01*
X044868Y014558D01*
X044774Y014613D01*
X044668Y014641D01*
X044559D01*
X044453Y014613D01*
X044359Y014558D01*
X044281Y014481D01*
X044227Y014387D01*
X044198Y014281D01*
Y014172D01*
X044227Y014066D01*
X044281Y013972D01*
X044297Y013956D01*
X044278Y013909D01*
X044028D01*
Y014641D01*
X043913D01*
Y022616D01*
X043963Y022626D01*
X043971Y022607D01*
X044018Y022545D01*
X044187Y022376D01*
Y022106D01*
X044197Y022029D01*
X044227Y021957D01*
X044268Y021903D01*
Y02175D01*
X044704D01*
Y021858D01*
X044754Y021879D01*
X044768Y021865D01*
Y02175D01*
X045204D01*
Y021873D01*
X045218Y021883D01*
X045268Y021859D01*
Y02175D01*
X045436D01*
Y022106D01*
Y022462D01*
X045286D01*
Y022825D01*
X045275Y022903D01*
X045246Y022975D01*
X045198Y023037D01*
X04512Y023115D01*
X045106Y023167D01*
X04506Y023246D01*
X044995Y023312D01*
X044915Y023358D01*
X044826Y023381D01*
X044734D01*
X044645Y023358D01*
X044579Y02332D01*
X044529Y023341D01*
Y023866D01*
X046332Y025668D01*
X046379Y02573D01*
X046409Y025803D01*
X046419Y02588D01*
Y026029D01*
X046446Y026075D01*
X04647Y026164D01*
Y026256D01*
X046446Y026345D01*
X0464Y026425D01*
X046335Y02649D01*
X046255Y026536D01*
X046166Y02656D01*
X046074D01*
X045985Y026536D01*
X045905Y02649D01*
X04584Y026425D01*
X045794Y026345D01*
X04577Y026256D01*
Y026164D01*
X045794Y026075D01*
X045821Y026029D01*
Y026004D01*
X045059Y025243D01*
X045009Y025264D01*
Y02595D01*
X047955Y028896D01*
X047985D01*
X048086Y028923D01*
X048178Y028976D01*
X048252Y02905D01*
X048305Y029141D01*
X048332Y029243D01*
Y029348D01*
X048305Y02945D01*
X048252Y029541D01*
X048178Y029616D01*
X048086Y029668D01*
X047985Y029696D01*
X047879D01*
X047778Y029668D01*
X047686Y029616D01*
X047612Y029541D01*
X047559Y02945D01*
X047532Y029348D01*
Y029319D01*
X044498Y026286D01*
X044483Y026266D01*
X044433Y026283D01*
Y027366D01*
X044922Y027854D01*
X044969Y027916D01*
X044999Y027989D01*
X045009Y028066D01*
Y03003D01*
X044999Y030107D01*
X044982Y03015D01*
X044969Y03018D01*
X044922Y030242D01*
X044919Y030244D01*
Y031256D01*
X044943Y031266D01*
X044969Y031272D01*
X045052Y031225D01*
X045147Y031199D01*
X045246D01*
X045342Y031225D01*
X045427Y031274D01*
X045497Y031344D01*
X045547Y03143D01*
X045572Y031525D01*
Y031624D01*
X045547Y03172D01*
X045497Y031805D01*
X045427Y031875D01*
X045342Y031925D01*
X045246Y03195D01*
X045147D01*
X045052Y031925D01*
X044969Y031877D01*
X044943Y031884D01*
X044919Y031894D01*
Y035272D01*
X044943Y035281D01*
X044969Y035288D01*
X045052Y035241D01*
X045147Y035215D01*
X045246D01*
X045342Y035241D01*
X045427Y03529D01*
X045497Y03536D01*
X045547Y035446D01*
X045572Y035541D01*
Y035543D01*
X046174Y036144D01*
X046221Y036206D01*
X046251Y036278D01*
X046261Y036356D01*
Y037927D01*
X046302Y037967D01*
X046358Y038064D01*
X046387Y038172D01*
Y038284D01*
X046358Y038392D01*
X046302Y038489D01*
X046223Y038568D01*
X046126Y038624D01*
X046018Y038653D01*
X045906D01*
X045872Y038644D01*
X045846Y038689D01*
X046416Y039259D01*
X046464Y039321D01*
X046494Y039393D01*
X046504Y039471D01*
Y045221D01*
X04655Y04524D01*
X049451Y042339D01*
Y041762D01*
X049404Y041743D01*
X04939Y041757D01*
X049295Y041812D01*
X04919Y04184D01*
X04908D01*
X048975Y041812D01*
X04888Y041757D01*
X048803Y04168D01*
X048748Y041585D01*
X04872Y04148D01*
Y041371D01*
X048748Y041265D01*
X048803Y04117D01*
X04888Y041093D01*
X048975Y041039D01*
X04908Y04101D01*
X04919D01*
X049295Y041039D01*
X04939Y041093D01*
X049404Y041108D01*
X049451Y041089D01*
Y040762D01*
X049404Y040743D01*
X04939Y040757D01*
X049295Y040812D01*
X04919Y04084D01*
X04908D01*
X048975Y040812D01*
X04888Y040757D01*
X048803Y04068D01*
X048748Y040585D01*
X04872Y04048D01*
Y040371D01*
X048748Y040265D01*
X048803Y04017D01*
X04888Y040093D01*
X048975Y040039D01*
X04908Y04001D01*
X04919D01*
X049295Y040039D01*
X04939Y040093D01*
X049404Y040108D01*
X049451Y040089D01*
Y039762D01*
X049404Y039743D01*
X04939Y039757D01*
X049295Y039812D01*
X04919Y03984D01*
X04908D01*
X048975Y039812D01*
X04888Y039757D01*
X048803Y03968D01*
X048748Y039585D01*
X04872Y03948D01*
Y039371D01*
X048748Y039265D01*
X048803Y03917D01*
X04888Y039093D01*
X048975Y039039D01*
X04908Y03901D01*
X04919D01*
X049295Y039039D01*
X04939Y039093D01*
X049404Y039108D01*
X049451Y039089D01*
Y038762D01*
X049404Y038743D01*
X04939Y038757D01*
X049295Y038812D01*
X04919Y03884D01*
X04908D01*
X048975Y038812D01*
X04888Y038757D01*
X048803Y03868D01*
X048748Y038585D01*
X04872Y03848D01*
Y038371D01*
X048748Y038265D01*
X048803Y03817D01*
X04888Y038093D01*
X048975Y038039D01*
X04908Y03801D01*
X04919D01*
X049295Y038039D01*
X04939Y038093D01*
X049404Y038108D01*
X049451Y038089D01*
Y037762D01*
X049404Y037743D01*
X04939Y037757D01*
X049295Y037812D01*
X04919Y03784D01*
X049185D01*
Y037425D01*
Y03701D01*
X04919D01*
X049239Y037024D01*
X049265Y036979D01*
X049127Y03684D01*
X04872D01*
Y03601D01*
X04955D01*
Y036417D01*
X049962Y036828D01*
X050009Y03689D01*
X050039Y036963D01*
X050049Y03704D01*
Y042463D01*
X050039Y042541D01*
X050022Y042583D01*
X050009Y042613D01*
X049962Y042675D01*
X046619Y046018D01*
Y046424D01*
D02*
G37*
G36*
X026114Y042437D02*
X025382D01*
Y041705D01*
X026114D01*
Y042437D01*
D02*
G37*
G36*
X01556D02*
X015464D01*
X015371Y042412D01*
X015287Y042364D01*
X015219Y042295D01*
X015171Y042212D01*
X015146Y042119D01*
Y042023D01*
X015171Y04193D01*
X015219Y041846D01*
X015287Y041778D01*
X015371Y04173D01*
X015464Y041705D01*
X01556D01*
X015653Y04173D01*
X015736Y041778D01*
X015804Y041846D01*
X015853Y04193D01*
X015878Y042023D01*
Y042119D01*
X015853Y042212D01*
X015804Y042295D01*
X015736Y042364D01*
X015653Y042412D01*
X01556Y042437D01*
D02*
G37*
G36*
X025796Y041437D02*
X0257D01*
X025607Y041412D01*
X025523Y041364D01*
X025455Y041295D01*
X025407Y041212D01*
X025382Y041119D01*
Y041023D01*
X025407Y04093D01*
X025455Y040846D01*
X025523Y040778D01*
X025607Y04073D01*
X0257Y040705D01*
X025796D01*
X025889Y04073D01*
X025973Y040778D01*
X026041Y040846D01*
X026089Y04093D01*
X026114Y041023D01*
Y041119D01*
X026089Y041212D01*
X026041Y041295D01*
X025973Y041364D01*
X025889Y041412D01*
X025796Y041437D01*
D02*
G37*
G36*
X01556D02*
X015464D01*
X015371Y041412D01*
X015287Y041364D01*
X015219Y041295D01*
X015171Y041212D01*
X015146Y041119D01*
Y041023D01*
X015171Y04093D01*
X015219Y040846D01*
X015287Y040778D01*
X015371Y04073D01*
X015464Y040705D01*
X01556D01*
X015653Y04073D01*
X015736Y040778D01*
X015804Y040846D01*
X015853Y04093D01*
X015878Y041023D01*
Y041119D01*
X015853Y041212D01*
X015804Y041295D01*
X015736Y041364D01*
X015653Y041412D01*
X01556Y041437D01*
D02*
G37*
G36*
X035979Y041944D02*
X035823D01*
X035671Y041913D01*
X035527Y041854D01*
X035398Y041768D01*
X035288Y041658D01*
X035202Y041528D01*
X035143Y041385D01*
X035112Y041232D01*
Y041077D01*
X035143Y040925D01*
X035202Y040781D01*
X035288Y040652D01*
X035398Y040542D01*
X035527Y040456D01*
X035671Y040396D01*
X035823Y040366D01*
X035979D01*
X036131Y040396D01*
X036275Y040456D01*
X036404Y040542D01*
X036514Y040652D01*
X0366Y040781D01*
X03666Y040925D01*
X03669Y041077D01*
Y041232D01*
X03666Y041385D01*
X0366Y041528D01*
X036514Y041658D01*
X036404Y041768D01*
X036275Y041854D01*
X036131Y041913D01*
X035979Y041944D01*
D02*
G37*
G36*
X025796Y040437D02*
X0257D01*
X025607Y040412D01*
X025523Y040364D01*
X025455Y040295D01*
X025407Y040212D01*
X025382Y040119D01*
Y040023D01*
X025407Y03993D01*
X025455Y039846D01*
X025523Y039778D01*
X025607Y03973D01*
X0257Y039705D01*
X025796D01*
X025889Y03973D01*
X025973Y039778D01*
X026041Y039846D01*
X026089Y03993D01*
X026114Y040023D01*
Y040119D01*
X026089Y040212D01*
X026041Y040295D01*
X025973Y040364D01*
X025889Y040412D01*
X025796Y040437D01*
D02*
G37*
G36*
X01556D02*
X015464D01*
X015371Y040412D01*
X015287Y040364D01*
X015219Y040295D01*
X015171Y040212D01*
X015146Y040119D01*
Y040023D01*
X015171Y03993D01*
X015219Y039846D01*
X015287Y039778D01*
X015371Y03973D01*
X015464Y039705D01*
X01556D01*
X015653Y03973D01*
X015736Y039778D01*
X015804Y039846D01*
X015853Y03993D01*
X015878Y040023D01*
Y040119D01*
X015853Y040212D01*
X015804Y040295D01*
X015736Y040364D01*
X015653Y040412D01*
X01556Y040437D01*
D02*
G37*
G36*
X025796Y039437D02*
X0257D01*
X025607Y039412D01*
X025523Y039364D01*
X025455Y039295D01*
X025407Y039212D01*
X025382Y039119D01*
Y039023D01*
X025407Y03893D01*
X025455Y038846D01*
X025523Y038778D01*
X025607Y03873D01*
X0257Y038705D01*
X025796D01*
X025889Y03873D01*
X025973Y038778D01*
X026041Y038846D01*
X026089Y03893D01*
X026114Y039023D01*
Y039119D01*
X026089Y039212D01*
X026041Y039295D01*
X025973Y039364D01*
X025889Y039412D01*
X025796Y039437D01*
D02*
G37*
G36*
X01556D02*
X015464D01*
X015371Y039412D01*
X015287Y039364D01*
X015219Y039295D01*
X015171Y039212D01*
X015146Y039119D01*
Y039023D01*
X015171Y03893D01*
X015219Y038846D01*
X015287Y038778D01*
X015371Y03873D01*
X015464Y038705D01*
X01556D01*
X015653Y03873D01*
X015736Y038778D01*
X015804Y038846D01*
X015853Y03893D01*
X015878Y039023D01*
Y039119D01*
X015853Y039212D01*
X015804Y039295D01*
X015736Y039364D01*
X015653Y039412D01*
X01556Y039437D01*
D02*
G37*
G36*
X041236Y038732D02*
X040811D01*
X040599Y03852D01*
Y038095D01*
X040811Y037882D01*
X041236D01*
X041449Y038095D01*
Y03852D01*
X041236Y038732D01*
D02*
G37*
G36*
X043283Y038693D02*
X042858D01*
X042646Y03848D01*
Y038055D01*
X042858Y037843D01*
X043283D01*
X043496Y038055D01*
Y03848D01*
X043283Y038693D01*
D02*
G37*
G36*
X036404Y043855D02*
X036299D01*
X036197Y043827D01*
X036106Y043775D01*
X036031Y0437D01*
X035978Y043609D01*
X035951Y043507D01*
Y043402D01*
X035978Y0433D01*
X036031Y043209D01*
X036106Y043135D01*
X036197Y043082D01*
X036299Y043055D01*
X036328D01*
X039346Y040036D01*
Y038722D01*
X039191D01*
Y037813D01*
X0401D01*
Y038722D01*
X039945D01*
Y04016D01*
X039935Y040238D01*
X039917Y04028D01*
X039905Y04031D01*
X039857Y040372D01*
X036751Y043478D01*
Y043507D01*
X036724Y043609D01*
X036671Y0437D01*
X036597Y043775D01*
X036506Y043827D01*
X036404Y043855D01*
D02*
G37*
G36*
X025796Y038437D02*
X0257D01*
X025607Y038412D01*
X025523Y038364D01*
X025455Y038295D01*
X025407Y038212D01*
X025382Y038119D01*
Y038023D01*
X025407Y03793D01*
X025455Y037846D01*
X025523Y037778D01*
X025607Y03773D01*
X0257Y037705D01*
X025796D01*
X025889Y03773D01*
X025973Y037778D01*
X026041Y037846D01*
X026089Y03793D01*
X026114Y038023D01*
Y038119D01*
X026089Y038212D01*
X026041Y038295D01*
X025973Y038364D01*
X025889Y038412D01*
X025796Y038437D01*
D02*
G37*
G36*
X01556D02*
X015464D01*
X015371Y038412D01*
X015287Y038364D01*
X015219Y038295D01*
X015171Y038212D01*
X015146Y038119D01*
Y038023D01*
X015171Y03793D01*
X015219Y037846D01*
X015287Y037778D01*
X015371Y03773D01*
X015464Y037705D01*
X01556D01*
X015653Y03773D01*
X015736Y037778D01*
X015804Y037846D01*
X015853Y03793D01*
X015878Y038023D01*
Y038119D01*
X015853Y038212D01*
X015804Y038295D01*
X015736Y038364D01*
X015653Y038412D01*
X01556Y038437D01*
D02*
G37*
G36*
X049085Y03784D02*
X04908D01*
X048975Y037812D01*
X04888Y037757D01*
X048803Y03768D01*
X048748Y037585D01*
X04872Y03748D01*
Y037475D01*
X049085D01*
Y03784D01*
D02*
G37*
G36*
X025798Y037436D02*
Y037121D01*
X026113D01*
X026089Y037212D01*
X026041Y037295D01*
X025973Y037364D01*
X025889Y037412D01*
X025798Y037436D01*
D02*
G37*
G36*
X025698D02*
X025607Y037412D01*
X025523Y037364D01*
X025455Y037295D01*
X025407Y037212D01*
X025383Y037121D01*
X025698D01*
Y037436D01*
D02*
G37*
G36*
X049085Y037375D02*
X04872D01*
Y037371D01*
X048748Y037265D01*
X048803Y03717D01*
X04888Y037093D01*
X048975Y037039D01*
X04908Y03701D01*
X049085D01*
Y037375D01*
D02*
G37*
G36*
X026113Y037021D02*
X025798D01*
Y036706D01*
X025889Y03673D01*
X025973Y036778D01*
X026041Y036846D01*
X026089Y03693D01*
X026113Y037021D01*
D02*
G37*
G36*
X025698D02*
X025383D01*
X025407Y03693D01*
X025455Y036846D01*
X025523Y036778D01*
X025607Y03673D01*
X025698Y036706D01*
Y037021D01*
D02*
G37*
G36*
X01556Y037437D02*
X015464D01*
X015371Y037412D01*
X015287Y037364D01*
X015219Y037295D01*
X015171Y037212D01*
X015146Y037119D01*
Y037023D01*
X015171Y03693D01*
X015219Y036846D01*
X015287Y036778D01*
X015371Y03673D01*
X015464Y036705D01*
X01556D01*
X015653Y03673D01*
X015736Y036778D01*
X015804Y036846D01*
X015853Y03693D01*
X015878Y037023D01*
Y037119D01*
X015853Y037212D01*
X015804Y037295D01*
X015736Y037364D01*
X015653Y037412D01*
X01556Y037437D01*
D02*
G37*
G36*
X025796Y036437D02*
X0257D01*
X025607Y036412D01*
X025523Y036364D01*
X025455Y036295D01*
X025407Y036212D01*
X025382Y036119D01*
Y036023D01*
X025407Y03593D01*
X025455Y035846D01*
X025523Y035778D01*
X025607Y03573D01*
X0257Y035705D01*
X025796D01*
X025889Y03573D01*
X025973Y035778D01*
X026041Y035846D01*
X026089Y03593D01*
X026114Y036023D01*
Y036119D01*
X026089Y036212D01*
X026041Y036295D01*
X025973Y036364D01*
X025889Y036412D01*
X025796Y036437D01*
D02*
G37*
G36*
X04208Y038732D02*
X041968D01*
X04186Y038703D01*
X041763Y038647D01*
X041684Y038568D01*
X041628Y038471D01*
X041599Y038363D01*
Y038251D01*
X041628Y038143D01*
X041684Y038046D01*
X041724Y038005D01*
Y036124D01*
X041684Y036084D01*
X041683D01*
X041587Y036059D01*
X041502Y036009D01*
X041432Y035939D01*
X041382Y035854D01*
X041357Y035758D01*
Y035659D01*
X041382Y035564D01*
X041432Y035478D01*
X041502Y035408D01*
X041587Y035359D01*
X041683Y035333D01*
X041782D01*
X041877Y035359D01*
X041963Y035408D01*
X042033Y035478D01*
X042082Y035564D01*
X042108Y035659D01*
Y035661D01*
X042235Y035788D01*
X042283Y03585D01*
X042313Y035923D01*
X042323Y036D01*
Y038005D01*
X042364Y038046D01*
X04242Y038143D01*
X042449Y038251D01*
Y038363D01*
X04242Y038471D01*
X042364Y038568D01*
X042285Y038647D01*
X042188Y038703D01*
X04208Y038732D01*
D02*
G37*
G36*
X025796Y035437D02*
X0257D01*
X025607Y035412D01*
X025523Y035364D01*
X025455Y035295D01*
X025407Y035212D01*
X025382Y035119D01*
Y035023D01*
X025407Y03493D01*
X025455Y034846D01*
X025523Y034778D01*
X025607Y03473D01*
X0257Y034705D01*
X025796D01*
X025889Y03473D01*
X025973Y034778D01*
X026041Y034846D01*
X026089Y03493D01*
X026114Y035023D01*
Y035119D01*
X026089Y035212D01*
X026041Y035295D01*
X025973Y035364D01*
X025889Y035412D01*
X025796Y035437D01*
D02*
G37*
G36*
X021696Y04803D02*
X021604D01*
X021515Y048006D01*
X021435Y04796D01*
X02137Y047895D01*
X021324Y047815D01*
X0213Y047726D01*
Y047634D01*
X021324Y047545D01*
X021351Y047499D01*
Y038333D01*
X01586Y032843D01*
X01582Y032873D01*
X015853Y03293D01*
X015878Y033023D01*
Y033119D01*
X015853Y033212D01*
X015804Y033295D01*
X015736Y033364D01*
X015653Y033412D01*
X01556Y033437D01*
X015464D01*
X015371Y033412D01*
X015287Y033364D01*
X015219Y033295D01*
X015171Y033212D01*
X01515Y033132D01*
X014786Y032768D01*
X014739Y032787D01*
Y034875D01*
X015164Y035299D01*
X015204Y035269D01*
X015171Y035212D01*
X015146Y035119D01*
Y035023D01*
X015171Y03493D01*
X015219Y034846D01*
X015287Y034778D01*
X015371Y03473D01*
X015464Y034705D01*
X01556D01*
X015653Y03473D01*
X015736Y034778D01*
X015804Y034846D01*
X015853Y03493D01*
X015878Y035023D01*
Y035119D01*
X015853Y035212D01*
X015804Y035295D01*
X015736Y035364D01*
X015653Y035412D01*
X01556Y035437D01*
X015464D01*
X015371Y035412D01*
X015314Y035379D01*
X015283Y035419D01*
X015573Y035709D01*
X015653Y03573D01*
X015736Y035778D01*
X015804Y035846D01*
X015853Y03593D01*
X015878Y036023D01*
Y036119D01*
X015853Y036212D01*
X015804Y036295D01*
X015736Y036364D01*
X015653Y036412D01*
X01556Y036437D01*
X015464D01*
X015371Y036412D01*
X015287Y036364D01*
X015219Y036295D01*
X015171Y036212D01*
X01515Y036132D01*
X014228Y035211D01*
X014181Y035149D01*
X014151Y035077D01*
X014141Y034999D01*
Y021636D01*
X014151Y021559D01*
X014181Y021487D01*
X014228Y021425D01*
X014365Y021288D01*
X014427Y021241D01*
X014457Y021228D01*
X014499Y021211D01*
X014576Y021201D01*
X01549D01*
X015536Y021174D01*
X015625Y02115D01*
X015717D01*
X015806Y021174D01*
X015886Y02122D01*
X015951Y021285D01*
X015997Y021365D01*
X016021Y021454D01*
Y021546D01*
X015997Y021635D01*
X015951Y021715D01*
X015921Y021745D01*
X015941Y021795D01*
X016161D01*
X0171Y020857D01*
X017114Y020805D01*
X01716Y020725D01*
X017225Y02066D01*
X017305Y020614D01*
X017394Y02059D01*
X017486D01*
X017575Y020614D01*
X017655Y02066D01*
X01772Y020725D01*
X017766Y020805D01*
X01779Y020894D01*
Y020986D01*
X017766Y021075D01*
X01772Y021155D01*
X017655Y02122D01*
X017575Y021266D01*
X017523Y02128D01*
X016497Y022307D01*
X016435Y022354D01*
X016363Y022384D01*
X016285Y022394D01*
X016107D01*
X016086Y022444D01*
X016143Y022501D01*
X016215Y022625D01*
X016252Y022763D01*
Y022906D01*
X016215Y023044D01*
X016143Y023168D01*
X016042Y023269D01*
X015918Y023341D01*
X01578Y023378D01*
X015637D01*
X015499Y023341D01*
X015375Y023269D01*
X015289Y023183D01*
X015239Y023204D01*
Y023705D01*
X015462D01*
Y024071D01*
Y024437D01*
X015239D01*
Y024761D01*
X015263Y02477D01*
X015289Y024777D01*
X015371Y02473D01*
X015464Y024705D01*
X01556D01*
X015653Y02473D01*
X015736Y024778D01*
X015804Y024846D01*
X015853Y02493D01*
X015878Y025023D01*
Y025119D01*
X015853Y025212D01*
X015804Y025295D01*
X015736Y025364D01*
X015653Y025412D01*
X01556Y025437D01*
X015464D01*
X015371Y025412D01*
X015289Y025365D01*
X015263Y025371D01*
X015239Y025381D01*
Y025761D01*
X015263Y02577D01*
X015289Y025777D01*
X015371Y02573D01*
X015464Y025705D01*
X01556D01*
X015653Y02573D01*
X015736Y025778D01*
X015804Y025846D01*
X015853Y02593D01*
X015878Y026023D01*
Y026119D01*
X015853Y026212D01*
X015804Y026295D01*
X015736Y026364D01*
X015653Y026412D01*
X01556Y026437D01*
X015464D01*
X015371Y026412D01*
X015289Y026365D01*
X015263Y026371D01*
X015239Y026381D01*
Y026761D01*
X015263Y02677D01*
X015289Y026777D01*
X015371Y02673D01*
X015464Y026705D01*
X01556D01*
X015653Y02673D01*
X015736Y026778D01*
X015804Y026846D01*
X015853Y02693D01*
X015878Y027023D01*
Y027119D01*
X015853Y027212D01*
X015804Y027295D01*
X015736Y027364D01*
X015653Y027412D01*
X01556Y027437D01*
X015464D01*
X015371Y027412D01*
X015289Y027365D01*
X015263Y027371D01*
X015239Y027381D01*
Y027761D01*
X015263Y02777D01*
X015289Y027777D01*
X015371Y02773D01*
X015464Y027705D01*
X01556D01*
X015653Y02773D01*
X015736Y027778D01*
X015804Y027846D01*
X015853Y02793D01*
X015878Y028023D01*
Y028119D01*
X015853Y028212D01*
X015804Y028295D01*
X015736Y028364D01*
X015653Y028412D01*
X01556Y028437D01*
X015464D01*
X015371Y028412D01*
X015289Y028365D01*
X015263Y028371D01*
X015239Y028381D01*
Y028761D01*
X015263Y02877D01*
X015289Y028777D01*
X015371Y02873D01*
X015464Y028705D01*
X01556D01*
X015653Y02873D01*
X015736Y028778D01*
X015804Y028846D01*
X015853Y02893D01*
X015878Y029023D01*
Y029119D01*
X015853Y029212D01*
X015804Y029295D01*
X015736Y029364D01*
X015653Y029412D01*
X01556Y029437D01*
X015464D01*
X015371Y029412D01*
X015289Y029365D01*
X015263Y029371D01*
X015239Y029381D01*
Y029761D01*
X015263Y02977D01*
X015289Y029777D01*
X015371Y02973D01*
X015462Y029706D01*
Y030071D01*
Y030436D01*
X015371Y030412D01*
X015289Y030365D01*
X015263Y030371D01*
X015239Y030381D01*
Y030761D01*
X015263Y03077D01*
X015289Y030777D01*
X015371Y03073D01*
X015464Y030705D01*
X01556D01*
X015653Y03073D01*
X015736Y030778D01*
X015804Y030846D01*
X015853Y03093D01*
X015874Y03101D01*
X022942Y038077D01*
X022989Y038139D01*
X023002Y038169D01*
X023019Y038212D01*
X023029Y038289D01*
Y046419D01*
X023056Y046465D01*
X02308Y046554D01*
Y046646D01*
X023056Y046735D01*
X02301Y046815D01*
X022945Y04688D01*
X022865Y046926D01*
X022776Y04695D01*
X022684D01*
X022595Y046926D01*
X022515Y04688D01*
X02245Y046815D01*
X022404Y046735D01*
X02238Y046646D01*
Y046554D01*
X022404Y046465D01*
X022431Y046419D01*
Y038413D01*
X01586Y031843D01*
X01582Y031873D01*
X015853Y03193D01*
X015874Y03201D01*
X021862Y037997D01*
X021909Y038059D01*
X021939Y038132D01*
X021949Y038209D01*
Y047499D01*
X021976Y047545D01*
X022Y047634D01*
Y047726D01*
X021976Y047815D01*
X02193Y047895D01*
X021865Y04796D01*
X021785Y048006D01*
X021696Y04803D01*
D02*
G37*
G36*
X025796Y034437D02*
X0257D01*
X025607Y034412D01*
X025523Y034364D01*
X025455Y034295D01*
X025407Y034212D01*
X025382Y034119D01*
Y034023D01*
X025407Y03393D01*
X025455Y033846D01*
X025523Y033778D01*
X025607Y03373D01*
X0257Y033705D01*
X025796D01*
X025889Y03373D01*
X025973Y033778D01*
X026041Y033846D01*
X026089Y03393D01*
X026114Y034023D01*
Y034119D01*
X026089Y034212D01*
X026041Y034295D01*
X025973Y034364D01*
X025889Y034412D01*
X025796Y034437D01*
D02*
G37*
G36*
X01556D02*
X015464D01*
X015371Y034412D01*
X015287Y034364D01*
X015219Y034295D01*
X015171Y034212D01*
X015146Y034119D01*
Y034023D01*
X015171Y03393D01*
X015219Y033846D01*
X015287Y033778D01*
X015371Y03373D01*
X015464Y033705D01*
X01556D01*
X015653Y03373D01*
X015736Y033778D01*
X015804Y033846D01*
X015853Y03393D01*
X015878Y034023D01*
Y034119D01*
X015853Y034212D01*
X015804Y034295D01*
X015736Y034364D01*
X015653Y034412D01*
X01556Y034437D01*
D02*
G37*
G36*
X025796Y033437D02*
X0257D01*
X025607Y033412D01*
X025523Y033364D01*
X025455Y033295D01*
X025407Y033212D01*
X025382Y033119D01*
Y033023D01*
X025407Y03293D01*
X025455Y032846D01*
X025523Y032778D01*
X025607Y03273D01*
X0257Y032705D01*
X025796D01*
X025889Y03273D01*
X025973Y032778D01*
X026041Y032846D01*
X026089Y03293D01*
X026114Y033023D01*
Y033119D01*
X026089Y033212D01*
X026041Y033295D01*
X025973Y033364D01*
X025889Y033412D01*
X025796Y033437D01*
D02*
G37*
G36*
Y032437D02*
X0257D01*
X025607Y032412D01*
X025523Y032364D01*
X025455Y032295D01*
X025407Y032212D01*
X025382Y032119D01*
Y032023D01*
X025407Y03193D01*
X025455Y031846D01*
X025523Y031778D01*
X025607Y03173D01*
X0257Y031705D01*
X025796D01*
X025889Y03173D01*
X025973Y031778D01*
X026041Y031846D01*
X026089Y03193D01*
X026114Y032023D01*
Y032119D01*
X026089Y032212D01*
X026041Y032295D01*
X025973Y032364D01*
X025889Y032412D01*
X025796Y032437D01*
D02*
G37*
G36*
X047985Y032146D02*
X047879D01*
X047778Y032118D01*
X047686Y032066D01*
X047612Y031991D01*
X047559Y0319D01*
X047532Y031798D01*
Y031693D01*
X047559Y031591D01*
X047612Y0315D01*
X047686Y031426D01*
X047778Y031373D01*
X047879Y031346D01*
X047985D01*
X048086Y031373D01*
X048178Y031426D01*
X048252Y0315D01*
X048305Y031591D01*
X048332Y031693D01*
Y031798D01*
X048305Y0319D01*
X048252Y031991D01*
X048178Y032066D01*
X048086Y032118D01*
X047985Y032146D01*
D02*
G37*
G36*
X041782Y032069D02*
X041683D01*
X041587Y032043D01*
X041502Y031993D01*
X041432Y031924D01*
X041382Y031838D01*
X041357Y031742D01*
Y031643D01*
X041382Y031548D01*
X041432Y031462D01*
X041502Y031392D01*
X041587Y031343D01*
X041683Y031317D01*
X041782D01*
X041877Y031343D01*
X041963Y031392D01*
X042033Y031462D01*
X042082Y031548D01*
X042108Y031643D01*
Y031742D01*
X042082Y031838D01*
X042033Y031924D01*
X041963Y031993D01*
X041877Y032043D01*
X041782Y032069D01*
D02*
G37*
G36*
X043514Y03199D02*
X043415D01*
X04332Y031964D01*
X043234Y031915D01*
X043164Y031845D01*
X043115Y031759D01*
X043089Y031664D01*
Y031565D01*
X043115Y031469D01*
X043164Y031384D01*
X043234Y031314D01*
X04332Y031264D01*
X043415Y031239D01*
X043514D01*
X04361Y031264D01*
X043695Y031314D01*
X043765Y031384D01*
X043815Y031469D01*
X04384Y031565D01*
Y031664D01*
X043815Y031759D01*
X043765Y031845D01*
X043695Y031915D01*
X04361Y031964D01*
X043514Y03199D01*
D02*
G37*
G36*
X015562Y030436D02*
Y030121D01*
X015877D01*
X015853Y030212D01*
X015804Y030295D01*
X015736Y030364D01*
X015653Y030412D01*
X015562Y030436D01*
D02*
G37*
G36*
X047935Y030896D02*
X047829D01*
X047728Y030868D01*
X047636Y030816D01*
X047562Y030741D01*
X047509Y03065D01*
X047482Y030548D01*
Y030443D01*
X047509Y030341D01*
X047562Y03025D01*
X047636Y030176D01*
X047728Y030123D01*
X047829Y030096D01*
X047935D01*
X048036Y030123D01*
X048128Y030176D01*
X048202Y03025D01*
X048255Y030341D01*
X048282Y030443D01*
Y030548D01*
X048255Y03065D01*
X048202Y030741D01*
X048128Y030816D01*
X048036Y030868D01*
X047935Y030896D01*
D02*
G37*
G36*
X015877Y030021D02*
X015562D01*
Y029706D01*
X015653Y02973D01*
X015736Y029778D01*
X015804Y029846D01*
X015853Y02993D01*
X015877Y030021D01*
D02*
G37*
G36*
X025796Y031437D02*
X0257D01*
X025607Y031412D01*
X025523Y031364D01*
X025455Y031295D01*
X025407Y031212D01*
X025386Y031132D01*
X021717Y027464D01*
X02167Y027402D01*
X02164Y027329D01*
X02163Y027252D01*
Y020625D01*
X021629Y020624D01*
X021579Y020539D01*
X021554Y020443D01*
Y020344D01*
X021579Y020249D01*
X021629Y020163D01*
X02163Y020162D01*
Y019419D01*
X02164Y019342D01*
X021669Y019271D01*
Y018657D01*
X021668Y018656D01*
X021619Y01857D01*
X021593Y018475D01*
Y018473D01*
X02023Y01711D01*
X019315D01*
X019298Y017127D01*
X019208Y017179D01*
X019107Y017206D01*
X019003D01*
X018903Y017179D01*
X018812Y017127D01*
X018739Y017054D01*
X018687Y016964D01*
X01866Y016863D01*
Y016759D01*
X018687Y016658D01*
X018739Y016568D01*
X018812Y016495D01*
X018903Y016443D01*
X019003Y016416D01*
X019107D01*
X019208Y016443D01*
X019298Y016495D01*
X019315Y016512D01*
X020354D01*
X020432Y016522D01*
X020504Y016552D01*
X020566Y016599D01*
X022016Y01805D01*
X022018D01*
X022113Y018075D01*
X022199Y018125D01*
X022269Y018195D01*
X022319Y01828D01*
X022344Y018376D01*
Y018475D01*
X022319Y01857D01*
X022269Y018656D01*
X022268Y018657D01*
Y01938D01*
X022258Y019457D01*
X022229Y019528D01*
Y020162D01*
X02223Y020163D01*
X022279Y020249D01*
X022305Y020344D01*
Y020443D01*
X022279Y020539D01*
X02223Y020624D01*
X022229Y020625D01*
Y027128D01*
X0254Y030299D01*
X02544Y030269D01*
X025407Y030212D01*
X025386Y030132D01*
X023162Y027909D01*
X023115Y027847D01*
X023085Y027774D01*
X023075Y027697D01*
Y017149D01*
X023058Y017132D01*
X023006Y017042D01*
X022979Y016942D01*
Y016838D01*
X023006Y016737D01*
X023058Y016647D01*
X023131Y016573D01*
X023221Y016521D01*
X023322Y016494D01*
X023426D01*
X023527Y016521D01*
X023617Y016573D01*
X02369Y016647D01*
X023742Y016737D01*
X023769Y016838D01*
Y016942D01*
X023742Y017042D01*
X02369Y017132D01*
X023673Y017149D01*
Y027573D01*
X0254Y029299D01*
X02544Y029269D01*
X025407Y029212D01*
X025382Y029119D01*
Y029023D01*
X025407Y02893D01*
X025455Y028846D01*
X025523Y028778D01*
X025607Y02873D01*
X0257Y028705D01*
X025796D01*
X025889Y02873D01*
X025973Y028778D01*
X026041Y028846D01*
X026089Y02893D01*
X026114Y029023D01*
Y029119D01*
X026089Y029212D01*
X026041Y029295D01*
X025973Y029364D01*
X025889Y029412D01*
X025796Y029437D01*
X0257D01*
X025607Y029412D01*
X02555Y029379D01*
X02552Y029419D01*
X025809Y029709D01*
X025889Y02973D01*
X025973Y029778D01*
X026041Y029846D01*
X026089Y02993D01*
X026114Y030023D01*
Y030119D01*
X026089Y030212D01*
X026041Y030295D01*
X025973Y030364D01*
X025889Y030412D01*
X025796Y030437D01*
X0257D01*
X025607Y030412D01*
X02555Y030379D01*
X02552Y030419D01*
X025809Y030709D01*
X025889Y03073D01*
X025973Y030778D01*
X026041Y030846D01*
X026089Y03093D01*
X026114Y031023D01*
Y031119D01*
X026089Y031212D01*
X026041Y031295D01*
X025973Y031364D01*
X025889Y031412D01*
X025796Y031437D01*
D02*
G37*
G36*
Y028437D02*
X0257D01*
X025607Y028412D01*
X025523Y028364D01*
X025455Y028295D01*
X025407Y028212D01*
X025382Y028119D01*
Y028023D01*
X025407Y02793D01*
X025455Y027846D01*
X025523Y027778D01*
X025607Y02773D01*
X0257Y027705D01*
X025796D01*
X025889Y02773D01*
X025973Y027778D01*
X026041Y027846D01*
X026089Y02793D01*
X026114Y028023D01*
Y028119D01*
X026089Y028212D01*
X026041Y028295D01*
X025973Y028364D01*
X025889Y028412D01*
X025796Y028437D01*
D02*
G37*
G36*
X047935Y028496D02*
X047829D01*
X047728Y028468D01*
X047636Y028416D01*
X047562Y028341D01*
X047509Y02825D01*
X047482Y028148D01*
Y028043D01*
X047509Y027941D01*
X047562Y02785D01*
X047636Y027776D01*
X047728Y027723D01*
X047829Y027696D01*
X047935D01*
X048036Y027723D01*
X048128Y027776D01*
X048202Y02785D01*
X048255Y027941D01*
X048282Y028043D01*
Y028148D01*
X048255Y02825D01*
X048202Y028341D01*
X048128Y028416D01*
X048036Y028468D01*
X047935Y028496D01*
D02*
G37*
G36*
X025796Y027437D02*
X0257D01*
X025607Y027412D01*
X025523Y027364D01*
X025455Y027295D01*
X025407Y027212D01*
X025382Y027119D01*
Y027023D01*
X025407Y02693D01*
X025455Y026846D01*
X025523Y026778D01*
X025607Y02673D01*
X0257Y026705D01*
X025796D01*
X025889Y02673D01*
X025973Y026778D01*
X026041Y026846D01*
X026089Y02693D01*
X026114Y027023D01*
Y027119D01*
X026089Y027212D01*
X026041Y027295D01*
X025973Y027364D01*
X025889Y027412D01*
X025796Y027437D01*
D02*
G37*
G36*
X047935Y027246D02*
X047829D01*
X047728Y027218D01*
X047636Y027166D01*
X047562Y027091D01*
X047509Y027D01*
X047482Y026898D01*
Y026793D01*
X047509Y026691D01*
X047562Y0266D01*
X047636Y026526D01*
X047728Y026473D01*
X047829Y026446D01*
X047935D01*
X048036Y026473D01*
X048128Y026526D01*
X048202Y0266D01*
X048255Y026691D01*
X048282Y026793D01*
Y026898D01*
X048255Y027D01*
X048202Y027091D01*
X048128Y027166D01*
X048036Y027218D01*
X047935Y027246D01*
D02*
G37*
G36*
X025796Y026437D02*
X0257D01*
X025607Y026412D01*
X025523Y026364D01*
X025455Y026295D01*
X025407Y026212D01*
X025382Y026119D01*
Y026023D01*
X025407Y02593D01*
X025455Y025846D01*
X025523Y025778D01*
X025607Y02573D01*
X0257Y025705D01*
X025796D01*
X025889Y02573D01*
X025973Y025778D01*
X026041Y025846D01*
X026089Y02593D01*
X026114Y026023D01*
Y026119D01*
X026089Y026212D01*
X026041Y026295D01*
X025973Y026364D01*
X025889Y026412D01*
X025796Y026437D01*
D02*
G37*
G36*
X042097Y025887D02*
X041998D01*
X041902Y025862D01*
X041817Y025812D01*
X041747Y025742D01*
X041697Y025657D01*
X041672Y025561D01*
Y025462D01*
X041697Y025367D01*
X041747Y025281D01*
X041817Y025211D01*
X041902Y025162D01*
X041998Y025136D01*
X042097D01*
X042192Y025162D01*
X042278Y025211D01*
X042348Y025281D01*
X042397Y025367D01*
X042423Y025462D01*
Y025561D01*
X042397Y025657D01*
X042348Y025742D01*
X042278Y025812D01*
X042192Y025862D01*
X042097Y025887D01*
D02*
G37*
G36*
X025796Y025437D02*
X0257D01*
X025607Y025412D01*
X025523Y025364D01*
X025455Y025295D01*
X025407Y025212D01*
X025382Y025119D01*
Y025023D01*
X025407Y02493D01*
X025455Y024846D01*
X025523Y024778D01*
X025607Y02473D01*
X0257Y024705D01*
X025796D01*
X025889Y02473D01*
X025973Y024778D01*
X026041Y024846D01*
X026089Y02493D01*
X026114Y025023D01*
Y025119D01*
X026089Y025212D01*
X026041Y025295D01*
X025973Y025364D01*
X025889Y025412D01*
X025796Y025437D01*
D02*
G37*
G36*
X015878Y024437D02*
X015562D01*
Y024121D01*
X015878D01*
Y024437D01*
D02*
G37*
G36*
Y024021D02*
X015562D01*
Y023705D01*
X015878D01*
Y024021D01*
D02*
G37*
G36*
X027904Y023805D02*
X027901D01*
Y023455D01*
X028251D01*
Y023457D01*
X028224Y023559D01*
X028171Y02365D01*
X028097Y023725D01*
X028006Y023777D01*
X027904Y023805D01*
D02*
G37*
G36*
X027801D02*
X027799D01*
X027697Y023777D01*
X027606Y023725D01*
X027531Y02365D01*
X027478Y023559D01*
X027451Y023457D01*
Y023455D01*
X027801D01*
Y023805D01*
D02*
G37*
G36*
X025796Y024437D02*
X0257D01*
X025607Y024412D01*
X025523Y024364D01*
X025455Y024295D01*
X025407Y024212D01*
X025382Y024119D01*
Y024023D01*
X025407Y02393D01*
X025455Y023846D01*
X025523Y023778D01*
X025607Y02373D01*
X025687Y023709D01*
X026001Y023395D01*
Y023224D01*
X025951Y023203D01*
X025885Y023269D01*
X025761Y023341D01*
X025623Y023378D01*
X02548D01*
X025342Y023341D01*
X025218Y023269D01*
X025117Y023168D01*
X025045Y023044D01*
X025008Y022906D01*
Y022763D01*
X025045Y022625D01*
X025117Y022501D01*
X025218Y0224D01*
X025342Y022329D01*
X02548Y022292D01*
X025623D01*
X025646Y022298D01*
X025671Y022255D01*
X025158Y021742D01*
X025111Y02168D01*
X025081Y021607D01*
X025071Y02153D01*
Y015352D01*
X025081Y015275D01*
X025111Y015203D01*
X025158Y015141D01*
X026081Y014218D01*
Y013811D01*
X026911D01*
Y014641D01*
X026505D01*
X025669Y015476D01*
Y018138D01*
X025719Y018159D01*
X025754Y018125D01*
X025839Y018075D01*
X025935Y01805D01*
X026034D01*
X026129Y018075D01*
X026215Y018125D01*
X026285Y018195D01*
X026334Y01828D01*
X02636Y018376D01*
Y018475D01*
X026334Y01857D01*
X026285Y018656D01*
X026215Y018726D01*
X026129Y018775D01*
X026034Y018801D01*
X025935D01*
X025839Y018775D01*
X025754Y018726D01*
X025719Y018692D01*
X025669Y018712D01*
Y020075D01*
X025679Y020078D01*
X025719Y02009D01*
X0258Y020044D01*
X025895Y020018D01*
X025994D01*
X02609Y020044D01*
X026176Y020093D01*
X026245Y020163D01*
X026295Y020249D01*
X02632Y020344D01*
Y020443D01*
X026295Y020539D01*
X026245Y020624D01*
X026176Y020694D01*
X02609Y020744D01*
X025994Y020769D01*
X025895D01*
X0258Y020744D01*
X025719Y020697D01*
X025679Y020709D01*
X025669Y020713D01*
Y021406D01*
X026512Y022248D01*
X026559Y02231D01*
X026589Y022383D01*
X026599Y02246D01*
Y023519D01*
X026589Y023596D01*
X026559Y023669D01*
X026512Y023731D01*
X02611Y024132D01*
X026089Y024212D01*
X026041Y024295D01*
X025973Y024364D01*
X025889Y024412D01*
X025796Y024437D01*
D02*
G37*
G36*
X036354Y023805D02*
X036249D01*
X036147Y023777D01*
X036056Y023725D01*
X035981Y02365D01*
X035928Y023559D01*
X035901Y023457D01*
Y023352D01*
X035928Y02325D01*
X035981Y023159D01*
X036056Y023085D01*
X036147Y023032D01*
X036249Y023005D01*
X036354D01*
X036456Y023032D01*
X036547Y023085D01*
X036621Y023159D01*
X036674Y02325D01*
X036701Y023352D01*
Y023457D01*
X036674Y023559D01*
X036621Y02365D01*
X036547Y023725D01*
X036456Y023777D01*
X036354Y023805D01*
D02*
G37*
G36*
X028251Y023355D02*
X027901D01*
Y023005D01*
X027904D01*
X028006Y023032D01*
X028097Y023085D01*
X028171Y023159D01*
X028224Y02325D01*
X028251Y023352D01*
Y023355D01*
D02*
G37*
G36*
X027801D02*
X027451D01*
Y023352D01*
X027478Y02325D01*
X027531Y023159D01*
X027606Y023085D01*
X027697Y023032D01*
X027799Y023005D01*
X027801D01*
Y023355D01*
D02*
G37*
G36*
X04816Y022383D02*
Y022058D01*
X048486D01*
X04846Y022153D01*
X048411Y022239D01*
X048341Y022308D01*
X048255Y022358D01*
X04816Y022383D01*
D02*
G37*
G36*
X04806D02*
X047965Y022358D01*
X04788Y022308D01*
X04781Y022239D01*
X04776Y022153D01*
X047735Y022058D01*
X04806D01*
Y022383D01*
D02*
G37*
G36*
X046646Y02729D02*
X046554D01*
X046465Y027266D01*
X046385Y02722D01*
X04632Y027155D01*
X046274Y027075D01*
X04625Y026986D01*
Y026894D01*
X046274Y026805D01*
X04632Y026725D01*
X046385Y02666D01*
X046465Y026614D01*
X046517Y0266D01*
X046701Y026416D01*
Y024368D01*
X045775Y023442D01*
X045727Y02338D01*
X045697Y023307D01*
X045687Y02323D01*
Y022462D01*
X045536D01*
Y022106D01*
Y02175D01*
X045704D01*
Y021859D01*
X045754Y021883D01*
X045768Y021873D01*
Y02175D01*
X046204D01*
Y021903D01*
X046246Y021957D01*
X046275Y022029D01*
X046286Y022106D01*
Y023106D01*
X047212Y024032D01*
X047259Y024094D01*
X047272Y024124D01*
X047289Y024166D01*
X047299Y024244D01*
Y02654D01*
X047289Y026617D01*
X047259Y02669D01*
X047212Y026752D01*
X04694Y027023D01*
X046926Y027075D01*
X04688Y027155D01*
X046815Y02722D01*
X046735Y027266D01*
X046646Y02729D01*
D02*
G37*
G36*
X048486Y021958D02*
X04816D01*
Y021632D01*
X048255Y021658D01*
X048341Y021707D01*
X048411Y021777D01*
X04846Y021863D01*
X048486Y021958D01*
D02*
G37*
G36*
X04806D02*
X047735D01*
X04776Y021863D01*
X04781Y021777D01*
X04788Y021707D01*
X047965Y021658D01*
X04806Y021632D01*
Y021958D01*
D02*
G37*
G36*
X037985Y019677D02*
X037842D01*
X037704Y01964D01*
X03758Y019568D01*
X037479Y019467D01*
X037407Y019343D01*
X03737Y019205D01*
Y019062D01*
X037407Y018924D01*
X037479Y0188D01*
X03758Y018699D01*
X037704Y018628D01*
X037842Y018591D01*
X037985D01*
X038123Y018628D01*
X038247Y018699D01*
X038348Y0188D01*
X038419Y018924D01*
X038456Y019062D01*
Y019205D01*
X038419Y019343D01*
X038348Y019467D01*
X038247Y019568D01*
X038123Y01964D01*
X037985Y019677D01*
D02*
G37*
G36*
X020286Y020691D02*
X020187D01*
X020091Y020665D01*
X020006Y020616D01*
X019936Y020546D01*
X019886Y02046D01*
X019861Y020364D01*
Y020266D01*
X019886Y02017D01*
X019936Y020084D01*
X019937Y020083D01*
Y018578D01*
X019936Y018577D01*
X019886Y018491D01*
X019861Y018396D01*
Y018297D01*
X019886Y018201D01*
X019936Y018116D01*
X020006Y018046D01*
X020091Y017996D01*
X020187Y017971D01*
X020286D01*
X020381Y017996D01*
X020467Y018046D01*
X020537Y018116D01*
X020586Y018201D01*
X020612Y018297D01*
Y018396D01*
X020586Y018491D01*
X020537Y018577D01*
X020536Y018578D01*
Y020083D01*
X020537Y020084D01*
X020586Y02017D01*
X020612Y020266D01*
Y020364D01*
X020586Y02046D01*
X020537Y020546D01*
X020467Y020616D01*
X020381Y020665D01*
X020286Y020691D01*
D02*
G37*
G36*
X01627D02*
X016171D01*
X016076Y020665D01*
X01599Y020616D01*
X01592Y020546D01*
X01587Y02046D01*
X015845Y020364D01*
Y020363D01*
X015428Y019946D01*
X015381Y019884D01*
X015351Y019812D01*
X015341Y019734D01*
Y01405D01*
X015351Y013973D01*
X015381Y0139D01*
X015428Y013838D01*
X016058Y013208D01*
X01612Y013161D01*
X016193Y013131D01*
X01627Y013121D01*
X018239D01*
X018316Y013131D01*
X018389Y013161D01*
X018451Y013208D01*
X019374Y014131D01*
X019488D01*
X019609Y014164D01*
X019717Y014226D01*
X019805Y014315D01*
X019868Y014423D01*
X0199Y014544D01*
Y014669D01*
X019868Y01479D01*
X019805Y014898D01*
X019717Y014986D01*
X019609Y015049D01*
X019488Y015081D01*
X019363D01*
X019242Y015049D01*
X019134Y014986D01*
X019045Y014898D01*
X018983Y01479D01*
X01895Y014669D01*
Y014555D01*
X018115Y013719D01*
X016394D01*
X015939Y014174D01*
Y018031D01*
X015986Y01805D01*
X01599Y018046D01*
X016076Y017996D01*
X016171Y017971D01*
X01627D01*
X016365Y017996D01*
X016451Y018046D01*
X016521Y018116D01*
X01657Y018201D01*
X016596Y018297D01*
Y018396D01*
X01657Y018491D01*
X016521Y018577D01*
X016451Y018647D01*
X016365Y018696D01*
X01627Y018722D01*
X016171D01*
X016076Y018696D01*
X01599Y018647D01*
X015986Y018643D01*
X015939Y018662D01*
Y01961D01*
X016268Y019939D01*
X01627D01*
X016365Y019965D01*
X016451Y020014D01*
X016521Y020084D01*
X01657Y02017D01*
X016596Y020266D01*
Y020364D01*
X01657Y02046D01*
X016521Y020546D01*
X016451Y020616D01*
X016365Y020665D01*
X01627Y020691D01*
D02*
G37*
G36*
X022426Y017285D02*
X022424D01*
Y01694D01*
X022769D01*
Y016942D01*
X022742Y017042D01*
X02269Y017132D01*
X022617Y017206D01*
X022527Y017258D01*
X022426Y017285D01*
D02*
G37*
G36*
X022324D02*
X022322D01*
X022221Y017258D01*
X022131Y017206D01*
X022058Y017132D01*
X022006Y017042D01*
X021979Y016942D01*
Y01694D01*
X022324D01*
Y017285D01*
D02*
G37*
G36*
X018107Y017206D02*
X018105D01*
Y016861D01*
X01845D01*
Y016863D01*
X018423Y016964D01*
X018371Y017054D01*
X018298Y017127D01*
X018208Y017179D01*
X018107Y017206D01*
D02*
G37*
G36*
X018005D02*
X018003D01*
X017903Y017179D01*
X017812Y017127D01*
X017739Y017054D01*
X017687Y016964D01*
X01766Y016863D01*
Y016861D01*
X018005D01*
Y017206D01*
D02*
G37*
G36*
X022769Y01684D02*
X022424D01*
Y016494D01*
X022426D01*
X022527Y016521D01*
X022617Y016573D01*
X02269Y016647D01*
X022742Y016737D01*
X022769Y016838D01*
Y01684D01*
D02*
G37*
G36*
X022324D02*
X021979D01*
Y016838D01*
X022006Y016737D01*
X022058Y016647D01*
X022131Y016573D01*
X022221Y016521D01*
X022322Y016494D01*
X022324D01*
Y01684D01*
D02*
G37*
G36*
X01845Y016761D02*
X018105D01*
Y016416D01*
X018107D01*
X018208Y016443D01*
X018298Y016495D01*
X018371Y016568D01*
X018423Y016658D01*
X01845Y016759D01*
Y016761D01*
D02*
G37*
G36*
X018005D02*
X01766D01*
Y016759D01*
X017687Y016658D01*
X017739Y016568D01*
X017812Y016495D01*
X017903Y016443D01*
X018003Y016416D01*
X018005D01*
Y016761D01*
D02*
G37*
G36*
X017488Y015081D02*
X017475D01*
Y014656D01*
X0179D01*
Y014669D01*
X017868Y01479D01*
X017805Y014898D01*
X017717Y014986D01*
X017609Y015049D01*
X017488Y015081D01*
D02*
G37*
G36*
X017375D02*
X017363D01*
X017242Y015049D01*
X017134Y014986D01*
X017045Y014898D01*
X016983Y01479D01*
X01695Y014669D01*
Y014656D01*
X017375D01*
Y015081D01*
D02*
G37*
G36*
X021818Y014963D02*
X021806D01*
Y014538D01*
X022231D01*
Y014551D01*
X022199Y014672D01*
X022136Y01478D01*
X022048Y014868D01*
X021939Y014931D01*
X021818Y014963D01*
D02*
G37*
G36*
X021706D02*
X021693D01*
X021573Y014931D01*
X021464Y014868D01*
X021376Y01478D01*
X021313Y014672D01*
X021281Y014551D01*
Y014538D01*
X021706D01*
Y014963D01*
D02*
G37*
G36*
X027551Y014641D02*
X027546D01*
Y014276D01*
X027911D01*
Y014281D01*
X027883Y014387D01*
X027828Y014481D01*
X027751Y014558D01*
X027656Y014613D01*
X027551Y014641D01*
D02*
G37*
G36*
X027446D02*
X027441D01*
X027336Y014613D01*
X027241Y014558D01*
X027164Y014481D01*
X027109Y014387D01*
X027081Y014281D01*
Y014276D01*
X027446D01*
Y014641D01*
D02*
G37*
G36*
X0179Y014556D02*
X017475D01*
Y014131D01*
X017488D01*
X017609Y014164D01*
X017717Y014226D01*
X017805Y014315D01*
X017868Y014423D01*
X0179Y014544D01*
Y014556D01*
D02*
G37*
G36*
X017375D02*
X01695D01*
Y014544D01*
X016983Y014423D01*
X017045Y014315D01*
X017134Y014226D01*
X017242Y014164D01*
X017363Y014131D01*
X017375D01*
Y014556D01*
D02*
G37*
G36*
X023818Y014963D02*
X023693D01*
X023573Y014931D01*
X023464Y014868D01*
X023376Y01478D01*
X023313Y014672D01*
X023281Y014551D01*
Y014426D01*
X023313Y014305D01*
X023376Y014197D01*
X023464Y014108D01*
X023573Y014046D01*
X023693Y014013D01*
X023818D01*
X023939Y014046D01*
X024048Y014108D01*
X024136Y014197D01*
X024199Y014305D01*
X024231Y014426D01*
Y014551D01*
X024199Y014672D01*
X024136Y01478D01*
X024048Y014868D01*
X023939Y014931D01*
X023818Y014963D01*
D02*
G37*
G36*
X022231Y014438D02*
X021806D01*
Y014013D01*
X021818D01*
X021939Y014046D01*
X022048Y014108D01*
X022136Y014197D01*
X022199Y014305D01*
X022231Y014426D01*
Y014438D01*
D02*
G37*
G36*
X021706D02*
X021281D01*
Y014426D01*
X021313Y014305D01*
X021376Y014197D01*
X021464Y014108D01*
X021573Y014046D01*
X021693Y014013D01*
X021706D01*
Y014438D01*
D02*
G37*
G36*
X033246Y014641D02*
X033136D01*
X033031Y014613D01*
X032936Y014558D01*
X032859Y014481D01*
X032804Y014387D01*
X032776Y014281D01*
Y014172D01*
X032804Y014066D01*
X032859Y013972D01*
X032936Y013894D01*
X033031Y01384D01*
X033136Y013811D01*
X033246D01*
X033351Y01384D01*
X033446Y013894D01*
X033523Y013972D01*
X033578Y014066D01*
X033606Y014172D01*
Y014281D01*
X033578Y014387D01*
X033523Y014481D01*
X033446Y014558D01*
X033351Y014613D01*
X033246Y014641D01*
D02*
G37*
G36*
X027911Y014176D02*
X027546D01*
Y013811D01*
X027551D01*
X027656Y01384D01*
X027751Y013894D01*
X027828Y013972D01*
X027883Y014066D01*
X027911Y014172D01*
Y014176D01*
D02*
G37*
G36*
X027446D02*
X027081D01*
Y014172D01*
X027109Y014066D01*
X027164Y013972D01*
X027241Y013894D01*
X027336Y01384D01*
X027441Y013811D01*
X027446D01*
Y014176D01*
D02*
G37*
G36*
X049851Y013368D02*
X049676D01*
X049505Y013334D01*
X049343Y013267D01*
X049198Y01317D01*
X049074Y013046D01*
X048977Y012901D01*
X04891Y012739D01*
X048876Y012568D01*
Y012393D01*
X04891Y012221D01*
X048977Y01206D01*
X049074Y011915D01*
X049198Y011791D01*
X049343Y011694D01*
X049505Y011627D01*
X049676Y011593D01*
X049851D01*
X050023Y011627D01*
X050184Y011694D01*
X050329Y011791D01*
X050453Y011915D01*
X05055Y01206D01*
X050617Y012221D01*
X050651Y012393D01*
Y012568D01*
X050617Y012739D01*
X05055Y012901D01*
X050453Y013046D01*
X050329Y01317D01*
X050184Y013267D01*
X050023Y013334D01*
X049851Y013368D01*
D02*
G37*
G36*
X015206D02*
X015031D01*
X014859Y013334D01*
X014698Y013267D01*
X014552Y01317D01*
X014429Y013046D01*
X014332Y012901D01*
X014265Y012739D01*
X014231Y012568D01*
Y012393D01*
X014265Y012221D01*
X014332Y01206D01*
X014429Y011915D01*
X014552Y011791D01*
X014698Y011694D01*
X014859Y011627D01*
X015031Y011593D01*
X015206D01*
X015377Y011627D01*
X015538Y011694D01*
X015684Y011791D01*
X015807Y011915D01*
X015905Y01206D01*
X015971Y012221D01*
X016006Y012393D01*
Y012568D01*
X015971Y012739D01*
X015905Y012901D01*
X015807Y013046D01*
X015684Y01317D01*
X015538Y013267D01*
X015377Y013334D01*
X015206Y013368D01*
D02*
G37*
%LPD*%
D17*
X043613Y014226D02*
Y024103D01*
X04478Y023031D02*
X044986Y022825D01*
X043613Y024103D02*
X04471Y0252D01*
X04423Y022756D02*
X044486Y0225D01*
X044986Y022106D02*
Y022825D01*
X04423Y022756D02*
Y02399D01*
X044486Y022106D02*
Y0225D01*
X04423Y02399D02*
X04612Y02588D01*
X04471Y0252D02*
Y026074D01*
X046204Y039471D02*
Y046009D01*
X044962Y038228D02*
X046204Y039471D01*
X023374Y027697D02*
X025748Y030071D01*
X023374Y01689D02*
Y027697D01*
X020354Y016811D02*
X021969Y018425D01*
X019055Y016811D02*
X020354D01*
X027496Y014226D02*
Y02305D01*
X027851Y023405D01*
X022374Y015106D02*
Y01689D01*
X021756Y014488D02*
X022374Y015106D01*
X018055Y015236D02*
Y016811D01*
X017425Y014606D02*
X018055Y015236D01*
X02273Y038289D02*
Y0466D01*
X015512Y031071D02*
X02273Y038289D01*
X029496Y014226D02*
X03388Y01861D01*
Y02311D01*
X040298Y029528D01*
X042047D01*
X040005Y04481D02*
X041204Y046009D01*
X02165Y038209D02*
Y04768D01*
X015512Y032071D02*
X02165Y038209D01*
X04612Y02588D02*
Y02621D01*
X016285Y022095D02*
X01744Y02094D01*
X0152Y022095D02*
X016285D01*
X01494Y022355D02*
X0152Y022095D01*
X01494Y022355D02*
Y032499D01*
X015512Y033071D01*
X027851Y043455D02*
X02964Y041666D01*
Y02099D02*
Y041666D01*
X028276Y019626D02*
X02964Y02099D01*
X028276Y016414D02*
Y019626D01*
Y016414D02*
X02958Y01511D01*
X04471Y026074D02*
X047932Y029296D01*
X039646Y029764D02*
Y037268D01*
X029016Y019134D02*
X039646Y029764D01*
X044997Y01361D02*
X045613Y014226D01*
X0431Y01361D02*
X044997D01*
X042835Y013875D02*
X0431Y01361D01*
X042835Y013875D02*
Y017677D01*
X034191Y014226D02*
X037642Y017677D01*
X042835D01*
X03985Y01327D02*
X040807Y014226D01*
X036147Y01327D02*
X03985D01*
X035191Y014226D02*
X036147Y01327D01*
X036351Y043455D02*
X039646Y04016D01*
Y038268D02*
Y04016D01*
X042024Y036D02*
Y038307D01*
X041732Y035709D02*
X042024Y036D01*
X045962Y036356D02*
Y038228D01*
X045197Y035591D02*
X045962Y036356D01*
X028496Y014226D02*
X029112Y01361D01*
X03034D01*
X03521Y01848D01*
Y020643D01*
X044134Y029567D01*
X01444Y034999D02*
X015512Y036071D01*
X01444Y021636D02*
Y034999D01*
Y021636D02*
X014576Y0215D01*
X015671D01*
X0466Y02694D02*
X047Y02654D01*
Y024244D02*
Y02654D01*
X045986Y02323D02*
X047Y024244D01*
X045986Y022106D02*
Y02323D01*
X018239Y01342D02*
X019425Y014606D01*
X01627Y01342D02*
X018239D01*
X01564Y01405D02*
X01627Y01342D01*
X01564Y01405D02*
Y019734D01*
X01622Y020315D01*
X039807Y014226D02*
Y014649D01*
X042835Y017677D01*
X045227Y01284D02*
X046613Y014226D01*
X042193Y01284D02*
X045227D01*
X040807Y014226D02*
X042193Y01284D01*
X047169Y021066D02*
X04811Y022008D01*
X045994Y021066D02*
X047169D01*
X045486Y021574D02*
X045994Y021066D01*
X045486Y021574D02*
Y022106D01*
X050197Y015732D02*
X0506D01*
X05081Y015942D01*
Y01735D01*
X047588Y020572D02*
X05081Y01735D01*
X0452Y020572D02*
X047588D01*
X044986Y020359D02*
X0452Y020572D01*
X044986Y02002D02*
Y020359D01*
X046204Y046009D02*
X04975Y042463D01*
Y03704D02*
Y042463D01*
X049135Y036425D02*
X04975Y03704D01*
X018055Y016811D02*
Y023115D01*
X017099Y024071D02*
X018055Y023115D01*
X015512Y024071D02*
X017099D01*
X025748Y037071D02*
X02632Y036499D01*
Y024936D02*
Y036499D01*
Y024936D02*
X027851Y023405D01*
X047554Y017992D02*
X04811D01*
X045986Y01956D02*
X047554Y017992D01*
X045986Y01956D02*
Y02002D01*
X021929Y020394D02*
Y027252D01*
X025748Y031071D01*
X04462Y037887D02*
X044962Y038228D01*
X04462Y03012D02*
Y037887D01*
Y03012D02*
X04471Y03003D01*
Y028066D02*
Y03003D01*
X044134Y02749D02*
X04471Y028066D01*
X044134Y025551D02*
Y02749D01*
X025748Y024071D02*
X0263Y023519D01*
Y02246D02*
Y023519D01*
X02537Y02153D02*
X0263Y02246D01*
X02537Y015352D02*
Y02153D01*
Y015352D02*
X026496Y014226D01*
X04877Y03706D02*
X049135Y037425D01*
X04868Y03706D02*
X04877D01*
X04852Y0369D02*
X04868Y03706D01*
X04852Y03582D02*
Y0369D01*
Y03582D02*
X04853Y03581D01*
Y022428D02*
Y03581D01*
X04811Y022008D02*
X04853Y022428D01*
X044071Y036236D02*
Y038268D01*
X043465Y03563D02*
X044071Y036236D01*
X015512Y024071D02*
X01608Y024639D01*
Y029503D01*
X015512Y030071D02*
X01608Y029503D01*
X020236Y018346D02*
Y020315D01*
X021929Y019419D02*
Y020394D01*
Y019419D02*
X021969Y01938D01*
Y018425D02*
Y01938D01*
X045486Y017177D02*
Y02002D01*
Y017177D02*
X045613Y01705D01*
Y014226D02*
Y01705D01*
D20*
X045986Y022106D02*
D03*
X045486D02*
D03*
X044986D02*
D03*
X044486D02*
D03*
Y02002D02*
D03*
X044986D02*
D03*
X045486D02*
D03*
X045986D02*
D03*
D37*
X050197Y015732D02*
D03*
X044204Y046009D02*
D03*
X045204D02*
D03*
X043204D02*
D03*
X042204D02*
D03*
X041204D02*
D03*
X049135Y041425D02*
D03*
Y040425D02*
D03*
Y039425D02*
D03*
Y037425D02*
D03*
Y038425D02*
D03*
X028496Y014226D02*
D03*
X027496D02*
D03*
X029496D02*
D03*
X034191D02*
D03*
X033191D02*
D03*
X035191D02*
D03*
X039807D02*
D03*
X038807D02*
D03*
X040807D02*
D03*
X045613D02*
D03*
X044613D02*
D03*
X046613D02*
D03*
D38*
X050197Y016732D02*
D03*
X049135Y036425D02*
D03*
D39*
X021756Y014488D02*
D03*
X023756D02*
D03*
X017425Y014606D02*
D03*
X019425D02*
D03*
D40*
X046204Y046009D02*
D03*
X026496Y014226D02*
D03*
X032191D02*
D03*
X037807D02*
D03*
X043613D02*
D03*
D41*
X039646Y037268D02*
D03*
Y038268D02*
D03*
D42*
X043465Y03563D02*
D03*
Y031614D02*
D03*
X042047Y025512D02*
D03*
Y029528D02*
D03*
X04811Y022008D02*
D03*
Y017992D02*
D03*
X04685Y017677D02*
D03*
X042835D02*
D03*
X021929Y020394D02*
D03*
X025945D02*
D03*
X044134Y029567D02*
D03*
Y025551D02*
D03*
X020236Y018346D02*
D03*
X01622D02*
D03*
X025984Y018425D02*
D03*
X021969D02*
D03*
X01622Y020315D02*
D03*
X020236D02*
D03*
X041732Y035709D02*
D03*
Y031693D02*
D03*
X045197Y035591D02*
D03*
Y031575D02*
D03*
D43*
X029016Y019134D02*
D03*
X037913D02*
D03*
X025551Y043307D02*
D03*
X015709D02*
D03*
X025551Y022835D02*
D03*
X015709D02*
D03*
D44*
X022374Y01689D02*
D03*
X023374D02*
D03*
X018055Y016811D02*
D03*
X019055D02*
D03*
D45*
X045962Y038228D02*
D03*
X044071Y038268D02*
D03*
X042024Y038307D02*
D03*
D46*
X044962Y038228D02*
D03*
X043071Y038268D02*
D03*
X041024Y038307D02*
D03*
D47*
X025748Y024071D02*
D03*
Y025071D02*
D03*
Y026071D02*
D03*
Y027071D02*
D03*
Y028071D02*
D03*
Y029071D02*
D03*
Y030071D02*
D03*
Y031071D02*
D03*
Y032071D02*
D03*
Y033071D02*
D03*
Y034071D02*
D03*
Y035071D02*
D03*
Y036071D02*
D03*
Y037071D02*
D03*
Y038071D02*
D03*
Y039071D02*
D03*
Y040071D02*
D03*
Y041071D02*
D03*
X015512Y042071D02*
D03*
Y041071D02*
D03*
Y040071D02*
D03*
Y039071D02*
D03*
Y038071D02*
D03*
Y037071D02*
D03*
Y036071D02*
D03*
Y035071D02*
D03*
Y034071D02*
D03*
Y033071D02*
D03*
Y032071D02*
D03*
Y031071D02*
D03*
Y030071D02*
D03*
Y029071D02*
D03*
Y028071D02*
D03*
Y027071D02*
D03*
Y026071D02*
D03*
Y025071D02*
D03*
D48*
X025748Y042071D02*
D03*
X015512Y024071D02*
D03*
D49*
X036351Y043455D02*
D03*
X027851D02*
D03*
X036301Y023405D02*
D03*
X027851D02*
D03*
X035901Y041155D02*
D03*
X028651Y025805D02*
D03*
X047932Y031746D02*
D03*
X047882Y026846D02*
D03*
Y028096D02*
D03*
X047932Y029296D02*
D03*
X047882Y030496D02*
D03*
D50*
X015118Y01248D02*
D03*
Y047126D02*
D03*
X049764Y01248D02*
D03*
Y047126D02*
D03*
D51*
X04478Y023031D02*
D03*
X02273Y0466D02*
D03*
X040005Y04481D02*
D03*
X02165Y04768D02*
D03*
X04612Y02621D02*
D03*
X01744Y02094D02*
D03*
X02958Y01511D02*
D03*
X015671Y0215D02*
D03*
X0466Y02694D02*
D03*
M02*
