G04*
G04 #@! TF.GenerationSoftware,Altium Limited,Altium Designer,21.9.2 (33)*
G04*
G04 Layer_Color=2752767*
%FSTAX24Y24*%
%MOIN*%
G70*
G04*
G04 #@! TF.SameCoordinates,353BE734-12B4-41FD-ADCD-0B3A32D8510F*
G04*
G04*
G04 #@! TF.FilePolarity,Positive*
G04*
G01*
G75*
%ADD53C,0.0020*%
%ADD54C,0.0027*%
%ADD55C,0.0013*%
D53*
X050117Y015652D02*
Y015812D01*
X050277D01*
Y015652D01*
X050117D01*
Y016652D02*
Y016812D01*
X050277D01*
Y016652D01*
X050117D01*
X039646Y037188D02*
X039566Y037348D01*
X039726D01*
X039646Y037188D01*
Y038188D02*
X039566Y038348D01*
X039726D01*
X039646Y038188D01*
X043465Y03555D02*
X043505Y03559D01*
X043545D01*
X043505Y03563D01*
X043545Y03567D01*
X043505D01*
X043465Y03571D01*
X043425Y03567D01*
X043385D01*
X043425Y03563D01*
X043385Y03559D01*
X043425D01*
X043465Y03555D01*
Y031534D02*
X043505Y031574D01*
X043545D01*
X043505Y031614D01*
X043545Y031654D01*
X043505D01*
X043465Y031694D01*
X043425Y031654D01*
X043385D01*
X043425Y031614D01*
X043385Y031574D01*
X043425D01*
X043465Y031534D01*
X042047Y025432D02*
X042087Y025472D01*
X042127D01*
X042087Y025512D01*
X042127Y025552D01*
X042087D01*
X042047Y025592D01*
X042007Y025552D01*
X041967D01*
X042007Y025512D01*
X041967Y025472D01*
X042007D01*
X042047Y025432D01*
Y029448D02*
X042087Y029488D01*
X042127D01*
X042087Y029528D01*
X042127Y029568D01*
X042087D01*
X042047Y029608D01*
X042007Y029568D01*
X041967D01*
X042007Y029528D01*
X041967Y029488D01*
X042007D01*
X042047Y029448D01*
X04811Y021928D02*
X04815Y021968D01*
X04819D01*
X04815Y022008D01*
X04819Y022048D01*
X04815D01*
X04811Y022088D01*
X04807Y022048D01*
X04803D01*
X04807Y022008D01*
X04803Y021968D01*
X04807D01*
X04811Y021928D01*
Y017912D02*
X04815Y017952D01*
X04819D01*
X04815Y017992D01*
X04819Y018032D01*
X04815D01*
X04811Y018072D01*
X04807Y018032D01*
X04803D01*
X04807Y017992D01*
X04803Y017952D01*
X04807D01*
X04811Y017912D01*
X04685Y017597D02*
X04689Y017637D01*
X04693D01*
X04689Y017677D01*
X04693Y017717D01*
X04689D01*
X04685Y017757D01*
X04681Y017717D01*
X04677D01*
X04681Y017677D01*
X04677Y017637D01*
X04681D01*
X04685Y017597D01*
X042835D02*
X042875Y017637D01*
X042915D01*
X042875Y017677D01*
X042915Y017717D01*
X042875D01*
X042835Y017757D01*
X042795Y017717D01*
X042755D01*
X042795Y017677D01*
X042755Y017637D01*
X042795D01*
X042835Y017597D01*
X028936Y019054D02*
X028976Y019134D01*
X028936Y019214D01*
X029016Y019174D01*
X029096Y019214D01*
X029056Y019134D01*
X029096Y019054D01*
X029016Y019094D01*
X028936Y019054D01*
X037833D02*
X037873Y019134D01*
X037833Y019214D01*
X037913Y019174D01*
X037993Y019214D01*
X037953Y019134D01*
X037993Y019054D01*
X037913Y019094D01*
X037833Y019054D01*
X021929Y020314D02*
X021969Y020354D01*
X022009D01*
X021969Y020394D01*
X022009Y020434D01*
X021969D01*
X021929Y020474D01*
X021889Y020434D01*
X021849D01*
X021889Y020394D01*
X021849Y020354D01*
X021889D01*
X021929Y020314D01*
X025945D02*
X025985Y020354D01*
X026025D01*
X025985Y020394D01*
X026025Y020434D01*
X025985D01*
X025945Y020474D01*
X025905Y020434D01*
X025865D01*
X025905Y020394D01*
X025865Y020354D01*
X025905D01*
X025945Y020314D01*
X022334Y01685D02*
Y01681D01*
X022414D01*
Y01685D01*
X022454D01*
Y01693D01*
X022414D01*
Y01697D01*
X022334D01*
Y01693D01*
X022294D01*
Y01685D01*
X022334D01*
X023334D02*
Y01681D01*
X023414D01*
Y01685D01*
X023454D01*
Y01693D01*
X023414D01*
Y01697D01*
X023334D01*
Y01693D01*
X023294D01*
Y01685D01*
X023334D01*
X018015Y016771D02*
Y016731D01*
X018095D01*
Y016771D01*
X018135D01*
Y016851D01*
X018095D01*
Y016891D01*
X018015D01*
Y016851D01*
X017975D01*
Y016771D01*
X018015D01*
X019015D02*
Y016731D01*
X019095D01*
Y016771D01*
X019135D01*
Y016851D01*
X019095D01*
Y016891D01*
X019015D01*
Y016851D01*
X018975D01*
Y016771D01*
X019015D01*
X045882Y038148D02*
X045922D01*
X045962Y038188D01*
X046002Y038148D01*
X046042D01*
Y038188D01*
X046002Y038228D01*
X046042Y038268D01*
Y038308D01*
X046002D01*
X045962Y038268D01*
X045922Y038308D01*
X045882D01*
Y038268D01*
X045922Y038228D01*
X045882Y038188D01*
Y038148D01*
X044882D02*
X044922D01*
X044962Y038188D01*
X045002Y038148D01*
X045042D01*
Y038188D01*
X045002Y038228D01*
X045042Y038268D01*
Y038308D01*
X045002D01*
X044962Y038268D01*
X044922Y038308D01*
X044882D01*
Y038268D01*
X044922Y038228D01*
X044882Y038188D01*
Y038148D01*
X043991Y038188D02*
X044031D01*
X044071Y038228D01*
X044111Y038188D01*
X044151D01*
Y038228D01*
X044111Y038268D01*
X044151Y038308D01*
Y038348D01*
X044111D01*
X044071Y038308D01*
X044031Y038348D01*
X043991D01*
Y038308D01*
X044031Y038268D01*
X043991Y038228D01*
Y038188D01*
X042991D02*
X043031D01*
X043071Y038228D01*
X043111Y038188D01*
X043151D01*
Y038228D01*
X043111Y038268D01*
X043151Y038308D01*
Y038348D01*
X043111D01*
X043071Y038308D01*
X043031Y038348D01*
X042991D01*
Y038308D01*
X043031Y038268D01*
X042991Y038228D01*
Y038188D01*
X041944Y038227D02*
X041984D01*
X042024Y038267D01*
X042064Y038227D01*
X042104D01*
Y038267D01*
X042064Y038307D01*
X042104Y038347D01*
Y038387D01*
X042064D01*
X042024Y038347D01*
X041984Y038387D01*
X041944D01*
Y038347D01*
X041984Y038307D01*
X041944Y038267D01*
Y038227D01*
X040944D02*
X040984D01*
X041024Y038267D01*
X041064Y038227D01*
X041104D01*
Y038267D01*
X041064Y038307D01*
X041104Y038347D01*
Y038387D01*
X041064D01*
X041024Y038347D01*
X040984Y038387D01*
X040944D01*
Y038347D01*
X040984Y038307D01*
X040944Y038267D01*
Y038227D01*
X044134Y029487D02*
X044174Y029527D01*
X044214D01*
X044174Y029567D01*
X044214Y029607D01*
X044174D01*
X044134Y029647D01*
X044094Y029607D01*
X044054D01*
X044094Y029567D01*
X044054Y029527D01*
X044094D01*
X044134Y029487D01*
Y025471D02*
X044174Y025511D01*
X044214D01*
X044174Y025551D01*
X044214Y025591D01*
X044174D01*
X044134Y025631D01*
X044094Y025591D01*
X044054D01*
X044094Y025551D01*
X044054Y025511D01*
X044094D01*
X044134Y025471D01*
X020236Y018266D02*
X020276Y018306D01*
X020316D01*
X020276Y018346D01*
X020316Y018386D01*
X020276D01*
X020236Y018426D01*
X020196Y018386D01*
X020156D01*
X020196Y018346D01*
X020156Y018306D01*
X020196D01*
X020236Y018266D01*
X01622D02*
X01626Y018306D01*
X0163D01*
X01626Y018346D01*
X0163Y018386D01*
X01626D01*
X01622Y018426D01*
X01618Y018386D01*
X01614D01*
X01618Y018346D01*
X01614Y018306D01*
X01618D01*
X01622Y018266D01*
X025984Y018345D02*
X026024Y018385D01*
X026064D01*
X026024Y018425D01*
X026064Y018465D01*
X026024D01*
X025984Y018505D01*
X025944Y018465D01*
X025904D01*
X025944Y018425D01*
X025904Y018385D01*
X025944D01*
X025984Y018345D01*
X021969D02*
X022009Y018385D01*
X022049D01*
X022009Y018425D01*
X022049Y018465D01*
X022009D01*
X021969Y018505D01*
X021929Y018465D01*
X021889D01*
X021929Y018425D01*
X021889Y018385D01*
X021929D01*
X021969Y018345D01*
X01622Y020235D02*
X01626Y020275D01*
X0163D01*
X01626Y020315D01*
X0163Y020355D01*
X01626D01*
X01622Y020395D01*
X01618Y020355D01*
X01614D01*
X01618Y020315D01*
X01614Y020275D01*
X01618D01*
X01622Y020235D01*
X020236D02*
X020276Y020275D01*
X020316D01*
X020276Y020315D01*
X020316Y020355D01*
X020276D01*
X020236Y020395D01*
X020196Y020355D01*
X020156D01*
X020196Y020315D01*
X020156Y020275D01*
X020196D01*
X020236Y020235D01*
X041732Y035629D02*
X041772Y035669D01*
X041812D01*
X041772Y035709D01*
X041812Y035749D01*
X041772D01*
X041732Y035789D01*
X041692Y035749D01*
X041652D01*
X041692Y035709D01*
X041652Y035669D01*
X041692D01*
X041732Y035629D01*
Y031613D02*
X041772Y031653D01*
X041812D01*
X041772Y031693D01*
X041812Y031733D01*
X041772D01*
X041732Y031773D01*
X041692Y031733D01*
X041652D01*
X041692Y031693D01*
X041652Y031653D01*
X041692D01*
X041732Y031613D01*
X045197Y035511D02*
X045237Y035551D01*
X045277D01*
X045237Y035591D01*
X045277Y035631D01*
X045237D01*
X045197Y035671D01*
X045157Y035631D01*
X045117D01*
X045157Y035591D01*
X045117Y035551D01*
X045157D01*
X045197Y035511D01*
Y031495D02*
X045237Y031535D01*
X045277D01*
X045237Y031575D01*
X045277Y031615D01*
X045237D01*
X045197Y031655D01*
X045157Y031615D01*
X045117D01*
X045157Y031575D01*
X045117Y031535D01*
X045157D01*
X045197Y031495D01*
X025668Y024071D02*
X025748Y024151D01*
X025828Y024071D01*
X025748Y023991D01*
X025668Y024071D01*
Y025071D02*
X025748Y025151D01*
X025828Y025071D01*
X025748Y024991D01*
X025668Y025071D01*
Y042071D02*
X025748Y042151D01*
X025828Y042071D01*
X025748Y041991D01*
X025668Y042071D01*
Y026071D02*
X025748Y026151D01*
X025828Y026071D01*
X025748Y025991D01*
X025668Y026071D01*
Y027071D02*
X025748Y027151D01*
X025828Y027071D01*
X025748Y026991D01*
X025668Y027071D01*
Y028071D02*
X025748Y028151D01*
X025828Y028071D01*
X025748Y027991D01*
X025668Y028071D01*
Y029071D02*
X025748Y029151D01*
X025828Y029071D01*
X025748Y028991D01*
X025668Y029071D01*
Y030071D02*
X025748Y030151D01*
X025828Y030071D01*
X025748Y029991D01*
X025668Y030071D01*
Y031071D02*
X025748Y031151D01*
X025828Y031071D01*
X025748Y030991D01*
X025668Y031071D01*
Y032071D02*
X025748Y032151D01*
X025828Y032071D01*
X025748Y031991D01*
X025668Y032071D01*
Y033071D02*
X025748Y033151D01*
X025828Y033071D01*
X025748Y032991D01*
X025668Y033071D01*
Y034071D02*
X025748Y034151D01*
X025828Y034071D01*
X025748Y033991D01*
X025668Y034071D01*
Y035071D02*
X025748Y035151D01*
X025828Y035071D01*
X025748Y034991D01*
X025668Y035071D01*
Y036071D02*
X025748Y036151D01*
X025828Y036071D01*
X025748Y035991D01*
X025668Y036071D01*
Y037071D02*
X025748Y037151D01*
X025828Y037071D01*
X025748Y036991D01*
X025668Y037071D01*
Y038071D02*
X025748Y038151D01*
X025828Y038071D01*
X025748Y037991D01*
X025668Y038071D01*
Y039071D02*
X025748Y039151D01*
X025828Y039071D01*
X025748Y038991D01*
X025668Y039071D01*
Y040071D02*
X025748Y040151D01*
X025828Y040071D01*
X025748Y039991D01*
X025668Y040071D01*
Y041071D02*
X025748Y041151D01*
X025828Y041071D01*
X025748Y040991D01*
X025668Y041071D01*
X015432Y042071D02*
X015512Y042151D01*
X015592Y042071D01*
X015512Y041991D01*
X015432Y042071D01*
Y041071D02*
X015512Y041151D01*
X015592Y041071D01*
X015512Y040991D01*
X015432Y041071D01*
Y040071D02*
X015512Y040151D01*
X015592Y040071D01*
X015512Y039991D01*
X015432Y040071D01*
Y039071D02*
X015512Y039151D01*
X015592Y039071D01*
X015512Y038991D01*
X015432Y039071D01*
Y038071D02*
X015512Y038151D01*
X015592Y038071D01*
X015512Y037991D01*
X015432Y038071D01*
Y037071D02*
X015512Y037151D01*
X015592Y037071D01*
X015512Y036991D01*
X015432Y037071D01*
Y036071D02*
X015512Y036151D01*
X015592Y036071D01*
X015512Y035991D01*
X015432Y036071D01*
Y035071D02*
X015512Y035151D01*
X015592Y035071D01*
X015512Y034991D01*
X015432Y035071D01*
Y034071D02*
X015512Y034151D01*
X015592Y034071D01*
X015512Y033991D01*
X015432Y034071D01*
Y033071D02*
X015512Y033151D01*
X015592Y033071D01*
X015512Y032991D01*
X015432Y033071D01*
Y032071D02*
X015512Y032151D01*
X015592Y032071D01*
X015512Y031991D01*
X015432Y032071D01*
Y031071D02*
X015512Y031151D01*
X015592Y031071D01*
X015512Y030991D01*
X015432Y031071D01*
Y030071D02*
X015512Y030151D01*
X015592Y030071D01*
X015512Y029991D01*
X015432Y030071D01*
Y029071D02*
X015512Y029151D01*
X015592Y029071D01*
X015512Y028991D01*
X015432Y029071D01*
Y028071D02*
X015512Y028151D01*
X015592Y028071D01*
X015512Y027991D01*
X015432Y028071D01*
Y027071D02*
X015512Y027151D01*
X015592Y027071D01*
X015512Y026991D01*
X015432Y027071D01*
Y026071D02*
X015512Y026151D01*
X015592Y026071D01*
X015512Y025991D01*
X015432Y026071D01*
Y025071D02*
X015512Y025151D01*
X015592Y025071D01*
X015512Y024991D01*
X015432Y025071D01*
Y024071D02*
X015512Y024151D01*
X015592Y024071D01*
X015512Y023991D01*
X015432Y024071D01*
X025471Y043227D02*
Y043387D01*
X025631D01*
Y043227D01*
X025471D01*
X025511Y043267D02*
Y043347D01*
X025591D01*
Y043267D01*
X025511D01*
X015629Y043227D02*
Y043387D01*
X015789D01*
Y043227D01*
X015629D01*
X015669Y043267D02*
Y043347D01*
X015749D01*
Y043267D01*
X015669D01*
X025471Y022755D02*
Y022915D01*
X025631D01*
Y022755D01*
X025471D01*
X025511Y022795D02*
Y022875D01*
X025591D01*
Y022795D01*
X025511D01*
X015629Y022755D02*
Y022915D01*
X015789D01*
Y022755D01*
X015629D01*
X015669Y022795D02*
Y022875D01*
X015749D01*
Y022795D01*
X015669D01*
X035901Y041075D02*
X035821Y041235D01*
X035981D01*
X035901Y041075D01*
Y041115D02*
X035861Y041195D01*
X035941D01*
X035901Y041115D01*
X028651Y025725D02*
X028571Y025885D01*
X028731D01*
X028651Y025725D01*
Y025765D02*
X028611Y025845D01*
X028691D01*
X028651Y025765D01*
X047932Y031666D02*
X047972Y031706D01*
X048012D01*
X047972Y031746D01*
X048012Y031786D01*
X047972D01*
X047932Y031826D01*
X047892Y031786D01*
X047852D01*
X047892Y031746D01*
X047852Y031706D01*
X047892D01*
X047932Y031666D01*
Y031706D02*
X047952Y031726D01*
X047972D01*
X047952Y031746D01*
X047972Y031766D01*
X047952D01*
X047932Y031786D01*
X047912Y031766D01*
X047892D01*
X047912Y031746D01*
X047892Y031726D01*
X047912D01*
X047932Y031706D01*
X047882Y026766D02*
X047922Y026806D01*
X047962D01*
X047922Y026846D01*
X047962Y026886D01*
X047922D01*
X047882Y026926D01*
X047842Y026886D01*
X047802D01*
X047842Y026846D01*
X047802Y026806D01*
X047842D01*
X047882Y026766D01*
Y026806D02*
X047902Y026826D01*
X047922D01*
X047902Y026846D01*
X047922Y026866D01*
X047902D01*
X047882Y026886D01*
X047862Y026866D01*
X047842D01*
X047862Y026846D01*
X047842Y026826D01*
X047862D01*
X047882Y026806D01*
Y028016D02*
X047802Y028176D01*
X047962D01*
X047882Y028016D01*
X047932Y029216D02*
X047852Y029376D01*
X048012D01*
X047932Y029216D01*
X047882Y030416D02*
X047802Y030576D01*
X047962D01*
X047882Y030416D01*
X015118Y0124D02*
X015038Y01256D01*
X015198D01*
X015118Y0124D01*
Y01244D02*
X015078Y01252D01*
X015158D01*
X015118Y01244D01*
Y047046D02*
X015038Y047206D01*
X015198D01*
X015118Y047046D01*
Y047086D02*
X015078Y047166D01*
X015158D01*
X015118Y047086D01*
X049764Y0124D02*
X049684Y01256D01*
X049844D01*
X049764Y0124D01*
Y01244D02*
X049724Y01252D01*
X049804D01*
X049764Y01244D01*
Y047046D02*
X049684Y047206D01*
X049844D01*
X049764Y047046D01*
Y047086D02*
X049724Y047166D01*
X049804D01*
X049764Y047086D01*
X0447Y022951D02*
X04474Y023031D01*
X0447Y023111D01*
X04478Y023071D01*
X04486Y023111D01*
X04482Y023031D01*
X04486Y022951D01*
X04478Y022991D01*
X0447Y022951D01*
X04474Y022991D02*
X04476Y023031D01*
X04474Y023071D01*
X04478Y023051D01*
X04482Y023071D01*
X0448Y023031D01*
X04482Y022991D01*
X04478Y023011D01*
X04474Y022991D01*
X02265Y04652D02*
X02269Y0466D01*
X02265Y04668D01*
X02273Y04664D01*
X02281Y04668D01*
X02277Y0466D01*
X02281Y04652D01*
X02273Y04656D01*
X02265Y04652D01*
X02269Y04656D02*
X02271Y0466D01*
X02269Y04664D01*
X02273Y04662D01*
X02277Y04664D01*
X02275Y0466D01*
X02277Y04656D01*
X02273Y04658D01*
X02269Y04656D01*
X039925Y04473D02*
X039965Y04481D01*
X039925Y04489D01*
X040005Y04485D01*
X040085Y04489D01*
X040045Y04481D01*
X040085Y04473D01*
X040005Y04477D01*
X039925Y04473D01*
X039965Y04477D02*
X039985Y04481D01*
X039965Y04485D01*
X040005Y04483D01*
X040045Y04485D01*
X040025Y04481D01*
X040045Y04477D01*
X040005Y04479D01*
X039965Y04477D01*
X02157Y0476D02*
X02161Y04768D01*
X02157Y04776D01*
X02165Y04772D01*
X02173Y04776D01*
X02169Y04768D01*
X02173Y0476D01*
X02165Y04764D01*
X02157Y0476D01*
X02161Y04764D02*
X02163Y04768D01*
X02161Y04772D01*
X02165Y0477D01*
X02169Y04772D01*
X02167Y04768D01*
X02169Y04764D01*
X02165Y04766D01*
X02161Y04764D01*
X04604Y02613D02*
X04608Y02621D01*
X04604Y02629D01*
X04612Y02625D01*
X0462Y02629D01*
X04616Y02621D01*
X0462Y02613D01*
X04612Y02617D01*
X04604Y02613D01*
X04608Y02617D02*
X0461Y02621D01*
X04608Y02625D01*
X04612Y02623D01*
X04616Y02625D01*
X04614Y02621D01*
X04616Y02617D01*
X04612Y02619D01*
X04608Y02617D01*
X01736Y02086D02*
X0174Y02094D01*
X01736Y02102D01*
X01744Y02098D01*
X01752Y02102D01*
X01748Y02094D01*
X01752Y02086D01*
X01744Y0209D01*
X01736Y02086D01*
X0174Y0209D02*
X01742Y02094D01*
X0174Y02098D01*
X01744Y02096D01*
X01748Y02098D01*
X01746Y02094D01*
X01748Y0209D01*
X01744Y02092D01*
X0174Y0209D01*
X0295Y01503D02*
X02954Y01511D01*
X0295Y01519D01*
X02958Y01515D01*
X02966Y01519D01*
X02962Y01511D01*
X02966Y01503D01*
X02958Y01507D01*
X0295Y01503D01*
X02954Y01507D02*
X02956Y01511D01*
X02954Y01515D01*
X02958Y01513D01*
X02962Y01515D01*
X0296Y01511D01*
X02962Y01507D01*
X02958Y01509D01*
X02954Y01507D01*
X015591Y02142D02*
X015631Y0215D01*
X015591Y02158D01*
X015671Y02154D01*
X015751Y02158D01*
X015711Y0215D01*
X015751Y02142D01*
X015671Y02146D01*
X015591Y02142D01*
X015631Y02146D02*
X015651Y0215D01*
X015631Y02154D01*
X015671Y02152D01*
X015711Y02154D01*
X015691Y0215D01*
X015711Y02146D01*
X015671Y02148D01*
X015631Y02146D01*
X04652Y02686D02*
X04656Y02694D01*
X04652Y02702D01*
X0466Y02698D01*
X04668Y02702D01*
X04664Y02694D01*
X04668Y02686D01*
X0466Y0269D01*
X04652Y02686D01*
X04656Y0269D02*
X04658Y02694D01*
X04656Y02698D01*
X0466Y02696D01*
X04664Y02698D01*
X04662Y02694D01*
X04664Y0269D01*
X0466Y02692D01*
X04656Y0269D01*
D54*
X021836Y014488D02*
G03*
X021836Y014488I-00008J0D01*
G01*
X023836D02*
G03*
X023836Y014488I-00008J0D01*
G01*
X044284Y046009D02*
G03*
X044284Y046009I-00008J0D01*
G01*
X046284D02*
G03*
X046284Y046009I-00008J0D01*
G01*
X045284D02*
G03*
X045284Y046009I-00008J0D01*
G01*
X043284D02*
G03*
X043284Y046009I-00008J0D01*
G01*
X042284D02*
G03*
X042284Y046009I-00008J0D01*
G01*
X041284D02*
G03*
X041284Y046009I-00008J0D01*
G01*
X036431Y043455D02*
G03*
X036431Y043455I-00008J0D01*
G01*
X027931D02*
G03*
X027931Y043455I-00008J0D01*
G01*
X036381Y023405D02*
G03*
X036381Y023405I-00008J0D01*
G01*
X027931D02*
G03*
X027931Y023405I-00008J0D01*
G01*
X049215Y041425D02*
G03*
X049215Y041425I-00008J0D01*
G01*
Y040425D02*
G03*
X049215Y040425I-00008J0D01*
G01*
Y039425D02*
G03*
X049215Y039425I-00008J0D01*
G01*
Y037425D02*
G03*
X049215Y037425I-00008J0D01*
G01*
Y036425D02*
G03*
X049215Y036425I-00008J0D01*
G01*
Y038425D02*
G03*
X049215Y038425I-00008J0D01*
G01*
X028576Y014226D02*
G03*
X028576Y014226I-00008J0D01*
G01*
X026576D02*
G03*
X026576Y014226I-00008J0D01*
G01*
X027576D02*
G03*
X027576Y014226I-00008J0D01*
G01*
X029576D02*
G03*
X029576Y014226I-00008J0D01*
G01*
X034271D02*
G03*
X034271Y014226I-00008J0D01*
G01*
X032271D02*
G03*
X032271Y014226I-00008J0D01*
G01*
X033271D02*
G03*
X033271Y014226I-00008J0D01*
G01*
X035271D02*
G03*
X035271Y014226I-00008J0D01*
G01*
X039887D02*
G03*
X039887Y014226I-00008J0D01*
G01*
X037887D02*
G03*
X037887Y014226I-00008J0D01*
G01*
X038887D02*
G03*
X038887Y014226I-00008J0D01*
G01*
X040887D02*
G03*
X040887Y014226I-00008J0D01*
G01*
X045693D02*
G03*
X045693Y014226I-00008J0D01*
G01*
X043693D02*
G03*
X043693Y014226I-00008J0D01*
G01*
X044693D02*
G03*
X044693Y014226I-00008J0D01*
G01*
X046693D02*
G03*
X046693Y014226I-00008J0D01*
G01*
X017505Y014606D02*
G03*
X017505Y014606I-00008J0D01*
G01*
X019505D02*
G03*
X019505Y014606I-00008J0D01*
G01*
D55*
X036391Y043455D02*
G03*
X036391Y043455I-00004J0D01*
G01*
X027891D02*
G03*
X027891Y043455I-00004J0D01*
G01*
X036341Y023405D02*
G03*
X036341Y023405I-00004J0D01*
G01*
X027891D02*
G03*
X027891Y023405I-00004J0D01*
G01*
M02*
