G04*
G04 #@! TF.GenerationSoftware,Altium Limited,Altium Designer,24.9.1 (31)*
G04*
G04 Layer_Physical_Order=2*
G04 Layer_Color=16711680*
%FSTAX24Y24*%
%MOIN*%
G70*
G04*
G04 #@! TF.SameCoordinates,937A2281-D82C-41EB-8C72-0E8F8F28929F*
G04*
G04*
G04 #@! TF.FilePolarity,Positive*
G04*
G01*
G75*
%ADD34C,0.0984*%
%ADD35C,0.1181*%
%ADD36C,0.0787*%
%ADD39C,0.0669*%
%ADD40R,0.0669X0.0669*%
%ADD41C,0.0591*%
%ADD43C,0.0600*%
%ADD44C,0.1614*%
%ADD45O,0.0700X0.0950*%
%ADD46O,0.0700X0.0900*%
%ADD47C,0.1100*%
%ADD48C,0.0630*%
%ADD49R,0.0630X0.0630*%
%ADD50C,0.0886*%
%ADD51R,0.0709X0.0709*%
%ADD52C,0.0500*%
%ADD53R,0.0531X0.0531*%
G36*
X049603Y045934D02*
X049588Y045919D01*
X049491Y045774D01*
X049424Y045613D01*
X04939Y045442D01*
Y045267D01*
X049424Y045096D01*
X049491Y044935D01*
X049588Y04479D01*
X049711Y044666D01*
X049856Y044569D01*
X050017Y044503D01*
X050188Y044468D01*
X050363D01*
X050534Y044503D01*
X050695Y044569D01*
X05084Y044666D01*
X050856Y044682D01*
X050902Y044663D01*
Y031811D01*
X04963D01*
X049592Y031849D01*
X049428Y031959D01*
X049245Y032034D01*
X049051Y032073D01*
X048853D01*
X048659Y032034D01*
X048476Y031959D01*
X048312Y031849D01*
X048274Y031811D01*
X047402D01*
X047244Y031969D01*
Y037992D01*
X02874D01*
X027564Y039168D01*
X027567Y039176D01*
X027606Y03937D01*
Y039568D01*
X027567Y039762D01*
X027492Y039944D01*
X027382Y040109D01*
X027242Y040249D01*
X027078Y040359D01*
X026895Y040434D01*
X026701Y040473D01*
X026503D01*
X026309Y040434D01*
X026133Y040361D01*
X02567D01*
Y045981D01*
X049584D01*
X049603Y045934D01*
D02*
G37*
G36*
X025118Y042067D02*
Y040118D01*
X02561Y039627D01*
X025598Y039568D01*
Y03937D01*
X025637Y039176D01*
X025712Y038993D01*
X025822Y038829D01*
X025962Y038689D01*
X026126Y038579D01*
X026309Y038504D01*
X026503Y038465D01*
X026701D01*
X02676Y038477D01*
X028346Y03689D01*
X035748D01*
Y036772D01*
X048543Y023976D01*
Y020437D01*
X015055D01*
X015031Y020481D01*
X015102Y020587D01*
X015178Y02077D01*
X015217Y020964D01*
Y021162D01*
X015178Y021356D01*
X015102Y021539D01*
X014992Y021703D01*
X014853Y021843D01*
X014688Y021953D01*
X014505Y022028D01*
X014311Y022067D01*
X014114D01*
X01392Y022028D01*
X013737Y021953D01*
X013631Y021881D01*
X013586Y021905D01*
Y042638D01*
X013626Y042677D01*
X024508D01*
X025118Y042067D01*
D02*
G37*
%LPC*%
G36*
X045354Y045535D02*
X042738D01*
X042603Y045522D01*
X042473Y045482D01*
X042353Y045418D01*
X042248Y045332D01*
X041671Y044756D01*
X041585Y044651D01*
X041521Y044531D01*
X041482Y044401D01*
X041469Y044266D01*
Y04339D01*
X041419Y043373D01*
X041351Y043461D01*
X041237Y043549D01*
X041104Y043604D01*
X040961Y043623D01*
X040818Y043604D01*
X040685Y043549D01*
X040571Y043461D01*
X040483Y043347D01*
X040428Y043214D01*
X040409Y043071D01*
Y042871D01*
X040428Y042729D01*
X040483Y042595D01*
X040571Y042481D01*
X040685Y042394D01*
X040818Y042338D01*
X040961Y04232D01*
X041104Y042338D01*
X041237Y042394D01*
X041351Y042481D01*
X041439Y042595D01*
X041477Y042688D01*
X041531Y042688D01*
X041585Y042587D01*
X041671Y042482D01*
X041776Y042396D01*
X041896Y042332D01*
X042026Y042292D01*
X042161Y042279D01*
X042296Y042292D01*
X042426Y042332D01*
X042546Y042396D01*
X042651Y042482D01*
X042737Y042587D01*
X042801Y042706D01*
X042802Y042711D01*
X042855Y042714D01*
X042883Y042645D01*
X042971Y042531D01*
X043085Y042444D01*
X043218Y042388D01*
X043361Y04237D01*
X043504Y042388D01*
X043637Y042444D01*
X043751Y042531D01*
X043839Y042645D01*
X043894Y042779D01*
X043913Y042921D01*
Y043121D01*
X043894Y043264D01*
X043839Y043397D01*
X043751Y043511D01*
X043637Y043599D01*
X043504Y043654D01*
X043361Y043673D01*
X043218Y043654D01*
X043085Y043599D01*
X042971Y043511D01*
X042903Y043423D01*
X042853Y04344D01*
Y043979D01*
X043024Y04415D01*
X045068D01*
X045394Y043824D01*
X045499Y043738D01*
X045618Y043674D01*
X045748Y043634D01*
X045883Y043621D01*
X046131D01*
X046247Y043573D01*
X046391Y043544D01*
X046538D01*
X046682Y043573D01*
X046818Y043629D01*
X046941Y043711D01*
X047045Y043815D01*
X047126Y043938D01*
X047183Y044073D01*
X047211Y044218D01*
Y044365D01*
X047183Y044509D01*
X047126Y044645D01*
X047045Y044767D01*
X046941Y044871D01*
X046818Y044953D01*
X046682Y045009D01*
X046538Y045038D01*
X046391D01*
X046247Y045009D01*
X046238Y045006D01*
X04617D01*
X045844Y045332D01*
X045739Y045418D01*
X045619Y045482D01*
X045489Y045522D01*
X045354Y045535D01*
D02*
G37*
G36*
X037898Y044222D02*
X037772D01*
X037648Y044198D01*
X037532Y04415D01*
X037427Y04408D01*
X037338Y043991D01*
X037268Y043886D01*
X037219Y043769D01*
X037195Y043646D01*
Y04352D01*
X037219Y043396D01*
X037268Y04328D01*
X037338Y043175D01*
X037427Y043086D01*
X037532Y043016D01*
X037648Y042968D01*
X037772Y042943D01*
X037898D01*
X038021Y042968D01*
X038138Y043016D01*
X038242Y043086D01*
X038332Y043175D01*
X038402Y04328D01*
X03845Y043396D01*
X038474Y04352D01*
Y043646D01*
X03845Y043769D01*
X038402Y043886D01*
X038332Y043991D01*
X038242Y04408D01*
X038138Y04415D01*
X038021Y044198D01*
X037898Y044222D01*
D02*
G37*
G36*
X028921Y04439D02*
X028767Y044374D01*
X028618Y044329D01*
X028482Y044256D01*
X028362Y044158D01*
X028263Y044038D01*
X02819Y043901D01*
X028145Y043753D01*
X02813Y043598D01*
X028145Y043444D01*
X02819Y043296D01*
X028263Y043159D01*
X028362Y043039D01*
X028378Y043023D01*
X028497Y042925D01*
X028634Y042852D01*
X028783Y042807D01*
X028937Y042791D01*
X029091Y042807D01*
X02924Y042852D01*
X029377Y042925D01*
X029496Y043023D01*
X029595Y043143D01*
X029668Y04328D01*
X029713Y043428D01*
X029728Y043583D01*
X029713Y043737D01*
X029668Y043885D01*
X029595Y044022D01*
X029496Y044142D01*
X029481Y044158D01*
X029361Y044256D01*
X029224Y044329D01*
X029076Y044374D01*
X028921Y04439D01*
D02*
G37*
G36*
X044561Y043698D02*
X044418Y043679D01*
X044285Y043624D01*
X044171Y043536D01*
X044083Y043422D01*
X044028Y043289D01*
X044009Y043146D01*
Y042896D01*
X044028Y042754D01*
X044083Y04262D01*
X044171Y042506D01*
X044285Y042419D01*
X044418Y042363D01*
X044561Y042345D01*
X044704Y042363D01*
X044837Y042419D01*
X044951Y042506D01*
X045039Y04262D01*
X045094Y042754D01*
X045113Y042896D01*
Y043146D01*
X045094Y043289D01*
X045039Y043422D01*
X044951Y043536D01*
X044837Y043624D01*
X044704Y043679D01*
X044561Y043698D01*
D02*
G37*
G36*
X039761Y043648D02*
X039618Y043629D01*
X039485Y043574D01*
X039371Y043486D01*
X039283Y043372D01*
X039228Y043239D01*
X039209Y043096D01*
Y042846D01*
X039228Y042703D01*
X039283Y04257D01*
X039371Y042456D01*
X039485Y042369D01*
X039618Y042313D01*
X039761Y042295D01*
X039904Y042313D01*
X040037Y042369D01*
X040151Y042456D01*
X040239Y04257D01*
X040294Y042703D01*
X040313Y042846D01*
Y043096D01*
X040294Y043239D01*
X040239Y043372D01*
X040151Y043486D01*
X040037Y043574D01*
X039904Y043629D01*
X039761Y043648D01*
D02*
G37*
G36*
X027323Y04415D02*
X02622D01*
Y043047D01*
Y042047D01*
X027323D01*
Y043047D01*
Y04415D01*
D02*
G37*
G36*
X049051Y040473D02*
X048853D01*
X048659Y040434D01*
X048476Y040359D01*
X048312Y040249D01*
X048172Y040109D01*
X048062Y039944D01*
X047987Y039762D01*
X047948Y039568D01*
Y03937D01*
X047987Y039176D01*
X048062Y038993D01*
X048172Y038829D01*
X048312Y038689D01*
X048476Y038579D01*
X048659Y038504D01*
X048853Y038465D01*
X049051D01*
X049245Y038504D01*
X049428Y038579D01*
X049592Y038689D01*
X049732Y038829D01*
X049842Y038993D01*
X049917Y039176D01*
X049956Y03937D01*
Y039568D01*
X049917Y039762D01*
X049842Y039944D01*
X049732Y040109D01*
X049592Y040249D01*
X049428Y040359D01*
X049245Y040434D01*
X049051Y040473D01*
D02*
G37*
G36*
X049313Y033186D02*
X049183D01*
X049056Y033152D01*
X048943Y033087D01*
X04885Y032994D01*
X048785Y032881D01*
X048751Y032754D01*
Y032624D01*
X048785Y032497D01*
X04885Y032384D01*
X048943Y032291D01*
X049056Y032226D01*
X049183Y032192D01*
X049313D01*
X04944Y032226D01*
X049553Y032291D01*
X049646Y032384D01*
X049711Y032497D01*
X049745Y032624D01*
Y032754D01*
X049711Y032881D01*
X049646Y032994D01*
X049553Y033087D01*
X04944Y033152D01*
X049313Y033186D01*
D02*
G37*
G36*
X037382Y028799D02*
X036319D01*
Y027736D01*
X037382D01*
Y028799D01*
D02*
G37*
G36*
X023759Y035319D02*
X023629D01*
X023504Y035285D01*
X023392Y03522D01*
X0233Y035129D01*
X023236Y035016D01*
X023202Y034891D01*
Y034762D01*
X023236Y034636D01*
X0233Y034524D01*
X023392Y034433D01*
X023504Y034368D01*
X023562Y034352D01*
Y0343D01*
X023504Y034285D01*
X023392Y03422D01*
X0233Y034129D01*
X023236Y034016D01*
X023202Y033891D01*
Y033762D01*
X023236Y033636D01*
X0233Y033524D01*
X023392Y033433D01*
X023504Y033368D01*
X023562Y033352D01*
Y0333D01*
X023504Y033285D01*
X023392Y03322D01*
X0233Y033129D01*
X023236Y033016D01*
X023202Y032891D01*
Y032762D01*
X023236Y032636D01*
X0233Y032524D01*
X023392Y032433D01*
X023504Y032368D01*
X023562Y032352D01*
Y032301D01*
X023504Y032285D01*
X023392Y03222D01*
X0233Y032129D01*
X023236Y032016D01*
X023202Y031891D01*
Y031762D01*
X023236Y031636D01*
X0233Y031524D01*
X023392Y031433D01*
X023504Y031368D01*
X023562Y031352D01*
Y0313D01*
X023504Y031285D01*
X023392Y03122D01*
X0233Y031129D01*
X023236Y031016D01*
X023202Y030891D01*
Y030762D01*
X023236Y030636D01*
X0233Y030524D01*
X023392Y030433D01*
X023424Y030414D01*
X023423Y030364D01*
X023371Y030336D01*
X023281Y030262D01*
X023207Y030172D01*
X023153Y03007D01*
X023119Y029958D01*
X023107Y029843D01*
X023119Y029727D01*
X023153Y029615D01*
X023207Y029513D01*
X023281Y029423D01*
X023371Y029349D01*
X023446Y029309D01*
X023447Y029252D01*
X023392Y02922D01*
X0233Y029129D01*
X023236Y029016D01*
X023202Y028891D01*
Y028762D01*
X023236Y028636D01*
X0233Y028524D01*
X023392Y028433D01*
X023504Y028368D01*
X023562Y028352D01*
Y0283D01*
X023504Y028285D01*
X023392Y02822D01*
X0233Y028129D01*
X023236Y028016D01*
X023202Y027891D01*
Y027762D01*
X023236Y027636D01*
X0233Y027524D01*
X023392Y027433D01*
X023504Y027368D01*
X023562Y027352D01*
Y027301D01*
X023504Y027285D01*
X023392Y02722D01*
X0233Y027129D01*
X023236Y027016D01*
X023202Y026891D01*
Y026762D01*
X023236Y026636D01*
X0233Y026524D01*
X023392Y026433D01*
X023504Y026368D01*
X023562Y026352D01*
Y0263D01*
X023504Y026285D01*
X023392Y02622D01*
X0233Y026129D01*
X023236Y026016D01*
X023202Y025891D01*
Y025762D01*
X023236Y025636D01*
X0233Y025524D01*
X023392Y025433D01*
X023504Y025368D01*
X023562Y025352D01*
Y025301D01*
X023504Y025285D01*
X023392Y02522D01*
X0233Y025129D01*
X023236Y025016D01*
X023202Y024891D01*
Y024762D01*
X023236Y024636D01*
X0233Y024524D01*
X023392Y024433D01*
X023504Y024368D01*
X023562Y024352D01*
Y0243D01*
X023504Y024285D01*
X023392Y02422D01*
X0233Y024129D01*
X023236Y024016D01*
X023202Y023891D01*
Y023762D01*
X023236Y023636D01*
X0233Y023524D01*
X023392Y023433D01*
X023504Y023368D01*
X023629Y023334D01*
X023759D01*
X023884Y023368D01*
X023996Y023433D01*
X024088Y023524D01*
X024153Y023636D01*
X024186Y023762D01*
Y023891D01*
X024153Y024016D01*
X024088Y024129D01*
X023996Y02422D01*
X023884Y024285D01*
X023826Y0243D01*
Y024352D01*
X023884Y024368D01*
X023996Y024433D01*
X024088Y024524D01*
X024153Y024636D01*
X024186Y024762D01*
Y024891D01*
X024153Y025016D01*
X024088Y025129D01*
X023996Y02522D01*
X023884Y025285D01*
X023826Y025301D01*
Y025352D01*
X023884Y025368D01*
X023996Y025433D01*
X024088Y025524D01*
X024153Y025636D01*
X024186Y025762D01*
Y025891D01*
X024153Y026016D01*
X024088Y026129D01*
X023996Y02622D01*
X023884Y026285D01*
X023826Y0263D01*
Y026352D01*
X023884Y026368D01*
X023996Y026433D01*
X024088Y026524D01*
X024153Y026636D01*
X024186Y026762D01*
Y026891D01*
X024153Y027016D01*
X024088Y027129D01*
X023996Y02722D01*
X023884Y027285D01*
X023826Y027301D01*
Y027352D01*
X023884Y027368D01*
X023996Y027433D01*
X024088Y027524D01*
X024153Y027636D01*
X024186Y027762D01*
Y027891D01*
X024153Y028016D01*
X024088Y028129D01*
X023996Y02822D01*
X023884Y028285D01*
X023826Y0283D01*
Y028352D01*
X023884Y028368D01*
X023996Y028433D01*
X024088Y028524D01*
X024153Y028636D01*
X024186Y028762D01*
Y028891D01*
X024153Y029016D01*
X024088Y029129D01*
X024017Y029199D01*
X024038Y029249D01*
X024442D01*
X024556Y029135D01*
Y026504D01*
X024567Y026389D01*
X024601Y026277D01*
X024656Y026175D01*
X02473Y026085D01*
X02584Y024974D01*
X02593Y0249D01*
X026033Y024845D01*
X026144Y024812D01*
X02626Y0248D01*
X02626Y0248D01*
X031904D01*
X032019Y024812D01*
X032131Y024845D01*
X032233Y0249D01*
X032323Y024974D01*
X033027Y025678D01*
X036444D01*
X036463Y025632D01*
X036425Y025594D01*
X036355Y025473D01*
X036319Y025338D01*
Y025198D01*
X036355Y025063D01*
X036425Y024941D01*
X036524Y024842D01*
X036645Y024772D01*
X03678Y024736D01*
X03692D01*
X037056Y024772D01*
X037177Y024842D01*
X037276Y024941D01*
X037346Y025063D01*
X037382Y025198D01*
Y025338D01*
X037346Y025473D01*
X037276Y025594D01*
X037177Y025693D01*
X037097Y025739D01*
Y025797D01*
X037177Y025842D01*
X037276Y025941D01*
X037346Y026063D01*
X037382Y026198D01*
Y026338D01*
X037346Y026473D01*
X037276Y026594D01*
X037177Y026693D01*
X037086Y026746D01*
X037062Y026765D01*
X036959Y02682D01*
X036848Y026854D01*
X036732Y026865D01*
X032781D01*
X032666Y026854D01*
X032554Y02682D01*
X032452Y026765D01*
X032362Y026691D01*
X031658Y025987D01*
X028595D01*
X028591Y025993D01*
X02861Y026059D01*
X028701Y026107D01*
X028821Y026206D01*
X029615Y027D01*
X029713Y027119D01*
X029786Y027256D01*
X029831Y027405D01*
X029846Y027559D01*
X029846Y027559D01*
Y031997D01*
X029846Y031997D01*
X029831Y032151D01*
X029786Y0323D01*
X029713Y032437D01*
X029615Y032557D01*
X029615Y032557D01*
X028923Y033248D01*
X028803Y033347D01*
X028666Y03342D01*
X028518Y033465D01*
X028363Y03348D01*
X0265D01*
X026346Y033465D01*
X026197Y03342D01*
X02606Y033347D01*
X025941Y033248D01*
X025842Y033129D01*
X025769Y032992D01*
X025724Y032843D01*
X025709Y032689D01*
X025724Y032535D01*
X025769Y032386D01*
X025842Y032249D01*
X025941Y03213D01*
X02606Y032031D01*
X026113Y032003D01*
X02611Y031948D01*
X025962Y031849D01*
X025822Y031709D01*
X025712Y031544D01*
X025637Y031362D01*
X025598Y031168D01*
Y03097D01*
X025637Y030776D01*
X025712Y030593D01*
X025822Y030429D01*
X025962Y030289D01*
X026126Y030179D01*
X026309Y030104D01*
X026503Y030065D01*
X026701D01*
X026895Y030104D01*
X027078Y030179D01*
X027242Y030289D01*
X027382Y030429D01*
X027492Y030593D01*
X027567Y030776D01*
X027606Y03097D01*
Y031168D01*
X027567Y031362D01*
X027492Y031544D01*
X027382Y031709D01*
X027243Y031848D01*
X027243Y03186D01*
X027255Y031898D01*
X028036D01*
X028264Y031669D01*
Y027887D01*
X027934Y027556D01*
X026615D01*
X02646Y027541D01*
X026312Y027496D01*
X026175Y027423D01*
X026055Y027325D01*
X025957Y027205D01*
X025884Y027068D01*
X025839Y02692D01*
X025823Y026765D01*
X025827Y026733D01*
X025781Y026711D01*
X025743Y02675D01*
Y029381D01*
X025731Y029497D01*
X025698Y029608D01*
X025643Y029711D01*
X025569Y029801D01*
X025108Y030262D01*
X025018Y030336D01*
X024915Y030391D01*
X024804Y030425D01*
X024688Y030436D01*
X024065D01*
X024046Y030482D01*
X024088Y030524D01*
X024153Y030636D01*
X024186Y030762D01*
Y030891D01*
X024153Y031016D01*
X024088Y031129D01*
X023996Y03122D01*
X023884Y031285D01*
X023826Y0313D01*
Y031352D01*
X023884Y031368D01*
X023996Y031433D01*
X024088Y031524D01*
X024153Y031636D01*
X024186Y031762D01*
Y031891D01*
X024153Y032016D01*
X024088Y032129D01*
X023996Y03222D01*
X023884Y032285D01*
X023826Y032301D01*
Y032352D01*
X023884Y032368D01*
X023996Y032433D01*
X024088Y032524D01*
X024153Y032636D01*
X024186Y032762D01*
Y032891D01*
X024153Y033016D01*
X024088Y033129D01*
X023996Y03322D01*
X023884Y033285D01*
X023826Y0333D01*
Y033352D01*
X023884Y033368D01*
X023996Y033433D01*
X024088Y033524D01*
X024153Y033636D01*
X024186Y033762D01*
Y033891D01*
X024153Y034016D01*
X024088Y034129D01*
X023996Y03422D01*
X023884Y034285D01*
X023826Y0343D01*
Y034352D01*
X023884Y034368D01*
X023996Y034433D01*
X024088Y034524D01*
X024153Y034636D01*
X024186Y034762D01*
Y034891D01*
X024153Y035016D01*
X024088Y035129D01*
X023996Y03522D01*
X023884Y035285D01*
X023759Y035319D01*
D02*
G37*
G36*
X014907Y028335D02*
X014778D01*
X014653Y028301D01*
X01454Y028236D01*
X014449Y028145D01*
X014384Y028032D01*
X01435Y027907D01*
Y027778D01*
X014384Y027653D01*
X014449Y02754D01*
X01454Y027449D01*
X014653Y027384D01*
X014711Y027368D01*
Y027317D01*
X014653Y027301D01*
X01454Y027236D01*
X014449Y027145D01*
X014384Y027032D01*
X01435Y026907D01*
Y026778D01*
X014384Y026653D01*
X014449Y02654D01*
X01454Y026449D01*
X014653Y026384D01*
X014711Y026368D01*
Y026317D01*
X014653Y026301D01*
X01454Y026236D01*
X014449Y026145D01*
X014384Y026032D01*
X01435Y025907D01*
Y025778D01*
X014384Y025653D01*
X014449Y02554D01*
X01454Y025449D01*
X014653Y025384D01*
X014711Y025368D01*
Y025317D01*
X014653Y025301D01*
X01454Y025236D01*
X014449Y025145D01*
X014384Y025032D01*
X01435Y024907D01*
Y024778D01*
X014384Y024653D01*
X014449Y02454D01*
X01454Y024449D01*
X014653Y024384D01*
X01476Y024355D01*
X014754Y024305D01*
X01438D01*
Y02338D01*
X015305D01*
Y024305D01*
X014932D01*
X014925Y024355D01*
X015032Y024384D01*
X015145Y024449D01*
X015236Y02454D01*
X015301Y024653D01*
X015335Y024778D01*
Y024907D01*
X015301Y025032D01*
X015236Y025145D01*
X015145Y025236D01*
X015032Y025301D01*
X014975Y025317D01*
Y025368D01*
X015032Y025384D01*
X015145Y025449D01*
X015236Y02554D01*
X015301Y025653D01*
X015335Y025778D01*
Y025907D01*
X015301Y026032D01*
X015236Y026145D01*
X015145Y026236D01*
X015032Y026301D01*
X014975Y026317D01*
Y026368D01*
X015032Y026384D01*
X015145Y026449D01*
X015236Y02654D01*
X015301Y026653D01*
X015335Y026778D01*
Y026907D01*
X015301Y027032D01*
X015236Y027145D01*
X015145Y027236D01*
X015032Y027301D01*
X014975Y027317D01*
Y027368D01*
X015032Y027384D01*
X015145Y027449D01*
X015236Y02754D01*
X015301Y027653D01*
X015335Y027778D01*
Y027907D01*
X015301Y028032D01*
X015236Y028145D01*
X015145Y028236D01*
X015032Y028301D01*
X014907Y028335D01*
D02*
G37*
G36*
X023759Y041318D02*
X023629D01*
X023504Y041285D01*
X023392Y04122D01*
X0233Y041129D01*
X023236Y041016D01*
X023202Y040891D01*
Y040762D01*
X023236Y040636D01*
X0233Y040524D01*
X023392Y040433D01*
X023504Y040368D01*
X023562Y040352D01*
Y0403D01*
X023504Y040285D01*
X023392Y04022D01*
X0233Y040129D01*
X023236Y040016D01*
X023202Y039891D01*
Y039762D01*
X023236Y039636D01*
X0233Y039524D01*
X023392Y039433D01*
X023504Y039368D01*
X023562Y039352D01*
Y0393D01*
X023504Y039285D01*
X023392Y03922D01*
X0233Y039129D01*
X023236Y039016D01*
X023202Y038891D01*
Y038762D01*
X023236Y038636D01*
X0233Y038524D01*
X023392Y038433D01*
X023504Y038368D01*
X023562Y038352D01*
Y0383D01*
X023504Y038285D01*
X023392Y03822D01*
X0233Y038129D01*
X023236Y038016D01*
X023202Y037891D01*
Y037762D01*
X023236Y037636D01*
X0233Y037524D01*
X023392Y037433D01*
X023424Y037414D01*
X023423Y037364D01*
X023371Y037336D01*
X023281Y037262D01*
X023207Y037172D01*
X023153Y03707D01*
X023119Y036958D01*
X023107Y036843D01*
X023119Y036727D01*
X023153Y036615D01*
X023207Y036513D01*
X023281Y036423D01*
X023371Y036349D01*
X023474Y036294D01*
X023585Y036261D01*
X023701Y036249D01*
X025784D01*
X026271Y035761D01*
X026361Y035688D01*
X026464Y035633D01*
X026575Y035599D01*
X026691Y035588D01*
X034478D01*
X046446Y02362D01*
Y02243D01*
X0464Y022411D01*
X046354Y022457D01*
X046237Y022524D01*
X046107Y022559D01*
X045972D01*
X045842Y022524D01*
X045725Y022457D01*
X04563Y022362D01*
X045562Y022245D01*
X045528Y022115D01*
Y02198D01*
X045562Y02185D01*
X04563Y021733D01*
X045725Y021638D01*
X045842Y02157D01*
X045972Y021535D01*
X046107D01*
X046237Y02157D01*
X046354Y021638D01*
X046449Y021733D01*
X046469Y021768D01*
X046519Y021767D01*
X046546Y021718D01*
X04662Y021628D01*
X04671Y021554D01*
X046812Y021499D01*
X046924Y021465D01*
X047039Y021454D01*
X047155Y021465D01*
X047266Y021499D01*
X047369Y021554D01*
X047459Y021628D01*
X047533Y021718D01*
X047588Y02182D01*
X047621Y021931D01*
X047633Y022047D01*
Y023866D01*
X047621Y023982D01*
X047588Y024093D01*
X047533Y024195D01*
X047459Y024285D01*
X035144Y036601D01*
X035054Y036674D01*
X034951Y036729D01*
X03484Y036763D01*
X034724Y036775D01*
X026937D01*
X026449Y037262D01*
X026359Y037336D01*
X026257Y037391D01*
X026145Y037425D01*
X02603Y037436D01*
X024065D01*
X024046Y037482D01*
X024088Y037524D01*
X024153Y037636D01*
X024186Y037762D01*
Y037891D01*
X024153Y038016D01*
X024088Y038129D01*
X023996Y03822D01*
X023884Y038285D01*
X023826Y0383D01*
Y038352D01*
X023884Y038368D01*
X023996Y038433D01*
X024088Y038524D01*
X024153Y038636D01*
X024186Y038762D01*
Y038891D01*
X024153Y039016D01*
X024088Y039129D01*
X023996Y03922D01*
X023884Y039285D01*
X023826Y0393D01*
Y039352D01*
X023884Y039368D01*
X023996Y039433D01*
X024088Y039524D01*
X024153Y039636D01*
X024186Y039762D01*
Y039891D01*
X024153Y040016D01*
X024088Y040129D01*
X023996Y04022D01*
X023884Y040285D01*
X023826Y0403D01*
Y040352D01*
X023884Y040368D01*
X023996Y040433D01*
X024088Y040524D01*
X024153Y040636D01*
X024186Y040762D01*
Y040891D01*
X024153Y041016D01*
X024088Y041129D01*
X023996Y04122D01*
X023884Y041285D01*
X023759Y041318D01*
D02*
G37*
G36*
X016015Y042452D02*
X014849D01*
X014733Y042441D01*
X014622Y042407D01*
X01452Y042352D01*
X01443Y042278D01*
X014356Y042188D01*
X014301Y042086D01*
X014267Y041974D01*
X014256Y041859D01*
X014267Y041743D01*
X014301Y041632D01*
X014356Y041529D01*
X01443Y041439D01*
X01452Y041365D01*
X014594Y041325D01*
X014595Y041268D01*
X01454Y041236D01*
X014449Y041145D01*
X014384Y041032D01*
X01435Y040907D01*
Y040778D01*
X014384Y040653D01*
X014449Y04054D01*
X01454Y040449D01*
X014653Y040384D01*
X014711Y040368D01*
Y040317D01*
X014653Y040301D01*
X01454Y040236D01*
X014449Y040145D01*
X014384Y040032D01*
X01435Y039907D01*
Y039778D01*
X014384Y039653D01*
X014449Y03954D01*
X01454Y039449D01*
X014653Y039384D01*
X014711Y039368D01*
Y039317D01*
X014653Y039301D01*
X01454Y039236D01*
X014449Y039145D01*
X014384Y039032D01*
X01435Y038907D01*
Y038778D01*
X014384Y038653D01*
X014449Y03854D01*
X01454Y038449D01*
X014653Y038384D01*
X014711Y038368D01*
Y038317D01*
X014653Y038301D01*
X01454Y038236D01*
X014449Y038145D01*
X014384Y038032D01*
X01435Y037907D01*
Y037778D01*
X014384Y037653D01*
X014449Y03754D01*
X01454Y037449D01*
X014653Y037384D01*
X014711Y037368D01*
Y037317D01*
X014653Y037301D01*
X01454Y037236D01*
X014449Y037145D01*
X014384Y037032D01*
X01435Y036907D01*
Y036778D01*
X014384Y036653D01*
X014449Y03654D01*
X01454Y036449D01*
X014653Y036384D01*
X014711Y036368D01*
Y036317D01*
X014653Y036301D01*
X01454Y036236D01*
X014449Y036145D01*
X014384Y036032D01*
X01435Y035907D01*
Y035778D01*
X014384Y035653D01*
X014449Y03554D01*
X01454Y035449D01*
X014653Y035384D01*
X014711Y035368D01*
Y035317D01*
X014653Y035301D01*
X01454Y035236D01*
X014449Y035145D01*
X014384Y035032D01*
X01435Y034907D01*
Y034778D01*
X014384Y034653D01*
X014449Y03454D01*
X01454Y034449D01*
X014653Y034384D01*
X014711Y034368D01*
Y034317D01*
X014653Y034301D01*
X01454Y034236D01*
X014449Y034145D01*
X014384Y034032D01*
X01435Y033907D01*
Y033778D01*
X014384Y033653D01*
X014449Y03354D01*
X01454Y033449D01*
X014653Y033384D01*
X014711Y033368D01*
Y033317D01*
X014653Y033301D01*
X01454Y033236D01*
X014449Y033145D01*
X014384Y033032D01*
X01435Y032907D01*
Y032778D01*
X014384Y032653D01*
X014449Y03254D01*
X01454Y032449D01*
X014653Y032384D01*
X014711Y032368D01*
Y032317D01*
X014653Y032301D01*
X01454Y032236D01*
X014449Y032145D01*
X014384Y032032D01*
X01435Y031907D01*
Y031778D01*
X014384Y031653D01*
X014449Y03154D01*
X01454Y031449D01*
X014653Y031384D01*
X014711Y031368D01*
Y031317D01*
X014653Y031301D01*
X01454Y031236D01*
X014449Y031145D01*
X014384Y031032D01*
X01435Y030907D01*
Y030778D01*
X014384Y030653D01*
X014449Y03054D01*
X01454Y030449D01*
X014653Y030384D01*
X014711Y030368D01*
Y030317D01*
X014653Y030301D01*
X01454Y030236D01*
X014449Y030145D01*
X014384Y030032D01*
X01435Y029907D01*
Y029778D01*
X014384Y029653D01*
X014449Y02954D01*
X01454Y029449D01*
X014653Y029384D01*
X014778Y02935D01*
X014907D01*
X015032Y029384D01*
X015145Y029449D01*
X015236Y02954D01*
X015301Y029653D01*
X015335Y029778D01*
Y029907D01*
X015301Y030032D01*
X015236Y030145D01*
X015145Y030236D01*
X015032Y030301D01*
X014975Y030317D01*
Y030368D01*
X015032Y030384D01*
X015145Y030449D01*
X015236Y03054D01*
X015301Y030653D01*
X015335Y030778D01*
Y030907D01*
X015301Y031032D01*
X015236Y031145D01*
X015145Y031236D01*
X015032Y031301D01*
X014975Y031317D01*
Y031368D01*
X015032Y031384D01*
X015145Y031449D01*
X015236Y03154D01*
X015301Y031653D01*
X015335Y031778D01*
Y031907D01*
X015301Y032032D01*
X015236Y032145D01*
X015145Y032236D01*
X015032Y032301D01*
X014975Y032317D01*
Y032368D01*
X015032Y032384D01*
X015145Y032449D01*
X015236Y03254D01*
X015301Y032653D01*
X015335Y032778D01*
Y032907D01*
X015301Y033032D01*
X015236Y033145D01*
X015145Y033236D01*
X015032Y033301D01*
X014975Y033317D01*
Y033368D01*
X015032Y033384D01*
X015145Y033449D01*
X015236Y03354D01*
X015301Y033653D01*
X015335Y033778D01*
Y033907D01*
X015301Y034032D01*
X015236Y034145D01*
X015145Y034236D01*
X015032Y034301D01*
X014975Y034317D01*
Y034368D01*
X015032Y034384D01*
X015145Y034449D01*
X015236Y03454D01*
X015301Y034653D01*
X015335Y034778D01*
Y034907D01*
X015301Y035032D01*
X015236Y035145D01*
X015145Y035236D01*
X015032Y035301D01*
X014975Y035317D01*
Y035368D01*
X015032Y035384D01*
X015145Y035449D01*
X015236Y03554D01*
X015301Y035653D01*
X015335Y035778D01*
Y035907D01*
X015301Y036032D01*
X015236Y036145D01*
X015145Y036236D01*
X015032Y036301D01*
X014975Y036317D01*
Y036368D01*
X015032Y036384D01*
X015145Y036449D01*
X015236Y03654D01*
X015301Y036653D01*
X015335Y036778D01*
Y036907D01*
X015301Y037032D01*
X015236Y037145D01*
X015145Y037236D01*
X015032Y037301D01*
X014975Y037317D01*
Y037368D01*
X015032Y037384D01*
X015145Y037449D01*
X015236Y03754D01*
X015301Y037653D01*
X015335Y037778D01*
Y037907D01*
X015301Y038032D01*
X015236Y038145D01*
X015145Y038236D01*
X015032Y038301D01*
X014975Y038317D01*
Y038368D01*
X015032Y038384D01*
X015145Y038449D01*
X015236Y03854D01*
X015301Y038653D01*
X015335Y038778D01*
Y038907D01*
X015301Y039032D01*
X015236Y039145D01*
X015145Y039236D01*
X015032Y039301D01*
X014975Y039317D01*
Y039368D01*
X015032Y039384D01*
X015145Y039449D01*
X015236Y03954D01*
X015301Y039653D01*
X015335Y039778D01*
Y039907D01*
X015301Y040032D01*
X015236Y040145D01*
X015145Y040236D01*
X015032Y040301D01*
X014975Y040317D01*
Y040368D01*
X015032Y040384D01*
X015145Y040449D01*
X015236Y04054D01*
X015301Y040653D01*
X015335Y040778D01*
Y040907D01*
X015301Y041032D01*
X015236Y041145D01*
X015166Y041215D01*
X015186Y041265D01*
X01577D01*
X015981Y041053D01*
Y0218D01*
X015993Y021684D01*
X016027Y021573D01*
X016081Y02147D01*
X016155Y02138D01*
X016616Y020919D01*
X016706Y020845D01*
X016809Y02079D01*
X01692Y020757D01*
X017036Y020745D01*
X043331D01*
X043446Y020757D01*
X043558Y02079D01*
X04366Y020845D01*
X04375Y020919D01*
X044367Y021535D01*
X044551D01*
Y021752D01*
X044588Y02182D01*
X044621Y021931D01*
X044633Y022047D01*
X044621Y022163D01*
X044588Y022274D01*
X044551Y022342D01*
Y022559D01*
X044335D01*
X044266Y022595D01*
X044155Y022629D01*
X044039Y022641D01*
X043924Y022629D01*
X043812Y022595D01*
X043744Y022559D01*
X043528D01*
Y022375D01*
X043085Y021932D01*
X017282D01*
X017168Y022046D01*
Y041299D01*
X017157Y041415D01*
X017123Y041526D01*
X017068Y041629D01*
X016994Y041719D01*
X016435Y042278D01*
X016345Y042352D01*
X016242Y042407D01*
X016131Y042441D01*
X016015Y042452D01*
D02*
G37*
%LPD*%
D34*
X045883Y044313D02*
X046442D01*
X045354Y044843D02*
X045883Y044313D01*
X046442D02*
X046465Y044291D01*
X042161Y044266D02*
X042738Y044843D01*
X042161Y042971D02*
Y044266D01*
X042738Y044843D02*
X045354D01*
D35*
X0265Y032689D02*
X028363D01*
X029055Y027559D02*
Y031997D01*
X028261Y026765D02*
X029055Y027559D01*
X028363Y032689D02*
X029055Y031997D01*
X026615Y026765D02*
X028261D01*
X028921Y043598D02*
X028937Y043583D01*
D36*
X025149Y026504D02*
X02626Y025394D01*
X031904D01*
X032781Y026272D01*
X036732D01*
X025149Y026504D02*
Y029381D01*
X017036Y021339D02*
X043331D01*
X016015Y041859D02*
X016575Y041299D01*
Y0218D02*
Y041299D01*
Y0218D02*
X017036Y021339D01*
X014849Y041859D02*
X016015D01*
X043331Y021339D02*
X044039Y022047D01*
X02603Y036843D02*
X026691Y036181D01*
X034724D02*
X047039Y023866D01*
X026691Y036181D02*
X034724D01*
X023701Y029843D02*
X024688D01*
X025149Y029381D01*
X023701Y036843D02*
X02603D01*
X047039Y022047D02*
Y023866D01*
D39*
X03685Y025268D02*
D03*
Y026268D02*
D03*
Y027268D02*
D03*
D40*
Y028268D02*
D03*
D41*
X023694Y023826D02*
D03*
Y024826D02*
D03*
Y025826D02*
D03*
Y026826D02*
D03*
Y027826D02*
D03*
Y028826D02*
D03*
Y029826D02*
D03*
Y030826D02*
D03*
Y031826D02*
D03*
Y032826D02*
D03*
Y033826D02*
D03*
Y035826D02*
D03*
Y039826D02*
D03*
Y036826D02*
D03*
Y037826D02*
D03*
Y038826D02*
D03*
Y040826D02*
D03*
Y034826D02*
D03*
X014843Y024843D02*
D03*
Y025843D02*
D03*
Y038843D02*
D03*
Y037843D02*
D03*
Y036843D02*
D03*
Y035843D02*
D03*
Y034843D02*
D03*
Y039843D02*
D03*
Y041843D02*
D03*
Y040843D02*
D03*
Y033843D02*
D03*
Y032843D02*
D03*
Y031843D02*
D03*
Y030843D02*
D03*
Y029843D02*
D03*
Y028843D02*
D03*
Y027843D02*
D03*
Y026843D02*
D03*
D43*
X049248Y032689D02*
D03*
X0265Y037748D02*
D03*
Y032689D02*
D03*
X049201Y037748D02*
D03*
X050276Y045354D02*
D03*
D44*
X048952Y031069D02*
D03*
Y039469D02*
D03*
X026602Y031069D02*
D03*
Y039469D02*
D03*
X014213Y021063D02*
D03*
X050276D02*
D03*
X014213Y045354D02*
D03*
D45*
X044561Y043021D02*
D03*
X039761Y042971D02*
D03*
D46*
X043361Y043021D02*
D03*
X042161Y042971D02*
D03*
X040961D02*
D03*
D47*
X048465Y044291D02*
D03*
X046465D02*
D03*
D48*
X047039Y022047D02*
D03*
X045039D02*
D03*
X046039D02*
D03*
D49*
X044039D02*
D03*
D50*
X037835Y043583D02*
D03*
X028937D02*
D03*
D51*
X026772Y042598D02*
D03*
Y043598D02*
D03*
D52*
X026615Y026765D02*
D03*
D53*
X023694Y041826D02*
D03*
X014843Y023843D02*
D03*
M02*
