G04*
G04 #@! TF.GenerationSoftware,Altium Limited,Altium Designer,21.9.2 (33)*
G04*
G04 Layer_Color=16711935*
%FSTAX24Y24*%
%MOIN*%
G70*
G04*
G04 #@! TF.SameCoordinates,353BE734-12B4-41FD-ADCD-0B3A32D8510F*
G04*
G04*
G04 #@! TF.FilePolarity,Positive*
G04*
G01*
G75*
%ADD15C,0.0050*%
%ADD16C,0.0080*%
G36*
X04439Y020276D02*
X044583D01*
Y019842D01*
X04439D01*
Y020276D01*
D02*
G37*
G36*
X04489D02*
X045083D01*
Y019842D01*
X04489D01*
Y020276D01*
D02*
G37*
G36*
X04539D02*
X045583D01*
Y019842D01*
X04539D01*
Y020276D01*
D02*
G37*
G36*
X04589D02*
X046083D01*
Y019842D01*
X04589D01*
Y020276D01*
D02*
G37*
G36*
X04439Y022283D02*
X044583D01*
Y02185D01*
X04439D01*
Y022283D01*
D02*
G37*
G36*
X04489D02*
X045083D01*
Y02185D01*
X04489D01*
Y022283D01*
D02*
G37*
G36*
X04539D02*
X045583D01*
Y02185D01*
X04539D01*
Y022283D01*
D02*
G37*
G36*
X04589D02*
X046083D01*
Y02185D01*
X04589D01*
Y022283D01*
D02*
G37*
D15*
X026142Y022244D02*
Y043898D01*
X015118Y022244D02*
X026142D01*
X015118D02*
Y043898D01*
X026142D01*
D16*
X044291Y021614D02*
Y021811D01*
X046181D01*
Y021614D02*
Y021811D01*
X044291Y020315D02*
X046181D01*
Y021614D01*
X044291Y020315D02*
Y021614D01*
M02*
