G04*
G04 #@! TF.GenerationSoftware,Altium Limited,Altium Designer,21.9.2 (33)*
G04*
G04 Layer_Color=255*
%FSTAX24Y24*%
%MOIN*%
G70*
G04*
G04 #@! TF.SameCoordinates,BECF87E7-01DC-432B-977C-EE80B0DAAE55*
G04*
G04*
G04 #@! TF.FilePolarity,Positive*
G04*
G01*
G75*
%ADD23R,0.0236X0.0512*%
%ADD43C,0.0591*%
%ADD44C,0.0800*%
%ADD45R,0.0800X0.0800*%
%ADD46C,0.0551*%
%ADD47R,0.0630X0.0630*%
%ADD48P,0.0704X8X22.5*%
%ADD49C,0.0650*%
%ADD50C,0.0886*%
%ADD51R,0.0630X0.0630*%
%ADD52C,0.0630*%
%ADD53C,0.0600*%
%ADD54C,0.1575*%
%ADD55O,0.0787X0.0787*%
%ADD56C,0.0598*%
%ADD57R,0.0598X0.0598*%
%ADD58C,0.0750*%
D23*
X033792Y021999D02*
D03*
X034292D02*
D03*
X034792D02*
D03*
X035292D02*
D03*
Y024086D02*
D03*
X034792D02*
D03*
X034292D02*
D03*
X033792D02*
D03*
D43*
X011882Y01598D02*
D03*
Y01498D02*
D03*
X013051Y018638D02*
D03*
X014051D02*
D03*
D44*
X036898Y021378D02*
D03*
D45*
X039898D02*
D03*
D46*
X039602Y0275D02*
D03*
Y023484D02*
D03*
X029945Y018677D02*
D03*
X025929D02*
D03*
X024724Y018547D02*
D03*
X020709D02*
D03*
X015343Y018567D02*
D03*
X019358D02*
D03*
X039917Y047445D02*
D03*
Y043429D02*
D03*
X0395Y034811D02*
D03*
Y038827D02*
D03*
X03948Y033362D02*
D03*
Y029346D02*
D03*
X037315Y043894D02*
D03*
X033299D02*
D03*
X036386Y039323D02*
D03*
X03237D02*
D03*
D47*
X031791Y01789D02*
D03*
X020622Y015256D02*
D03*
X034559D02*
D03*
X026583Y015299D02*
D03*
D48*
X039383Y041118D02*
D03*
X037287Y041098D02*
D03*
X035142D02*
D03*
D49*
X040383Y041118D02*
D03*
X038287Y041098D02*
D03*
X036142D02*
D03*
D50*
X034602Y027697D02*
D03*
Y036594D02*
D03*
D51*
X040118Y019417D02*
D03*
X044213Y02837D02*
D03*
X044071Y036378D02*
D03*
X044161Y022346D02*
D03*
X044102Y015437D02*
D03*
D52*
X040118Y018417D02*
D03*
X044213Y03337D02*
D03*
Y03237D02*
D03*
Y03137D02*
D03*
Y02937D02*
D03*
Y03037D02*
D03*
X044071Y037378D02*
D03*
Y038378D02*
D03*
X023622Y015256D02*
D03*
X021622D02*
D03*
X022622D02*
D03*
X039559D02*
D03*
X038559D02*
D03*
X037559D02*
D03*
X035559D02*
D03*
X036559D02*
D03*
X044161Y025346D02*
D03*
Y023346D02*
D03*
Y024346D02*
D03*
X044102Y018437D02*
D03*
Y016437D02*
D03*
Y017437D02*
D03*
X028583Y015299D02*
D03*
X027583D02*
D03*
X029583D02*
D03*
X030583D02*
D03*
X031583D02*
D03*
D53*
X033163Y046078D02*
D03*
X038063Y046028D02*
D03*
X036813D02*
D03*
X035613Y046078D02*
D03*
X034413Y046028D02*
D03*
X022927Y02488D02*
D03*
X030177Y04023D02*
D03*
X022127Y02248D02*
D03*
X030577D02*
D03*
X022127Y04253D02*
D03*
X030627D02*
D03*
D54*
X01165Y047232D02*
D03*
X046303Y04722D02*
D03*
X046287Y012591D02*
D03*
X011634Y012579D02*
D03*
D55*
X018827Y03872D02*
D03*
Y03972D02*
D03*
Y04172D02*
D03*
Y03772D02*
D03*
Y04072D02*
D03*
Y03672D02*
D03*
X012837Y026716D02*
D03*
Y022716D02*
D03*
Y025716D02*
D03*
Y024716D02*
D03*
Y023716D02*
D03*
Y027716D02*
D03*
Y028716D02*
D03*
Y030716D02*
D03*
Y031716D02*
D03*
Y032716D02*
D03*
Y029716D02*
D03*
Y033716D02*
D03*
Y035716D02*
D03*
Y041716D02*
D03*
Y040716D02*
D03*
Y039716D02*
D03*
Y038716D02*
D03*
Y034716D02*
D03*
Y037716D02*
D03*
Y036716D02*
D03*
X018827Y02672D02*
D03*
Y02271D02*
D03*
Y02572D02*
D03*
Y02472D02*
D03*
Y02372D02*
D03*
Y02772D02*
D03*
Y03272D02*
D03*
Y03572D02*
D03*
Y03472D02*
D03*
Y03372D02*
D03*
Y03172D02*
D03*
Y03072D02*
D03*
Y02972D02*
D03*
Y02872D02*
D03*
D56*
X043555Y043854D02*
D03*
Y042854D02*
D03*
Y041854D02*
D03*
Y040854D02*
D03*
X044555D02*
D03*
Y041854D02*
D03*
Y042854D02*
D03*
D57*
Y043854D02*
D03*
D58*
X015276Y015402D02*
D03*
X013276D02*
D03*
X018583Y015398D02*
D03*
X016583D02*
D03*
M02*
