G04*
G04 #@! TF.GenerationSoftware,Altium Limited,Altium Designer,24.9.1 (31)*
G04*
G04 Layer_Color=2752767*
%FSTAX43Y43*%
%MOMM*%
G71*
G04*
G04 #@! TF.SameCoordinates,C11C2FBF-64C9-4446-828B-1E4E51444DE6*
G04*
G04*
G04 #@! TF.FilePolarity,Positive*
G04*
G01*
G75*
%ADD52C,0.051*%
%ADD53C,0.068*%
%ADD54C,0.034*%
D52*
X01157Y0043437D02*
X0115497Y0043843D01*
X0115903D01*
X01157Y0043437D01*
Y0043538D02*
X0115598Y0043742D01*
X0115802D01*
X01157Y0043538D01*
Y0040897D02*
X0115497Y0041303D01*
X0115903D01*
X01157Y0040897D01*
Y0040998D02*
X0115598Y0041202D01*
X0115802D01*
X01157Y0040998D01*
Y0038357D02*
X0115497Y0038763D01*
X0115903D01*
X01157Y0038357D01*
Y0038458D02*
X0115598Y0038662D01*
X0115802D01*
X01157Y0038458D01*
X0068803Y0046448D02*
Y0046347D01*
X0069006D01*
Y0046448D01*
X0069107D01*
Y0046652D01*
X0069006D01*
Y0046753D01*
X0068803D01*
Y0046652D01*
X0068701D01*
Y0046448D01*
X0068803D01*
Y0043908D02*
Y0043807D01*
X0069006D01*
Y0043908D01*
X0069107D01*
Y0044112D01*
X0069006D01*
Y0044213D01*
X0068803D01*
Y0044112D01*
X0068701D01*
Y0043908D01*
X0068803D01*
Y0041368D02*
Y0041267D01*
X0069006D01*
Y0041368D01*
X0069107D01*
Y0041572D01*
X0069006D01*
Y0041673D01*
X0068803D01*
Y0041572D01*
X0068701D01*
Y0041368D01*
X0068803D01*
Y0038828D02*
Y0038727D01*
X0069006D01*
Y0038828D01*
X0069107D01*
Y0039032D01*
X0069006D01*
Y0039133D01*
X0068803D01*
Y0039032D01*
X0068701D01*
Y0038828D01*
X0068803D01*
X0078358Y0032798D02*
Y0032697D01*
X0078562D01*
Y0032798D01*
X0078663D01*
Y0033002D01*
X0078562D01*
Y0033103D01*
X0078358D01*
Y0033002D01*
X0078257D01*
Y0032798D01*
X0078358D01*
X0080898D02*
Y0032697D01*
X0081102D01*
Y0032798D01*
X0081203D01*
Y0033002D01*
X0081102D01*
Y0033103D01*
X0080898D01*
Y0033002D01*
X0080797D01*
Y0032798D01*
X0080898D01*
X0083438D02*
Y0032697D01*
X0083642D01*
Y0032798D01*
X0083743D01*
Y0033002D01*
X0083642D01*
Y0033103D01*
X0083438D01*
Y0033002D01*
X0083337D01*
Y0032798D01*
X0083438D01*
X0085978D02*
Y0032697D01*
X0086182D01*
Y0032798D01*
X0086283D01*
Y0033002D01*
X0086182D01*
Y0033103D01*
X0085978D01*
Y0033002D01*
X0085877D01*
Y0032798D01*
X0085978D01*
Y0035338D02*
Y0035237D01*
X0086182D01*
Y0035338D01*
X0086283D01*
Y0035542D01*
X0086182D01*
Y0035643D01*
X0085978D01*
Y0035542D01*
X0085877D01*
Y0035338D01*
X0085978D01*
X0083438D02*
Y0035237D01*
X0083642D01*
Y0035338D01*
X0083743D01*
Y0035542D01*
X0083642D01*
Y0035643D01*
X0083438D01*
Y0035542D01*
X0083337D01*
Y0035338D01*
X0083438D01*
X0080898D02*
Y0035237D01*
X0081102D01*
Y0035338D01*
X0081203D01*
Y0035542D01*
X0081102D01*
Y0035643D01*
X0080898D01*
Y0035542D01*
X0080797D01*
Y0035338D01*
X0080898D01*
X0078358D02*
Y0035237D01*
X0078562D01*
Y0035338D01*
X0078663D01*
Y0035542D01*
X0078562D01*
Y0035643D01*
X0078358D01*
Y0035542D01*
X0078257D01*
Y0035338D01*
X0078358D01*
X011549Y0058167D02*
X0115592Y0058268D01*
X0115693D01*
X0115592Y005837D01*
X0115693Y0058472D01*
X0115592D01*
X011549Y0058573D01*
X0115388Y0058472D01*
X0115287D01*
X0115388Y005837D01*
X0115287Y0058268D01*
X0115388D01*
X011549Y0058167D01*
X005771Y0071017D02*
X0057812Y0071118D01*
X0057913D01*
X0057812Y007122D01*
X0057913Y0071322D01*
X0057812D01*
X005771Y0071423D01*
X0057608Y0071322D01*
X0057507D01*
X0057608Y007122D01*
X0057507Y0071118D01*
X0057608D01*
X005771Y0071017D01*
Y0058167D02*
X0057812Y0058268D01*
X0057913D01*
X0057812Y005837D01*
X0057913Y0058472D01*
X0057812D01*
X005771Y0058573D01*
X0057608Y0058472D01*
X0057507D01*
X0057608Y005837D01*
X0057507Y0058268D01*
X0057608D01*
X005771Y0058167D01*
X0114535Y0054052D02*
X0114636Y0054255D01*
X0114535Y0054458D01*
X0114738Y0054357D01*
X0114941Y0054458D01*
X011484Y0054255D01*
X0114941Y0054052D01*
X0114738Y0054153D01*
X0114535Y0054052D01*
Y0075388D02*
X0114636Y0075591D01*
X0114535Y0075794D01*
X0114738Y0075693D01*
X0114941Y0075794D01*
X011484Y0075591D01*
X0114941Y0075388D01*
X0114738Y0075489D01*
X0114535Y0075388D01*
X0057766Y0054052D02*
X0057867Y0054255D01*
X0057766Y0054458D01*
X0057969Y0054357D01*
X0058172Y0054458D01*
X0058071Y0054255D01*
X0058172Y0054052D01*
X0057969Y0054153D01*
X0057766Y0054052D01*
Y0075388D02*
X0057867Y0075591D01*
X0057766Y0075794D01*
X0057969Y0075693D01*
X0058172Y0075794D01*
X0058071Y0075591D01*
X0058172Y0075388D01*
X0057969Y0075489D01*
X0057766Y0075388D01*
X011537Y0071017D02*
X0115472Y0071118D01*
X0115573D01*
X0115472Y007122D01*
X0115573Y0071322D01*
X0115472D01*
X011537Y0071423D01*
X0115268Y0071322D01*
X0115167D01*
X0115268Y007122D01*
X0115167Y0071118D01*
X0115268D01*
X011537Y0071017D01*
X011559Y0088397D02*
X0115692Y0088498D01*
X0115793D01*
X0115692Y00886D01*
X0115793Y0088702D01*
X0115692D01*
X011559Y0088803D01*
X0115488Y0088702D01*
X0115387D01*
X0115488Y00886D01*
X0115387Y0088498D01*
X0115488D01*
X011559Y0088397D01*
X005781Y0101247D02*
X0057912Y0101348D01*
X0058013D01*
X0057912Y010145D01*
X0058013Y0101552D01*
X0057912D01*
X005781Y0101653D01*
X0057708Y0101552D01*
X0057607D01*
X0057708Y010145D01*
X0057607Y0101348D01*
X0057708D01*
X005781Y0101247D01*
Y0088397D02*
X0057912Y0088498D01*
X0058013D01*
X0057912Y00886D01*
X0058013Y0088702D01*
X0057912D01*
X005781Y0088803D01*
X0057708Y0088702D01*
X0057607D01*
X0057708Y00886D01*
X0057607Y0088498D01*
X0057708D01*
X005781Y0088397D01*
X0114635Y0084282D02*
X0114736Y0084485D01*
X0114635Y0084688D01*
X0114838Y0084587D01*
X0115041Y0084688D01*
X011494Y0084485D01*
X0115041Y0084282D01*
X0114838Y0084383D01*
X0114635Y0084282D01*
Y0105618D02*
X0114736Y0105821D01*
X0114635Y0106024D01*
X0114838Y0105923D01*
X0115041Y0106024D01*
X011494Y0105821D01*
X0115041Y0105618D01*
X0114838Y0105719D01*
X0114635Y0105618D01*
X0057866Y0084282D02*
X0057967Y0084485D01*
X0057866Y0084688D01*
X0058069Y0084587D01*
X0058272Y0084688D01*
X0058171Y0084485D01*
X0058272Y0084282D01*
X0058069Y0084383D01*
X0057866Y0084282D01*
Y0105618D02*
X0057967Y0105821D01*
X0057866Y0106024D01*
X0058069Y0105923D01*
X0058272Y0106024D01*
X0058171Y0105821D01*
X0058272Y0105618D01*
X0058069Y0105719D01*
X0057866Y0105618D01*
X011547Y0101247D02*
X0115572Y0101348D01*
X0115673D01*
X0115572Y010145D01*
X0115673Y0101552D01*
X0115572D01*
X011547Y0101653D01*
X0115368Y0101552D01*
X0115267D01*
X0115368Y010145D01*
X0115267Y0101348D01*
X0115368D01*
X011547Y0101247D01*
X010431Y0116457D02*
X0104107Y0116863D01*
X0104513D01*
X010431Y0116457D01*
X0101059D02*
Y0116863D01*
X0101465D01*
Y0116457D01*
X0101059D01*
X010116Y0116558D02*
Y0116762D01*
X0101364D01*
Y0116558D01*
X010116D01*
X0098011Y011633D02*
Y0116736D01*
X0098417D01*
Y011633D01*
X0098011D01*
X0098112Y0116431D02*
Y0116635D01*
X0098316D01*
Y0116431D01*
X0098112D01*
X0094963Y011633D02*
Y0116736D01*
X0095369D01*
Y011633D01*
X0094963D01*
X0095064Y0116431D02*
Y0116635D01*
X0095268D01*
Y0116431D01*
X0095064D01*
X0092118Y011633D02*
X0091915Y0116736D01*
X0092321D01*
X0092118Y011633D01*
X0063267Y0116417D02*
Y0116823D01*
X0063673D01*
Y0116417D01*
X0063267D01*
X0085867D02*
Y0116823D01*
X0086273D01*
Y0116417D01*
X0085867D01*
X0100967Y0034877D02*
X0101068D01*
X010117Y0034978D01*
X0101272Y0034877D01*
X0101373D01*
Y0034978D01*
X0101272Y003508D01*
X0101373Y0035182D01*
Y0035283D01*
X0101272D01*
X010117Y0035182D01*
X0101068Y0035283D01*
X0100967D01*
Y0035182D01*
X0101068Y003508D01*
X0100967Y0034978D01*
Y0034877D01*
X0106047D02*
X0106148D01*
X010625Y0034978D01*
X0106352Y0034877D01*
X0106453D01*
Y0034978D01*
X0106352Y003508D01*
X0106453Y0035182D01*
Y0035283D01*
X0106352D01*
X010625Y0035182D01*
X0106148Y0035283D01*
X0106047D01*
Y0035182D01*
X0106148Y003508D01*
X0106047Y0034978D01*
Y0034877D01*
X0103507D02*
X0103608D01*
X010371Y0034978D01*
X0103812Y0034877D01*
X0103913D01*
Y0034978D01*
X0103812Y003508D01*
X0103913Y0035182D01*
Y0035283D01*
X0103812D01*
X010371Y0035182D01*
X0103608Y0035283D01*
X0103507D01*
Y0035182D01*
X0103608Y003508D01*
X0103507Y0034978D01*
Y0034877D01*
X0098427D02*
X0098528D01*
X009863Y0034978D01*
X0098732Y0034877D01*
X0098833D01*
Y0034978D01*
X0098732Y003508D01*
X0098833Y0035182D01*
Y0035283D01*
X0098732D01*
X009863Y0035182D01*
X0098528Y0035283D01*
X0098427D01*
Y0035182D01*
X0098528Y003508D01*
X0098427Y0034978D01*
Y0034877D01*
X0095887D02*
X0095988D01*
X009609Y0034978D01*
X0096192Y0034877D01*
X0096293D01*
Y0034978D01*
X0096192Y003508D01*
X0096293Y0035182D01*
Y0035283D01*
X0096192D01*
X009609Y0035182D01*
X0095988Y0035283D01*
X0095887D01*
Y0035182D01*
X0095988Y003508D01*
X0095887Y0034978D01*
Y0034877D01*
X0093347D02*
X0093448D01*
X009355Y0034978D01*
X0093652Y0034877D01*
X0093753D01*
Y0034978D01*
X0093652Y003508D01*
X0093753Y0035182D01*
Y0035283D01*
X0093652D01*
X009355Y0035182D01*
X0093448Y0035283D01*
X0093347D01*
Y0035182D01*
X0093448Y003508D01*
X0093347Y0034978D01*
Y0034877D01*
X0027387Y0029677D02*
X0027488Y002988D01*
X0027387Y0030083D01*
X002759Y0029982D01*
X0027793Y0030083D01*
X0027692Y002988D01*
X0027793Y0029677D01*
X002759Y0029778D01*
X0027387Y0029677D01*
X0118877Y0029697D02*
X0118978Y00299D01*
X0118877Y0030103D01*
X011908Y0030002D01*
X0119283Y0030103D01*
X0119182Y00299D01*
X0119283Y0029697D01*
X011908Y0029798D01*
X0118877Y0029697D01*
X0118977Y0121177D02*
X0119078Y012138D01*
X0118977Y0121583D01*
X011918Y0121482D01*
X0119383Y0121583D01*
X0119282Y012138D01*
X0119383Y0121177D01*
X011918Y0121278D01*
X0118977Y0121177D01*
X0027397Y0121197D02*
X0027498Y01214D01*
X0027397Y0121603D01*
X00276Y0121502D01*
X0027803Y0121603D01*
X0027702Y01214D01*
X0027803Y0121197D01*
X00276Y0121298D01*
X0027397Y0121197D01*
X0109137Y011694D02*
X010934Y0117143D01*
X0109543Y011694D01*
X010934Y0116737D01*
X0109137Y011694D01*
X0114217D02*
X011442Y0117143D01*
X0114623Y011694D01*
X011442Y0116737D01*
X0114217Y011694D01*
D53*
X0048958Y0073101D02*
G03*
X0048958Y0073101I-0000203J0D01*
G01*
Y0075641D02*
G03*
X0048958Y0075641I-0000203J0D01*
G01*
Y0078181D02*
G03*
X0048958Y0078181I-0000203J0D01*
G01*
Y0080721D02*
G03*
X0048958Y0080721I-0000203J0D01*
G01*
Y0085801D02*
G03*
X0048958Y0085801I-0000203J0D01*
G01*
Y0088341D02*
G03*
X0048958Y0088341I-0000203J0D01*
G01*
Y0090881D02*
G03*
X0048958Y0090881I-0000203J0D01*
G01*
Y0083261D02*
G03*
X0048958Y0083261I-0000203J0D01*
G01*
Y0070561D02*
G03*
X0048958Y0070561I-0000203J0D01*
G01*
Y0060401D02*
G03*
X0048958Y0060401I-0000203J0D01*
G01*
Y0062941D02*
G03*
X0048958Y0062941I-0000203J0D01*
G01*
Y0065481D02*
G03*
X0048958Y0065481I-0000203J0D01*
G01*
Y0057835D02*
G03*
X0048958Y0057835I-0000203J0D01*
G01*
Y0068021D02*
G03*
X0048958Y0068021I-0000203J0D01*
G01*
X0033743Y009341D02*
G03*
X0033743Y009341I-0000203J0D01*
G01*
Y009595D02*
G03*
X0033743Y009595I-0000203J0D01*
G01*
Y008833D02*
G03*
X0033743Y008833I-0000203J0D01*
G01*
Y009849D02*
G03*
X0033743Y009849I-0000203J0D01*
G01*
Y010103D02*
G03*
X0033743Y010103I-0000203J0D01*
G01*
Y010357D02*
G03*
X0033743Y010357I-0000203J0D01*
G01*
Y010611D02*
G03*
X0033743Y010611I-0000203J0D01*
G01*
Y009087D02*
G03*
X0033743Y009087I-0000203J0D01*
G01*
Y008579D02*
G03*
X0033743Y008579I-0000203J0D01*
G01*
Y007563D02*
G03*
X0033743Y007563I-0000203J0D01*
G01*
Y008325D02*
G03*
X0033743Y008325I-0000203J0D01*
G01*
Y008071D02*
G03*
X0033743Y008071I-0000203J0D01*
G01*
Y007817D02*
G03*
X0033743Y007817I-0000203J0D01*
G01*
Y007309D02*
G03*
X0033743Y007309I-0000203J0D01*
G01*
Y007055D02*
G03*
X0033743Y007055I-0000203J0D01*
G01*
Y006039D02*
G03*
X0033743Y006039I-0000203J0D01*
G01*
Y006293D02*
G03*
X0033743Y006293I-0000203J0D01*
G01*
Y006547D02*
G03*
X0033743Y006547I-0000203J0D01*
G01*
Y005785D02*
G03*
X0033743Y005785I-0000203J0D01*
G01*
Y006801D02*
G03*
X0033743Y006801I-0000203J0D01*
G01*
X0048958Y0093421D02*
G03*
X0048958Y0093421I-0000203J0D01*
G01*
Y0103581D02*
G03*
X0048958Y0103581I-0000203J0D01*
G01*
Y0095961D02*
G03*
X0048958Y0095961I-0000203J0D01*
G01*
Y0106121D02*
G03*
X0048958Y0106121I-0000203J0D01*
G01*
Y0101041D02*
G03*
X0048958Y0101041I-0000203J0D01*
G01*
Y0098501D02*
G03*
X0048958Y0098501I-0000203J0D01*
G01*
X0059113Y011417D02*
G03*
X0059113Y011417I-0000203J0D01*
G01*
Y011671D02*
G03*
X0059113Y011671I-0000203J0D01*
G01*
X0054873Y011421D02*
G03*
X0054873Y011421I-0000203J0D01*
G01*
Y011675D02*
G03*
X0054873Y011675I-0000203J0D01*
G01*
X0053933Y006218D02*
G03*
X0053933Y006218I-0000203J0D01*
G01*
X0048046Y0052569D02*
G03*
X0048046Y0052569I-0000203J0D01*
G01*
X0040703Y005265D02*
G03*
X0040703Y005265I-0000203J0D01*
G01*
D54*
X0053832Y006218D02*
G03*
X0053832Y006218I-0000102J0D01*
G01*
X0047944Y0052569D02*
G03*
X0047944Y0052569I-0000102J0D01*
G01*
X0040602Y005265D02*
G03*
X0040602Y005265I-0000102J0D01*
G01*
M02*
