M48
;Layer_Color=9474304
;FILE_FORMAT=2:4
INCH,LZ
;TYPE=PLATED
T1F00S00C0.0236
T2F00S00C0.0276
T3F00S00C0.0280
T4F00S00C0.0300
T5F00S00C0.0315
T6F00S00C0.0350
T7F00S00C0.0394
T8F00S00C0.0400
T9F00S00C0.0402
T10F00S00C0.0433
T11F00S00C0.0472
T12F00S00C0.0591
T13F00S00C0.1378
%
T01
X039602Y023484
Y0275
X03948Y029346
X029945Y018677
X025929
X024724Y018547
X020709
X019358Y018567
X015343
X03237Y039323
X036386
X0395Y038827
Y034811
X03948Y033362
X039917Y043429
X037315Y043894
X033299
X039917Y047445
T02
X011882Y01498
Y01598
X013051Y018638
X014051
T03
X03294Y026795
X04292Y029681
X022756Y022768
X01624Y02368
X01523Y024356
X011287Y035224
X01972Y03816
X01957Y04148
X01767Y04291
X028155Y035985
X0278Y035344
X02706Y03314
X03115Y03808
X03399Y03471
X03948Y03256
X03995Y03201
X04209Y041389
T04
X022127Y02248
X030577
X030627Y04253
X022127
T05
X013276Y015402
X015276
X016583Y015398
X018583
X020622Y015256
X021622
X022622
X023622
X026583Y015299
X027583
X028583
X029583
X030583
X031583
X034559Y015256
X035559
X036559
X037559
X038559
X039559
X044102Y015437
Y016437
Y017437
Y018437
X044161Y022346
Y023346
Y024346
Y025346
X044213Y02837
Y02937
Y03037
Y03137
Y03237
Y03337
X044071Y036378
Y037378
Y038378
T06
X036898Y021378
X039898
T07
X018827Y02271
Y02372
Y02472
Y02572
Y02672
Y02772
Y02872
Y02972
Y03072
X012837Y030716
Y029716
Y028716
Y027716
Y026716
Y025716
Y024716
Y023716
Y022716
Y031716
Y032716
Y033716
Y034716
Y035716
Y036716
Y037716
Y038716
Y039716
Y040716
Y041716
X018827Y04172
Y04072
Y03972
Y03872
Y03772
Y03672
Y03572
Y03472
Y03372
Y03272
Y03172
X034413Y046028
X035613Y046078
X036813Y046028
T08
X035142Y041098
X036142
X037287
X038287
X039383Y041118
X040383
T09
X043555Y040854
Y041854
Y042854
Y043854
X044555
Y042854
Y041854
Y040854
T10
X031791Y01789
X040118Y018417
Y019417
T11
X033163Y046078
X038063Y046028
T12
X034602Y027697
Y036594
T13
X011634Y012579
X046287Y012591
X022927Y02488
X030177Y04023
X046303Y04722
X01165Y047232
M30
