G04*
G04 #@! TF.GenerationSoftware,Altium Limited,Altium Designer,21.9.2 (33)*
G04*
G04 Layer_Color=16711935*
%FSTAX24Y24*%
%MOIN*%
G70*
G04*
G04 #@! TF.SameCoordinates,BECF87E7-01DC-432B-977C-EE80B0DAAE55*
G04*
G04*
G04 #@! TF.FilePolarity,Positive*
G04*
G01*
G75*
%ADD19C,0.0080*%
G36*
X033889Y021822D02*
X033696D01*
Y022255D01*
X033889D01*
Y021822D01*
D02*
G37*
G36*
X034389D02*
X034196D01*
Y022255D01*
X034389D01*
Y021822D01*
D02*
G37*
G36*
X034889D02*
X034696D01*
Y022255D01*
X034889D01*
Y021822D01*
D02*
G37*
G36*
X035389D02*
X035196D01*
Y022255D01*
X035389D01*
Y021822D01*
D02*
G37*
G36*
X033889Y02383D02*
X033696D01*
Y024263D01*
X033889D01*
Y02383D01*
D02*
G37*
G36*
X034389D02*
X034196D01*
Y024263D01*
X034389D01*
Y02383D01*
D02*
G37*
G36*
X034889D02*
X034696D01*
Y024263D01*
X034889D01*
Y02383D01*
D02*
G37*
G36*
X035389D02*
X035196D01*
Y024263D01*
X035389D01*
Y02383D01*
D02*
G37*
D19*
X035487Y022295D02*
Y022492D01*
X033598Y022295D02*
X035487D01*
X033598D02*
Y022492D01*
Y023791D02*
X035487D01*
X033598Y022492D02*
Y023791D01*
X035487Y022492D02*
Y023791D01*
M02*
