M48
;Layer_Color=9474304
;FILE_FORMAT=2:4
INCH,LZ
;TYPE=PLATED
T01F00S00C0.0280
T02F00S00C0.0300
T03F00S00C0.0315
T04F00S00C0.0394
T05F00S00C0.0400
T06F00S00C0.0402
T07F00S00C0.0433
T08F00S00C0.0450
T09F00S00C0.0500
T10F00S00C0.0591
T11F00S00C0.1378
%
T01
X015945Y020728
X018836Y020696
X021154Y02448
T02
X045469Y02298
X045421Y028039
X02272
Y02298
X02276Y034882
Y039941
X045461
X045508Y034882
T03
X036831Y013811
X037831
X038831
X039831
X040831
X041831
T04
X019195Y02277
Y02378
Y02478
Y02578
Y02678
Y02778
Y02878
Y02978
Y03078
X013205Y030776
Y029776
Y028776
Y027776
Y026776
Y025776
Y024776
Y023776
Y022776
Y031776
Y032776
Y033776
Y034776
Y035776
Y036776
Y037776
Y038776
Y039776
Y040776
Y041776
X019195Y04178
Y04078
Y03978
Y03878
Y03778
Y03678
Y03578
Y03478
Y03378
Y03278
Y03178
X021524Y044965
Y045965
X023193Y045949
Y044949
T05
X037467Y045879
X038667
X039867Y045929
T06
X027128Y015327
X03089Y013953
Y012953
X03189
X03289
X03389
Y013953
X03289
X03189
X027128Y016327
Y017327
Y018327
T07
X045551Y015181
Y016181
Y017181
T08
X036267Y045879
X041067Y045929
T09
X043047Y046039
X045047
T10
X024988Y045913
X033886
T11
X010862Y011764
X046882Y011772
X045172Y02136
Y02976
X022822
Y02136
X022862Y033262
Y041662
X045212
Y033262
X046921Y047787
X010866Y047795
M30
