G04*
G04 #@! TF.GenerationSoftware,Altium Limited,Altium Designer,21.9.2 (33)*
G04*
G04 Layer_Physical_Order=2*
G04 Layer_Color=16711680*
%FSTAX24Y24*%
%MOIN*%
G70*
G04*
G04 #@! TF.SameCoordinates,BECF87E7-01DC-432B-977C-EE80B0DAAE55*
G04*
G04*
G04 #@! TF.FilePolarity,Positive*
G04*
G01*
G75*
%ADD42C,0.0315*%
%ADD43C,0.0591*%
%ADD44C,0.0800*%
%ADD45R,0.0800X0.0800*%
%ADD46C,0.0551*%
%ADD47R,0.0630X0.0630*%
%ADD48P,0.0704X8X22.5*%
%ADD49C,0.0650*%
%ADD50C,0.0886*%
%ADD51R,0.0630X0.0630*%
%ADD52C,0.0630*%
%ADD53C,0.0600*%
%ADD54C,0.1575*%
%ADD55O,0.0787X0.0787*%
%ADD56C,0.0598*%
%ADD57R,0.0598X0.0598*%
%ADD58C,0.0750*%
%ADD59C,0.0500*%
G36*
X047957Y010906D02*
X009973D01*
Y04889D01*
X047957D01*
Y010906D01*
D02*
G37*
%LPC*%
G36*
X039967Y04782D02*
X039868D01*
X039772Y047795D01*
X039687Y047745D01*
X039646Y047705D01*
X022205D01*
X022138Y047696D01*
X022075Y04767D01*
X022021Y047629D01*
X017653Y04326D01*
X017624D01*
X017535Y043236D01*
X017455Y04319D01*
X01739Y043125D01*
X017344Y043045D01*
X01732Y042956D01*
Y042864D01*
X017344Y042775D01*
X01739Y042695D01*
X017455Y04263D01*
X017535Y042584D01*
X017624Y04256D01*
X017716D01*
X017805Y042584D01*
X017885Y04263D01*
X01795Y042695D01*
X017996Y042775D01*
X01802Y042864D01*
Y042893D01*
X022312Y047185D01*
X039646D01*
X039687Y047144D01*
X039772Y047095D01*
X039868Y047069D01*
X039967D01*
X040062Y047095D01*
X040148Y047144D01*
X040218Y047214D01*
X040267Y0473D01*
X040293Y047395D01*
Y047494D01*
X040267Y04759D01*
X040218Y047675D01*
X040148Y047745D01*
X040062Y047795D01*
X039967Y04782D01*
D02*
G37*
G36*
X011737Y04812D02*
X011562D01*
X011391Y048086D01*
X011229Y048019D01*
X011084Y047922D01*
X01096Y047798D01*
X010863Y047653D01*
X010796Y047491D01*
X010762Y04732D01*
Y047145D01*
X010796Y046973D01*
X010863Y046812D01*
X01096Y046667D01*
X011084Y046543D01*
X011229Y046446D01*
X011391Y046379D01*
X011562Y046345D01*
X011737D01*
X011908Y046379D01*
X01207Y046446D01*
X012215Y046543D01*
X012339Y046667D01*
X012436Y046812D01*
X012503Y046973D01*
X012537Y047145D01*
Y04732D01*
X012503Y047491D01*
X012436Y047653D01*
X012339Y047798D01*
X012215Y047922D01*
X01207Y048019D01*
X011908Y048086D01*
X011737Y04812D01*
D02*
G37*
G36*
X046391Y048108D02*
X046216D01*
X046044Y048074D01*
X045883Y048007D01*
X045737Y04791D01*
X045614Y047786D01*
X045517Y047641D01*
X04545Y047479D01*
X045416Y047308D01*
Y047133D01*
X04545Y046962D01*
X045517Y0468D01*
X045614Y046655D01*
X045737Y046531D01*
X045883Y046434D01*
X046044Y046367D01*
X046216Y046333D01*
X046391D01*
X046562Y046367D01*
X046723Y046434D01*
X046869Y046531D01*
X046992Y046655D01*
X04709Y0468D01*
X047156Y046962D01*
X047191Y047133D01*
Y047308D01*
X047156Y047479D01*
X04709Y047641D01*
X046992Y047786D01*
X046869Y04791D01*
X046723Y048007D01*
X046562Y048074D01*
X046391Y048108D01*
D02*
G37*
G36*
X035666Y046478D02*
X03556D01*
X035459Y04645D01*
X035367Y046398D01*
X035293Y046323D01*
X03524Y046232D01*
X035213Y04613D01*
Y046025D01*
X03524Y045923D01*
X035293Y045832D01*
X035367Y045757D01*
X035459Y045705D01*
X03556Y045678D01*
X035666D01*
X035767Y045705D01*
X035859Y045757D01*
X035933Y045832D01*
X035986Y045923D01*
X036013Y046025D01*
Y04613D01*
X035986Y046232D01*
X035933Y046323D01*
X035859Y046398D01*
X035767Y04645D01*
X035666Y046478D01*
D02*
G37*
G36*
X033216D02*
X03311D01*
X033009Y04645D01*
X032917Y046398D01*
X032843Y046323D01*
X03279Y046232D01*
X032763Y04613D01*
Y046025D01*
X03279Y045923D01*
X032843Y045832D01*
X032917Y045757D01*
X033009Y045705D01*
X03311Y045678D01*
X033216D01*
X033317Y045705D01*
X033409Y045757D01*
X033483Y045832D01*
X033536Y045923D01*
X033563Y046025D01*
Y04613D01*
X033536Y046232D01*
X033483Y046323D01*
X033409Y046398D01*
X033317Y04645D01*
X033216Y046478D01*
D02*
G37*
G36*
X038116Y046428D02*
X03801D01*
X037909Y0464D01*
X037817Y046348D01*
X037743Y046273D01*
X03769Y046182D01*
X037663Y04608D01*
Y045975D01*
X03769Y045873D01*
X037743Y045782D01*
X037817Y045707D01*
X037909Y045655D01*
X03801Y045628D01*
X038116D01*
X038217Y045655D01*
X038309Y045707D01*
X038383Y045782D01*
X038436Y045873D01*
X038463Y045975D01*
Y04608D01*
X038436Y046182D01*
X038383Y046273D01*
X038309Y046348D01*
X038217Y0464D01*
X038116Y046428D01*
D02*
G37*
G36*
X036866D02*
X03676D01*
X036659Y0464D01*
X036567Y046348D01*
X036493Y046273D01*
X03644Y046182D01*
X036413Y04608D01*
Y045975D01*
X03644Y045873D01*
X036493Y045782D01*
X036567Y045707D01*
X036659Y045655D01*
X03676Y045628D01*
X036866D01*
X036967Y045655D01*
X037059Y045707D01*
X037133Y045782D01*
X037186Y045873D01*
X037213Y045975D01*
Y04608D01*
X037186Y046182D01*
X037133Y046273D01*
X037059Y046348D01*
X036967Y0464D01*
X036866Y046428D01*
D02*
G37*
G36*
X034466D02*
X03436D01*
X034259Y0464D01*
X034167Y046348D01*
X034093Y046273D01*
X03404Y046182D01*
X034013Y04608D01*
Y045975D01*
X03404Y045873D01*
X034093Y045782D01*
X034167Y045707D01*
X034259Y045655D01*
X03436Y045628D01*
X034466D01*
X034567Y045655D01*
X034659Y045707D01*
X034733Y045782D01*
X034786Y045873D01*
X034813Y045975D01*
Y04608D01*
X034786Y046182D01*
X034733Y046273D01*
X034659Y046348D01*
X034567Y0464D01*
X034466Y046428D01*
D02*
G37*
G36*
X037364Y044269D02*
X037266D01*
X03717Y044244D01*
X037084Y044194D01*
X037014Y044124D01*
X036965Y044039D01*
X036939Y043943D01*
Y043844D01*
X036965Y043749D01*
X037014Y043663D01*
X037084Y043593D01*
X03717Y043544D01*
X037266Y043518D01*
X037364D01*
X03746Y043544D01*
X037546Y043593D01*
X037616Y043663D01*
X037665Y043749D01*
X037691Y043844D01*
Y043943D01*
X037665Y044039D01*
X037616Y044124D01*
X037546Y044194D01*
X03746Y044244D01*
X037364Y044269D01*
D02*
G37*
G36*
X033349D02*
X03325D01*
X033154Y044244D01*
X033069Y044194D01*
X032999Y044124D01*
X032949Y044039D01*
X032924Y043943D01*
Y043844D01*
X032949Y043749D01*
X032999Y043663D01*
X033069Y043593D01*
X033154Y043544D01*
X03325Y043518D01*
X033349D01*
X033444Y043544D01*
X03353Y043593D01*
X0336Y043663D01*
X033649Y043749D01*
X033675Y043844D01*
Y043943D01*
X033649Y044039D01*
X0336Y044124D01*
X03353Y044194D01*
X033444Y044244D01*
X033349Y044269D01*
D02*
G37*
G36*
X043879Y04479D02*
X042795D01*
X042728Y044781D01*
X042665Y044755D01*
X042611Y044714D01*
X039441Y041543D01*
X039171D01*
X038958Y041331D01*
Y04106D01*
X038097Y0402D01*
X037855D01*
X037547Y040508D01*
Y040721D01*
X037712Y040886D01*
Y041311D01*
X0375Y041523D01*
X03723D01*
X036666Y042087D01*
X036612Y042128D01*
X03655Y042154D01*
X036482Y042163D01*
X035947D01*
X03588Y042154D01*
X035817Y042128D01*
X035763Y042087D01*
X035199Y041523D01*
X034929D01*
X034764Y041358D01*
X032399D01*
X032331Y041349D01*
X032269Y041323D01*
X032215Y041282D01*
X030997Y040064D01*
X030953Y040088D01*
X030966Y040152D01*
Y040307D01*
X030935Y04046D01*
X030876Y040603D01*
X03079Y040732D01*
X03068Y040842D01*
X03055Y040929D01*
X030407Y040988D01*
X030254Y041019D01*
X030099D01*
X029947Y040988D01*
X029803Y040929D01*
X029674Y040842D01*
X029564Y040732D01*
X029478Y040603D01*
X029418Y04046D01*
X029388Y040307D01*
Y040152D01*
X029418Y039999D01*
X029478Y039856D01*
X029564Y039727D01*
X029674Y039617D01*
X029803Y03953D01*
X029947Y039471D01*
X030099Y039441D01*
X030254D01*
X030318Y039453D01*
X030342Y039409D01*
X030123Y03919D01*
X021238D01*
X020523Y039904D01*
X020469Y039945D01*
X020407Y039971D01*
X02034Y03998D01*
X01925D01*
X019179Y040073D01*
X019076Y040152D01*
X018975Y040193D01*
Y040248D01*
X019076Y040289D01*
X019179Y040368D01*
X019258Y040472D01*
X019308Y040592D01*
X019318Y04067D01*
X018827D01*
X018335D01*
X018346Y040592D01*
X018396Y040472D01*
X018475Y040368D01*
X018578Y040289D01*
X018678Y040248D01*
Y040193D01*
X018578Y040152D01*
X018475Y040073D01*
X018396Y039969D01*
X018346Y039849D01*
X018329Y03972D01*
X018346Y039592D01*
X018396Y039471D01*
X018475Y039368D01*
X018578Y039289D01*
X018678Y039248D01*
Y039193D01*
X018578Y039152D01*
X018475Y039073D01*
X018396Y038969D01*
X018346Y038849D01*
X018329Y03872D01*
X018346Y038592D01*
X018396Y038472D01*
X018475Y038368D01*
X018578Y038289D01*
X018678Y038248D01*
Y038193D01*
X018578Y038152D01*
X018475Y038073D01*
X018396Y037969D01*
X018346Y037849D01*
X018329Y03772D01*
X018346Y037592D01*
X018396Y037471D01*
X018475Y037368D01*
X018578Y037289D01*
X018678Y037248D01*
Y037193D01*
X018578Y037152D01*
X018475Y037073D01*
X018396Y036969D01*
X018346Y036849D01*
X018329Y03672D01*
X018346Y036592D01*
X018396Y036472D01*
X018475Y036368D01*
X018578Y036289D01*
X018678Y036248D01*
Y036193D01*
X018578Y036152D01*
X018475Y036073D01*
X018396Y035969D01*
X018346Y035849D01*
X018329Y03572D01*
X018346Y035592D01*
X018396Y035471D01*
X018475Y035368D01*
X018578Y035289D01*
X018678Y035248D01*
Y035193D01*
X018578Y035152D01*
X018475Y035073D01*
X018396Y034969D01*
X018346Y034849D01*
X018329Y03472D01*
X018346Y034592D01*
X018396Y034471D01*
X018475Y034368D01*
X018578Y034289D01*
X018678Y034248D01*
Y034193D01*
X018578Y034152D01*
X018475Y034073D01*
X018396Y033969D01*
X018346Y033849D01*
X018329Y03372D01*
X018346Y033592D01*
X018396Y033472D01*
X018475Y033368D01*
X018578Y033289D01*
X018678Y033248D01*
Y033193D01*
X018578Y033152D01*
X018475Y033073D01*
X018396Y032969D01*
X018346Y032849D01*
X018329Y03272D01*
X018346Y032592D01*
X018396Y032471D01*
X018475Y032368D01*
X018578Y032289D01*
X018678Y032248D01*
Y032193D01*
X018578Y032152D01*
X018475Y032073D01*
X018396Y031969D01*
X018346Y031849D01*
X018329Y03172D01*
X018346Y031592D01*
X018396Y031472D01*
X018475Y031368D01*
X018578Y031289D01*
X018678Y031248D01*
Y031193D01*
X018578Y031152D01*
X018475Y031073D01*
X018404Y03098D01*
X01802D01*
X017953Y030971D01*
X01789Y030945D01*
X017836Y030904D01*
X016908Y029976D01*
X01326D01*
X013189Y030068D01*
X013086Y030147D01*
X012985Y030189D01*
Y030243D01*
X013086Y030285D01*
X013189Y030364D01*
X013268Y030467D01*
X013318Y030587D01*
X013335Y030716D01*
X013318Y030845D01*
X013268Y030965D01*
X013189Y031068D01*
X013086Y031147D01*
X012985Y031189D01*
Y031243D01*
X013086Y031285D01*
X013189Y031364D01*
X013268Y031467D01*
X013318Y031587D01*
X013335Y031716D01*
X013318Y031845D01*
X013268Y031965D01*
X013189Y032068D01*
X013086Y032147D01*
X012985Y032189D01*
Y032243D01*
X013086Y032285D01*
X013189Y032364D01*
X013268Y032467D01*
X013318Y032587D01*
X013335Y032716D01*
X013318Y032845D01*
X013268Y032965D01*
X013189Y033068D01*
X013086Y033147D01*
X012985Y033189D01*
Y033243D01*
X013086Y033285D01*
X013189Y033364D01*
X01326Y033456D01*
X0149D01*
X014929Y03346D01*
X014959Y033463D01*
X014963Y033465D01*
X014967Y033465D01*
X014995Y033477D01*
X015022Y033487D01*
X015026Y03349D01*
X01503Y033491D01*
X015053Y033509D01*
X015078Y033527D01*
X01508Y03353D01*
X015084Y033533D01*
X015102Y033556D01*
X015121Y033579D01*
X015122Y033583D01*
X015125Y033586D01*
X015136Y033614D01*
X015149Y033641D01*
X015149Y033645D01*
X015151Y033649D01*
X015155Y033678D01*
X01516Y033708D01*
X015336Y039099D01*
X018378Y04214D01*
X018485D01*
X018501Y042093D01*
X018475Y042073D01*
X018396Y041969D01*
X018346Y041849D01*
X018329Y04172D01*
X018346Y041592D01*
X018396Y041472D01*
X018475Y041368D01*
X018578Y041289D01*
X018678Y041248D01*
Y041193D01*
X018578Y041152D01*
X018475Y041073D01*
X018396Y040969D01*
X018346Y040849D01*
X018335Y04077D01*
X018827D01*
X019318D01*
X019308Y040849D01*
X019258Y040969D01*
X019179Y041073D01*
X019076Y041152D01*
X018975Y041193D01*
Y041248D01*
X019076Y041289D01*
X019179Y041368D01*
X019188Y04138D01*
X019237Y04137D01*
X019244Y041345D01*
X01929Y041265D01*
X019355Y0412D01*
X019435Y041154D01*
X019524Y04113D01*
X019616D01*
X019705Y041154D01*
X019785Y0412D01*
X01985Y041265D01*
X019896Y041345D01*
X01992Y041434D01*
Y041526D01*
X019896Y041615D01*
X01985Y041695D01*
X01983Y041715D01*
Y042D01*
X019821Y042067D01*
X019795Y04213D01*
X019754Y042184D01*
X019354Y042584D01*
X0193Y042625D01*
X019237Y042651D01*
X01917Y04266D01*
X01827D01*
X018203Y042651D01*
X01814Y042625D01*
X018086Y042584D01*
X014896Y039394D01*
X014878Y03937D01*
X014859Y039347D01*
X014858Y039343D01*
X014855Y03934D01*
X014844Y039312D01*
X014831Y039285D01*
X014831Y039281D01*
X014829Y039277D01*
X014825Y039248D01*
X01482Y039218D01*
X014649Y033976D01*
X01326D01*
X013189Y034068D01*
X013086Y034147D01*
X012985Y034189D01*
Y034243D01*
X013086Y034285D01*
X013189Y034364D01*
X013268Y034467D01*
X013318Y034587D01*
X013335Y034716D01*
X013318Y034845D01*
X013268Y034965D01*
X013189Y035068D01*
X013086Y035147D01*
X012985Y035189D01*
Y035243D01*
X013086Y035285D01*
X013189Y035364D01*
X013268Y035467D01*
X013318Y035587D01*
X013335Y035716D01*
X013318Y035845D01*
X013268Y035965D01*
X013189Y036068D01*
X013086Y036147D01*
X012985Y036189D01*
Y036243D01*
X013086Y036285D01*
X013189Y036364D01*
X013268Y036467D01*
X013318Y036587D01*
X013335Y036716D01*
X013318Y036845D01*
X013268Y036965D01*
X013189Y037068D01*
X013086Y037147D01*
X012985Y037189D01*
Y037243D01*
X013086Y037285D01*
X013189Y037364D01*
X013268Y037467D01*
X013318Y037587D01*
X013335Y037716D01*
X013318Y037845D01*
X013268Y037965D01*
X013189Y038068D01*
X013086Y038147D01*
X012985Y038189D01*
Y038243D01*
X013086Y038285D01*
X013189Y038364D01*
X013268Y038467D01*
X013318Y038587D01*
X013335Y038716D01*
X013318Y038845D01*
X013268Y038965D01*
X013189Y039068D01*
X013086Y039147D01*
X012985Y039189D01*
Y039243D01*
X013086Y039285D01*
X013189Y039364D01*
X013268Y039467D01*
X013318Y039587D01*
X013335Y039716D01*
X013318Y039845D01*
X013268Y039965D01*
X013189Y040068D01*
X013086Y040147D01*
X012985Y040189D01*
Y040243D01*
X013086Y040285D01*
X013189Y040364D01*
X013268Y040467D01*
X013318Y040587D01*
X013335Y040716D01*
X013318Y040845D01*
X013268Y040965D01*
X013189Y041068D01*
X013086Y041147D01*
X012985Y041189D01*
Y041243D01*
X013086Y041285D01*
X013189Y041364D01*
X013268Y041467D01*
X013318Y041587D01*
X013335Y041716D01*
X013318Y041845D01*
X013268Y041965D01*
X013189Y042068D01*
X013086Y042147D01*
X012966Y042197D01*
X012837Y042214D01*
X012708Y042197D01*
X012588Y042147D01*
X012485Y042068D01*
X012406Y041965D01*
X012356Y041845D01*
X012339Y041716D01*
X012356Y041587D01*
X012406Y041467D01*
X012485Y041364D01*
X012588Y041285D01*
X012688Y041243D01*
Y041189D01*
X012588Y041147D01*
X012485Y041068D01*
X012406Y040965D01*
X012356Y040845D01*
X012339Y040716D01*
X012356Y040587D01*
X012406Y040467D01*
X012485Y040364D01*
X012588Y040285D01*
X012688Y040243D01*
Y040189D01*
X012588Y040147D01*
X012485Y040068D01*
X012406Y039965D01*
X012356Y039845D01*
X012339Y039716D01*
X012356Y039587D01*
X012406Y039467D01*
X012485Y039364D01*
X012588Y039285D01*
X012688Y039243D01*
Y039189D01*
X012588Y039147D01*
X012485Y039068D01*
X012406Y038965D01*
X012356Y038845D01*
X012339Y038716D01*
X012356Y038587D01*
X012406Y038467D01*
X012485Y038364D01*
X012588Y038285D01*
X012688Y038243D01*
Y038189D01*
X012588Y038147D01*
X012485Y038068D01*
X012406Y037965D01*
X012356Y037845D01*
X012339Y037716D01*
X012356Y037587D01*
X012406Y037467D01*
X012485Y037364D01*
X012588Y037285D01*
X012688Y037243D01*
Y037189D01*
X012588Y037147D01*
X012485Y037068D01*
X012414Y036976D01*
X0112D01*
X011133Y036967D01*
X01107Y036941D01*
X011016Y0369D01*
X010356Y036239D01*
X010314Y036185D01*
X010289Y036123D01*
X01028Y036056D01*
Y014771D01*
X010289Y014703D01*
X010314Y014641D01*
X010356Y014587D01*
X011016Y013926D01*
X01107Y013885D01*
X011133Y013859D01*
X0112Y01385D01*
X013842D01*
X014388Y013305D01*
X014442Y013263D01*
X014505Y013237D01*
X014572Y013228D01*
X039338D01*
X039405Y013237D01*
X039468Y013263D01*
X039522Y013305D01*
X040324Y014106D01*
X040365Y01416D01*
X040391Y014223D01*
X0404Y01429D01*
Y0156D01*
X040391Y015667D01*
X040365Y01573D01*
X040324Y015784D01*
X039864Y016244D01*
X03981Y016285D01*
X039747Y016311D01*
X03968Y01632D01*
X038363D01*
X038296Y016311D01*
X038233Y016285D01*
X03818Y016244D01*
X037607Y015671D01*
X037504D01*
X037399Y015643D01*
X037304Y015588D01*
X037227Y015511D01*
X037172Y015416D01*
X037144Y015311D01*
Y015201D01*
X037172Y015096D01*
X037227Y015001D01*
X037304Y014924D01*
X037399Y014869D01*
X037504Y014841D01*
X037614D01*
X037719Y014869D01*
X037755Y01489D01*
X037786Y01485D01*
X037464Y014528D01*
X027721D01*
X027356Y014893D01*
X027387Y014933D01*
X027423Y014913D01*
X027528Y014884D01*
X027533D01*
Y015249D01*
X027168D01*
Y015245D01*
X027196Y015139D01*
X027217Y015103D01*
X027177Y015072D01*
X026998Y015252D01*
Y015714D01*
X026168D01*
Y015252D01*
X025406Y01449D01*
X021756D01*
X021395Y01485D01*
X021426Y01489D01*
X021462Y014869D01*
X021567Y014841D01*
X021572D01*
Y015206D01*
X021207D01*
Y015201D01*
X021235Y015096D01*
X021256Y01506D01*
X021216Y015029D01*
X021037Y015208D01*
Y015671D01*
X020207D01*
Y014841D01*
X02067D01*
X021464Y014046D01*
X021518Y014005D01*
X021581Y013979D01*
X021648Y01397D01*
X025513D01*
X025581Y013979D01*
X025643Y014005D01*
X025697Y014046D01*
X026535Y014884D01*
X02663D01*
X02743Y014085D01*
X027484Y014044D01*
X027546Y014018D01*
X027613Y014009D01*
X037572D01*
X037639Y014018D01*
X037702Y014044D01*
X037755Y014085D01*
X038511Y014841D01*
X038614D01*
X038719Y014869D01*
X038814Y014924D01*
X038891Y015001D01*
X038946Y015096D01*
X038974Y015201D01*
Y015311D01*
X038946Y015416D01*
X038891Y015511D01*
X038814Y015588D01*
X038719Y015643D01*
X038614Y015671D01*
X038504D01*
X038399Y015643D01*
X038363Y015622D01*
X038332Y015662D01*
X038471Y0158D01*
X039572D01*
X039663Y015709D01*
X039638Y015664D01*
X039614Y015671D01*
X039504D01*
X039399Y015643D01*
X039304Y015588D01*
X039227Y015511D01*
X039172Y015416D01*
X039144Y015311D01*
Y015201D01*
X039172Y015096D01*
X039227Y015001D01*
X039304Y014924D01*
X039399Y014869D01*
X039504Y014841D01*
X039614D01*
X039719Y014869D01*
X039814Y014924D01*
X039834Y014944D01*
X03988Y014925D01*
Y014398D01*
X039231Y013748D01*
X014679D01*
X014134Y014294D01*
X01408Y014335D01*
X014017Y014361D01*
X01395Y01437D01*
X011308D01*
X010799Y014878D01*
Y018148D01*
X010845Y018167D01*
X011236Y017776D01*
X01129Y017735D01*
X011353Y017709D01*
X01142Y0177D01*
X01971D01*
X019777Y017709D01*
X01984Y017735D01*
X019894Y017776D01*
X020354Y018236D01*
X020381Y018273D01*
X020433Y018282D01*
X020445Y01828D01*
X020478Y018247D01*
X020564Y018197D01*
X020659Y018172D01*
X020758D01*
X02082Y018188D01*
X020846Y018144D01*
X019572Y01687D01*
X012512D01*
X012444Y016861D01*
X012382Y016835D01*
X012328Y016794D01*
X01191Y016376D01*
X01183D01*
X011729Y016349D01*
X011639Y016297D01*
X011566Y016223D01*
X011514Y016133D01*
X011487Y016032D01*
Y015928D01*
X011514Y015828D01*
X011566Y015738D01*
X011639Y015664D01*
X011729Y015612D01*
X01183Y015585D01*
X011934D01*
X012034Y015612D01*
X012125Y015664D01*
X012198Y015738D01*
X01225Y015828D01*
X012277Y015928D01*
Y016008D01*
X012619Y01635D01*
X01968D01*
X019747Y016359D01*
X01981Y016385D01*
X019864Y016426D01*
X021725Y018288D01*
X024453D01*
X024494Y018247D01*
X024579Y018197D01*
X024675Y018172D01*
X024774D01*
X024869Y018197D01*
X024955Y018247D01*
X024983Y018275D01*
X02504Y018261D01*
X025074Y018216D01*
X025384Y017906D01*
X025438Y017865D01*
X0255Y017839D01*
X025567Y01783D01*
X02645D01*
X026517Y017839D01*
X02658Y017865D01*
X026634Y017906D01*
X026944Y018216D01*
X026985Y01827D01*
X027011Y018333D01*
X02702Y0184D01*
Y022181D01*
X028926Y024087D01*
X043834D01*
X043907Y024014D01*
X044001Y02396D01*
X044107Y023932D01*
X044216D01*
X044322Y02396D01*
X044416Y024014D01*
X044493Y024092D01*
X044548Y024186D01*
X044576Y024292D01*
Y024401D01*
X044548Y024507D01*
X044493Y024601D01*
X044416Y024679D01*
X044322Y024733D01*
X044216Y024761D01*
X044107D01*
X044001Y024733D01*
X043907Y024679D01*
X043834Y024606D01*
X028818D01*
X028751Y024597D01*
X028688Y024571D01*
X028634Y02453D01*
X026576Y022472D01*
X026535Y022418D01*
X026509Y022356D01*
X0265Y022288D01*
Y018508D01*
X026342Y01835D01*
X026204D01*
X026183Y0184D01*
X02623Y018447D01*
X026279Y018532D01*
X026305Y018628D01*
Y018727D01*
X026279Y018822D01*
X02623Y018908D01*
X026189Y018949D01*
Y019239D01*
X02618Y019306D01*
X026154Y019368D01*
X026113Y019422D01*
X024841Y020694D01*
X024788Y020735D01*
X024725Y020761D01*
X024658Y02077D01*
X017286D01*
X017218Y020761D01*
X017156Y020735D01*
X017102Y020694D01*
X015351Y018943D01*
X015293D01*
X015198Y018917D01*
X015112Y018867D01*
X015071Y018827D01*
X014837D01*
X01479Y018863D01*
X014727Y018889D01*
X01466Y018898D01*
X01435D01*
X014294Y018954D01*
X014204Y019006D01*
X014103Y019033D01*
X013999D01*
X013899Y019006D01*
X013808Y018954D01*
X013735Y018881D01*
X013683Y01879D01*
X013656Y01869D01*
Y018586D01*
X013683Y018485D01*
X013735Y018395D01*
X013808Y018321D01*
X013899Y018269D01*
X013891Y01822D01*
X013211D01*
X013204Y018269D01*
X013294Y018321D01*
X013367Y018395D01*
X01342Y018485D01*
X013446Y018586D01*
Y018588D01*
X013051D01*
X012656D01*
Y018586D01*
X012683Y018485D01*
X012735Y018395D01*
X012808Y018321D01*
X012899Y018269D01*
X012891Y01822D01*
X011528D01*
X01124Y018508D01*
Y026412D01*
X01145Y026623D01*
X0115Y026602D01*
Y02161D01*
X011509Y021543D01*
X011535Y02148D01*
X011576Y021426D01*
X011957Y021046D01*
X012011Y021004D01*
X012073Y020979D01*
X012141Y02097D01*
X024354D01*
X024421Y020979D01*
X024484Y021004D01*
X024537Y021046D01*
X028578Y025087D01*
X043834D01*
X043907Y025014D01*
X044001Y02496D01*
X044107Y024931D01*
X044216D01*
X044322Y02496D01*
X044416Y025014D01*
X044493Y025092D01*
X044548Y025186D01*
X044576Y025292D01*
Y025401D01*
X044548Y025507D01*
X044493Y025601D01*
X044416Y025679D01*
X044322Y025733D01*
X044216Y025761D01*
X044107D01*
X044001Y025733D01*
X043907Y025679D01*
X043834Y025606D01*
X028471D01*
X028404Y025597D01*
X028341Y025571D01*
X028287Y02553D01*
X024246Y021489D01*
X020067D01*
X020048Y021535D01*
X020163Y02165D01*
X02409D01*
X024157Y021659D01*
X02422Y021685D01*
X024274Y021726D01*
X028418Y02587D01*
X04119D01*
X041257Y025879D01*
X04132Y025905D01*
X041374Y025946D01*
X042888Y02746D01*
X04461D01*
X044677Y027469D01*
X04474Y027495D01*
X044794Y027536D01*
X044974Y027716D01*
X045015Y02777D01*
X045041Y027833D01*
X04505Y0279D01*
Y0328D01*
X045041Y032867D01*
X045015Y03293D01*
X044974Y032984D01*
X044694Y033264D01*
X04464Y033305D01*
X044626Y033311D01*
X044628Y033315D01*
Y033425D01*
X044599Y03353D01*
X044545Y033625D01*
X044467Y033702D01*
X044373Y033757D01*
X044267Y033785D01*
X044158D01*
X044052Y033757D01*
X043958Y033702D01*
X043881Y033625D01*
X043826Y03353D01*
X043798Y033425D01*
Y033315D01*
X043826Y03321D01*
X043847Y033174D01*
X043807Y033143D01*
X040936Y036014D01*
X040883Y036055D01*
X04085Y036068D01*
X04086Y036118D01*
X043656D01*
Y035963D01*
X044486D01*
Y036793D01*
X043656D01*
Y036638D01*
X03992D01*
X038994Y037564D01*
X03894Y037605D01*
X038877Y037631D01*
X03881Y03764D01*
X02752D01*
X027452Y037631D01*
X02739Y037605D01*
X027336Y037564D01*
X025752Y03598D01*
X01925D01*
X019179Y036073D01*
X019076Y036152D01*
X018975Y036193D01*
Y036248D01*
X019076Y036289D01*
X019179Y036368D01*
X019258Y036472D01*
X019308Y036592D01*
X019325Y03672D01*
X019308Y036849D01*
X019258Y036969D01*
X019179Y037073D01*
X019076Y037152D01*
X018975Y037193D01*
Y037248D01*
X019076Y037289D01*
X019179Y037368D01*
X019258Y037471D01*
X019308Y037592D01*
X019325Y03772D01*
X019308Y037849D01*
X019258Y037969D01*
X019179Y038073D01*
X019076Y038152D01*
X018975Y038193D01*
Y038248D01*
X019076Y038289D01*
X019179Y038368D01*
X019258Y038472D01*
X019308Y038592D01*
X019325Y03872D01*
X019308Y038849D01*
X019258Y038969D01*
X019179Y039073D01*
X019076Y039152D01*
X018975Y039193D01*
Y039248D01*
X019076Y039289D01*
X019179Y039368D01*
X01925Y039461D01*
X020232D01*
X020946Y038746D01*
X021Y038705D01*
X021063Y038679D01*
X02113Y03867D01*
X03023D01*
X030297Y038679D01*
X030298Y03868D01*
X030327Y038637D01*
X030109Y03842D01*
X019955D01*
X019935Y03844D01*
X019855Y038486D01*
X019766Y03851D01*
X019674D01*
X019585Y038486D01*
X019505Y03844D01*
X01944Y038375D01*
X019394Y038295D01*
X01937Y038206D01*
Y038114D01*
X019394Y038025D01*
X01944Y037945D01*
X019505Y03788D01*
X019585Y037834D01*
X019674Y03781D01*
X019766D01*
X019855Y037834D01*
X019935Y03788D01*
X019955Y0379D01*
X030217D01*
X030284Y037909D01*
X030347Y037935D01*
X0304Y037976D01*
X031487Y039063D01*
X032099D01*
X032139Y039022D01*
X032225Y038973D01*
X032321Y038947D01*
X03242D01*
X032515Y038973D01*
X032601Y039022D01*
X032671Y039092D01*
X03272Y039178D01*
X032746Y039273D01*
Y039372D01*
X03272Y039468D01*
X032671Y039553D01*
X032601Y039623D01*
X032515Y039673D01*
X03242Y039698D01*
X032321D01*
X032225Y039673D01*
X032139Y039623D01*
X032099Y039583D01*
X03138D01*
X031312Y039574D01*
X031311Y039573D01*
X031283Y039616D01*
X032506Y040839D01*
X034764D01*
X034929Y040673D01*
X035354D01*
X035567Y040886D01*
Y041156D01*
X035708Y041298D01*
X035748Y041267D01*
X035746Y041262D01*
X035717Y041154D01*
Y041042D01*
X035746Y040934D01*
X035802Y040837D01*
X035881Y040758D01*
X035978Y040702D01*
X036086Y040673D01*
X036198D01*
X036306Y040702D01*
X036403Y040758D01*
X036482Y040837D01*
X036538Y040934D01*
X036567Y041042D01*
Y041154D01*
X036538Y041262D01*
X036482Y041359D01*
X036403Y041438D01*
X036306Y041494D01*
X036198Y041523D01*
X036086D01*
X035978Y041494D01*
X035973Y041492D01*
X035942Y041532D01*
X036054Y041644D01*
X036375D01*
X036862Y041156D01*
Y040886D01*
X037028Y040721D01*
Y0404D01*
X037037Y040333D01*
X037062Y04027D01*
X037104Y040216D01*
X037564Y039756D01*
X037618Y039715D01*
X03768Y039689D01*
X037747Y03968D01*
X038205D01*
X038272Y039689D01*
X038335Y039715D01*
X038389Y039756D01*
X039325Y040693D01*
X039596D01*
X039808Y040906D01*
Y041176D01*
X03995Y041317D01*
X03999Y041287D01*
X039987Y041282D01*
X039958Y041174D01*
Y041062D01*
X039987Y040954D01*
X040043Y040857D01*
X040122Y040778D01*
X040219Y040722D01*
X040327Y040693D01*
X040439D01*
X040547Y040722D01*
X040644Y040778D01*
X040723Y040857D01*
X040779Y040954D01*
X040808Y041062D01*
Y041174D01*
X040779Y041282D01*
X040723Y041379D01*
X040644Y041458D01*
X040547Y041514D01*
X040439Y041543D01*
X040327D01*
X040219Y041514D01*
X040214Y041512D01*
X040184Y041552D01*
X042903Y04427D01*
X043381D01*
X043391Y04422D01*
X04331Y044174D01*
X043236Y044099D01*
X043183Y044008D01*
X043156Y043907D01*
Y043802D01*
X043183Y0437D01*
X043236Y043609D01*
X04331Y043535D01*
X043401Y043482D01*
X043503Y043455D01*
X043608D01*
X043709Y043482D01*
X0438Y043535D01*
X043875Y043609D01*
X043927Y0437D01*
X043954Y043802D01*
Y043907D01*
X043927Y044008D01*
X043878Y044093D01*
X043918Y044124D01*
X044156Y043886D01*
Y043455D01*
X044954D01*
Y044254D01*
X044523D01*
X044063Y044714D01*
X044009Y044755D01*
X043947Y044781D01*
X043879Y04479D01*
D02*
G37*
G36*
X039967Y043805D02*
X039868D01*
X039772Y043779D01*
X039687Y04373D01*
X039617Y04366D01*
X039567Y043574D01*
X039542Y043479D01*
Y04338D01*
X039567Y043284D01*
X039617Y043199D01*
X039687Y043129D01*
X039772Y043079D01*
X039868Y043054D01*
X039967D01*
X040062Y043079D01*
X040148Y043129D01*
X040218Y043199D01*
X040267Y043284D01*
X040293Y04338D01*
Y043479D01*
X040267Y043574D01*
X040218Y04366D01*
X040148Y04373D01*
X040062Y043779D01*
X039967Y043805D01*
D02*
G37*
G36*
X044608Y043254D02*
X044605D01*
Y042904D01*
X044954D01*
Y042907D01*
X044927Y043008D01*
X044875Y043099D01*
X0448Y043174D01*
X044709Y043226D01*
X044608Y043254D01*
D02*
G37*
G36*
X044505D02*
X044503D01*
X044401Y043226D01*
X04431Y043174D01*
X044236Y043099D01*
X044183Y043008D01*
X044156Y042907D01*
Y042904D01*
X044505D01*
Y043254D01*
D02*
G37*
G36*
X044954Y042804D02*
X044605D01*
Y042455D01*
X044608D01*
X044709Y042482D01*
X0448Y042535D01*
X044875Y042609D01*
X044927Y0427D01*
X044954Y042802D01*
Y042804D01*
D02*
G37*
G36*
X044505D02*
X044156D01*
Y042802D01*
X044183Y0427D01*
X044236Y042609D01*
X04431Y042535D01*
X044401Y042482D01*
X044503Y042455D01*
X044505D01*
Y042804D01*
D02*
G37*
G36*
X030679Y04293D02*
X030574D01*
X030472Y042902D01*
X030381Y04285D01*
X030307Y042775D01*
X030254Y042684D01*
X030227Y042582D01*
Y042477D01*
X030254Y042375D01*
X030307Y042284D01*
X030381Y042209D01*
X030472Y042157D01*
X030574Y04213D01*
X030679D01*
X030781Y042157D01*
X030872Y042209D01*
X030947Y042284D01*
X031Y042375D01*
X031027Y042477D01*
Y042582D01*
X031Y042684D01*
X030947Y042775D01*
X030872Y04285D01*
X030781Y042902D01*
X030679Y04293D01*
D02*
G37*
G36*
X022179D02*
X022074D01*
X021972Y042902D01*
X021881Y04285D01*
X021807Y042775D01*
X021754Y042684D01*
X021727Y042582D01*
Y042477D01*
X021754Y042375D01*
X021807Y042284D01*
X021881Y042209D01*
X021972Y042157D01*
X022074Y04213D01*
X022179D01*
X022281Y042157D01*
X022372Y042209D01*
X022447Y042284D01*
X0225Y042375D01*
X022527Y042477D01*
Y042582D01*
X0225Y042684D01*
X022447Y042775D01*
X022372Y04285D01*
X022281Y042902D01*
X022179Y04293D01*
D02*
G37*
G36*
X044608Y042254D02*
X044503D01*
X044401Y042226D01*
X04431Y042174D01*
X044236Y042099D01*
X044183Y042008D01*
X044156Y041907D01*
Y041802D01*
X044183Y0417D01*
X044236Y041609D01*
X04431Y041535D01*
X044401Y041482D01*
X044503Y041455D01*
X044608D01*
X044709Y041482D01*
X0448Y041535D01*
X044875Y041609D01*
X044927Y0417D01*
X044954Y041802D01*
Y041907D01*
X044927Y042008D01*
X044875Y042099D01*
X0448Y042174D01*
X044709Y042226D01*
X044608Y042254D01*
D02*
G37*
G36*
X038343Y041523D02*
X038231D01*
X038123Y041494D01*
X038026Y041438D01*
X037947Y041359D01*
X037891Y041262D01*
X037862Y041154D01*
Y041042D01*
X037891Y040934D01*
X037947Y040837D01*
X038026Y040758D01*
X038123Y040702D01*
X038231Y040673D01*
X038343D01*
X038451Y040702D01*
X038548Y040758D01*
X038627Y040837D01*
X038683Y040934D01*
X038712Y041042D01*
Y041154D01*
X038683Y041262D01*
X038627Y041359D01*
X038548Y041438D01*
X038451Y041494D01*
X038343Y041523D01*
D02*
G37*
G36*
X044608Y041254D02*
X044503D01*
X044401Y041226D01*
X04431Y041174D01*
X044236Y041099D01*
X044183Y041008D01*
X044156Y040907D01*
Y040802D01*
X044183Y0407D01*
X044236Y040609D01*
X04431Y040535D01*
X044401Y040482D01*
X044503Y040455D01*
X044608D01*
X044709Y040482D01*
X0448Y040535D01*
X044875Y040609D01*
X044927Y0407D01*
X044954Y040802D01*
Y040907D01*
X044927Y041008D01*
X044875Y041099D01*
X0448Y041174D01*
X044709Y041226D01*
X044608Y041254D01*
D02*
G37*
G36*
X043608Y043254D02*
X043503D01*
X043401Y043226D01*
X04331Y043174D01*
X043236Y043099D01*
X043183Y043008D01*
X043156Y042907D01*
Y042822D01*
X042073Y041739D01*
X042044D01*
X041955Y041715D01*
X041875Y041669D01*
X04181Y041604D01*
X041764Y041524D01*
X04174Y041435D01*
Y041343D01*
X041764Y041254D01*
X04181Y041174D01*
X041875Y041109D01*
X041955Y041063D01*
X042044Y041039D01*
X042136D01*
X042225Y041063D01*
X042305Y041109D01*
X04237Y041174D01*
X042416Y041254D01*
X04244Y041343D01*
Y041372D01*
X043192Y042124D01*
X043232Y042093D01*
X043183Y042008D01*
X043156Y041907D01*
Y041822D01*
X041326Y039992D01*
X038992D01*
X038925Y039983D01*
X038862Y039957D01*
X038809Y039916D01*
X037232Y03834D01*
X031385D01*
X031365Y03836D01*
X031285Y038406D01*
X031196Y03843D01*
X031104D01*
X031015Y038406D01*
X030935Y03836D01*
X03087Y038295D01*
X030824Y038215D01*
X0308Y038126D01*
Y038034D01*
X030824Y037945D01*
X03087Y037865D01*
X030935Y0378D01*
X031015Y037754D01*
X031104Y03773D01*
X031196D01*
X031285Y037754D01*
X031365Y0378D01*
X031385Y03782D01*
X03734D01*
X037407Y037829D01*
X03747Y037855D01*
X037524Y037896D01*
X0391Y039473D01*
X041433D01*
X0415Y039481D01*
X041563Y039507D01*
X041617Y039549D01*
X043192Y041124D01*
X043232Y041093D01*
X043183Y041008D01*
X043156Y040907D01*
Y040802D01*
X043183Y0407D01*
X043236Y040609D01*
X04331Y040535D01*
X043401Y040482D01*
X043503Y040455D01*
X043608D01*
X043709Y040482D01*
X0438Y040535D01*
X043875Y040609D01*
X043927Y0407D01*
X043954Y040802D01*
Y040907D01*
X043927Y041008D01*
X043875Y041099D01*
X0438Y041174D01*
X043709Y041226D01*
X043608Y041254D01*
X043503D01*
X043401Y041226D01*
X043316Y041177D01*
X043285Y041217D01*
X043523Y041455D01*
X043608D01*
X043709Y041482D01*
X0438Y041535D01*
X043875Y041609D01*
X043927Y0417D01*
X043954Y041802D01*
Y041907D01*
X043927Y042008D01*
X043875Y042099D01*
X0438Y042174D01*
X043709Y042226D01*
X043608Y042254D01*
X043503D01*
X043401Y042226D01*
X043316Y042177D01*
X043285Y042217D01*
X043523Y042455D01*
X043608D01*
X043709Y042482D01*
X0438Y042535D01*
X043875Y042609D01*
X043927Y0427D01*
X043954Y042802D01*
Y042907D01*
X043927Y043008D01*
X043875Y043099D01*
X0438Y043174D01*
X043709Y043226D01*
X043608Y043254D01*
D02*
G37*
G36*
X036435Y039698D02*
X036336D01*
X036241Y039673D01*
X036155Y039623D01*
X036085Y039553D01*
X036036Y039468D01*
X03601Y039372D01*
Y039273D01*
X036036Y039178D01*
X036085Y039092D01*
X036155Y039022D01*
X036241Y038973D01*
X036336Y038947D01*
X036435D01*
X036531Y038973D01*
X036616Y039022D01*
X036686Y039092D01*
X036736Y039178D01*
X036761Y039273D01*
Y039372D01*
X036736Y039468D01*
X036686Y039553D01*
X036616Y039623D01*
X036531Y039673D01*
X036435Y039698D01*
D02*
G37*
G36*
X044125Y038793D02*
X044121D01*
Y038428D01*
X044486D01*
Y038433D01*
X044458Y038538D01*
X044403Y038633D01*
X044326Y03871D01*
X044231Y038765D01*
X044125Y038793D01*
D02*
G37*
G36*
X044021D02*
X044016D01*
X043911Y038765D01*
X043816Y03871D01*
X043739Y038633D01*
X043684Y038538D01*
X043656Y038433D01*
Y038428D01*
X044021D01*
Y038793D01*
D02*
G37*
G36*
X044486Y038328D02*
X044121D01*
Y037963D01*
X044125D01*
X044231Y037991D01*
X044326Y038046D01*
X044403Y038123D01*
X044458Y038218D01*
X044486Y038323D01*
Y038328D01*
D02*
G37*
G36*
X039549Y039202D02*
X039451D01*
X039355Y039177D01*
X039269Y039127D01*
X039199Y039057D01*
X03915Y038972D01*
X039124Y038876D01*
Y038777D01*
X03915Y038682D01*
X039199Y038596D01*
X039269Y038526D01*
X039355Y038477D01*
X039451Y038451D01*
X039549D01*
X039645Y038477D01*
X039731Y038526D01*
X039771Y038567D01*
X042514D01*
X043656Y037426D01*
Y037323D01*
X043684Y037218D01*
X043739Y037123D01*
X043816Y037046D01*
X043911Y036991D01*
X044016Y036963D01*
X044125D01*
X044231Y036991D01*
X044326Y037046D01*
X044403Y037123D01*
X044458Y037218D01*
X044486Y037323D01*
Y037433D01*
X044458Y037538D01*
X044403Y037633D01*
X044326Y03771D01*
X044231Y037765D01*
X044125Y037793D01*
X044023D01*
X043844Y037972D01*
X043875Y038012D01*
X043911Y037991D01*
X044016Y037963D01*
X044021D01*
Y038328D01*
X043656D01*
Y038323D01*
X043684Y038218D01*
X043705Y038182D01*
X043665Y038151D01*
X042806Y03901D01*
X042752Y039052D01*
X042689Y039078D01*
X042622Y039086D01*
X039771D01*
X039731Y039127D01*
X039645Y039177D01*
X039549Y039202D01*
D02*
G37*
G36*
X044216Y023761D02*
X044211D01*
Y023396D01*
X044576D01*
Y023401D01*
X044548Y023507D01*
X044493Y023601D01*
X044416Y023679D01*
X044322Y023733D01*
X044216Y023761D01*
D02*
G37*
G36*
X044111D02*
X044107D01*
X044001Y023733D01*
X043907Y023679D01*
X043829Y023601D01*
X043775Y023507D01*
X043746Y023401D01*
Y023396D01*
X044111D01*
Y023761D01*
D02*
G37*
G36*
X039652Y02386D02*
X039553D01*
X039457Y023834D01*
X039372Y023785D01*
X039302Y023715D01*
X039252Y023629D01*
X039227Y023534D01*
Y023435D01*
X039252Y023339D01*
X039302Y023254D01*
X039372Y023184D01*
X039457Y023134D01*
X039553Y023109D01*
X039652D01*
X039747Y023134D01*
X039833Y023184D01*
X039903Y023254D01*
X039952Y023339D01*
X039978Y023435D01*
Y023534D01*
X039952Y023629D01*
X039903Y023715D01*
X039833Y023785D01*
X039747Y023834D01*
X039652Y02386D01*
D02*
G37*
G36*
X044576Y023296D02*
X044211D01*
Y022931D01*
X044216D01*
X044322Y02296D01*
X044416Y023014D01*
X044493Y023092D01*
X044548Y023186D01*
X044576Y023292D01*
Y023296D01*
D02*
G37*
G36*
X044111D02*
X043746D01*
Y023292D01*
X043775Y023186D01*
X043829Y023092D01*
X043907Y023014D01*
X044001Y02296D01*
X044107Y022931D01*
X044111D01*
Y023296D01*
D02*
G37*
G36*
X030629Y02288D02*
X030524D01*
X030422Y022852D01*
X030331Y0228D01*
X030257Y022725D01*
X030204Y022634D01*
X030177Y022532D01*
Y022427D01*
X030204Y022325D01*
X030257Y022234D01*
X030331Y022159D01*
X030422Y022107D01*
X030524Y02208D01*
X030629D01*
X030731Y022107D01*
X030822Y022159D01*
X030883Y02222D01*
X041243D01*
X0413Y022163D01*
X041354Y022122D01*
X041416Y022096D01*
X041484Y022087D01*
X043746D01*
Y021932D01*
X044576D01*
Y022761D01*
X043746D01*
Y022606D01*
X041591D01*
X041534Y022663D01*
X04148Y022704D01*
X041418Y02273D01*
X04135Y022739D01*
X030883D01*
X030822Y0228D01*
X030731Y022852D01*
X030629Y02288D01*
D02*
G37*
G36*
X040398Y021878D02*
X039398D01*
Y020878D01*
X040398D01*
Y021878D01*
D02*
G37*
G36*
X036963D02*
X036832D01*
X036705Y021844D01*
X036591Y021778D01*
X036498Y021685D01*
X036432Y021571D01*
X036398Y021444D01*
Y021312D01*
X036432Y021185D01*
X036498Y021071D01*
X036591Y020978D01*
X036705Y020912D01*
X036832Y020878D01*
X036963D01*
X037091Y020912D01*
X037205Y020978D01*
X037298Y021071D01*
X037364Y021185D01*
X037398Y021312D01*
Y021444D01*
X037364Y021571D01*
X037298Y021685D01*
X037205Y021778D01*
X037091Y021844D01*
X036963Y021878D01*
D02*
G37*
G36*
X040533Y019832D02*
X039703D01*
Y019002D01*
X040533D01*
Y019832D01*
D02*
G37*
G36*
X013103Y019033D02*
X013101D01*
Y018688D01*
X013446D01*
Y01869D01*
X01342Y01879D01*
X013367Y018881D01*
X013294Y018954D01*
X013204Y019006D01*
X013103Y019033D01*
D02*
G37*
G36*
X013001D02*
X012999D01*
X012899Y019006D01*
X012808Y018954D01*
X012735Y018881D01*
X012683Y01879D01*
X012656Y01869D01*
Y018688D01*
X013001D01*
Y019033D01*
D02*
G37*
G36*
X044157Y018852D02*
X044048D01*
X043942Y018824D01*
X043848Y018769D01*
X043775Y018697D01*
X04212D01*
X042052Y018688D01*
X042026Y018677D01*
X040445D01*
X040373Y018749D01*
X040278Y018804D01*
X040173Y018832D01*
X040063D01*
X039958Y018804D01*
X039863Y018749D01*
X039786Y018672D01*
X039731Y018577D01*
X039703Y018472D01*
Y018363D01*
X039731Y018257D01*
X039786Y018163D01*
X039863Y018085D01*
X039958Y018031D01*
X040063Y018002D01*
X040173D01*
X040278Y018031D01*
X040373Y018085D01*
X040445Y018158D01*
X0421D01*
X042167Y018166D01*
X042193Y018177D01*
X043775D01*
X043848Y018105D01*
X043942Y01805D01*
X044048Y018022D01*
X044157D01*
X044263Y01805D01*
X044357Y018105D01*
X044434Y018182D01*
X044489Y018277D01*
X044517Y018382D01*
Y018492D01*
X044489Y018597D01*
X044434Y018692D01*
X044357Y018769D01*
X044263Y018824D01*
X044157Y018852D01*
D02*
G37*
G36*
X029994Y019053D02*
X029895D01*
X0298Y019027D01*
X029714Y018978D01*
X029644Y018908D01*
X029595Y018822D01*
X029569Y018727D01*
Y018628D01*
X029595Y018532D01*
X029644Y018447D01*
X029714Y018377D01*
X0298Y018327D01*
X029895Y018302D01*
X029994D01*
X03009Y018327D01*
X030175Y018377D01*
X030245Y018447D01*
X030295Y018532D01*
X03032Y018628D01*
Y018727D01*
X030295Y018822D01*
X030245Y018908D01*
X030175Y018978D01*
X03009Y019027D01*
X029994Y019053D01*
D02*
G37*
G36*
X032206Y018305D02*
X031376D01*
Y017475D01*
X032206D01*
Y018305D01*
D02*
G37*
G36*
X044157Y017852D02*
X044048D01*
X043942Y017824D01*
X043848Y017769D01*
X04377Y017692D01*
X043716Y017597D01*
X043687Y017492D01*
Y017382D01*
X043716Y017277D01*
X04377Y017182D01*
X043848Y017105D01*
X043942Y01705D01*
X044048Y017022D01*
X044157D01*
X044263Y01705D01*
X044357Y017105D01*
X044434Y017182D01*
X044489Y017277D01*
X044517Y017382D01*
Y017492D01*
X044489Y017597D01*
X044434Y017692D01*
X044357Y017769D01*
X044263Y017824D01*
X044157Y017852D01*
D02*
G37*
G36*
Y016852D02*
X044048D01*
X043942Y016824D01*
X043848Y016769D01*
X04377Y016692D01*
X043716Y016597D01*
X043687Y016492D01*
Y016382D01*
X043716Y016277D01*
X04377Y016182D01*
X043848Y016105D01*
X043942Y01605D01*
X044048Y016022D01*
X044157D01*
X044263Y01605D01*
X044357Y016105D01*
X044434Y016182D01*
X044489Y016277D01*
X044517Y016382D01*
Y016492D01*
X044489Y016597D01*
X044434Y016692D01*
X044357Y016769D01*
X044263Y016824D01*
X044157Y016852D01*
D02*
G37*
G36*
X015338Y015877D02*
X015326D01*
Y015452D01*
X015751D01*
Y015464D01*
X015718Y015585D01*
X015656Y015693D01*
X015567Y015782D01*
X015459Y015844D01*
X015338Y015877D01*
D02*
G37*
G36*
X015226D02*
X015213D01*
X015092Y015844D01*
X014984Y015782D01*
X014895Y015693D01*
X014833Y015585D01*
X014801Y015464D01*
Y015452D01*
X015226D01*
Y015877D01*
D02*
G37*
G36*
X018645Y015873D02*
X018633D01*
Y015448D01*
X019058D01*
Y01546D01*
X019025Y015581D01*
X018963Y015689D01*
X018874Y015778D01*
X018766Y01584D01*
X018645Y015873D01*
D02*
G37*
G36*
X018533D02*
X01852D01*
X018399Y01584D01*
X018291Y015778D01*
X018203Y015689D01*
X01814Y015581D01*
X018108Y01546D01*
Y015448D01*
X018533D01*
Y015873D01*
D02*
G37*
G36*
X027637Y015714D02*
X027633D01*
Y015349D01*
X027998D01*
Y015354D01*
X027969Y015459D01*
X027915Y015554D01*
X027837Y015631D01*
X027743Y015686D01*
X027637Y015714D01*
D02*
G37*
G36*
X027533D02*
X027528D01*
X027423Y015686D01*
X027328Y015631D01*
X027251Y015554D01*
X027196Y015459D01*
X027168Y015354D01*
Y015349D01*
X027533D01*
Y015714D01*
D02*
G37*
G36*
X035614Y015671D02*
X035609D01*
Y015306D01*
X035974D01*
Y015311D01*
X035946Y015416D01*
X035891Y015511D01*
X035814Y015588D01*
X035719Y015643D01*
X035614Y015671D01*
D02*
G37*
G36*
X035509D02*
X035504D01*
X035399Y015643D01*
X035304Y015588D01*
X035227Y015511D01*
X035172Y015416D01*
X035144Y015311D01*
Y015306D01*
X035509D01*
Y015671D01*
D02*
G37*
G36*
X021677D02*
X021672D01*
Y015306D01*
X022037D01*
Y015311D01*
X022009Y015416D01*
X021954Y015511D01*
X021877Y015588D01*
X021782Y015643D01*
X021677Y015671D01*
D02*
G37*
G36*
X021572D02*
X021567D01*
X021462Y015643D01*
X021367Y015588D01*
X02129Y015511D01*
X021235Y015416D01*
X021207Y015311D01*
Y015306D01*
X021572D01*
Y015671D01*
D02*
G37*
G36*
X011934Y015376D02*
X011932D01*
Y01503D01*
X012277D01*
Y015032D01*
X01225Y015133D01*
X012198Y015223D01*
X012125Y015297D01*
X012034Y015349D01*
X011934Y015376D01*
D02*
G37*
G36*
X011832D02*
X01183D01*
X011729Y015349D01*
X011639Y015297D01*
X011566Y015223D01*
X011514Y015133D01*
X011487Y015032D01*
Y01503D01*
X011832D01*
Y015376D01*
D02*
G37*
G36*
X044517Y015852D02*
X043687D01*
Y015022D01*
X044517D01*
Y015852D01*
D02*
G37*
G36*
X015751Y015352D02*
X015326D01*
Y014927D01*
X015338D01*
X015459Y014959D01*
X015567Y015021D01*
X015656Y01511D01*
X015718Y015218D01*
X015751Y015339D01*
Y015352D01*
D02*
G37*
G36*
X015226D02*
X014801D01*
Y015339D01*
X014833Y015218D01*
X014895Y01511D01*
X014984Y015021D01*
X015092Y014959D01*
X015213Y014927D01*
X015226D01*
Y015352D01*
D02*
G37*
G36*
X013338Y015877D02*
X013213D01*
X013092Y015844D01*
X012984Y015782D01*
X012895Y015693D01*
X012833Y015585D01*
X012801Y015464D01*
Y015339D01*
X012833Y015218D01*
X012895Y01511D01*
X012984Y015021D01*
X013092Y014959D01*
X013213Y014927D01*
X013338D01*
X013459Y014959D01*
X013567Y015021D01*
X013656Y01511D01*
X013718Y015218D01*
X013751Y015339D01*
Y015464D01*
X013718Y015585D01*
X013656Y015693D01*
X013567Y015782D01*
X013459Y015844D01*
X013338Y015877D01*
D02*
G37*
G36*
X019058Y015348D02*
X018633D01*
Y014923D01*
X018645D01*
X018766Y014955D01*
X018874Y015018D01*
X018963Y015106D01*
X019025Y015214D01*
X019058Y015335D01*
Y015348D01*
D02*
G37*
G36*
X018533D02*
X018108D01*
Y015335D01*
X01814Y015214D01*
X018203Y015106D01*
X018291Y015018D01*
X018399Y014955D01*
X01852Y014923D01*
X018533D01*
Y015348D01*
D02*
G37*
G36*
X016645Y015873D02*
X01652D01*
X016399Y01584D01*
X016291Y015778D01*
X016203Y015689D01*
X01614Y015581D01*
X016108Y01546D01*
Y015335D01*
X01614Y015214D01*
X016203Y015106D01*
X016291Y015018D01*
X016399Y014955D01*
X01652Y014923D01*
X016645D01*
X016766Y014955D01*
X016874Y015018D01*
X016963Y015106D01*
X017025Y015214D01*
X017058Y015335D01*
Y01546D01*
X017025Y015581D01*
X016963Y015689D01*
X016874Y015778D01*
X016766Y01584D01*
X016645Y015873D01*
D02*
G37*
G36*
X031637Y015714D02*
X031528D01*
X031423Y015686D01*
X031328Y015631D01*
X031251Y015554D01*
X031196Y015459D01*
X031168Y015354D01*
Y015245D01*
X031196Y015139D01*
X031251Y015044D01*
X031328Y014967D01*
X031423Y014913D01*
X031528Y014884D01*
X031637D01*
X031743Y014913D01*
X031837Y014967D01*
X031915Y015044D01*
X031969Y015139D01*
X031998Y015245D01*
Y015354D01*
X031969Y015459D01*
X031915Y015554D01*
X031837Y015631D01*
X031743Y015686D01*
X031637Y015714D01*
D02*
G37*
G36*
X030637D02*
X030528D01*
X030423Y015686D01*
X030328Y015631D01*
X030251Y015554D01*
X030196Y015459D01*
X030168Y015354D01*
Y015245D01*
X030196Y015139D01*
X030251Y015044D01*
X030328Y014967D01*
X030423Y014913D01*
X030528Y014884D01*
X030637D01*
X030743Y014913D01*
X030837Y014967D01*
X030915Y015044D01*
X030969Y015139D01*
X030998Y015245D01*
Y015354D01*
X030969Y015459D01*
X030915Y015554D01*
X030837Y015631D01*
X030743Y015686D01*
X030637Y015714D01*
D02*
G37*
G36*
X029637D02*
X029528D01*
X029423Y015686D01*
X029328Y015631D01*
X029251Y015554D01*
X029196Y015459D01*
X029168Y015354D01*
Y015245D01*
X029196Y015139D01*
X029251Y015044D01*
X029328Y014967D01*
X029423Y014913D01*
X029528Y014884D01*
X029637D01*
X029743Y014913D01*
X029837Y014967D01*
X029915Y015044D01*
X029969Y015139D01*
X029998Y015245D01*
Y015354D01*
X029969Y015459D01*
X029915Y015554D01*
X029837Y015631D01*
X029743Y015686D01*
X029637Y015714D01*
D02*
G37*
G36*
X028637D02*
X028528D01*
X028423Y015686D01*
X028328Y015631D01*
X028251Y015554D01*
X028196Y015459D01*
X028168Y015354D01*
Y015245D01*
X028196Y015139D01*
X028251Y015044D01*
X028328Y014967D01*
X028423Y014913D01*
X028528Y014884D01*
X028637D01*
X028743Y014913D01*
X028837Y014967D01*
X028915Y015044D01*
X028969Y015139D01*
X028998Y015245D01*
Y015354D01*
X028969Y015459D01*
X028915Y015554D01*
X028837Y015631D01*
X028743Y015686D01*
X028637Y015714D01*
D02*
G37*
G36*
X027998Y015249D02*
X027633D01*
Y014884D01*
X027637D01*
X027743Y014913D01*
X027837Y014967D01*
X027915Y015044D01*
X027969Y015139D01*
X027998Y015245D01*
Y015249D01*
D02*
G37*
G36*
X036614Y015671D02*
X036504D01*
X036399Y015643D01*
X036304Y015588D01*
X036227Y015511D01*
X036172Y015416D01*
X036144Y015311D01*
Y015201D01*
X036172Y015096D01*
X036227Y015001D01*
X036304Y014924D01*
X036399Y014869D01*
X036504Y014841D01*
X036614D01*
X036719Y014869D01*
X036814Y014924D01*
X036891Y015001D01*
X036946Y015096D01*
X036974Y015201D01*
Y015311D01*
X036946Y015416D01*
X036891Y015511D01*
X036814Y015588D01*
X036719Y015643D01*
X036614Y015671D01*
D02*
G37*
G36*
X035974Y015206D02*
X035609D01*
Y014841D01*
X035614D01*
X035719Y014869D01*
X035814Y014924D01*
X035891Y015001D01*
X035946Y015096D01*
X035974Y015201D01*
Y015206D01*
D02*
G37*
G36*
X035509D02*
X035144D01*
Y015201D01*
X035172Y015096D01*
X035227Y015001D01*
X035304Y014924D01*
X035399Y014869D01*
X035504Y014841D01*
X035509D01*
Y015206D01*
D02*
G37*
G36*
X034974Y015671D02*
X034144D01*
Y014841D01*
X034974D01*
Y015671D01*
D02*
G37*
G36*
X023677D02*
X023567D01*
X023462Y015643D01*
X023367Y015588D01*
X02329Y015511D01*
X023235Y015416D01*
X023207Y015311D01*
Y015201D01*
X023235Y015096D01*
X02329Y015001D01*
X023367Y014924D01*
X023462Y014869D01*
X023567Y014841D01*
X023677D01*
X023782Y014869D01*
X023877Y014924D01*
X023954Y015001D01*
X024009Y015096D01*
X024037Y015201D01*
Y015311D01*
X024009Y015416D01*
X023954Y015511D01*
X023877Y015588D01*
X023782Y015643D01*
X023677Y015671D01*
D02*
G37*
G36*
X022677D02*
X022567D01*
X022462Y015643D01*
X022367Y015588D01*
X02229Y015511D01*
X022235Y015416D01*
X022207Y015311D01*
Y015201D01*
X022235Y015096D01*
X02229Y015001D01*
X022367Y014924D01*
X022462Y014869D01*
X022567Y014841D01*
X022677D01*
X022782Y014869D01*
X022877Y014924D01*
X022954Y015001D01*
X023009Y015096D01*
X023037Y015201D01*
Y015311D01*
X023009Y015416D01*
X022954Y015511D01*
X022877Y015588D01*
X022782Y015643D01*
X022677Y015671D01*
D02*
G37*
G36*
X022037Y015206D02*
X021672D01*
Y014841D01*
X021677D01*
X021782Y014869D01*
X021877Y014924D01*
X021954Y015001D01*
X022009Y015096D01*
X022037Y015201D01*
Y015206D01*
D02*
G37*
G36*
X012277Y01493D02*
X011932D01*
Y014585D01*
X011934D01*
X012034Y014612D01*
X012125Y014664D01*
X012198Y014738D01*
X01225Y014828D01*
X012277Y014928D01*
Y01493D01*
D02*
G37*
G36*
X011832D02*
X011487D01*
Y014928D01*
X011514Y014828D01*
X011566Y014738D01*
X011639Y014664D01*
X011729Y014612D01*
X01183Y014585D01*
X011832D01*
Y01493D01*
D02*
G37*
G36*
X046375Y013478D02*
X0462D01*
X046029Y013444D01*
X045867Y013377D01*
X045722Y01328D01*
X045598Y013156D01*
X045501Y013011D01*
X045434Y012849D01*
X0454Y012678D01*
Y012503D01*
X045434Y012332D01*
X045501Y01217D01*
X045598Y012025D01*
X045722Y011901D01*
X045867Y011804D01*
X046029Y011737D01*
X0462Y011703D01*
X046375D01*
X046546Y011737D01*
X046708Y011804D01*
X046853Y011901D01*
X046977Y012025D01*
X047074Y01217D01*
X047141Y012332D01*
X047175Y012503D01*
Y012678D01*
X047141Y012849D01*
X047074Y013011D01*
X046977Y013156D01*
X046853Y01328D01*
X046708Y013377D01*
X046546Y013444D01*
X046375Y013478D01*
D02*
G37*
G36*
X011721Y013466D02*
X011546D01*
X011375Y013432D01*
X011214Y013365D01*
X011068Y013268D01*
X010945Y013144D01*
X010847Y012999D01*
X010781Y012838D01*
X010746Y012666D01*
Y012491D01*
X010781Y01232D01*
X010847Y012158D01*
X010945Y012013D01*
X011068Y011889D01*
X011214Y011792D01*
X011375Y011725D01*
X011546Y011691D01*
X011721D01*
X011893Y011725D01*
X012054Y011792D01*
X0122Y011889D01*
X012323Y012013D01*
X01242Y012158D01*
X012487Y01232D01*
X012521Y012491D01*
Y012666D01*
X012487Y012838D01*
X01242Y012999D01*
X012323Y013144D01*
X0122Y013268D01*
X012054Y013365D01*
X011893Y013432D01*
X011721Y013466D01*
D02*
G37*
%LPD*%
G36*
X03862Y03364D02*
X03838Y0334D01*
X027295D01*
X027275Y03342D01*
X027195Y033466D01*
X027106Y03349D01*
X027014D01*
X026925Y033466D01*
X026845Y03342D01*
X02678Y033355D01*
X026734Y033275D01*
X02671Y033186D01*
Y033094D01*
X026734Y033005D01*
X02678Y032925D01*
X026845Y03286D01*
X026925Y032814D01*
X027014Y03279D01*
X027106D01*
X027195Y032814D01*
X027275Y03286D01*
X027295Y03288D01*
X038487D01*
X038554Y032889D01*
X038617Y032915D01*
X038671Y032956D01*
X039059Y033344D01*
X039105Y033325D01*
Y033313D01*
X03913Y033217D01*
X03918Y033132D01*
X03925Y033062D01*
X039335Y033012D01*
X03943Y032987D01*
Y033362D01*
X03948D01*
Y033412D01*
X039856D01*
X03983Y033507D01*
X039785Y033586D01*
X039801Y033636D01*
X04058D01*
X043798Y030418D01*
Y030315D01*
X043826Y03021D01*
X043881Y030115D01*
X043958Y030038D01*
X044052Y029983D01*
X044158Y029955D01*
X044267D01*
X044373Y029983D01*
X044467Y030038D01*
X044484Y030055D01*
X04453Y030036D01*
Y029705D01*
X044484Y029685D01*
X044467Y029702D01*
X044373Y029757D01*
X044267Y029785D01*
X044263D01*
Y02937D01*
Y028955D01*
X044267D01*
X044373Y028983D01*
X044467Y029038D01*
X044484Y029055D01*
X04453Y029036D01*
Y028785D01*
X043798D01*
Y02798D01*
X04278D01*
X042713Y027971D01*
X04265Y027945D01*
X042596Y027904D01*
X041083Y02639D01*
X02831D01*
X028243Y026381D01*
X02818Y026355D01*
X028126Y026314D01*
X023982Y02217D01*
X022448D01*
X022429Y022216D01*
X022447Y022234D01*
X0225Y022325D01*
X022527Y022427D01*
Y022438D01*
X022577Y022467D01*
X022621Y022442D01*
X02271Y022418D01*
X022802D01*
X022891Y022442D01*
X022971Y022488D01*
X023036Y022553D01*
X023082Y022633D01*
X023106Y022722D01*
Y022814D01*
X023082Y022903D01*
X023036Y022983D01*
X022971Y023048D01*
X022891Y023094D01*
X022802Y023118D01*
X022773D01*
X022387Y023504D01*
X022333Y023545D01*
X022271Y023571D01*
X022204Y02358D01*
X020741D01*
X020673Y023571D01*
X020611Y023545D01*
X020557Y023504D01*
X019372Y022319D01*
X019203D01*
X019187Y022369D01*
X019258Y022462D01*
X019308Y022582D01*
X019325Y02271D01*
X019308Y022839D01*
X019258Y022959D01*
X019179Y023063D01*
X019076Y023142D01*
X01896Y02319D01*
X018956Y023201D01*
Y02323D01*
X01896Y023241D01*
X019076Y023289D01*
X019179Y023368D01*
X019258Y023472D01*
X019308Y023592D01*
X019325Y02372D01*
X019308Y023849D01*
X019258Y023969D01*
X019179Y024073D01*
X019076Y024152D01*
X018975Y024193D01*
Y024248D01*
X019076Y024289D01*
X019179Y024368D01*
X01925Y024461D01*
X02118D01*
X021247Y02447D01*
X02131Y024496D01*
X021364Y024537D01*
X023272Y026445D01*
X03285D01*
X032879Y026449D01*
X032894Y026445D01*
X032986D01*
X033075Y026469D01*
X033155Y026515D01*
X03322Y02658D01*
X033266Y02666D01*
X03329Y026749D01*
Y026841D01*
X033266Y02693D01*
X03322Y02701D01*
X033155Y027075D01*
X033127Y027091D01*
X03314Y027141D01*
X033337D01*
X033702Y026776D01*
X033756Y026735D01*
X033819Y026709D01*
X033886Y0267D01*
X040199D01*
X040266Y026709D01*
X040329Y026735D01*
X040382Y026776D01*
X042937Y029331D01*
X042966D01*
X043055Y029355D01*
X043135Y029401D01*
X0432Y029466D01*
X043246Y029546D01*
X04327Y029635D01*
Y029727D01*
X043246Y029816D01*
X0432Y029896D01*
X043135Y029961D01*
X043055Y030007D01*
X042966Y030031D01*
X042874D01*
X042785Y030007D01*
X042705Y029961D01*
X04264Y029896D01*
X042594Y029816D01*
X04257Y029727D01*
Y029698D01*
X040091Y02722D01*
X039919D01*
X039899Y027266D01*
X039903Y027269D01*
X039952Y027355D01*
X039978Y027451D01*
Y027549D01*
X039952Y027645D01*
X039903Y027731D01*
X039833Y027801D01*
X039747Y02785D01*
X039652Y027876D01*
X039553D01*
X039457Y02785D01*
X039372Y027801D01*
X039302Y027731D01*
X039252Y027645D01*
X039227Y027549D01*
Y027451D01*
X039252Y027355D01*
X039302Y027269D01*
X039305Y027266D01*
X039286Y02722D01*
X034953D01*
X034943Y02727D01*
X035037Y027363D01*
X035108Y027487D01*
X035145Y027625D01*
Y027768D01*
X035108Y027906D01*
X035037Y02803D01*
X034936Y028131D01*
X034812Y028203D01*
X034674Y02824D01*
X034531D01*
X034393Y028203D01*
X034269Y028131D01*
X034168Y02803D01*
X034096Y027906D01*
X034059Y027768D01*
Y027625D01*
X034096Y027487D01*
X034168Y027363D01*
X034262Y02727D01*
X034251Y02722D01*
X033994D01*
X033629Y027585D01*
X033575Y027626D01*
X033512Y027652D01*
X033445Y027661D01*
X023181D01*
X023114Y027652D01*
X023051Y027626D01*
X022997Y027585D01*
X021393Y02598D01*
X01925D01*
X019179Y026073D01*
X019076Y026152D01*
X018975Y026193D01*
Y026248D01*
X019076Y026289D01*
X019179Y026368D01*
X01925Y026461D01*
X01959D01*
X019658Y02647D01*
X01972Y026496D01*
X019774Y026537D01*
X021548Y02831D01*
X03651D01*
X036577Y028319D01*
X03664Y028345D01*
X036694Y028386D01*
X039967Y03166D01*
X039996D01*
X040085Y031684D01*
X040165Y03173D01*
X04023Y031795D01*
X040276Y031875D01*
X0403Y031964D01*
Y032056D01*
X040276Y032145D01*
X04023Y032225D01*
X040165Y03229D01*
X040085Y032336D01*
X039996Y03236D01*
X039904D01*
X039815Y032336D01*
X039812Y032334D01*
X039775Y032371D01*
X039806Y032425D01*
X03983Y032514D01*
Y032606D01*
X039806Y032695D01*
X03976Y032775D01*
X039695Y03284D01*
X039615Y032886D01*
X039526Y03291D01*
X039434D01*
X039345Y032886D01*
X039265Y03284D01*
X0392Y032775D01*
X039154Y032695D01*
X03913Y032606D01*
Y032577D01*
X036533Y02998D01*
X01925D01*
X019179Y030073D01*
X019076Y030152D01*
X018975Y030193D01*
Y030248D01*
X019076Y030289D01*
X019179Y030368D01*
X01925Y030461D01*
X02112D01*
X021187Y03047D01*
X02125Y030496D01*
X021304Y030537D01*
X024457Y03369D01*
X0386D01*
X03862Y03364D01*
D02*
G37*
G36*
X01598Y025472D02*
Y023915D01*
X01596Y023895D01*
X015914Y023815D01*
X01589Y023726D01*
Y023634D01*
X015914Y023545D01*
X01596Y023465D01*
X016025Y0234D01*
X016105Y023354D01*
X016194Y02333D01*
X016286D01*
X016375Y023354D01*
X016455Y0234D01*
X016513Y023388D01*
X016525Y023359D01*
X016566Y023306D01*
X017907Y021965D01*
X017887Y021914D01*
X017856Y021911D01*
X017804Y021964D01*
X01775Y022005D01*
X017687Y022031D01*
X01762Y02204D01*
X012908D01*
X012768Y02218D01*
X012787Y022218D01*
Y022716D01*
X012837D01*
Y022766D01*
X013328D01*
X013318Y022845D01*
X013268Y022965D01*
X013189Y023068D01*
X013086Y023147D01*
X012985Y023189D01*
Y023243D01*
X013086Y023285D01*
X013189Y023364D01*
X013268Y023467D01*
X013318Y023587D01*
X013328Y023666D01*
X012837D01*
Y023766D01*
X013328D01*
X013318Y023845D01*
X013268Y023965D01*
X013189Y024068D01*
X013086Y024147D01*
X012985Y024189D01*
Y024243D01*
X013086Y024285D01*
X013189Y024364D01*
X013268Y024467D01*
X013318Y024587D01*
X013335Y024716D01*
X013318Y024845D01*
X013268Y024965D01*
X013189Y025068D01*
X013086Y025147D01*
X012985Y025189D01*
Y025243D01*
X013086Y025285D01*
X013189Y025364D01*
X01326Y025457D01*
X013762D01*
X01488Y024339D01*
Y02431D01*
X014904Y024221D01*
X01495Y024141D01*
X015015Y024076D01*
X015095Y02403D01*
X015184Y024006D01*
X015276D01*
X015365Y02403D01*
X015445Y024076D01*
X01551Y024141D01*
X015556Y024221D01*
X01558Y02431D01*
Y024402D01*
X015556Y024491D01*
X01551Y024571D01*
X015445Y024636D01*
X015365Y024682D01*
X015276Y024706D01*
X015247D01*
X014054Y0259D01*
X014Y025941D01*
X013937Y025967D01*
X01387Y025976D01*
X01326D01*
X013189Y026068D01*
X013086Y026147D01*
X012985Y026189D01*
Y026243D01*
X013086Y026285D01*
X013189Y026364D01*
X01326Y026456D01*
X014996D01*
X01598Y025472D01*
D02*
G37*
G36*
X022242Y022915D02*
X022216Y02287D01*
X022179Y02288D01*
X022177D01*
Y02248D01*
X022127D01*
Y02243D01*
X021727D01*
Y022427D01*
X021754Y022325D01*
X021807Y022234D01*
X021825Y022216D01*
X021806Y02217D01*
X020056D01*
X020024Y022166D01*
X020001Y022213D01*
X020848Y02306D01*
X022096D01*
X022242Y022915D01*
D02*
G37*
%LPC*%
G36*
X039856Y033312D02*
X03953D01*
Y032987D01*
X039625Y033012D01*
X039711Y033062D01*
X039781Y033132D01*
X03983Y033217D01*
X039856Y033312D01*
D02*
G37*
G36*
X044163Y029785D02*
X044158D01*
X044052Y029757D01*
X043958Y029702D01*
X043881Y029625D01*
X043826Y02953D01*
X043798Y029425D01*
Y02942D01*
X044163D01*
Y029785D01*
D02*
G37*
G36*
X03953Y029722D02*
X039431D01*
X039335Y029696D01*
X03925Y029647D01*
X03918Y029577D01*
X03913Y029491D01*
X039105Y029396D01*
Y029297D01*
X03913Y029201D01*
X03918Y029116D01*
X03925Y029046D01*
X039335Y028996D01*
X039431Y028971D01*
X03953D01*
X039625Y028996D01*
X039711Y029046D01*
X039781Y029116D01*
X03983Y029201D01*
X039856Y029297D01*
Y029396D01*
X03983Y029491D01*
X039781Y029577D01*
X039711Y029647D01*
X039625Y029696D01*
X03953Y029722D01*
D02*
G37*
G36*
X044163Y02932D02*
X043798D01*
Y029315D01*
X043826Y02921D01*
X043881Y029115D01*
X043958Y029038D01*
X044052Y028983D01*
X044158Y028955D01*
X044163D01*
Y02932D01*
D02*
G37*
G36*
X023004Y025668D02*
X022849D01*
X022697Y025638D01*
X022553Y025579D01*
X022424Y025492D01*
X022314Y025382D01*
X022228Y025253D01*
X022168Y02511D01*
X022138Y024957D01*
Y024802D01*
X022168Y024649D01*
X022228Y024506D01*
X022314Y024377D01*
X022424Y024267D01*
X022553Y02418D01*
X022697Y024121D01*
X022849Y024091D01*
X023004D01*
X023157Y024121D01*
X0233Y02418D01*
X02343Y024267D01*
X02354Y024377D01*
X023626Y024506D01*
X023685Y024649D01*
X023716Y024802D01*
Y024957D01*
X023685Y02511D01*
X023626Y025253D01*
X02354Y025382D01*
X02343Y025492D01*
X0233Y025579D01*
X023157Y025638D01*
X023004Y025668D01*
D02*
G37*
G36*
X013328Y022666D02*
X012887D01*
Y022225D01*
X012966Y022235D01*
X013086Y022285D01*
X013189Y022364D01*
X013268Y022467D01*
X013318Y022587D01*
X013328Y022666D01*
D02*
G37*
G36*
X022077Y02288D02*
X022074D01*
X021972Y022852D01*
X021881Y0228D01*
X021807Y022725D01*
X021754Y022634D01*
X021727Y022532D01*
Y02253D01*
X022077D01*
Y02288D01*
D02*
G37*
%LPD*%
D42*
X018827Y04072D02*
X02394D01*
X02838Y04516D01*
X030577Y02248D02*
X04135D01*
X041484Y022346D01*
X03734Y03808D02*
X038992Y039732D01*
X041433D02*
X043555Y041854D01*
X038992Y039732D02*
X041433D01*
X020741Y02332D02*
X022204D01*
X022756Y022768D01*
X011287Y026827D02*
Y035224D01*
X01098Y02652D02*
X011287Y026827D01*
X01098Y0184D02*
Y02652D01*
X010539Y014771D02*
Y036056D01*
X0112Y036716D01*
X010539Y014771D02*
X0112Y01411D01*
X039338Y013488D02*
X04014Y01429D01*
X01395Y01411D02*
X014572Y013488D01*
X039338D01*
X028198Y014683D02*
X034987D01*
X035559Y015256D01*
X027613Y014268D02*
X037572D01*
X026642Y01624D02*
X028198Y014683D01*
X026583Y015299D02*
X027613Y014268D01*
X037572D02*
X038559Y015256D01*
X044213Y03308D02*
X04451D01*
X043879Y04453D02*
X044555Y043854D01*
X042795Y04453D02*
X043879D01*
X039383Y041118D02*
X042795Y04453D01*
X0395Y038827D02*
X042622D01*
X044071Y037378D01*
X036482Y041903D02*
X037287Y041098D01*
X035947Y041903D02*
X036482D01*
X035142Y041098D02*
X035947Y041903D01*
X021617Y018547D02*
X024724D01*
X01968Y01661D02*
X021617Y018547D01*
X012512Y01661D02*
X01968D01*
X011882Y01598D02*
X012512Y01661D01*
X038639Y03395D02*
X0395Y034811D01*
X02435Y03395D02*
X038639D01*
X02112Y03072D02*
X02435Y03395D01*
X018827Y03072D02*
X02112D01*
X015343Y018567D02*
X017286Y02051D01*
X024658D01*
X025929Y019239D01*
Y018677D02*
Y019239D01*
X028471Y025346D02*
X044161D01*
X024354Y021229D02*
X028471Y025346D01*
X012141Y021229D02*
X024354D01*
X01176Y02161D02*
X012141Y021229D01*
X01176Y02161D02*
Y034076D01*
X0124Y034716D01*
X012837D01*
X028818Y024346D02*
X044161D01*
X02676Y022288D02*
X028818Y024346D01*
X02676Y0184D02*
Y022288D01*
X02645Y01809D02*
X02676Y0184D01*
X025567Y01809D02*
X02645D01*
X025257Y0184D02*
X025567Y01809D01*
X025257Y0184D02*
Y018823D01*
X025Y01908D02*
X025257Y018823D01*
X0204Y01908D02*
X025D01*
X02017Y01885D02*
X0204Y01908D01*
X02017Y01842D02*
Y01885D01*
X01971Y01796D02*
X02017Y01842D01*
X01142Y01796D02*
X01971D01*
X01098Y0184D02*
X01142Y01796D01*
X037559Y015256D02*
X038363Y01606D01*
X03968D01*
X04014Y0156D01*
Y01429D02*
Y0156D01*
X0112Y01411D02*
X01395D01*
X0112Y036716D02*
X012837D01*
X04022Y033362D02*
X044213Y02937D01*
X03948Y033362D02*
X04022D01*
X014554Y01468D02*
X015276Y015402D01*
X012182Y01468D02*
X014554D01*
X011882Y01498D02*
X012182Y01468D01*
X015276Y015402D02*
X015562D01*
X01628Y01612D01*
X01786D01*
X018583Y015398D01*
X021028Y01585D02*
X021622Y015256D01*
X019035Y01585D02*
X021028D01*
X018583Y015398D02*
X019035Y01585D01*
X01948Y022059D02*
X020741Y02332D01*
X01818Y022059D02*
X01948D01*
X01675Y023489D02*
X01818Y022059D01*
X01675Y023489D02*
Y02651D01*
X015544Y027716D02*
X01675Y02651D01*
X012837Y027716D02*
X015544D01*
X040199Y02696D02*
X04292Y029681D01*
X033886Y02696D02*
X040199D01*
X033445Y027401D02*
X033886Y02696D01*
X023181Y027401D02*
X033445D01*
X0215Y02572D02*
X023181Y027401D01*
X018827Y02572D02*
X0215D01*
X018827Y02672D02*
X01959D01*
X02144Y02857D01*
X03651D01*
X03995Y03201D01*
X04209Y041389D02*
X043555Y042854D01*
X01767Y04291D02*
X022205Y047445D01*
X039917D01*
X01972Y03816D02*
X030217D01*
X03138Y039323D01*
X03237D01*
X03115Y03808D02*
X03734D01*
X03285Y026705D02*
X03294Y026795D01*
X023165Y026705D02*
X03285D01*
X02118Y02472D02*
X023165Y026705D01*
X018827Y02472D02*
X02118D01*
X01387Y025716D02*
X01523Y024356D01*
X012837Y025716D02*
X01387D01*
X028155Y035985D02*
X02831Y03583D01*
X040753D01*
X044213Y03237D01*
Y03308D02*
Y03337D01*
X04451Y03308D02*
X04479Y0328D01*
Y0279D02*
Y0328D01*
X04461Y02772D02*
X04479Y0279D01*
X04278Y02772D02*
X04461D01*
X04119Y02613D02*
X04278Y02772D01*
X02831Y02613D02*
X04119D01*
X02409Y02191D02*
X02831Y02613D01*
X020056Y02191D02*
X02409D01*
X01979Y021644D02*
X020056Y02191D01*
X017756Y021644D02*
X01979D01*
X01762Y02178D02*
X017756Y021644D01*
X0128Y02178D02*
X01762D01*
X01218Y0224D02*
X0128Y02178D01*
X01218Y0224D02*
Y030386D01*
X01251Y030716D01*
X012837D01*
X0278Y035344D02*
X040239D01*
X044213Y03137D01*
X012837Y033716D02*
X0149D01*
X01508Y03921D01*
X01827Y0424D01*
X01917D01*
X01957Y042D01*
Y04148D02*
Y042D01*
X02706Y03314D02*
X038487D01*
X039243Y033895D01*
X040687D01*
X044213Y03037D01*
X032399Y041098D02*
X035142D01*
X03023Y03893D02*
X032399Y041098D01*
X02113Y03893D02*
X03023D01*
X02034Y03972D02*
X02113Y03893D01*
X018827Y03972D02*
X02034D01*
X018827Y02972D02*
X03664D01*
X03948Y03256D01*
X018827Y03272D02*
X02177D01*
X02376Y03471D01*
X03399D01*
X012837Y026716D02*
X015104D01*
X01624Y02558D01*
Y02368D02*
Y02558D01*
X02838Y04516D02*
X0444D01*
X04512Y04444D01*
Y043419D02*
Y04444D01*
X044555Y042854D02*
X04512Y043419D01*
X035559Y015256D02*
Y018839D01*
X0369Y02018D01*
X04378D01*
X04474Y02114D01*
Y022768D01*
X044161Y023346D02*
X04474Y022768D01*
X041484Y022346D02*
X044161D01*
X01802Y03072D02*
X018827D01*
X017016Y029716D02*
X01802Y03072D01*
X012837Y029716D02*
X017016D01*
X037287Y0404D02*
Y041098D01*
Y0404D02*
X037747Y03994D01*
X038205D01*
X039383Y041118D01*
X020622Y015256D02*
X021648Y01423D01*
X025513D01*
X026583Y015299D01*
X021622Y015256D02*
X022606Y01624D01*
X026642D01*
X014731Y018567D02*
X015343D01*
X01466Y018638D02*
X014731Y018567D01*
X014051Y018638D02*
X01466D01*
X04212Y018437D02*
X044102D01*
X0421Y018417D02*
X04212Y018437D01*
X040118Y018417D02*
X0421D01*
X039812Y036378D02*
X044071D01*
X03881Y03738D02*
X039812Y036378D01*
X02752Y03738D02*
X03881D01*
X02586Y03572D02*
X02752Y03738D01*
X018827Y03572D02*
X02586D01*
D43*
X011882Y01598D02*
D03*
Y01498D02*
D03*
X013051Y018638D02*
D03*
X014051D02*
D03*
D44*
X036898Y021378D02*
D03*
D45*
X039898D02*
D03*
D46*
X039602Y0275D02*
D03*
Y023484D02*
D03*
X029945Y018677D02*
D03*
X025929D02*
D03*
X024724Y018547D02*
D03*
X020709D02*
D03*
X015343Y018567D02*
D03*
X019358D02*
D03*
X039917Y047445D02*
D03*
Y043429D02*
D03*
X0395Y034811D02*
D03*
Y038827D02*
D03*
X03948Y033362D02*
D03*
Y029346D02*
D03*
X037315Y043894D02*
D03*
X033299D02*
D03*
X036386Y039323D02*
D03*
X03237D02*
D03*
D47*
X031791Y01789D02*
D03*
X020622Y015256D02*
D03*
X034559D02*
D03*
X026583Y015299D02*
D03*
D48*
X039383Y041118D02*
D03*
X037287Y041098D02*
D03*
X035142D02*
D03*
D49*
X040383Y041118D02*
D03*
X038287Y041098D02*
D03*
X036142D02*
D03*
D50*
X034602Y027697D02*
D03*
Y036594D02*
D03*
D51*
X040118Y019417D02*
D03*
X044213Y02837D02*
D03*
X044071Y036378D02*
D03*
X044161Y022346D02*
D03*
X044102Y015437D02*
D03*
D52*
X040118Y018417D02*
D03*
X044213Y03337D02*
D03*
Y03237D02*
D03*
Y03137D02*
D03*
Y02937D02*
D03*
Y03037D02*
D03*
X044071Y037378D02*
D03*
Y038378D02*
D03*
X023622Y015256D02*
D03*
X021622D02*
D03*
X022622D02*
D03*
X039559D02*
D03*
X038559D02*
D03*
X037559D02*
D03*
X035559D02*
D03*
X036559D02*
D03*
X044161Y025346D02*
D03*
Y023346D02*
D03*
Y024346D02*
D03*
X044102Y018437D02*
D03*
Y016437D02*
D03*
Y017437D02*
D03*
X028583Y015299D02*
D03*
X027583D02*
D03*
X029583D02*
D03*
X030583D02*
D03*
X031583D02*
D03*
D53*
X033163Y046078D02*
D03*
X038063Y046028D02*
D03*
X036813D02*
D03*
X035613Y046078D02*
D03*
X034413Y046028D02*
D03*
X022927Y02488D02*
D03*
X030177Y04023D02*
D03*
X022127Y02248D02*
D03*
X030577D02*
D03*
X022127Y04253D02*
D03*
X030627D02*
D03*
D54*
X01165Y047232D02*
D03*
X046303Y04722D02*
D03*
X046287Y012591D02*
D03*
X011634Y012579D02*
D03*
D55*
X018827Y03872D02*
D03*
Y03972D02*
D03*
Y04172D02*
D03*
Y03772D02*
D03*
Y04072D02*
D03*
Y03672D02*
D03*
X012837Y026716D02*
D03*
Y022716D02*
D03*
Y025716D02*
D03*
Y024716D02*
D03*
Y023716D02*
D03*
Y027716D02*
D03*
Y028716D02*
D03*
Y030716D02*
D03*
Y031716D02*
D03*
Y032716D02*
D03*
Y029716D02*
D03*
Y033716D02*
D03*
Y035716D02*
D03*
Y041716D02*
D03*
Y040716D02*
D03*
Y039716D02*
D03*
Y038716D02*
D03*
Y034716D02*
D03*
Y037716D02*
D03*
Y036716D02*
D03*
X018827Y02672D02*
D03*
Y02271D02*
D03*
Y02572D02*
D03*
Y02472D02*
D03*
Y02372D02*
D03*
Y02772D02*
D03*
Y03272D02*
D03*
Y03572D02*
D03*
Y03472D02*
D03*
Y03372D02*
D03*
Y03172D02*
D03*
Y03072D02*
D03*
Y02972D02*
D03*
Y02872D02*
D03*
D56*
X043555Y043854D02*
D03*
Y042854D02*
D03*
Y041854D02*
D03*
Y040854D02*
D03*
X044555D02*
D03*
Y041854D02*
D03*
Y042854D02*
D03*
D57*
Y043854D02*
D03*
D58*
X015276Y015402D02*
D03*
X013276D02*
D03*
X018583Y015398D02*
D03*
X016583D02*
D03*
D59*
X022756Y022768D02*
D03*
X011287Y035224D02*
D03*
X04292Y029681D02*
D03*
X03995Y03201D02*
D03*
X04209Y041389D02*
D03*
X01767Y04291D02*
D03*
X01972Y03816D02*
D03*
X03115Y03808D02*
D03*
X03294Y026795D02*
D03*
X01523Y024356D02*
D03*
X028155Y035985D02*
D03*
X0278Y035344D02*
D03*
X01957Y04148D02*
D03*
X02706Y03314D02*
D03*
X03948Y03256D02*
D03*
X03399Y03471D02*
D03*
X01624Y02368D02*
D03*
M02*
