G04*
G04 #@! TF.GenerationSoftware,Altium Limited,Altium Designer,24.9.1 (31)*
G04*
G04 Layer_Color=255*
%FSTAX43Y43*%
%MOMM*%
G71*
G04*
G04 #@! TF.SameCoordinates,C11C2FBF-64C9-4446-828B-1E4E51444DE6*
G04*
G04*
G04 #@! TF.FilePolarity,Positive*
G04*
G01*
G75*
%ADD35C,1.600*%
%ADD36R,1.600X1.600*%
%ADD37C,1.700*%
%ADD38R,1.700X1.700*%
%ADD39R,1.700X1.700*%
%ADD40C,1.524*%
%ADD41C,4.100*%
%ADD42O,1.778X2.413*%
%ADD43O,1.778X2.286*%
%ADD44C,2.250*%
%ADD45R,1.600X1.600*%
%ADD46C,2.794*%
%ADD47O,2.000X2.000*%
%ADD48R,1.800X1.800*%
D35*
X01157Y004364D02*
D03*
Y00411D02*
D03*
X010117Y003508D02*
D03*
X010371D02*
D03*
X009863D02*
D03*
X009609D02*
D03*
X009355D02*
D03*
D36*
X01157Y003856D02*
D03*
D37*
X0068904Y004655D02*
D03*
Y004401D02*
D03*
Y004147D02*
D03*
X007846Y00329D02*
D03*
X0081D02*
D03*
X008354D02*
D03*
X008608D02*
D03*
Y003544D02*
D03*
X008354D02*
D03*
X0081D02*
D03*
D38*
X0068904Y003893D02*
D03*
D39*
X007846Y003544D02*
D03*
D40*
X011549Y005837D02*
D03*
X005771Y007122D02*
D03*
Y005837D02*
D03*
X011537Y007122D02*
D03*
X011559Y00886D02*
D03*
X005781Y010145D02*
D03*
Y00886D02*
D03*
X011547Y010145D02*
D03*
D41*
X0114738Y0054255D02*
D03*
Y0075591D02*
D03*
X0057969Y0054255D02*
D03*
Y0075591D02*
D03*
X0114838Y0084485D02*
D03*
Y0105821D02*
D03*
X0058069Y0084485D02*
D03*
Y0105821D02*
D03*
X002759Y002988D02*
D03*
X011908Y00299D02*
D03*
X011918Y012138D02*
D03*
X00276Y01214D02*
D03*
D42*
X010431Y011666D02*
D03*
X0092118Y0116533D02*
D03*
D43*
X0101262Y011666D02*
D03*
X0098214Y0116533D02*
D03*
X0095166D02*
D03*
D44*
X006347Y011662D02*
D03*
X008607D02*
D03*
D45*
X010625Y003508D02*
D03*
D46*
X010934Y011694D02*
D03*
X011442D02*
D03*
D47*
X0048755Y0073101D02*
D03*
Y0075641D02*
D03*
Y0078181D02*
D03*
Y0080721D02*
D03*
Y0085801D02*
D03*
Y0088341D02*
D03*
Y0090881D02*
D03*
Y0083261D02*
D03*
Y0070561D02*
D03*
Y0060401D02*
D03*
Y0062941D02*
D03*
Y0065481D02*
D03*
Y0057835D02*
D03*
Y0068021D02*
D03*
X003354Y009341D02*
D03*
Y009595D02*
D03*
Y008833D02*
D03*
Y009849D02*
D03*
Y010103D02*
D03*
Y010357D02*
D03*
Y010611D02*
D03*
Y009087D02*
D03*
Y008579D02*
D03*
Y007563D02*
D03*
Y008325D02*
D03*
Y008071D02*
D03*
Y007817D02*
D03*
Y007309D02*
D03*
Y007055D02*
D03*
Y006039D02*
D03*
Y006293D02*
D03*
Y006547D02*
D03*
Y005785D02*
D03*
Y006801D02*
D03*
X0048755Y0093421D02*
D03*
Y0103581D02*
D03*
Y0095961D02*
D03*
Y0106121D02*
D03*
Y0101041D02*
D03*
Y0098501D02*
D03*
D48*
X005891Y011417D02*
D03*
Y011671D02*
D03*
X005467Y011421D02*
D03*
Y011675D02*
D03*
M02*
