G04*
G04 #@! TF.GenerationSoftware,Altium Limited,Altium Designer,21.9.2 (33)*
G04*
G04 Layer_Color=2752767*
%FSTAX24Y24*%
%MOIN*%
G70*
G04*
G04 #@! TF.SameCoordinates,BECF87E7-01DC-432B-977C-EE80B0DAAE55*
G04*
G04*
G04 #@! TF.FilePolarity,Positive*
G04*
G01*
G75*
%ADD60C,0.0020*%
%ADD61C,0.0027*%
%ADD62C,0.0013*%
D60*
X011802Y0159D02*
Y01606D01*
X011962D01*
Y0159D01*
X011802D01*
Y0149D02*
Y01506D01*
X011962D01*
Y0149D01*
X011802D01*
X039602Y02742D02*
X039522Y02758D01*
X039682D01*
X039602Y02742D01*
Y023404D02*
X039522Y023564D01*
X039682D01*
X039602Y023404D01*
X031791Y01781D02*
X031831Y01785D01*
X031871D01*
X031831Y01789D01*
X031871Y01793D01*
X031831D01*
X031791Y01797D01*
X031751Y01793D01*
X031711D01*
X031751Y01789D01*
X031711Y01785D01*
X031751D01*
X031791Y01781D01*
X029945Y018597D02*
X029865Y018757D01*
X030025D01*
X029945Y018597D01*
X025929D02*
X025849Y018757D01*
X026009D01*
X025929Y018597D01*
X024724Y018467D02*
X024644Y018627D01*
X024804D01*
X024724Y018467D01*
X020709D02*
X020629Y018627D01*
X020789D01*
X020709Y018467D01*
X015343Y018487D02*
X015263Y018647D01*
X015423D01*
X015343Y018487D01*
X019358D02*
X019278Y018647D01*
X019438D01*
X019358Y018487D01*
X039917Y047365D02*
X039837Y047525D01*
X039997D01*
X039917Y047365D01*
Y043349D02*
X039837Y043509D01*
X039997D01*
X039917Y043349D01*
X039303Y041038D02*
X039343Y041118D01*
X039303Y041198D01*
X039383Y041158D01*
X039463Y041198D01*
X039423Y041118D01*
X039463Y041038D01*
X039383Y041078D01*
X039303Y041038D01*
X040303D02*
X040343Y041118D01*
X040303Y041198D01*
X040383Y041158D01*
X040463Y041198D01*
X040423Y041118D01*
X040463Y041038D01*
X040383Y041078D01*
X040303Y041038D01*
X037207Y041018D02*
X037247Y041098D01*
X037207Y041178D01*
X037287Y041138D01*
X037367Y041178D01*
X037327Y041098D01*
X037367Y041018D01*
X037287Y041058D01*
X037207Y041018D01*
X038207D02*
X038247Y041098D01*
X038207Y041178D01*
X038287Y041138D01*
X038367Y041178D01*
X038327Y041098D01*
X038367Y041018D01*
X038287Y041058D01*
X038207Y041018D01*
X035062D02*
X035102Y041098D01*
X035062Y041178D01*
X035142Y041138D01*
X035222Y041178D01*
X035182Y041098D01*
X035222Y041018D01*
X035142Y041058D01*
X035062Y041018D01*
X036062D02*
X036102Y041098D01*
X036062Y041178D01*
X036142Y041138D01*
X036222Y041178D01*
X036182Y041098D01*
X036222Y041018D01*
X036142Y041058D01*
X036062Y041018D01*
X034562Y027657D02*
Y027617D01*
X034642D01*
Y027657D01*
X034682D01*
Y027737D01*
X034642D01*
Y027777D01*
X034562D01*
Y027737D01*
X034522D01*
Y027657D01*
X034562D01*
Y036554D02*
Y036514D01*
X034642D01*
Y036554D01*
X034682D01*
Y036634D01*
X034642D01*
Y036674D01*
X034562D01*
Y036634D01*
X034522D01*
Y036554D01*
X034562D01*
X0395Y034731D02*
X03942Y034891D01*
X03958D01*
X0395Y034731D01*
Y038747D02*
X03942Y038907D01*
X03958D01*
X0395Y038747D01*
X03948Y033282D02*
X0394Y033442D01*
X03956D01*
X03948Y033282D01*
Y029266D02*
X0394Y029426D01*
X03956D01*
X03948Y029266D01*
X037315Y043814D02*
X037235Y043974D01*
X037395D01*
X037315Y043814D01*
X033299D02*
X033219Y043974D01*
X033379D01*
X033299Y043814D01*
X036386Y039243D02*
X036306Y039403D01*
X036466D01*
X036386Y039243D01*
X03237D02*
X03229Y039403D01*
X03245D01*
X03237Y039243D01*
X040118Y019337D02*
X040158Y019377D01*
X040198D01*
X040158Y019417D01*
X040198Y019457D01*
X040158D01*
X040118Y019497D01*
X040078Y019457D01*
X040038D01*
X040078Y019417D01*
X040038Y019377D01*
X040078D01*
X040118Y019337D01*
Y018337D02*
X040158Y018377D01*
X040198D01*
X040158Y018417D01*
X040198Y018457D01*
X040158D01*
X040118Y018497D01*
X040078Y018457D01*
X040038D01*
X040078Y018417D01*
X040038Y018377D01*
X040078D01*
X040118Y018337D01*
X012971Y018558D02*
Y018718D01*
X013131D01*
Y018558D01*
X012971D01*
X013971D02*
Y018718D01*
X014131D01*
Y018558D01*
X013971D01*
X033083Y045998D02*
X033123D01*
X033163Y046038D01*
X033203Y045998D01*
X033243D01*
Y046038D01*
X033203Y046078D01*
X033243Y046118D01*
Y046158D01*
X033203D01*
X033163Y046118D01*
X033123Y046158D01*
X033083D01*
Y046118D01*
X033123Y046078D01*
X033083Y046038D01*
Y045998D01*
X037983Y045948D02*
X038023D01*
X038063Y045988D01*
X038103Y045948D01*
X038143D01*
Y045988D01*
X038103Y046028D01*
X038143Y046068D01*
Y046108D01*
X038103D01*
X038063Y046068D01*
X038023Y046108D01*
X037983D01*
Y046068D01*
X038023Y046028D01*
X037983Y045988D01*
Y045948D01*
X036733Y046028D02*
X036813Y046108D01*
X036893Y046028D01*
X036813Y045948D01*
X036733Y046028D01*
X035533Y046078D02*
X035613Y046158D01*
X035693Y046078D01*
X035613Y045998D01*
X035533Y046078D01*
X034333Y046028D02*
X034413Y046108D01*
X034493Y046028D01*
X034413Y045948D01*
X034333Y046028D01*
X01157Y047152D02*
Y047312D01*
X01173D01*
Y047152D01*
X01157D01*
X01161Y047192D02*
Y047272D01*
X01169D01*
Y047192D01*
X01161D01*
X046223Y04714D02*
Y0473D01*
X046383D01*
Y04714D01*
X046223D01*
X046263Y04718D02*
Y04726D01*
X046343D01*
Y04718D01*
X046263D01*
X046207Y012511D02*
Y012671D01*
X046367D01*
Y012511D01*
X046207D01*
X046247Y012551D02*
Y012631D01*
X046327D01*
Y012551D01*
X046247D01*
X011554Y012499D02*
Y012659D01*
X011714D01*
Y012499D01*
X011554D01*
X011594Y012539D02*
Y012619D01*
X011674D01*
Y012539D01*
X011594D01*
X022847Y0248D02*
Y02496D01*
X023007D01*
Y0248D01*
X022847D01*
X022887Y02484D02*
Y02492D01*
X022967D01*
Y02484D01*
X022887D01*
X030097Y04015D02*
Y04031D01*
X030257D01*
Y04015D01*
X030097D01*
X030137Y04019D02*
Y04027D01*
X030217D01*
Y04019D01*
X030137D01*
X018747Y03872D02*
X018827Y0388D01*
X018907Y03872D01*
X018827Y03864D01*
X018747Y03872D01*
Y03972D02*
X018827Y0398D01*
X018907Y03972D01*
X018827Y03964D01*
X018747Y03972D01*
Y04172D02*
X018827Y0418D01*
X018907Y04172D01*
X018827Y04164D01*
X018747Y04172D01*
Y03772D02*
X018827Y0378D01*
X018907Y03772D01*
X018827Y03764D01*
X018747Y03772D01*
Y04072D02*
X018827Y0408D01*
X018907Y04072D01*
X018827Y04064D01*
X018747Y04072D01*
Y03672D02*
X018827Y0368D01*
X018907Y03672D01*
X018827Y03664D01*
X018747Y03672D01*
X012757Y026716D02*
X012837Y026796D01*
X012917Y026716D01*
X012837Y026636D01*
X012757Y026716D01*
Y022716D02*
X012837Y022796D01*
X012917Y022716D01*
X012837Y022636D01*
X012757Y022716D01*
Y025716D02*
X012837Y025796D01*
X012917Y025716D01*
X012837Y025636D01*
X012757Y025716D01*
Y024716D02*
X012837Y024796D01*
X012917Y024716D01*
X012837Y024636D01*
X012757Y024716D01*
Y023716D02*
X012837Y023796D01*
X012917Y023716D01*
X012837Y023636D01*
X012757Y023716D01*
Y027716D02*
X012837Y027796D01*
X012917Y027716D01*
X012837Y027636D01*
X012757Y027716D01*
Y028716D02*
X012837Y028796D01*
X012917Y028716D01*
X012837Y028636D01*
X012757Y028716D01*
Y030716D02*
X012837Y030796D01*
X012917Y030716D01*
X012837Y030636D01*
X012757Y030716D01*
Y031716D02*
X012837Y031796D01*
X012917Y031716D01*
X012837Y031636D01*
X012757Y031716D01*
Y032716D02*
X012837Y032796D01*
X012917Y032716D01*
X012837Y032636D01*
X012757Y032716D01*
Y029716D02*
X012837Y029796D01*
X012917Y029716D01*
X012837Y029636D01*
X012757Y029716D01*
Y033716D02*
X012837Y033796D01*
X012917Y033716D01*
X012837Y033636D01*
X012757Y033716D01*
Y035716D02*
X012837Y035796D01*
X012917Y035716D01*
X012837Y035636D01*
X012757Y035716D01*
Y041716D02*
X012837Y041796D01*
X012917Y041716D01*
X012837Y041636D01*
X012757Y041716D01*
Y040716D02*
X012837Y040796D01*
X012917Y040716D01*
X012837Y040636D01*
X012757Y040716D01*
Y039716D02*
X012837Y039796D01*
X012917Y039716D01*
X012837Y039636D01*
X012757Y039716D01*
Y038716D02*
X012837Y038796D01*
X012917Y038716D01*
X012837Y038636D01*
X012757Y038716D01*
Y034716D02*
X012837Y034796D01*
X012917Y034716D01*
X012837Y034636D01*
X012757Y034716D01*
Y037716D02*
X012837Y037796D01*
X012917Y037716D01*
X012837Y037636D01*
X012757Y037716D01*
Y036716D02*
X012837Y036796D01*
X012917Y036716D01*
X012837Y036636D01*
X012757Y036716D01*
X018747Y02672D02*
X018827Y0268D01*
X018907Y02672D01*
X018827Y02664D01*
X018747Y02672D01*
Y02271D02*
X018827Y02279D01*
X018907Y02271D01*
X018827Y02263D01*
X018747Y02271D01*
Y02572D02*
X018827Y0258D01*
X018907Y02572D01*
X018827Y02564D01*
X018747Y02572D01*
Y02472D02*
X018827Y0248D01*
X018907Y02472D01*
X018827Y02464D01*
X018747Y02472D01*
Y02372D02*
X018827Y0238D01*
X018907Y02372D01*
X018827Y02364D01*
X018747Y02372D01*
Y02772D02*
X018827Y0278D01*
X018907Y02772D01*
X018827Y02764D01*
X018747Y02772D01*
Y03272D02*
X018827Y0328D01*
X018907Y03272D01*
X018827Y03264D01*
X018747Y03272D01*
Y03572D02*
X018827Y0358D01*
X018907Y03572D01*
X018827Y03564D01*
X018747Y03572D01*
Y03472D02*
X018827Y0348D01*
X018907Y03472D01*
X018827Y03464D01*
X018747Y03472D01*
Y03372D02*
X018827Y0338D01*
X018907Y03372D01*
X018827Y03364D01*
X018747Y03372D01*
Y03172D02*
X018827Y0318D01*
X018907Y03172D01*
X018827Y03164D01*
X018747Y03172D01*
Y03072D02*
X018827Y0308D01*
X018907Y03072D01*
X018827Y03064D01*
X018747Y03072D01*
Y02972D02*
X018827Y0298D01*
X018907Y02972D01*
X018827Y02964D01*
X018747Y02972D01*
Y02872D02*
X018827Y0288D01*
X018907Y02872D01*
X018827Y02864D01*
X018747Y02872D01*
X044213Y03329D02*
X044133Y03345D01*
X044293D01*
X044213Y03329D01*
Y03333D02*
X044173Y03341D01*
X044253D01*
X044213Y03333D01*
Y03229D02*
X044133Y03245D01*
X044293D01*
X044213Y03229D01*
Y03233D02*
X044173Y03241D01*
X044253D01*
X044213Y03233D01*
Y03129D02*
X044133Y03145D01*
X044293D01*
X044213Y03129D01*
Y03133D02*
X044173Y03141D01*
X044253D01*
X044213Y03133D01*
Y02929D02*
X044133Y02945D01*
X044293D01*
X044213Y02929D01*
Y02933D02*
X044173Y02941D01*
X044253D01*
X044213Y02933D01*
Y02829D02*
X044133Y02845D01*
X044293D01*
X044213Y02829D01*
Y02833D02*
X044173Y02841D01*
X044253D01*
X044213Y02833D01*
Y03029D02*
X044133Y03045D01*
X044293D01*
X044213Y03029D01*
Y03033D02*
X044173Y03041D01*
X044253D01*
X044213Y03033D01*
X044071Y037298D02*
X043991Y037458D01*
X044151D01*
X044071Y037298D01*
Y037338D02*
X044031Y037418D01*
X044111D01*
X044071Y037338D01*
Y036298D02*
X043991Y036458D01*
X044151D01*
X044071Y036298D01*
Y036338D02*
X044031Y036418D01*
X044111D01*
X044071Y036338D01*
Y038298D02*
X043991Y038458D01*
X044151D01*
X044071Y038298D01*
Y038338D02*
X044031Y038418D01*
X044111D01*
X044071Y038338D01*
X023622Y015176D02*
X023542Y015336D01*
X023702D01*
X023622Y015176D01*
Y015216D02*
X023582Y015296D01*
X023662D01*
X023622Y015216D01*
X021622Y015176D02*
X021542Y015336D01*
X021702D01*
X021622Y015176D01*
Y015216D02*
X021582Y015296D01*
X021662D01*
X021622Y015216D01*
X020622Y015176D02*
X020542Y015336D01*
X020702D01*
X020622Y015176D01*
Y015216D02*
X020582Y015296D01*
X020662D01*
X020622Y015216D01*
X022622Y015176D02*
X022542Y015336D01*
X022702D01*
X022622Y015176D01*
Y015216D02*
X022582Y015296D01*
X022662D01*
X022622Y015216D01*
X039559Y015176D02*
X039479Y015336D01*
X039639D01*
X039559Y015176D01*
Y015216D02*
X039519Y015296D01*
X039599D01*
X039559Y015216D01*
X038559Y015176D02*
X038479Y015336D01*
X038639D01*
X038559Y015176D01*
Y015216D02*
X038519Y015296D01*
X038599D01*
X038559Y015216D01*
X037559Y015176D02*
X037479Y015336D01*
X037639D01*
X037559Y015176D01*
Y015216D02*
X037519Y015296D01*
X037599D01*
X037559Y015216D01*
X035559Y015176D02*
X035479Y015336D01*
X035639D01*
X035559Y015176D01*
Y015216D02*
X035519Y015296D01*
X035599D01*
X035559Y015216D01*
X034559Y015176D02*
X034479Y015336D01*
X034639D01*
X034559Y015176D01*
Y015216D02*
X034519Y015296D01*
X034599D01*
X034559Y015216D01*
X036559Y015176D02*
X036479Y015336D01*
X036639D01*
X036559Y015176D01*
Y015216D02*
X036519Y015296D01*
X036599D01*
X036559Y015216D01*
X044161Y025266D02*
X044081Y025426D01*
X044241D01*
X044161Y025266D01*
Y025306D02*
X044121Y025386D01*
X044201D01*
X044161Y025306D01*
Y023266D02*
X044081Y023426D01*
X044241D01*
X044161Y023266D01*
Y023306D02*
X044121Y023386D01*
X044201D01*
X044161Y023306D01*
Y022266D02*
X044081Y022426D01*
X044241D01*
X044161Y022266D01*
Y022306D02*
X044121Y022386D01*
X044201D01*
X044161Y022306D01*
Y024266D02*
X044081Y024426D01*
X044241D01*
X044161Y024266D01*
Y024306D02*
X044121Y024386D01*
X044201D01*
X044161Y024306D01*
X043555Y043774D02*
X043595Y043814D01*
X043635D01*
X043595Y043854D01*
X043635Y043894D01*
X043595D01*
X043555Y043934D01*
X043515Y043894D01*
X043475D01*
X043515Y043854D01*
X043475Y043814D01*
X043515D01*
X043555Y043774D01*
Y043814D02*
X043575Y043834D01*
X043595D01*
X043575Y043854D01*
X043595Y043874D01*
X043575D01*
X043555Y043894D01*
X043535Y043874D01*
X043515D01*
X043535Y043854D01*
X043515Y043834D01*
X043535D01*
X043555Y043814D01*
Y042774D02*
X043595Y042814D01*
X043635D01*
X043595Y042854D01*
X043635Y042894D01*
X043595D01*
X043555Y042934D01*
X043515Y042894D01*
X043475D01*
X043515Y042854D01*
X043475Y042814D01*
X043515D01*
X043555Y042774D01*
Y042814D02*
X043575Y042834D01*
X043595D01*
X043575Y042854D01*
X043595Y042874D01*
X043575D01*
X043555Y042894D01*
X043535Y042874D01*
X043515D01*
X043535Y042854D01*
X043515Y042834D01*
X043535D01*
X043555Y042814D01*
Y041774D02*
X043595Y041814D01*
X043635D01*
X043595Y041854D01*
X043635Y041894D01*
X043595D01*
X043555Y041934D01*
X043515Y041894D01*
X043475D01*
X043515Y041854D01*
X043475Y041814D01*
X043515D01*
X043555Y041774D01*
Y041814D02*
X043575Y041834D01*
X043595D01*
X043575Y041854D01*
X043595Y041874D01*
X043575D01*
X043555Y041894D01*
X043535Y041874D01*
X043515D01*
X043535Y041854D01*
X043515Y041834D01*
X043535D01*
X043555Y041814D01*
Y040774D02*
X043595Y040814D01*
X043635D01*
X043595Y040854D01*
X043635Y040894D01*
X043595D01*
X043555Y040934D01*
X043515Y040894D01*
X043475D01*
X043515Y040854D01*
X043475Y040814D01*
X043515D01*
X043555Y040774D01*
Y040814D02*
X043575Y040834D01*
X043595D01*
X043575Y040854D01*
X043595Y040874D01*
X043575D01*
X043555Y040894D01*
X043535Y040874D01*
X043515D01*
X043535Y040854D01*
X043515Y040834D01*
X043535D01*
X043555Y040814D01*
X044555Y040774D02*
X044595Y040814D01*
X044635D01*
X044595Y040854D01*
X044635Y040894D01*
X044595D01*
X044555Y040934D01*
X044515Y040894D01*
X044475D01*
X044515Y040854D01*
X044475Y040814D01*
X044515D01*
X044555Y040774D01*
Y040814D02*
X044575Y040834D01*
X044595D01*
X044575Y040854D01*
X044595Y040874D01*
X044575D01*
X044555Y040894D01*
X044535Y040874D01*
X044515D01*
X044535Y040854D01*
X044515Y040834D01*
X044535D01*
X044555Y040814D01*
Y041774D02*
X044595Y041814D01*
X044635D01*
X044595Y041854D01*
X044635Y041894D01*
X044595D01*
X044555Y041934D01*
X044515Y041894D01*
X044475D01*
X044515Y041854D01*
X044475Y041814D01*
X044515D01*
X044555Y041774D01*
Y041814D02*
X044575Y041834D01*
X044595D01*
X044575Y041854D01*
X044595Y041874D01*
X044575D01*
X044555Y041894D01*
X044535Y041874D01*
X044515D01*
X044535Y041854D01*
X044515Y041834D01*
X044535D01*
X044555Y041814D01*
Y042774D02*
X044595Y042814D01*
X044635D01*
X044595Y042854D01*
X044635Y042894D01*
X044595D01*
X044555Y042934D01*
X044515Y042894D01*
X044475D01*
X044515Y042854D01*
X044475Y042814D01*
X044515D01*
X044555Y042774D01*
Y042814D02*
X044575Y042834D01*
X044595D01*
X044575Y042854D01*
X044595Y042874D01*
X044575D01*
X044555Y042894D01*
X044535Y042874D01*
X044515D01*
X044535Y042854D01*
X044515Y042834D01*
X044535D01*
X044555Y042814D01*
Y043774D02*
X044595Y043814D01*
X044635D01*
X044595Y043854D01*
X044635Y043894D01*
X044595D01*
X044555Y043934D01*
X044515Y043894D01*
X044475D01*
X044515Y043854D01*
X044475Y043814D01*
X044515D01*
X044555Y043774D01*
Y043814D02*
X044575Y043834D01*
X044595D01*
X044575Y043854D01*
X044595Y043874D01*
X044575D01*
X044555Y043894D01*
X044535Y043874D01*
X044515D01*
X044535Y043854D01*
X044515Y043834D01*
X044535D01*
X044555Y043814D01*
X044102Y018357D02*
X044022Y018517D01*
X044182D01*
X044102Y018357D01*
Y018397D02*
X044062Y018477D01*
X044142D01*
X044102Y018397D01*
Y016357D02*
X044022Y016517D01*
X044182D01*
X044102Y016357D01*
Y016397D02*
X044062Y016477D01*
X044142D01*
X044102Y016397D01*
Y015357D02*
X044022Y015517D01*
X044182D01*
X044102Y015357D01*
Y015397D02*
X044062Y015477D01*
X044142D01*
X044102Y015397D01*
Y017357D02*
X044022Y017517D01*
X044182D01*
X044102Y017357D01*
Y017397D02*
X044062Y017477D01*
X044142D01*
X044102Y017397D01*
X015276Y015322D02*
X015196Y015482D01*
X015356D01*
X015276Y015322D01*
Y015362D02*
X015236Y015442D01*
X015316D01*
X015276Y015362D01*
X013276Y015322D02*
X013196Y015482D01*
X013356D01*
X013276Y015322D01*
Y015362D02*
X013236Y015442D01*
X013316D01*
X013276Y015362D01*
X018583Y015318D02*
X018503Y015478D01*
X018663D01*
X018583Y015318D01*
Y015358D02*
X018543Y015438D01*
X018623D01*
X018583Y015358D01*
X016583Y015318D02*
X016503Y015478D01*
X016663D01*
X016583Y015318D01*
Y015358D02*
X016543Y015438D01*
X016623D01*
X016583Y015358D01*
X028583Y015219D02*
X028503Y015379D01*
X028663D01*
X028583Y015219D01*
Y015259D02*
X028543Y015339D01*
X028623D01*
X028583Y015259D01*
X026583Y015219D02*
X026503Y015379D01*
X026663D01*
X026583Y015219D01*
Y015259D02*
X026543Y015339D01*
X026623D01*
X026583Y015259D01*
X027583Y015219D02*
X027503Y015379D01*
X027663D01*
X027583Y015219D01*
Y015259D02*
X027543Y015339D01*
X027623D01*
X027583Y015259D01*
X029583Y015219D02*
X029503Y015379D01*
X029663D01*
X029583Y015219D01*
Y015259D02*
X029543Y015339D01*
X029623D01*
X029583Y015259D01*
X030583Y015219D02*
X030503Y015379D01*
X030663D01*
X030583Y015219D01*
Y015259D02*
X030543Y015339D01*
X030623D01*
X030583Y015259D01*
X031583Y015219D02*
X031503Y015379D01*
X031663D01*
X031583Y015219D01*
Y015259D02*
X031543Y015339D01*
X031623D01*
X031583Y015259D01*
X022676Y022688D02*
X022716Y022768D01*
X022676Y022848D01*
X022756Y022808D01*
X022836Y022848D01*
X022796Y022768D01*
X022836Y022688D01*
X022756Y022728D01*
X022676Y022688D01*
X022716Y022728D02*
X022736Y022768D01*
X022716Y022808D01*
X022756Y022788D01*
X022796Y022808D01*
X022776Y022768D01*
X022796Y022728D01*
X022756Y022748D01*
X022716Y022728D01*
X011207Y035144D02*
X011247Y035224D01*
X011207Y035304D01*
X011287Y035264D01*
X011367Y035304D01*
X011327Y035224D01*
X011367Y035144D01*
X011287Y035184D01*
X011207Y035144D01*
X011247Y035184D02*
X011267Y035224D01*
X011247Y035264D01*
X011287Y035244D01*
X011327Y035264D01*
X011307Y035224D01*
X011327Y035184D01*
X011287Y035204D01*
X011247Y035184D01*
X04284Y029601D02*
X04288Y029681D01*
X04284Y029761D01*
X04292Y029721D01*
X043Y029761D01*
X04296Y029681D01*
X043Y029601D01*
X04292Y029641D01*
X04284Y029601D01*
X04288Y029641D02*
X0429Y029681D01*
X04288Y029721D01*
X04292Y029701D01*
X04296Y029721D01*
X04294Y029681D01*
X04296Y029641D01*
X04292Y029661D01*
X04288Y029641D01*
X03987Y03193D02*
X03991Y03201D01*
X03987Y03209D01*
X03995Y03205D01*
X04003Y03209D01*
X03999Y03201D01*
X04003Y03193D01*
X03995Y03197D01*
X03987Y03193D01*
X03991Y03197D02*
X03993Y03201D01*
X03991Y03205D01*
X03995Y03203D01*
X03999Y03205D01*
X03997Y03201D01*
X03999Y03197D01*
X03995Y03199D01*
X03991Y03197D01*
X04201Y041309D02*
X04205Y041389D01*
X04201Y041469D01*
X04209Y041429D01*
X04217Y041469D01*
X04213Y041389D01*
X04217Y041309D01*
X04209Y041349D01*
X04201Y041309D01*
X04205Y041349D02*
X04207Y041389D01*
X04205Y041429D01*
X04209Y041409D01*
X04213Y041429D01*
X04211Y041389D01*
X04213Y041349D01*
X04209Y041369D01*
X04205Y041349D01*
X01759Y04283D02*
X01763Y04291D01*
X01759Y04299D01*
X01767Y04295D01*
X01775Y04299D01*
X01771Y04291D01*
X01775Y04283D01*
X01767Y04287D01*
X01759Y04283D01*
X01763Y04287D02*
X01765Y04291D01*
X01763Y04295D01*
X01767Y04293D01*
X01771Y04295D01*
X01769Y04291D01*
X01771Y04287D01*
X01767Y04289D01*
X01763Y04287D01*
X01964Y03808D02*
X01968Y03816D01*
X01964Y03824D01*
X01972Y0382D01*
X0198Y03824D01*
X01976Y03816D01*
X0198Y03808D01*
X01972Y03812D01*
X01964Y03808D01*
X01968Y03812D02*
X0197Y03816D01*
X01968Y0382D01*
X01972Y03818D01*
X01976Y0382D01*
X01974Y03816D01*
X01976Y03812D01*
X01972Y03814D01*
X01968Y03812D01*
X03107Y038D02*
X03111Y03808D01*
X03107Y03816D01*
X03115Y03812D01*
X03123Y03816D01*
X03119Y03808D01*
X03123Y038D01*
X03115Y03804D01*
X03107Y038D01*
X03111Y03804D02*
X03113Y03808D01*
X03111Y03812D01*
X03115Y0381D01*
X03119Y03812D01*
X03117Y03808D01*
X03119Y03804D01*
X03115Y03806D01*
X03111Y03804D01*
X03286Y026715D02*
X0329Y026795D01*
X03286Y026875D01*
X03294Y026835D01*
X03302Y026875D01*
X03298Y026795D01*
X03302Y026715D01*
X03294Y026755D01*
X03286Y026715D01*
X0329Y026755D02*
X03292Y026795D01*
X0329Y026835D01*
X03294Y026815D01*
X03298Y026835D01*
X03296Y026795D01*
X03298Y026755D01*
X03294Y026775D01*
X0329Y026755D01*
X01515Y024276D02*
X01519Y024356D01*
X01515Y024436D01*
X01523Y024396D01*
X01531Y024436D01*
X01527Y024356D01*
X01531Y024276D01*
X01523Y024316D01*
X01515Y024276D01*
X01519Y024316D02*
X01521Y024356D01*
X01519Y024396D01*
X01523Y024376D01*
X01527Y024396D01*
X01525Y024356D01*
X01527Y024316D01*
X01523Y024336D01*
X01519Y024316D01*
X028075Y035905D02*
X028115Y035985D01*
X028075Y036065D01*
X028155Y036025D01*
X028235Y036065D01*
X028195Y035985D01*
X028235Y035905D01*
X028155Y035945D01*
X028075Y035905D01*
X028115Y035945D02*
X028135Y035985D01*
X028115Y036025D01*
X028155Y036005D01*
X028195Y036025D01*
X028175Y035985D01*
X028195Y035945D01*
X028155Y035965D01*
X028115Y035945D01*
X02772Y035264D02*
X02776Y035344D01*
X02772Y035424D01*
X0278Y035384D01*
X02788Y035424D01*
X02784Y035344D01*
X02788Y035264D01*
X0278Y035304D01*
X02772Y035264D01*
X02776Y035304D02*
X02778Y035344D01*
X02776Y035384D01*
X0278Y035364D01*
X02784Y035384D01*
X02782Y035344D01*
X02784Y035304D01*
X0278Y035324D01*
X02776Y035304D01*
X01949Y0414D02*
X01953Y04148D01*
X01949Y04156D01*
X01957Y04152D01*
X01965Y04156D01*
X01961Y04148D01*
X01965Y0414D01*
X01957Y04144D01*
X01949Y0414D01*
X01953Y04144D02*
X01955Y04148D01*
X01953Y04152D01*
X01957Y0415D01*
X01961Y04152D01*
X01959Y04148D01*
X01961Y04144D01*
X01957Y04146D01*
X01953Y04144D01*
X02698Y03306D02*
X02702Y03314D01*
X02698Y03322D01*
X02706Y03318D01*
X02714Y03322D01*
X0271Y03314D01*
X02714Y03306D01*
X02706Y0331D01*
X02698Y03306D01*
X02702Y0331D02*
X02704Y03314D01*
X02702Y03318D01*
X02706Y03316D01*
X0271Y03318D01*
X02708Y03314D01*
X0271Y0331D01*
X02706Y03312D01*
X02702Y0331D01*
X0394Y03248D02*
X03944Y03256D01*
X0394Y03264D01*
X03948Y0326D01*
X03956Y03264D01*
X03952Y03256D01*
X03956Y03248D01*
X03948Y03252D01*
X0394Y03248D01*
X03944Y03252D02*
X03946Y03256D01*
X03944Y0326D01*
X03948Y03258D01*
X03952Y0326D01*
X0395Y03256D01*
X03952Y03252D01*
X03948Y03254D01*
X03944Y03252D01*
X03391Y03463D02*
X03395Y03471D01*
X03391Y03479D01*
X03399Y03475D01*
X03407Y03479D01*
X03403Y03471D01*
X03407Y03463D01*
X03399Y03467D01*
X03391Y03463D01*
X03395Y03467D02*
X03397Y03471D01*
X03395Y03475D01*
X03399Y03473D01*
X03403Y03475D01*
X03401Y03471D01*
X03403Y03467D01*
X03399Y03469D01*
X03395Y03467D01*
X01616Y0236D02*
X0162Y02368D01*
X01616Y02376D01*
X01624Y02372D01*
X01632Y02376D01*
X01628Y02368D01*
X01632Y0236D01*
X01624Y02364D01*
X01616Y0236D01*
X0162Y02364D02*
X01622Y02368D01*
X0162Y02372D01*
X01624Y0237D01*
X01628Y02372D01*
X01626Y02368D01*
X01628Y02364D01*
X01624Y02366D01*
X0162Y02364D01*
D61*
X036978Y021378D02*
G03*
X036978Y021378I-00008J0D01*
G01*
X039978D02*
G03*
X039978Y021378I-00008J0D01*
G01*
X022207Y02248D02*
G03*
X022207Y02248I-00008J0D01*
G01*
X030657D02*
G03*
X030657Y02248I-00008J0D01*
G01*
X022207Y04253D02*
G03*
X022207Y04253I-00008J0D01*
G01*
X030707D02*
G03*
X030707Y04253I-00008J0D01*
G01*
D62*
X022167Y02248D02*
G03*
X022167Y02248I-00004J0D01*
G01*
X030617D02*
G03*
X030617Y02248I-00004J0D01*
G01*
X022167Y04253D02*
G03*
X022167Y04253I-00004J0D01*
G01*
X030667D02*
G03*
X030667Y04253I-00004J0D01*
G01*
M02*
