G04*
G04 #@! TF.GenerationSoftware,Altium Limited,Altium Designer,24.9.1 (31)*
G04*
G04 Layer_Color=8388736*
%FSTAX43Y43*%
%MOMM*%
G71*
G04*
G04 #@! TF.SameCoordinates,C11C2FBF-64C9-4446-828B-1E4E51444DE6*
G04*
G04*
G04 #@! TF.FilePolarity,Negative*
G04*
G01*
G75*
%ADD19C,1.803*%
%ADD20R,1.803X1.803*%
%ADD21C,1.903*%
%ADD22R,1.903X1.903*%
%ADD23R,1.903X1.903*%
%ADD24C,1.727*%
%ADD25C,4.303*%
%ADD26O,1.981X2.616*%
%ADD27O,1.981X2.489*%
%ADD28C,2.453*%
%ADD29R,1.803X1.803*%
%ADD30C,2.997*%
%ADD31O,2.203X2.203*%
%ADD32R,2.003X2.003*%
%ADD33C,1.473*%
D19*
X01157Y004364D02*
D03*
Y00411D02*
D03*
X010117Y003508D02*
D03*
X010371D02*
D03*
X009863D02*
D03*
X009609D02*
D03*
X009355D02*
D03*
D20*
X01157Y003856D02*
D03*
D21*
X0068904Y004655D02*
D03*
Y004401D02*
D03*
Y004147D02*
D03*
X007846Y00329D02*
D03*
X0081D02*
D03*
X008354D02*
D03*
X008608D02*
D03*
Y003544D02*
D03*
X008354D02*
D03*
X0081D02*
D03*
D22*
X0068904Y003893D02*
D03*
D23*
X007846Y003544D02*
D03*
D24*
X011549Y005837D02*
D03*
X005771Y007122D02*
D03*
Y005837D02*
D03*
X011537Y007122D02*
D03*
X011559Y00886D02*
D03*
X005781Y010145D02*
D03*
Y00886D02*
D03*
X011547Y010145D02*
D03*
D25*
X0114738Y0054255D02*
D03*
Y0075591D02*
D03*
X0057969Y0054255D02*
D03*
Y0075591D02*
D03*
X0114838Y0084485D02*
D03*
Y0105821D02*
D03*
X0058069Y0084485D02*
D03*
Y0105821D02*
D03*
X002759Y002988D02*
D03*
X011908Y00299D02*
D03*
X011918Y012138D02*
D03*
X00276Y01214D02*
D03*
D26*
X010431Y011666D02*
D03*
X0092118Y0116533D02*
D03*
D27*
X0101262Y011666D02*
D03*
X0098214Y0116533D02*
D03*
X0095166D02*
D03*
D28*
X006347Y011662D02*
D03*
X008607D02*
D03*
D29*
X010625Y003508D02*
D03*
D30*
X010934Y011694D02*
D03*
X011442D02*
D03*
D31*
X0048755Y0073101D02*
D03*
Y0075641D02*
D03*
Y0078181D02*
D03*
Y0080721D02*
D03*
Y0085801D02*
D03*
Y0088341D02*
D03*
Y0090881D02*
D03*
Y0083261D02*
D03*
Y0070561D02*
D03*
Y0060401D02*
D03*
Y0062941D02*
D03*
Y0065481D02*
D03*
Y0057835D02*
D03*
Y0068021D02*
D03*
X003354Y009341D02*
D03*
Y009595D02*
D03*
Y008833D02*
D03*
Y009849D02*
D03*
Y010103D02*
D03*
Y010357D02*
D03*
Y010611D02*
D03*
Y009087D02*
D03*
Y008579D02*
D03*
Y007563D02*
D03*
Y008325D02*
D03*
Y008071D02*
D03*
Y007817D02*
D03*
Y007309D02*
D03*
Y007055D02*
D03*
Y006039D02*
D03*
Y006293D02*
D03*
Y006547D02*
D03*
Y005785D02*
D03*
Y006801D02*
D03*
X0048755Y0093421D02*
D03*
Y0103581D02*
D03*
Y0095961D02*
D03*
Y0106121D02*
D03*
Y0101041D02*
D03*
Y0098501D02*
D03*
D32*
X005891Y011417D02*
D03*
Y011671D02*
D03*
X005467Y011421D02*
D03*
Y011675D02*
D03*
D33*
X005373Y006218D02*
D03*
X0047842Y0052569D02*
D03*
X00405Y005265D02*
D03*
M02*
