G04*
G04 #@! TF.GenerationSoftware,Altium Limited,Altium Designer,21.9.2 (33)*
G04*
G04 Layer_Physical_Order=1*
G04 Layer_Color=255*
%FSTAX24Y24*%
%MOIN*%
G70*
G04*
G04 #@! TF.SameCoordinates,BECF87E7-01DC-432B-977C-EE80B0DAAE55*
G04*
G04*
G04 #@! TF.FilePolarity,Positive*
G04*
G01*
G75*
%ADD23R,0.0236X0.0512*%
%ADD42C,0.0315*%
%ADD43C,0.0591*%
%ADD44C,0.0800*%
%ADD45R,0.0800X0.0800*%
%ADD46C,0.0551*%
%ADD47R,0.0630X0.0630*%
%ADD48P,0.0704X8X22.5*%
%ADD49C,0.0650*%
%ADD50C,0.0886*%
%ADD51R,0.0630X0.0630*%
%ADD52C,0.0630*%
%ADD53C,0.0600*%
%ADD54C,0.1575*%
%ADD55O,0.0787X0.0787*%
%ADD56C,0.0598*%
%ADD57R,0.0598X0.0598*%
%ADD58C,0.0750*%
%ADD59C,0.0500*%
G36*
X047957Y010906D02*
X009973D01*
Y04889D01*
X047957D01*
Y010906D01*
D02*
G37*
%LPC*%
G36*
X011737Y04812D02*
X011562D01*
X011391Y048086D01*
X011229Y048019D01*
X011084Y047922D01*
X01096Y047798D01*
X010863Y047653D01*
X010796Y047491D01*
X010762Y04732D01*
Y047145D01*
X010796Y046973D01*
X010863Y046812D01*
X01096Y046667D01*
X011084Y046543D01*
X011229Y046446D01*
X011391Y046379D01*
X011562Y046345D01*
X011737D01*
X011908Y046379D01*
X01207Y046446D01*
X012215Y046543D01*
X012339Y046667D01*
X012436Y046812D01*
X012503Y046973D01*
X012537Y047145D01*
Y04732D01*
X012503Y047491D01*
X012436Y047653D01*
X012339Y047798D01*
X012215Y047922D01*
X01207Y048019D01*
X011908Y048086D01*
X011737Y04812D01*
D02*
G37*
G36*
X046391Y048108D02*
X046216D01*
X046044Y048074D01*
X045883Y048007D01*
X045737Y04791D01*
X045614Y047786D01*
X045517Y047641D01*
X04545Y047479D01*
X045416Y047308D01*
Y047133D01*
X04545Y046962D01*
X045517Y0468D01*
X045614Y046655D01*
X045737Y046531D01*
X045883Y046434D01*
X046044Y046367D01*
X046216Y046333D01*
X046391D01*
X046562Y046367D01*
X046723Y046434D01*
X046869Y046531D01*
X046992Y046655D01*
X04709Y0468D01*
X047156Y046962D01*
X047191Y047133D01*
Y047308D01*
X047156Y047479D01*
X04709Y047641D01*
X046992Y047786D01*
X046869Y04791D01*
X046723Y048007D01*
X046562Y048074D01*
X046391Y048108D01*
D02*
G37*
G36*
X033216Y046478D02*
X03311D01*
X033009Y04645D01*
X032917Y046398D01*
X032843Y046323D01*
X03279Y046232D01*
X032763Y04613D01*
Y046025D01*
X03279Y045923D01*
X032843Y045832D01*
X032917Y045757D01*
X033009Y045705D01*
X03311Y045678D01*
X033216D01*
X033317Y045705D01*
X033409Y045757D01*
X033483Y045832D01*
X033536Y045923D01*
X033563Y046025D01*
Y04613D01*
X033536Y046232D01*
X033483Y046323D01*
X033409Y046398D01*
X033317Y04645D01*
X033216Y046478D01*
D02*
G37*
G36*
X038116Y046428D02*
X03801D01*
X037909Y0464D01*
X037817Y046348D01*
X037743Y046273D01*
X03769Y046182D01*
X037663Y04608D01*
Y045975D01*
X03769Y045873D01*
X037743Y045782D01*
X037817Y045707D01*
X037909Y045655D01*
X03801Y045628D01*
X038116D01*
X038217Y045655D01*
X038309Y045707D01*
X038383Y045782D01*
X038436Y045873D01*
X038463Y045975D01*
Y04608D01*
X038436Y046182D01*
X038383Y046273D01*
X038309Y046348D01*
X038217Y0464D01*
X038116Y046428D01*
D02*
G37*
G36*
X034466D02*
X03436D01*
X034259Y0464D01*
X034167Y046348D01*
X034093Y046273D01*
X03404Y046182D01*
X034013Y04608D01*
Y045975D01*
X03404Y045873D01*
X034093Y045782D01*
X034167Y045707D01*
X034259Y045655D01*
X03436Y045628D01*
X034466D01*
X034567Y045655D01*
X034659Y045707D01*
X034733Y045782D01*
X034786Y045873D01*
X034813Y045975D01*
Y04608D01*
X034786Y046182D01*
X034733Y046273D01*
X034659Y046348D01*
X034567Y0464D01*
X034466Y046428D01*
D02*
G37*
G36*
X044954Y044254D02*
X044156D01*
Y043455D01*
X044954D01*
Y044254D01*
D02*
G37*
G36*
X044608Y043254D02*
X044605D01*
Y042904D01*
X044954D01*
Y042907D01*
X044927Y043008D01*
X044875Y043099D01*
X0448Y043174D01*
X044709Y043226D01*
X044608Y043254D01*
D02*
G37*
G36*
X044505D02*
X044503D01*
X044401Y043226D01*
X04431Y043174D01*
X044236Y043099D01*
X044183Y043008D01*
X044156Y042907D01*
Y042904D01*
X044505D01*
Y043254D01*
D02*
G37*
G36*
X044954Y042804D02*
X044605D01*
Y042455D01*
X044608D01*
X044709Y042482D01*
X0448Y042535D01*
X044875Y042609D01*
X044927Y0427D01*
X044954Y042802D01*
Y042804D01*
D02*
G37*
G36*
X044505D02*
X044156D01*
Y042802D01*
X044183Y0427D01*
X044236Y042609D01*
X04431Y042535D01*
X044401Y042482D01*
X044503Y042455D01*
X044505D01*
Y042804D01*
D02*
G37*
G36*
X043608Y044254D02*
X043503D01*
X043401Y044226D01*
X04331Y044174D01*
X043236Y044099D01*
X043183Y044008D01*
X043156Y043907D01*
Y043822D01*
X042806Y043473D01*
X042765Y043419D01*
X042739Y043356D01*
X04273Y043289D01*
Y036178D01*
X039906Y033353D01*
X039856Y033374D01*
Y033412D01*
X03983Y033507D01*
X039781Y033593D01*
X039711Y033663D01*
X039625Y033712D01*
X03953Y033738D01*
Y033362D01*
X03943D01*
Y033738D01*
X039335Y033712D01*
X03925Y033663D01*
X039246Y033659D01*
X0392Y033678D01*
Y034515D01*
X039246Y034534D01*
X039269Y03451D01*
X039355Y034461D01*
X039451Y034435D01*
X039549D01*
X039645Y034461D01*
X039731Y03451D01*
X039801Y03458D01*
X03985Y034666D01*
X039876Y034762D01*
Y03486D01*
X03985Y034956D01*
X039801Y035042D01*
X039731Y035112D01*
X039645Y035161D01*
X039549Y035187D01*
X039451D01*
X039355Y035161D01*
X039269Y035112D01*
X039246Y035088D01*
X0392Y035107D01*
Y036702D01*
X042274Y039776D01*
X042315Y03983D01*
X042341Y039893D01*
X04235Y03996D01*
Y041154D01*
X04237Y041174D01*
X042416Y041254D01*
X04244Y041343D01*
Y041435D01*
X042416Y041524D01*
X04237Y041604D01*
X042305Y041669D01*
X042225Y041715D01*
X042136Y041739D01*
X042044D01*
X041955Y041715D01*
X041875Y041669D01*
X04181Y041604D01*
X041764Y041524D01*
X04174Y041435D01*
Y041343D01*
X041764Y041254D01*
X04181Y041174D01*
X04183Y041154D01*
Y040068D01*
X038756Y036994D01*
X038715Y03694D01*
X038689Y036877D01*
X03868Y03681D01*
Y03227D01*
X038689Y032203D01*
X038715Y03214D01*
X038756Y032086D01*
X039016Y031826D01*
X03907Y031785D01*
X039133Y031759D01*
X0392Y03175D01*
X039715D01*
X039735Y03173D01*
X039815Y031684D01*
X039904Y03166D01*
X039996D01*
X040085Y031684D01*
X040165Y03173D01*
X04023Y031795D01*
X040276Y031875D01*
X0403Y031964D01*
Y032056D01*
X040276Y032145D01*
X04023Y032225D01*
X040165Y03229D01*
X040085Y032336D01*
X039996Y03236D01*
X039904D01*
X039815Y032336D01*
X039812Y032334D01*
X039775Y032371D01*
X039806Y032425D01*
X03983Y032514D01*
Y032543D01*
X043174Y035886D01*
X043189Y035906D01*
X043239Y035889D01*
Y035756D01*
X042736Y035254D01*
X042695Y0352D01*
X042669Y035137D01*
X04266Y03507D01*
Y029916D01*
X04264Y029896D01*
X042594Y029816D01*
X04257Y029727D01*
Y029635D01*
X042594Y029546D01*
X04264Y029466D01*
X042705Y029401D01*
X042785Y029355D01*
X042874Y029331D01*
X042966D01*
X043055Y029355D01*
X043135Y029401D01*
X0432Y029466D01*
X043246Y029546D01*
X04327Y029635D01*
Y029727D01*
X043246Y029816D01*
X0432Y029896D01*
X04318Y029916D01*
Y034962D01*
X043682Y035465D01*
X043723Y035519D01*
X043749Y035581D01*
X043758Y035648D01*
Y035963D01*
X04439D01*
Y034978D01*
X043456Y034044D01*
X043415Y03399D01*
X043389Y033927D01*
X04338Y03386D01*
Y028943D01*
X043389Y028875D01*
X043415Y028813D01*
X043456Y028759D01*
X043798Y028418D01*
Y028322D01*
X043396Y027921D01*
X043355Y027867D01*
X043329Y027805D01*
X04332Y027737D01*
Y022928D01*
X043329Y022861D01*
X043355Y022798D01*
X043396Y022744D01*
X043746Y022394D01*
Y021932D01*
X044576D01*
Y022761D01*
X044114D01*
X043935Y02294D01*
X043965Y02298D01*
X044001Y02296D01*
X044107Y022931D01*
X044111D01*
Y023346D01*
Y023761D01*
X044107D01*
X044001Y023733D01*
X043907Y023679D01*
X043886Y023658D01*
X04384Y023677D01*
Y024016D01*
X043886Y024035D01*
X043907Y024014D01*
X044001Y02396D01*
X044107Y023932D01*
X044216D01*
X044322Y02396D01*
X044416Y024014D01*
X044493Y024092D01*
X044548Y024186D01*
X044576Y024292D01*
Y024401D01*
X044548Y024507D01*
X044493Y024601D01*
X044416Y024679D01*
X044322Y024733D01*
X044216Y024761D01*
X044107D01*
X044001Y024733D01*
X043907Y024679D01*
X043886Y024658D01*
X04384Y024677D01*
Y025016D01*
X043886Y025035D01*
X043907Y025014D01*
X044001Y02496D01*
X044107Y024931D01*
X044216D01*
X044322Y02496D01*
X044416Y025014D01*
X044493Y025092D01*
X044548Y025186D01*
X044576Y025292D01*
Y025401D01*
X044548Y025507D01*
X044493Y025601D01*
X044416Y025679D01*
X044322Y025733D01*
X044216Y025761D01*
X044107D01*
X044001Y025733D01*
X043907Y025679D01*
X043886Y025658D01*
X04384Y025677D01*
Y02763D01*
X044165Y027955D01*
X044628D01*
Y028785D01*
X044165D01*
X043986Y028964D01*
X044017Y029004D01*
X044052Y028983D01*
X044158Y028955D01*
X044163D01*
Y02937D01*
Y029785D01*
X044158D01*
X044052Y029757D01*
X043958Y029702D01*
X043946Y02969D01*
X0439Y029709D01*
Y030031D01*
X043946Y03005D01*
X043958Y030038D01*
X044052Y029983D01*
X044158Y029955D01*
X044267D01*
X044373Y029983D01*
X044467Y030038D01*
X044545Y030115D01*
X044599Y03021D01*
X044628Y030315D01*
Y030425D01*
X044599Y03053D01*
X044545Y030625D01*
X044467Y030702D01*
X044373Y030757D01*
X044267Y030785D01*
X044158D01*
X044052Y030757D01*
X043958Y030702D01*
X043946Y03069D01*
X0439Y030709D01*
Y031031D01*
X043946Y03105D01*
X043958Y031038D01*
X044052Y030983D01*
X044158Y030955D01*
X044267D01*
X044373Y030983D01*
X044467Y031038D01*
X044545Y031115D01*
X044599Y03121D01*
X044628Y031315D01*
Y031425D01*
X044599Y03153D01*
X044545Y031625D01*
X044467Y031702D01*
X044373Y031757D01*
X044267Y031785D01*
X044158D01*
X044052Y031757D01*
X043958Y031702D01*
X043946Y03169D01*
X0439Y031709D01*
Y032031D01*
X043946Y03205D01*
X043958Y032038D01*
X044052Y031983D01*
X044158Y031955D01*
X044267D01*
X044373Y031983D01*
X044467Y032038D01*
X044545Y032115D01*
X044599Y03221D01*
X044628Y032315D01*
Y032425D01*
X044599Y03253D01*
X044545Y032625D01*
X044467Y032702D01*
X044373Y032757D01*
X044267Y032785D01*
X044158D01*
X044052Y032757D01*
X043958Y032702D01*
X043946Y03269D01*
X0439Y032709D01*
Y033031D01*
X043946Y03305D01*
X043958Y033038D01*
X044052Y032983D01*
X044158Y032955D01*
X044267D01*
X044373Y032983D01*
X044467Y033038D01*
X044545Y033115D01*
X044599Y03321D01*
X044628Y033315D01*
Y033425D01*
X044599Y03353D01*
X044545Y033625D01*
X044467Y033702D01*
X044373Y033757D01*
X044267Y033785D01*
X044158D01*
X044052Y033757D01*
X043958Y033702D01*
X043954Y033698D01*
X043907Y033717D01*
X043903Y033756D01*
X044834Y034686D01*
X044875Y03474D01*
X044901Y034803D01*
X04491Y03487D01*
Y036799D01*
X044901Y036866D01*
X044875Y036929D01*
X044834Y036982D01*
X044486Y03733D01*
Y037433D01*
X044458Y037538D01*
X044403Y037633D01*
X044326Y03771D01*
X044231Y037765D01*
X044125Y037793D01*
X044016D01*
X043911Y037765D01*
X043816Y03771D01*
X043804Y037698D01*
X043758Y037717D01*
Y038039D01*
X043804Y038058D01*
X043816Y038046D01*
X043911Y037991D01*
X044016Y037963D01*
X044021D01*
Y038378D01*
Y038793D01*
X044016D01*
X043911Y038765D01*
X043836Y038722D01*
X043796Y038756D01*
X043806Y038779D01*
X043815Y038847D01*
Y040549D01*
X043875Y040609D01*
X043927Y0407D01*
X043954Y040802D01*
Y040907D01*
X043927Y041008D01*
X043875Y041099D01*
X0438Y041174D01*
X043709Y041226D01*
X043608Y041254D01*
X043503D01*
X043401Y041226D01*
X04331Y041174D01*
X043296Y04116D01*
X04325Y041179D01*
Y04153D01*
X043296Y041549D01*
X04331Y041535D01*
X043401Y041482D01*
X043503Y041455D01*
X043608D01*
X043709Y041482D01*
X0438Y041535D01*
X043875Y041609D01*
X043927Y0417D01*
X043954Y041802D01*
Y041907D01*
X043927Y042008D01*
X043875Y042099D01*
X0438Y042174D01*
X043709Y042226D01*
X043608Y042254D01*
X043503D01*
X043401Y042226D01*
X04331Y042174D01*
X043296Y04216D01*
X04325Y042179D01*
Y04253D01*
X043296Y042549D01*
X04331Y042535D01*
X043401Y042482D01*
X043503Y042455D01*
X043608D01*
X043709Y042482D01*
X0438Y042535D01*
X043875Y042609D01*
X043927Y0427D01*
X043954Y042802D01*
Y042907D01*
X043927Y043008D01*
X043875Y043099D01*
X0438Y043174D01*
X043709Y043226D01*
X043608Y043254D01*
X043503D01*
X043401Y043226D01*
X043316Y043177D01*
X043285Y043217D01*
X043523Y043455D01*
X043608D01*
X043709Y043482D01*
X0438Y043535D01*
X043875Y043609D01*
X043927Y0437D01*
X043954Y043802D01*
Y043907D01*
X043927Y044008D01*
X043875Y044099D01*
X0438Y044174D01*
X043709Y044226D01*
X043608Y044254D01*
D02*
G37*
G36*
X039967Y043805D02*
X039868D01*
X039772Y043779D01*
X039687Y04373D01*
X039617Y04366D01*
X039567Y043574D01*
X039542Y043479D01*
Y04338D01*
X039567Y043284D01*
X039617Y043199D01*
X039658Y043158D01*
Y041584D01*
X039662Y041547D01*
X039615Y041524D01*
X039596Y041543D01*
X039171D01*
X038958Y041331D01*
Y040906D01*
X039123Y04074D01*
Y040027D01*
X039132Y03996D01*
X039158Y039897D01*
X039199Y039843D01*
X03924Y039802D01*
Y039098D01*
X039199Y039057D01*
X03915Y038972D01*
X039124Y038876D01*
Y038777D01*
X03915Y038682D01*
X039199Y038596D01*
X039269Y038526D01*
X039355Y038477D01*
X039451Y038451D01*
X039549D01*
X039645Y038477D01*
X039731Y038526D01*
X039801Y038596D01*
X03985Y038682D01*
X039876Y038777D01*
Y038876D01*
X03985Y038972D01*
X039801Y039057D01*
X03976Y039098D01*
Y03991D01*
X039751Y039977D01*
X039725Y04004D01*
X039684Y040094D01*
X039643Y040134D01*
Y04074D01*
X039808Y040906D01*
Y041261D01*
X039854Y04128D01*
X039958Y041175D01*
X039958Y041174D01*
Y041062D01*
X039987Y040954D01*
X040043Y040857D01*
X040122Y040778D01*
X040219Y040722D01*
X040327Y040693D01*
X040439D01*
X040547Y040722D01*
X040644Y040778D01*
X040723Y040857D01*
X040779Y040954D01*
X040808Y041062D01*
Y041174D01*
X040779Y041282D01*
X040723Y041379D01*
X040644Y041458D01*
X040547Y041514D01*
X040439Y041543D01*
X040327D01*
X040326Y041543D01*
X040177Y041691D01*
Y043158D01*
X040218Y043199D01*
X040267Y043284D01*
X040293Y04338D01*
Y043479D01*
X040267Y043574D01*
X040218Y04366D01*
X040148Y04373D01*
X040062Y043779D01*
X039967Y043805D01*
D02*
G37*
G36*
X044608Y042254D02*
X044503D01*
X044401Y042226D01*
X04431Y042174D01*
X044236Y042099D01*
X044183Y042008D01*
X044156Y041907D01*
Y041802D01*
X044183Y0417D01*
X044236Y041609D01*
X04431Y041535D01*
X044401Y041482D01*
X044503Y041455D01*
X044608D01*
X044709Y041482D01*
X0448Y041535D01*
X044875Y041609D01*
X044927Y0417D01*
X044954Y041802D01*
Y041907D01*
X044927Y042008D01*
X044875Y042099D01*
X0448Y042174D01*
X044709Y042226D01*
X044608Y042254D01*
D02*
G37*
G36*
X038343Y041523D02*
X038231D01*
X038123Y041494D01*
X038026Y041438D01*
X037947Y041359D01*
X037891Y041262D01*
X037862Y041154D01*
Y041042D01*
X037863Y041041D01*
X037759Y040937D01*
X037712Y040956D01*
Y041311D01*
X0375Y041523D01*
X037075D01*
X036862Y041311D01*
Y040886D01*
X037075Y040673D01*
X03743D01*
X037449Y040627D01*
X036931Y04011D01*
X036913D01*
X036846Y040101D01*
X036783Y040075D01*
X036729Y040034D01*
X036394Y039698D01*
X036336D01*
X036241Y039673D01*
X036155Y039623D01*
X036085Y039553D01*
X036036Y039468D01*
X03601Y039372D01*
Y039273D01*
X036036Y039178D01*
X036085Y039092D01*
X036155Y039022D01*
X036241Y038973D01*
X036336Y038947D01*
X036435D01*
X036531Y038973D01*
X036616Y039022D01*
X036686Y039092D01*
X036736Y039178D01*
X036761Y039273D01*
Y039331D01*
X037021Y03959D01*
X037039D01*
X037106Y039599D01*
X037169Y039625D01*
X037223Y039666D01*
X03823Y040674D01*
X038231Y040673D01*
X038343D01*
X038451Y040702D01*
X038548Y040758D01*
X038627Y040837D01*
X038683Y040934D01*
X038712Y041042D01*
Y041154D01*
X038683Y041262D01*
X038627Y041359D01*
X038548Y041438D01*
X038451Y041494D01*
X038343Y041523D01*
D02*
G37*
G36*
X037364Y044269D02*
X037266D01*
X03717Y044244D01*
X037084Y044194D01*
X037014Y044124D01*
X036965Y044039D01*
X036939Y043943D01*
Y043885D01*
X035958Y042904D01*
X035917Y04285D01*
X035891Y042788D01*
X035882Y04272D01*
Y041439D01*
X035881Y041438D01*
X035802Y041359D01*
X035746Y041262D01*
X035717Y041154D01*
Y041042D01*
X035746Y040934D01*
X035802Y040837D01*
X035881Y040758D01*
X035978Y040702D01*
X036086Y040673D01*
X036198D01*
X036306Y040702D01*
X036403Y040758D01*
X036482Y040837D01*
X036538Y040934D01*
X036567Y041042D01*
Y041154D01*
X036538Y041262D01*
X036482Y041359D01*
X036403Y041438D01*
X036401Y041439D01*
Y042613D01*
X037307Y043518D01*
X037364D01*
X03746Y043544D01*
X037546Y043593D01*
X037616Y043663D01*
X037665Y043749D01*
X037691Y043844D01*
Y043943D01*
X037665Y044039D01*
X037616Y044124D01*
X037546Y044194D01*
X03746Y044244D01*
X037364Y044269D01*
D02*
G37*
G36*
X035354Y041523D02*
X034929D01*
X034717Y041311D01*
Y040886D01*
X034929Y040673D01*
X035354D01*
X035567Y040886D01*
Y041311D01*
X035354Y041523D01*
D02*
G37*
G36*
X044608Y041254D02*
X044503D01*
X044401Y041226D01*
X04431Y041174D01*
X044236Y041099D01*
X044183Y041008D01*
X044156Y040907D01*
Y040802D01*
X044183Y0407D01*
X044236Y040609D01*
X04431Y040535D01*
X044401Y040482D01*
X044503Y040455D01*
X044608D01*
X044709Y040482D01*
X0448Y040535D01*
X044875Y040609D01*
X044927Y0407D01*
X044954Y040802D01*
Y040907D01*
X044927Y041008D01*
X044875Y041099D01*
X0448Y041174D01*
X044709Y041226D01*
X044608Y041254D01*
D02*
G37*
G36*
X030254Y041019D02*
X030099D01*
X029947Y040988D01*
X029803Y040929D01*
X029674Y040842D01*
X029564Y040732D01*
X029478Y040603D01*
X029418Y04046D01*
X029388Y040307D01*
Y040152D01*
X029418Y039999D01*
X029478Y039856D01*
X029564Y039727D01*
X029674Y039617D01*
X029803Y03953D01*
X029947Y039471D01*
X030099Y039441D01*
X030254D01*
X030407Y039471D01*
X03055Y03953D01*
X03068Y039617D01*
X03079Y039727D01*
X030876Y039856D01*
X030935Y039999D01*
X030966Y040152D01*
Y040307D01*
X030935Y04046D01*
X030876Y040603D01*
X03079Y040732D01*
X03068Y040842D01*
X03055Y040929D01*
X030407Y040988D01*
X030254Y041019D01*
D02*
G37*
G36*
X044125Y038793D02*
X044121D01*
Y038428D01*
X044486D01*
Y038433D01*
X044458Y038538D01*
X044403Y038633D01*
X044326Y03871D01*
X044231Y038765D01*
X044125Y038793D01*
D02*
G37*
G36*
X044486Y038328D02*
X044121D01*
Y037963D01*
X044125D01*
X044231Y037991D01*
X044326Y038046D01*
X044403Y038123D01*
X044458Y038218D01*
X044486Y038323D01*
Y038328D01*
D02*
G37*
G36*
X036866Y046428D02*
X03676D01*
X036659Y0464D01*
X036567Y046348D01*
X036493Y046273D01*
X03644Y046182D01*
X036413Y04608D01*
Y045995D01*
X034216Y043798D01*
X034175Y043744D01*
X034149Y043682D01*
X03414Y043615D01*
Y040027D01*
X034149Y03996D01*
X034175Y039897D01*
X034216Y039843D01*
X034307Y039752D01*
Y037051D01*
X034269Y037029D01*
X034168Y036928D01*
X034096Y036804D01*
X034059Y036666D01*
Y036523D01*
X034096Y036385D01*
X034168Y036261D01*
X034269Y03616D01*
X034393Y036089D01*
X034531Y036052D01*
X034674D01*
X034812Y036089D01*
X034936Y03616D01*
X035037Y036261D01*
X035108Y036385D01*
X035145Y036523D01*
Y036666D01*
X035108Y036804D01*
X035037Y036928D01*
X034936Y037029D01*
X034827Y037092D01*
Y03986D01*
X034818Y039927D01*
X034792Y03999D01*
X034751Y040044D01*
X03466Y040134D01*
Y043507D01*
X03678Y045628D01*
X036866D01*
X036967Y045655D01*
X037059Y045707D01*
X037133Y045782D01*
X037186Y045873D01*
X037213Y045975D01*
Y04608D01*
X037186Y046182D01*
X037133Y046273D01*
X037059Y046348D01*
X036967Y0464D01*
X036866Y046428D01*
D02*
G37*
G36*
X042476Y048264D02*
X037539D01*
X037472Y048255D01*
X03741Y048229D01*
X037356Y048188D01*
X035646Y046478D01*
X03556D01*
X035459Y04645D01*
X035367Y046398D01*
X035293Y046323D01*
X03524Y046232D01*
X035213Y04613D01*
Y046025D01*
X03524Y045923D01*
X035293Y045832D01*
X035367Y045757D01*
X035459Y045705D01*
X03556Y045678D01*
X035666D01*
X035767Y045705D01*
X035859Y045757D01*
X035933Y045832D01*
X035986Y045923D01*
X036013Y046025D01*
Y04611D01*
X037647Y047744D01*
X03962D01*
X039639Y047698D01*
X039617Y047675D01*
X039567Y04759D01*
X039542Y047494D01*
Y047395D01*
X039567Y0473D01*
X039617Y047214D01*
X039687Y047144D01*
X039772Y047095D01*
X039868Y047069D01*
X039967D01*
X040062Y047095D01*
X040148Y047144D01*
X040218Y047214D01*
X040267Y0473D01*
X040293Y047395D01*
Y047494D01*
X040267Y04759D01*
X040218Y047675D01*
X040195Y047698D01*
X040214Y047744D01*
X042368D01*
X04528Y044832D01*
Y016982D01*
X044508Y01621D01*
X044468Y016241D01*
X044489Y016277D01*
X044517Y016382D01*
Y016485D01*
X044864Y016831D01*
X044905Y016885D01*
X044931Y016947D01*
X04494Y017015D01*
Y02018D01*
X044931Y020247D01*
X044905Y02031D01*
X044864Y020364D01*
X04173Y023498D01*
Y0308D01*
X041721Y030867D01*
X041695Y03093D01*
X041654Y030984D01*
X041204Y031434D01*
X04115Y031475D01*
X041087Y031501D01*
X04102Y03151D01*
X03666D01*
X033828Y034341D01*
X033855Y034384D01*
X033944Y03436D01*
X034036D01*
X034125Y034384D01*
X034205Y03443D01*
X03427Y034495D01*
X034316Y034575D01*
X03434Y034664D01*
Y034756D01*
X034316Y034845D01*
X03427Y034925D01*
X03425Y034945D01*
Y03551D01*
X034241Y035577D01*
X034215Y03564D01*
X034174Y035694D01*
X03385Y036018D01*
Y043603D01*
X033841Y04367D01*
X033815Y043733D01*
X033774Y043787D01*
X033675Y043885D01*
Y043943D01*
X033649Y044039D01*
X0336Y044124D01*
X03353Y044194D01*
X033444Y044244D01*
X033349Y044269D01*
X03325D01*
X033154Y044244D01*
X033069Y044194D01*
X032999Y044124D01*
X032949Y044039D01*
X032924Y043943D01*
Y043844D01*
X032949Y043749D01*
X032999Y043663D01*
X033069Y043593D01*
X033154Y043544D01*
X03325Y043518D01*
X033308D01*
X03333Y043495D01*
Y03591D01*
X033339Y035843D01*
X033365Y03578D01*
X033406Y035726D01*
X03373Y035402D01*
Y034945D01*
X03371Y034925D01*
X033664Y034845D01*
X03364Y034756D01*
Y034664D01*
X033664Y034575D01*
X033621Y034548D01*
X03317Y035D01*
Y04214D01*
X033161Y042207D01*
X033135Y04227D01*
X033094Y042324D01*
X032094Y043324D01*
X03204Y043365D01*
X031977Y043391D01*
X03191Y0434D01*
X022737D01*
X02267Y043391D01*
X022607Y043365D01*
X022554Y043324D01*
X02216Y04293D01*
X022074D01*
X021972Y042902D01*
X021881Y04285D01*
X021807Y042775D01*
X021754Y042684D01*
X021727Y042582D01*
Y042477D01*
X021754Y042375D01*
X021807Y042284D01*
X021881Y042209D01*
X021972Y042157D01*
X022074Y04213D01*
X022179D01*
X022281Y042157D01*
X022372Y042209D01*
X022447Y042284D01*
X0225Y042375D01*
X022527Y042477D01*
Y042562D01*
X022845Y04288D01*
X030341D01*
X030362Y04283D01*
X030307Y042775D01*
X030254Y042684D01*
X030227Y042582D01*
Y042477D01*
X030254Y042375D01*
X030307Y042284D01*
X030381Y042209D01*
X030472Y042157D01*
X030574Y04213D01*
X03066D01*
X0314Y041389D01*
Y03839D01*
X03135Y038368D01*
X031285Y038406D01*
X031196Y03843D01*
X031104D01*
X031015Y038406D01*
X030935Y03836D01*
X03087Y038295D01*
X030824Y038215D01*
X0308Y038126D01*
Y038034D01*
X030824Y037945D01*
X03087Y037865D01*
X03089Y037845D01*
Y03317D01*
X030899Y033103D01*
X030925Y03304D01*
X030966Y032986D01*
X03268Y031272D01*
Y029659D01*
X03263Y029642D01*
X032614Y029664D01*
X026598Y035679D01*
X026617Y035725D01*
X027677D01*
X027684Y035675D01*
X027665Y03567D01*
X027585Y035624D01*
X02752Y035559D01*
X027474Y035479D01*
X02745Y03539D01*
Y035298D01*
X027474Y035209D01*
X02752Y035129D01*
X027585Y035064D01*
X027665Y035018D01*
X027754Y034994D01*
X027846D01*
X027935Y035018D01*
X028015Y035064D01*
X028035Y035084D01*
X028414D01*
X028481Y035093D01*
X028544Y035119D01*
X028598Y03516D01*
X029004Y035566D01*
X029045Y03562D01*
X029071Y035683D01*
X02908Y03575D01*
Y03791D01*
X029071Y037977D01*
X029045Y03804D01*
X029004Y038094D01*
X026774Y040324D01*
X02672Y040365D01*
X026657Y040391D01*
X02659Y0404D01*
X023548D01*
X01981Y044138D01*
X019756Y044179D01*
X019693Y044205D01*
X019626Y044214D01*
X017D01*
X016933Y044205D01*
X01687Y044179D01*
X016816Y044138D01*
X013384Y040705D01*
X013359Y040711D01*
X013334Y040726D01*
X013318Y040845D01*
X013268Y040965D01*
X013189Y041068D01*
X013086Y041147D01*
X012985Y041189D01*
Y041243D01*
X013086Y041285D01*
X013189Y041364D01*
X013268Y041467D01*
X013318Y041587D01*
X013335Y041716D01*
X013318Y041845D01*
X013268Y041965D01*
X013189Y042068D01*
X013086Y042147D01*
X012966Y042197D01*
X012837Y042214D01*
X012708Y042197D01*
X012588Y042147D01*
X012485Y042068D01*
X012406Y041965D01*
X012356Y041845D01*
X012339Y041716D01*
X012356Y041587D01*
X012406Y041467D01*
X012485Y041364D01*
X012588Y041285D01*
X012688Y041243D01*
Y041189D01*
X012588Y041147D01*
X012485Y041068D01*
X012406Y040965D01*
X012356Y040845D01*
X012339Y040716D01*
X012356Y040587D01*
X012406Y040467D01*
X012485Y040364D01*
X012588Y040285D01*
X012688Y040243D01*
Y040189D01*
X012588Y040147D01*
X012485Y040068D01*
X012406Y039965D01*
X012356Y039845D01*
X012339Y039716D01*
X012356Y039587D01*
X012406Y039467D01*
X012485Y039364D01*
X012588Y039285D01*
X012688Y039243D01*
Y039189D01*
X012588Y039147D01*
X012485Y039068D01*
X012406Y038965D01*
X012356Y038845D01*
X012339Y038716D01*
X012356Y038587D01*
X012406Y038467D01*
X012485Y038364D01*
X012588Y038285D01*
X012688Y038243D01*
Y038189D01*
X012588Y038147D01*
X012485Y038068D01*
X012414Y037976D01*
X01219D01*
X012123Y037967D01*
X01206Y037941D01*
X012006Y0379D01*
X010344Y036237D01*
X010303Y036184D01*
X010277Y036121D01*
X010268Y036054D01*
Y014982D01*
X010277Y014915D01*
X010303Y014853D01*
X010344Y014799D01*
X011058Y014085D01*
X011112Y014044D01*
X011174Y014018D01*
X011242Y014009D01*
X035572D01*
X035639Y014018D01*
X035702Y014044D01*
X035755Y014085D01*
X036511Y014841D01*
X036614D01*
X036719Y014869D01*
X036814Y014924D01*
X036891Y015001D01*
X036946Y015096D01*
X036974Y015201D01*
Y015311D01*
X036946Y015416D01*
X036891Y015511D01*
X036814Y015588D01*
X036719Y015643D01*
X036614Y015671D01*
X036504D01*
X036399Y015643D01*
X036304Y015588D01*
X036227Y015511D01*
X036172Y015416D01*
X036144Y015311D01*
Y015208D01*
X035965Y015029D01*
X035925Y01506D01*
X035946Y015096D01*
X035974Y015201D01*
Y015206D01*
X035609D01*
Y014841D01*
X035614D01*
X035719Y014869D01*
X035755Y01489D01*
X035786Y01485D01*
X035464Y014528D01*
X02825D01*
X028229Y014578D01*
X028535Y014884D01*
X028637D01*
X028743Y014913D01*
X028837Y014967D01*
X028915Y015044D01*
X028969Y015139D01*
X028998Y015245D01*
Y015354D01*
X028969Y015459D01*
X028915Y015554D01*
X028837Y015631D01*
X028743Y015686D01*
X028637Y015714D01*
X028528D01*
X028423Y015686D01*
X028328Y015631D01*
X028251Y015554D01*
X028196Y015459D01*
X028168Y015354D01*
Y015252D01*
X027989Y015072D01*
X027949Y015103D01*
X027969Y015139D01*
X027998Y015245D01*
Y015249D01*
X027168D01*
Y015245D01*
X027196Y015139D01*
X027251Y015044D01*
X027262Y015033D01*
X027243Y014986D01*
X026998D01*
Y015714D01*
X026842D01*
Y017952D01*
X027308Y018417D01*
X029673D01*
X029714Y018377D01*
X0298Y018327D01*
X029895Y018302D01*
X029994D01*
X03009Y018327D01*
X030175Y018377D01*
X030245Y018447D01*
X030295Y018532D01*
X03032Y018628D01*
Y018727D01*
X030295Y018822D01*
X030245Y018908D01*
X030205Y018949D01*
Y02174D01*
X030544Y02208D01*
X030629D01*
X030731Y022107D01*
X030822Y022159D01*
X030828Y022165D01*
X030875Y022146D01*
Y019692D01*
X030883Y019625D01*
X030909Y019562D01*
X030951Y019508D01*
X032104Y018355D01*
X032104Y018305D01*
X031376D01*
Y017842D01*
X029399Y015865D01*
X029358Y015811D01*
X029332Y015748D01*
X029323Y015681D01*
Y015626D01*
X029251Y015554D01*
X029196Y015459D01*
X029168Y015354D01*
Y015245D01*
X029196Y015139D01*
X029251Y015044D01*
X029328Y014967D01*
X029423Y014913D01*
X029528Y014884D01*
X029637D01*
X029743Y014913D01*
X029837Y014967D01*
X029915Y015044D01*
X029969Y015139D01*
X029998Y015245D01*
Y015354D01*
X029969Y015459D01*
X029915Y015554D01*
X029869Y0156D01*
X031744Y017475D01*
X032104D01*
Y017188D01*
X03063Y015714D01*
X030528D01*
X030423Y015686D01*
X030328Y015631D01*
X030251Y015554D01*
X030196Y015459D01*
X030168Y015354D01*
Y015245D01*
X030196Y015139D01*
X030251Y015044D01*
X030328Y014967D01*
X030423Y014913D01*
X030528Y014884D01*
X030637D01*
X030743Y014913D01*
X030837Y014967D01*
X030915Y015044D01*
X030969Y015139D01*
X030998Y015245D01*
Y015347D01*
X031177Y015526D01*
X031217Y015495D01*
X031196Y015459D01*
X031168Y015354D01*
Y015245D01*
X031196Y015139D01*
X031251Y015044D01*
X031328Y014967D01*
X031423Y014913D01*
X031528Y014884D01*
X031637D01*
X031743Y014913D01*
X031837Y014967D01*
X031915Y015044D01*
X031969Y015139D01*
X031998Y015245D01*
Y015347D01*
X032962Y016312D01*
X033004Y016365D01*
X03303Y016428D01*
X033038Y016495D01*
Y02052D01*
X03303Y020588D01*
X033004Y02065D01*
X032962Y020704D01*
X031809Y021858D01*
Y022123D01*
X031855Y022142D01*
X032191Y021806D01*
X032244Y021765D01*
X032307Y021739D01*
X032374Y02173D01*
X033574D01*
Y021644D01*
X034011D01*
Y021831D01*
X034024Y021844D01*
X034074Y021823D01*
Y021644D01*
X034242D01*
Y021999D01*
X034342D01*
Y021644D01*
X034511D01*
X034533Y021603D01*
Y019023D01*
X034542Y018955D01*
X034568Y018893D01*
X034609Y018839D01*
X037786Y015662D01*
X037755Y015622D01*
X037719Y015643D01*
X037614Y015671D01*
X037504D01*
X037399Y015643D01*
X037304Y015588D01*
X037227Y015511D01*
X037172Y015416D01*
X037144Y015311D01*
Y015201D01*
X037172Y015096D01*
X037227Y015001D01*
X037304Y014924D01*
X037399Y014869D01*
X037504Y014841D01*
X037614D01*
X037719Y014869D01*
X037814Y014924D01*
X037891Y015001D01*
X037946Y015096D01*
X037974Y015201D01*
Y015311D01*
X037946Y015416D01*
X037925Y015452D01*
X037965Y015483D01*
X038144Y015304D01*
Y015201D01*
X038172Y015096D01*
X038227Y015001D01*
X038304Y014924D01*
X038399Y014869D01*
X038504Y014841D01*
X038614D01*
X038719Y014869D01*
X038814Y014924D01*
X038891Y015001D01*
X038946Y015096D01*
X038974Y015201D01*
Y015311D01*
X038946Y015416D01*
X038891Y015511D01*
X038814Y015588D01*
X038719Y015643D01*
X038614Y015671D01*
X038511D01*
X035052Y01913D01*
Y021603D01*
X035074Y021644D01*
X035448D01*
Y018973D01*
X035457Y018905D01*
X035482Y018843D01*
X035524Y018789D01*
X037059Y017253D01*
X037113Y017212D01*
X037176Y017186D01*
X037243Y017177D01*
X043775D01*
X043848Y017105D01*
X043942Y01705D01*
X044048Y017022D01*
X044157D01*
X044263Y01705D01*
X044298Y017071D01*
X044329Y017031D01*
X04415Y016852D01*
X044048D01*
X043942Y016824D01*
X043848Y016769D01*
X04377Y016692D01*
X043716Y016597D01*
X043687Y016492D01*
Y016382D01*
X043716Y016277D01*
X04377Y016182D01*
X043848Y016105D01*
X043942Y01605D01*
X044048Y016022D01*
X044157D01*
X044263Y01605D01*
X044298Y016071D01*
X044329Y016031D01*
X04415Y015852D01*
X043687D01*
Y015022D01*
X044517D01*
Y015485D01*
X045724Y016691D01*
X045765Y016745D01*
X045791Y016807D01*
X0458Y016875D01*
Y04494D01*
X045791Y045007D01*
X045765Y04507D01*
X045724Y045124D01*
X04266Y048188D01*
X042606Y048229D01*
X042543Y048255D01*
X042476Y048264D01*
D02*
G37*
G36*
X044267Y029785D02*
X044263D01*
Y02942D01*
X044628D01*
Y029425D01*
X044599Y02953D01*
X044545Y029625D01*
X044467Y029702D01*
X044373Y029757D01*
X044267Y029785D01*
D02*
G37*
G36*
X044628Y02932D02*
X044263D01*
Y028955D01*
X044267D01*
X044373Y028983D01*
X044467Y029038D01*
X044545Y029115D01*
X044599Y02921D01*
X044628Y029315D01*
Y02932D01*
D02*
G37*
G36*
X044216Y023761D02*
X044211D01*
Y023396D01*
X044576D01*
Y023401D01*
X044548Y023507D01*
X044493Y023601D01*
X044416Y023679D01*
X044322Y023733D01*
X044216Y023761D01*
D02*
G37*
G36*
X044576Y023296D02*
X044211D01*
Y022931D01*
X044216D01*
X044322Y02296D01*
X044416Y023014D01*
X044493Y023092D01*
X044548Y023186D01*
X044576Y023292D01*
Y023296D01*
D02*
G37*
G36*
X027637Y015714D02*
X027633D01*
Y015349D01*
X027998D01*
Y015354D01*
X027969Y015459D01*
X027915Y015554D01*
X027837Y015631D01*
X027743Y015686D01*
X027637Y015714D01*
D02*
G37*
G36*
X027533D02*
X027528D01*
X027423Y015686D01*
X027328Y015631D01*
X027251Y015554D01*
X027196Y015459D01*
X027168Y015354D01*
Y015349D01*
X027533D01*
Y015714D01*
D02*
G37*
G36*
X035614Y015671D02*
X035609D01*
Y015306D01*
X035974D01*
Y015311D01*
X035946Y015416D01*
X035891Y015511D01*
X035814Y015588D01*
X035719Y015643D01*
X035614Y015671D01*
D02*
G37*
G36*
X035509D02*
X035504D01*
X035399Y015643D01*
X035304Y015588D01*
X035227Y015511D01*
X035172Y015416D01*
X035144Y015311D01*
Y015306D01*
X035509D01*
Y015671D01*
D02*
G37*
G36*
X039614D02*
X039504D01*
X039399Y015643D01*
X039304Y015588D01*
X039227Y015511D01*
X039172Y015416D01*
X039144Y015311D01*
Y015201D01*
X039172Y015096D01*
X039227Y015001D01*
X039304Y014924D01*
X039399Y014869D01*
X039504Y014841D01*
X039614D01*
X039719Y014869D01*
X039814Y014924D01*
X039891Y015001D01*
X039946Y015096D01*
X039974Y015201D01*
Y015311D01*
X039946Y015416D01*
X039891Y015511D01*
X039814Y015588D01*
X039719Y015643D01*
X039614Y015671D01*
D02*
G37*
G36*
X035509Y015206D02*
X035144D01*
Y015201D01*
X035172Y015096D01*
X035227Y015001D01*
X035304Y014924D01*
X035399Y014869D01*
X035504Y014841D01*
X035509D01*
Y015206D01*
D02*
G37*
G36*
X034974Y015671D02*
X034144D01*
Y014841D01*
X034974D01*
Y015671D01*
D02*
G37*
G36*
X046375Y013478D02*
X0462D01*
X046029Y013444D01*
X045867Y013377D01*
X045722Y01328D01*
X045598Y013156D01*
X045501Y013011D01*
X045434Y012849D01*
X0454Y012678D01*
Y012503D01*
X045434Y012332D01*
X045501Y01217D01*
X045598Y012025D01*
X045722Y011901D01*
X045867Y011804D01*
X046029Y011737D01*
X0462Y011703D01*
X046375D01*
X046546Y011737D01*
X046708Y011804D01*
X046853Y011901D01*
X046977Y012025D01*
X047074Y01217D01*
X047141Y012332D01*
X047175Y012503D01*
Y012678D01*
X047141Y012849D01*
X047074Y013011D01*
X046977Y013156D01*
X046853Y01328D01*
X046708Y013377D01*
X046546Y013444D01*
X046375Y013478D01*
D02*
G37*
G36*
X011721Y013466D02*
X011546D01*
X011375Y013432D01*
X011214Y013365D01*
X011068Y013268D01*
X010945Y013144D01*
X010847Y012999D01*
X010781Y012838D01*
X010746Y012666D01*
Y012491D01*
X010781Y01232D01*
X010847Y012158D01*
X010945Y012013D01*
X011068Y011889D01*
X011214Y011792D01*
X011375Y011725D01*
X011546Y011691D01*
X011721D01*
X011893Y011725D01*
X012054Y011792D01*
X0122Y011889D01*
X012323Y012013D01*
X01242Y012158D01*
X012487Y01232D01*
X012521Y012491D01*
Y012666D01*
X012487Y012838D01*
X01242Y012999D01*
X012323Y013144D01*
X0122Y013268D01*
X012054Y013365D01*
X011893Y013432D01*
X011721Y013466D01*
D02*
G37*
%LPD*%
G36*
X012485Y037364D02*
X012588Y037285D01*
X012688Y037243D01*
Y037189D01*
X012588Y037147D01*
X012485Y037068D01*
X012406Y036965D01*
X012356Y036845D01*
X012339Y036716D01*
X012356Y036587D01*
X012406Y036467D01*
X012485Y036364D01*
X012588Y036285D01*
X012688Y036243D01*
Y036189D01*
X012588Y036147D01*
X012485Y036068D01*
X012414Y035976D01*
X011817D01*
X01175Y035967D01*
X011687Y035941D01*
X011634Y0359D01*
X011308Y035574D01*
X011241D01*
X011152Y035551D01*
X011072Y035504D01*
X011007Y035439D01*
X010961Y035359D01*
X010937Y03527D01*
Y035178D01*
X010961Y035089D01*
X011007Y03501D01*
X011072Y034944D01*
X011152Y034898D01*
X011241Y034874D01*
X011333D01*
X011422Y034898D01*
X011502Y034944D01*
X011567Y03501D01*
X011614Y035089D01*
X011634Y035166D01*
X011925Y035457D01*
X012414D01*
X012485Y035364D01*
X012588Y035285D01*
X012688Y035243D01*
Y035189D01*
X012588Y035147D01*
X012485Y035068D01*
X012406Y034965D01*
X012356Y034845D01*
X012339Y034716D01*
X012356Y034587D01*
X012406Y034467D01*
X012485Y034364D01*
X012588Y034285D01*
X012688Y034243D01*
Y034189D01*
X012588Y034147D01*
X012485Y034068D01*
X012406Y033965D01*
X012356Y033845D01*
X012339Y033716D01*
X012356Y033587D01*
X012406Y033467D01*
X012485Y033364D01*
X012588Y033285D01*
X012688Y033243D01*
Y033189D01*
X012588Y033147D01*
X012485Y033068D01*
X012406Y032965D01*
X012356Y032845D01*
X012339Y032716D01*
X012356Y032587D01*
X012406Y032467D01*
X012485Y032364D01*
X012588Y032285D01*
X012688Y032243D01*
Y032189D01*
X012588Y032147D01*
X012485Y032068D01*
X012406Y031965D01*
X012356Y031845D01*
X012339Y031716D01*
X012356Y031587D01*
X012406Y031467D01*
X012485Y031364D01*
X012588Y031285D01*
X012688Y031243D01*
Y031189D01*
X012588Y031147D01*
X012485Y031068D01*
X012406Y030965D01*
X012356Y030845D01*
X012339Y030716D01*
X012356Y030587D01*
X012406Y030467D01*
X012485Y030364D01*
X012588Y030285D01*
X012688Y030243D01*
Y030189D01*
X012588Y030147D01*
X012485Y030068D01*
X012414Y029976D01*
X0124D01*
X012333Y029967D01*
X01227Y029941D01*
X012216Y0299D01*
X011698Y029382D01*
X011657Y029328D01*
X011631Y029265D01*
X011622Y029198D01*
Y01628D01*
X011566Y016223D01*
X011514Y016133D01*
X011487Y016032D01*
Y015928D01*
X011514Y015828D01*
X011566Y015738D01*
X011639Y015664D01*
X011729Y015612D01*
X01183Y015585D01*
X011934D01*
X012034Y015612D01*
X012125Y015664D01*
X012198Y015738D01*
X01225Y015828D01*
X012277Y015928D01*
Y016032D01*
X01225Y016133D01*
X012198Y016223D01*
X012142Y01628D01*
Y029091D01*
X012428Y029377D01*
X012478Y029373D01*
X012485Y029364D01*
X012588Y029285D01*
X012688Y029243D01*
Y029189D01*
X012588Y029147D01*
X012485Y029068D01*
X012406Y028965D01*
X012356Y028845D01*
X012339Y028716D01*
X012356Y028587D01*
X012406Y028467D01*
X012485Y028364D01*
X012588Y028285D01*
X012688Y028243D01*
Y028189D01*
X012588Y028147D01*
X012485Y028068D01*
X012406Y027965D01*
X012356Y027845D01*
X012339Y027716D01*
X012356Y027587D01*
X012406Y027467D01*
X012485Y027364D01*
X012588Y027285D01*
X012688Y027243D01*
Y027189D01*
X012588Y027147D01*
X012485Y027068D01*
X012406Y026965D01*
X012356Y026845D01*
X012339Y026716D01*
X012356Y026587D01*
X012406Y026467D01*
X012485Y026364D01*
X012588Y026285D01*
X012688Y026243D01*
Y026189D01*
X012588Y026147D01*
X012485Y026068D01*
X012406Y025965D01*
X012356Y025845D01*
X012339Y025716D01*
X012356Y025587D01*
X012406Y025467D01*
X012485Y025364D01*
X012588Y025285D01*
X012688Y025243D01*
Y025189D01*
X012588Y025147D01*
X012485Y025068D01*
X012406Y024965D01*
X012356Y024845D01*
X012339Y024716D01*
X012356Y024587D01*
X012406Y024467D01*
X012485Y024364D01*
X012588Y024285D01*
X012688Y024243D01*
Y024189D01*
X012588Y024147D01*
X012485Y024068D01*
X012406Y023965D01*
X012356Y023845D01*
X012345Y023766D01*
X012837D01*
X013328D01*
X013318Y023845D01*
X013268Y023965D01*
X013189Y024068D01*
X013086Y024147D01*
X012985Y024189D01*
Y024243D01*
X013086Y024285D01*
X013189Y024364D01*
X013268Y024467D01*
X013318Y024587D01*
X013335Y024716D01*
X013318Y024845D01*
X013268Y024965D01*
X013189Y025068D01*
X013086Y025147D01*
X012985Y025189D01*
Y025243D01*
X013086Y025285D01*
X013189Y025364D01*
X013268Y025467D01*
X013318Y025587D01*
X013335Y025716D01*
X013318Y025845D01*
X013268Y025965D01*
X013189Y026068D01*
X013086Y026147D01*
X012985Y026189D01*
Y026243D01*
X013086Y026285D01*
X013189Y026364D01*
X013268Y026467D01*
X013318Y026587D01*
X013335Y026716D01*
X013318Y026845D01*
X013268Y026965D01*
X013189Y027068D01*
X013086Y027147D01*
X012985Y027189D01*
Y027243D01*
X013086Y027285D01*
X013189Y027364D01*
X013268Y027467D01*
X013318Y027587D01*
X013335Y027716D01*
X013318Y027845D01*
X013268Y027965D01*
X013189Y028068D01*
X013086Y028147D01*
X012985Y028189D01*
Y028243D01*
X013086Y028285D01*
X013189Y028364D01*
X01326Y028456D01*
X013492D01*
X013791Y028157D01*
Y027752D01*
Y018937D01*
X013735Y018881D01*
X013683Y01879D01*
X013656Y01869D01*
Y018586D01*
X013683Y018485D01*
X013735Y018395D01*
X013808Y018321D01*
X013899Y018269D01*
X013999Y018243D01*
X014103D01*
X014204Y018269D01*
X014294Y018321D01*
X014367Y018395D01*
X01442Y018485D01*
X014446Y018586D01*
Y01869D01*
X01442Y01879D01*
X014367Y018881D01*
X014311Y018937D01*
Y027644D01*
X018128Y031461D01*
X018404D01*
X018475Y031368D01*
X018578Y031289D01*
X018678Y031248D01*
Y031193D01*
X018578Y031152D01*
X018475Y031073D01*
X018396Y030969D01*
X018346Y030849D01*
X018329Y03072D01*
X018346Y030592D01*
X018396Y030471D01*
X018475Y030368D01*
X018578Y030289D01*
X018678Y030248D01*
Y030193D01*
X018578Y030152D01*
X018475Y030073D01*
X018396Y029969D01*
X018346Y029849D01*
X018329Y02972D01*
X018346Y029592D01*
X018396Y029471D01*
X018475Y029368D01*
X018578Y029289D01*
X018678Y029248D01*
Y029193D01*
X018578Y029152D01*
X018475Y029073D01*
X018396Y028969D01*
X018346Y028849D01*
X018329Y02872D01*
X018346Y028592D01*
X018396Y028472D01*
X018475Y028368D01*
X018578Y028289D01*
X018678Y028248D01*
Y028193D01*
X018578Y028152D01*
X018475Y028073D01*
X018396Y027969D01*
X018346Y027849D01*
X018329Y02772D01*
X018346Y027592D01*
X018396Y027471D01*
X018475Y027368D01*
X018578Y027289D01*
X018678Y027248D01*
Y027193D01*
X018578Y027152D01*
X018475Y027073D01*
X018396Y026969D01*
X018346Y026849D01*
X018329Y02672D01*
X018346Y026592D01*
X018396Y026472D01*
X018475Y026368D01*
X018578Y026289D01*
X018678Y026248D01*
Y026193D01*
X018578Y026152D01*
X018475Y026073D01*
X018396Y025969D01*
X018346Y025849D01*
X018329Y02572D01*
X018346Y025592D01*
X018396Y025471D01*
X018475Y025368D01*
X018578Y025289D01*
X018678Y025248D01*
Y025193D01*
X018578Y025152D01*
X018475Y025073D01*
X018396Y024969D01*
X018346Y024849D01*
X018329Y02472D01*
X018346Y024592D01*
X018396Y024471D01*
X018475Y024368D01*
X018578Y024289D01*
X018678Y024248D01*
Y024193D01*
X018578Y024152D01*
X018475Y024073D01*
X018396Y023969D01*
X018346Y023849D01*
X018329Y02372D01*
X018346Y023592D01*
X018396Y023472D01*
X018475Y023368D01*
X018578Y023289D01*
X018693Y023241D01*
X018698Y02323D01*
Y023201D01*
X018693Y02319D01*
X018578Y023142D01*
X018475Y023063D01*
X018396Y022959D01*
X018346Y022839D01*
X018329Y02271D01*
X018346Y022582D01*
X018396Y022462D01*
X018474Y02236D01*
X018471Y022341D01*
X01846Y02231D01*
X017978D01*
X01659Y023697D01*
Y023726D01*
X016566Y023815D01*
X01652Y023895D01*
X016455Y02396D01*
X016375Y024006D01*
X016286Y02403D01*
X016194D01*
X016105Y024006D01*
X016025Y02396D01*
X01596Y023895D01*
X015914Y023815D01*
X01589Y023726D01*
Y023634D01*
X015914Y023545D01*
X01596Y023465D01*
X016025Y0234D01*
X016105Y023354D01*
X016194Y02333D01*
X016223D01*
X017686Y021866D01*
X01774Y021825D01*
X017803Y021799D01*
X01787Y02179D01*
X01984D01*
X019907Y021799D01*
X01997Y021825D01*
X020024Y021866D01*
X021448Y02329D01*
X024598D01*
X02463Y023258D01*
Y019678D01*
X023438Y018486D01*
X023397Y018432D01*
X023371Y01837D01*
X023362Y018302D01*
Y015583D01*
X02329Y015511D01*
X023235Y015416D01*
X023207Y015311D01*
Y015201D01*
X023235Y015096D01*
X02329Y015001D01*
X023302Y014989D01*
X023283Y014943D01*
X022961D01*
X022942Y014989D01*
X022954Y015001D01*
X023009Y015096D01*
X023037Y015201D01*
Y015311D01*
X023009Y015416D01*
X022954Y015511D01*
X022882Y015583D01*
Y018855D01*
X02294Y018913D01*
X022981Y018966D01*
X023007Y019029D01*
X023016Y019096D01*
Y022532D01*
X023036Y022553D01*
X023082Y022633D01*
X023106Y022722D01*
Y022814D01*
X023082Y022903D01*
X023036Y022983D01*
X022971Y023048D01*
X022891Y023094D01*
X022802Y023118D01*
X02271D01*
X022621Y023094D01*
X022541Y023048D01*
X022476Y022983D01*
X02243Y022903D01*
X022411Y022832D01*
X022401Y022824D01*
X022369Y02281D01*
X022356Y022809D01*
X022281Y022852D01*
X022179Y02288D01*
X022177D01*
Y02248D01*
Y02208D01*
X022179D01*
X022281Y022107D01*
X022372Y022159D01*
X022446Y022233D01*
X022458Y022233D01*
X022496Y022223D01*
Y019204D01*
X022438Y019146D01*
X022397Y019092D01*
X022371Y01903D01*
X022362Y018962D01*
Y015583D01*
X02229Y015511D01*
X022235Y015416D01*
X022207Y015311D01*
Y015201D01*
X022235Y015096D01*
X02229Y015001D01*
X022302Y014989D01*
X022283Y014943D01*
X021961D01*
X021942Y014989D01*
X021954Y015001D01*
X022009Y015096D01*
X022037Y015201D01*
Y015206D01*
X021207D01*
Y015201D01*
X021235Y015096D01*
X02129Y015001D01*
X021302Y014989D01*
X021283Y014943D01*
X021037D01*
Y015671D01*
X0203D01*
Y016701D01*
X021425Y017826D01*
X021467Y01788D01*
X021493Y017943D01*
X021501Y01801D01*
Y019918D01*
X021493Y019985D01*
X021467Y020048D01*
X021425Y020102D01*
X020984Y020544D01*
X02093Y020585D01*
X020867Y020611D01*
X0208Y02062D01*
X017968D01*
X01549Y023098D01*
Y024121D01*
X01551Y024141D01*
X015556Y024221D01*
X01558Y02431D01*
Y024402D01*
X015556Y024491D01*
X01551Y024571D01*
X015445Y024636D01*
X015365Y024682D01*
X015276Y024706D01*
X015184D01*
X015095Y024682D01*
X015015Y024636D01*
X01495Y024571D01*
X014904Y024491D01*
X01488Y024402D01*
Y02431D01*
X014904Y024221D01*
X01495Y024141D01*
X01497Y024121D01*
Y02299D01*
X014979Y022923D01*
X015005Y02286D01*
X015046Y022806D01*
X017676Y020176D01*
X01773Y020135D01*
X017793Y020109D01*
X01786Y0201D01*
X020692D01*
X020982Y019811D01*
Y018868D01*
X020932Y018852D01*
X020854Y018897D01*
X020758Y018923D01*
X020659D01*
X020564Y018897D01*
X020478Y018848D01*
X020408Y018778D01*
X020359Y018692D01*
X020333Y018597D01*
Y018539D01*
X017451Y015657D01*
X016981D01*
X016963Y015689D01*
X016874Y015778D01*
X016766Y01584D01*
X016645Y015873D01*
X01652D01*
X016399Y01584D01*
X016291Y015778D01*
X016203Y015689D01*
X01614Y015581D01*
X016108Y01546D01*
Y015335D01*
X01614Y015214D01*
X016203Y015106D01*
X016291Y015018D01*
X016399Y014955D01*
X01652Y014923D01*
X016645D01*
X016766Y014955D01*
X016874Y015018D01*
X016963Y015106D01*
X016981Y015138D01*
X017559D01*
X017626Y015147D01*
X017689Y015173D01*
X017743Y015214D01*
X01808Y015552D01*
X018125Y015526D01*
X018108Y01546D01*
Y015448D01*
X018533D01*
Y015873D01*
X01852D01*
X018454Y015855D01*
X018429Y0159D01*
X0207Y018172D01*
X020758D01*
X020854Y018197D01*
X020932Y018243D01*
X020982Y018227D01*
Y018118D01*
X019856Y016992D01*
X019815Y016938D01*
X019789Y016875D01*
X01978Y016808D01*
Y01477D01*
X019789Y014703D01*
X019815Y01464D01*
X019856Y014586D01*
X019868Y014574D01*
X019849Y014528D01*
X011349D01*
X010787Y01509D01*
Y035946D01*
X012298Y037457D01*
X012414D01*
X012485Y037364D01*
D02*
G37*
%LPC*%
G36*
X013328Y023666D02*
X012837D01*
X012345D01*
X012356Y023587D01*
X012406Y023467D01*
X012485Y023364D01*
X012588Y023285D01*
X012688Y023243D01*
Y023189D01*
X012588Y023147D01*
X012485Y023068D01*
X012406Y022965D01*
X012356Y022845D01*
X012345Y022766D01*
X012837D01*
X013328D01*
X013318Y022845D01*
X013268Y022965D01*
X013189Y023068D01*
X013086Y023147D01*
X012985Y023189D01*
Y023243D01*
X013086Y023285D01*
X013189Y023364D01*
X013268Y023467D01*
X013318Y023587D01*
X013328Y023666D01*
D02*
G37*
G36*
X022077Y02288D02*
X022074D01*
X021972Y022852D01*
X021881Y0228D01*
X021807Y022725D01*
X021754Y022634D01*
X021727Y022532D01*
Y02253D01*
X022077D01*
Y02288D01*
D02*
G37*
G36*
X013328Y022666D02*
X012887D01*
Y022225D01*
X012966Y022235D01*
X013086Y022285D01*
X013189Y022364D01*
X013268Y022467D01*
X013318Y022587D01*
X013328Y022666D01*
D02*
G37*
G36*
X012787D02*
X012345D01*
X012356Y022587D01*
X012406Y022467D01*
X012485Y022364D01*
X012588Y022285D01*
X012708Y022235D01*
X012787Y022225D01*
Y022666D01*
D02*
G37*
G36*
X022077Y02243D02*
X021727D01*
Y022427D01*
X021754Y022325D01*
X021807Y022234D01*
X021881Y022159D01*
X021972Y022107D01*
X022074Y02208D01*
X022077D01*
Y02243D01*
D02*
G37*
G36*
X013103Y019033D02*
X013101D01*
Y018688D01*
X013446D01*
Y01869D01*
X01342Y01879D01*
X013367Y018881D01*
X013294Y018954D01*
X013204Y019006D01*
X013103Y019033D01*
D02*
G37*
G36*
X013001D02*
X012999D01*
X012899Y019006D01*
X012808Y018954D01*
X012735Y018881D01*
X012683Y01879D01*
X012656Y01869D01*
Y018688D01*
X013001D01*
Y019033D01*
D02*
G37*
G36*
X013446Y018588D02*
X013101D01*
Y018243D01*
X013103D01*
X013204Y018269D01*
X013294Y018321D01*
X013367Y018395D01*
X01342Y018485D01*
X013446Y018586D01*
Y018588D01*
D02*
G37*
G36*
X013001D02*
X012656D01*
Y018586D01*
X012683Y018485D01*
X012735Y018395D01*
X012808Y018321D01*
X012899Y018269D01*
X012999Y018243D01*
X013001D01*
Y018588D01*
D02*
G37*
G36*
X019408Y018943D02*
X019309D01*
X019213Y018917D01*
X019128Y018867D01*
X019087Y018827D01*
X016441D01*
X016374Y018818D01*
X016311Y018792D01*
X016257Y018751D01*
X013374Y015867D01*
X013338Y015877D01*
X013213D01*
X013092Y015844D01*
X012984Y015782D01*
X012895Y015693D01*
X012833Y015585D01*
X012801Y015464D01*
Y015339D01*
X012833Y015218D01*
X012895Y01511D01*
X012984Y015021D01*
X013092Y014959D01*
X013213Y014927D01*
X013338D01*
X013459Y014959D01*
X013567Y015021D01*
X013656Y01511D01*
X013718Y015218D01*
X013751Y015339D01*
Y015464D01*
X013741Y0155D01*
X016548Y018307D01*
X019087D01*
X019128Y018266D01*
X019213Y018217D01*
X019309Y018191D01*
X019408D01*
X019503Y018217D01*
X019589Y018266D01*
X019659Y018336D01*
X019708Y018422D01*
X019734Y018517D01*
Y018616D01*
X019708Y018712D01*
X019659Y018798D01*
X019589Y018867D01*
X019503Y018917D01*
X019408Y018943D01*
D02*
G37*
G36*
X015392D02*
X015293D01*
X015198Y018917D01*
X015112Y018867D01*
X015042Y018798D01*
X014993Y018712D01*
X014967Y018616D01*
Y018517D01*
X014993Y018422D01*
X015042Y018336D01*
X015112Y018266D01*
X015198Y018217D01*
X015293Y018191D01*
X015392D01*
X015487Y018217D01*
X015573Y018266D01*
X015643Y018336D01*
X015693Y018422D01*
X015718Y018517D01*
Y018616D01*
X015693Y018712D01*
X015643Y018798D01*
X015573Y018867D01*
X015487Y018917D01*
X015392Y018943D01*
D02*
G37*
G36*
X015338Y015877D02*
X015326D01*
Y015452D01*
X015751D01*
Y015464D01*
X015718Y015585D01*
X015656Y015693D01*
X015567Y015782D01*
X015459Y015844D01*
X015338Y015877D01*
D02*
G37*
G36*
X015226D02*
X015213D01*
X015092Y015844D01*
X014984Y015782D01*
X014895Y015693D01*
X014833Y015585D01*
X014801Y015464D01*
Y015452D01*
X015226D01*
Y015877D01*
D02*
G37*
G36*
X018645Y015873D02*
X018633D01*
Y015448D01*
X019058D01*
Y01546D01*
X019025Y015581D01*
X018963Y015689D01*
X018874Y015778D01*
X018766Y01584D01*
X018645Y015873D01*
D02*
G37*
G36*
X021677Y015671D02*
X021672D01*
Y015306D01*
X022037D01*
Y015311D01*
X022009Y015416D01*
X021954Y015511D01*
X021877Y015588D01*
X021782Y015643D01*
X021677Y015671D01*
D02*
G37*
G36*
X021572D02*
X021567D01*
X021462Y015643D01*
X021367Y015588D01*
X02129Y015511D01*
X021235Y015416D01*
X021207Y015311D01*
Y015306D01*
X021572D01*
Y015671D01*
D02*
G37*
G36*
X011934Y015376D02*
X011932D01*
Y01503D01*
X012277D01*
Y015032D01*
X01225Y015133D01*
X012198Y015223D01*
X012125Y015297D01*
X012034Y015349D01*
X011934Y015376D01*
D02*
G37*
G36*
X011832D02*
X01183D01*
X011729Y015349D01*
X011639Y015297D01*
X011566Y015223D01*
X011514Y015133D01*
X011487Y015032D01*
Y01503D01*
X011832D01*
Y015376D01*
D02*
G37*
G36*
X015751Y015352D02*
X015326D01*
Y014927D01*
X015338D01*
X015459Y014959D01*
X015567Y015021D01*
X015656Y01511D01*
X015718Y015218D01*
X015751Y015339D01*
Y015352D01*
D02*
G37*
G36*
X015226D02*
X014801D01*
Y015339D01*
X014833Y015218D01*
X014895Y01511D01*
X014984Y015021D01*
X015092Y014959D01*
X015213Y014927D01*
X015226D01*
Y015352D01*
D02*
G37*
G36*
X019058Y015348D02*
X018633D01*
Y014923D01*
X018645D01*
X018766Y014955D01*
X018874Y015018D01*
X018963Y015106D01*
X019025Y015214D01*
X019058Y015335D01*
Y015348D01*
D02*
G37*
G36*
X018533D02*
X018108D01*
Y015335D01*
X01814Y015214D01*
X018203Y015106D01*
X018291Y015018D01*
X018399Y014955D01*
X01852Y014923D01*
X018533D01*
Y015348D01*
D02*
G37*
G36*
X012277Y01493D02*
X011932D01*
Y014585D01*
X011934D01*
X012034Y014612D01*
X012125Y014664D01*
X012198Y014738D01*
X01225Y014828D01*
X012277Y014928D01*
Y01493D01*
D02*
G37*
G36*
X011832D02*
X011487D01*
Y014928D01*
X011514Y014828D01*
X011566Y014738D01*
X011639Y014664D01*
X011729Y014612D01*
X01183Y014585D01*
X011832D01*
Y01493D01*
D02*
G37*
%LPD*%
D23*
X033792Y021999D02*
D03*
X034292D02*
D03*
X034792D02*
D03*
X035292D02*
D03*
Y024086D02*
D03*
X034792D02*
D03*
X034292D02*
D03*
X033792D02*
D03*
D42*
X0124Y029716D02*
X012837D01*
X011882Y01598D02*
Y029198D01*
X0124Y029716D01*
X03359Y03591D02*
Y043603D01*
Y03591D02*
X03399Y03551D01*
X033299Y043894D02*
X03359Y043603D01*
X037539Y048004D02*
X042476D01*
X035613Y046078D02*
X037539Y048004D01*
X042476D02*
X04554Y04494D01*
X02489Y01957D02*
Y023365D01*
X02134Y02355D02*
X024706D01*
X02489Y023365D01*
X022756Y019096D02*
Y022768D01*
X022622Y018962D02*
X022756Y019096D01*
X022622Y015256D02*
Y018962D01*
X011817Y035716D02*
X012837D01*
X011326Y035224D02*
X011817Y035716D01*
X011287Y035224D02*
X011326D01*
X010528Y014982D02*
Y036054D01*
X01219Y037716D01*
X010528Y014982D02*
X011242Y014268D01*
X014051Y027752D02*
Y028265D01*
X032374Y02199D02*
X033792D01*
X034792Y019023D02*
X038559Y015256D01*
X034792Y019023D02*
Y021999D01*
X029945Y018677D02*
Y021848D01*
X030577Y02248D01*
X044102Y016437D02*
X04468Y017015D01*
Y02018D01*
X04147Y02339D02*
X04468Y02018D01*
X04147Y02339D02*
Y0308D01*
X04102Y03125D02*
X04147Y0308D01*
X036553Y03125D02*
X04102D01*
X03291Y034893D02*
X036553Y03125D01*
X03291Y034893D02*
Y04214D01*
X03191Y04314D02*
X03291Y04214D01*
X022737Y04314D02*
X03191D01*
X022127Y04253D02*
X022737Y04314D01*
X0184Y03772D02*
X018827D01*
X01817Y03795D02*
X0184Y03772D01*
X01817Y03795D02*
Y04202D01*
X0188Y04265D01*
X01926D01*
X03243Y02948D01*
Y02369D02*
Y02948D01*
Y02369D02*
X0336Y02252D01*
X035172D01*
X035292Y0224D01*
Y021999D02*
Y0224D01*
X018827Y03872D02*
X02061D01*
X031964Y027366D01*
Y0224D02*
Y027366D01*
Y0224D02*
X032374Y02199D01*
X033792D02*
Y021999D01*
X01219Y037716D02*
X012837D01*
X011242Y014268D02*
X035572D01*
X036559Y015256D01*
X044555Y042854D02*
X04512Y042289D01*
Y039427D02*
Y042289D01*
X044071Y038378D02*
X04512Y039427D01*
X034292Y016523D02*
Y021999D01*
Y016523D02*
X035559Y015256D01*
X022127Y015761D02*
Y02248D01*
X021622Y015256D02*
X022127Y015761D01*
X012837Y018852D02*
Y022716D01*
Y018852D02*
X013051Y018638D01*
X043555Y038847D02*
Y040854D01*
X043498Y03879D02*
X043555Y038847D01*
X043498Y035648D02*
Y03879D01*
X04292Y03507D02*
X043498Y035648D01*
X04292Y029681D02*
Y03507D01*
X0392Y03201D02*
X03995D01*
X03894Y03227D02*
X0392Y03201D01*
X03894Y03227D02*
Y03681D01*
X04209Y03996D01*
Y041389D01*
X01823Y03472D02*
X018827D01*
X01767Y03528D02*
X01823Y03472D01*
X01767Y03528D02*
Y04291D01*
X018827Y03372D02*
X01928D01*
X01972Y034161D01*
Y03816D01*
X017559Y015398D02*
X020709Y018547D01*
X016583Y015398D02*
X017559D01*
X039602Y023484D02*
X0406Y022487D01*
Y019899D02*
Y022487D01*
X040118Y019417D02*
X0406Y019899D01*
X039917Y041584D02*
Y043429D01*
Y041584D02*
X040383Y041118D01*
X033792Y024086D02*
Y025273D01*
X033447Y025618D02*
X033792Y025273D01*
X033447Y025618D02*
Y028402D01*
X034392Y029346D01*
X03948D01*
X03115Y03317D02*
Y03808D01*
Y03317D02*
X03294Y03138D01*
Y026795D02*
Y03138D01*
X02801Y014727D02*
X028583Y015299D01*
X024233Y014727D02*
X02801D01*
X02419Y014683D02*
X024233Y014727D01*
X020127Y014683D02*
X02419D01*
X02004Y01477D02*
X020127Y014683D01*
X02004Y01477D02*
Y016808D01*
X021242Y01801D01*
Y019918D01*
X0208Y02036D02*
X021242Y019918D01*
X01786Y02036D02*
X0208D01*
X01523Y02299D02*
X01786Y02036D01*
X01523Y02299D02*
Y024356D01*
X018827Y02872D02*
X026029D01*
X031549Y0232D01*
Y02175D02*
Y0232D01*
Y02175D02*
X032779Y02052D01*
Y016495D02*
Y02052D01*
X031583Y015299D02*
X032779Y016495D01*
X012837Y031716D02*
X013246D01*
X017155Y035625D01*
Y0432D01*
X017375Y04342D01*
X01908D01*
X026515Y035985D01*
X028155D01*
X012837Y032716D02*
X01349D01*
X01351Y040464D01*
X017Y043954D01*
X019626D01*
X02344Y04014D01*
X02659D01*
X02882Y03791D01*
Y03575D02*
Y03791D01*
X028414Y035344D02*
X02882Y03575D01*
X0278Y035344D02*
X028414D01*
X01957Y04063D02*
Y04148D01*
Y04063D02*
X02706Y03314D01*
X018827Y02772D02*
X02337D01*
X028053Y023037D01*
X030897D01*
X031134Y0228D01*
Y019692D02*
Y0228D01*
Y019692D02*
X032364Y018462D01*
Y01708D02*
Y018462D01*
X030583Y015299D02*
X032364Y01708D01*
X030627Y04253D02*
X03166Y041496D01*
Y035D02*
Y041496D01*
Y035D02*
X036575Y030085D01*
X040055D01*
X04014Y03D01*
Y02603D02*
Y03D01*
X03906Y02495D02*
X04014Y02603D01*
X03906Y022216D02*
Y02495D01*
Y022216D02*
X039898Y021378D01*
X038662Y02844D02*
X039602Y0275D01*
X0341Y02844D02*
X038662D01*
X033862Y028202D02*
X0341Y02844D01*
X033862Y02719D02*
Y028202D01*
Y02719D02*
X034292Y02676D01*
Y024086D02*
Y02676D01*
X029583Y015299D02*
Y015681D01*
X031791Y01789D01*
X03948Y03256D02*
X04299Y03607D01*
Y043289D01*
X043555Y043854D01*
X03399Y03471D02*
Y03551D01*
X01624Y02368D02*
X01787Y02205D01*
X01984D01*
X02134Y02355D01*
X023622Y018302D02*
X02489Y01957D01*
X023622Y015256D02*
Y018302D01*
X038543Y018417D02*
X040118D01*
X036122Y020838D02*
X038543Y018417D01*
X036122Y020838D02*
Y024077D01*
X0356Y024599D02*
X036122Y024077D01*
X035Y024599D02*
X0356D01*
X034792Y024392D02*
X035Y024599D01*
X034792Y024086D02*
Y024392D01*
X034292Y0236D02*
Y024086D01*
Y0236D02*
X034502Y02339D01*
X03494D01*
X035707Y022623D01*
Y018973D02*
Y022623D01*
Y018973D02*
X037243Y017437D01*
X044102D01*
Y015437D02*
X04554Y016875D01*
Y04494D01*
X037039Y03985D02*
X038287Y041098D01*
X036913Y03985D02*
X037039D01*
X036386Y039323D02*
X036913Y03985D01*
X016441Y018567D02*
X019358D01*
X013276Y015402D02*
X016441Y018567D01*
X0136Y028716D02*
X014051Y028265D01*
X012837Y028716D02*
X0136D01*
X014051Y018638D02*
Y027752D01*
X01802Y03172D01*
X018827D01*
X0272Y018677D02*
X029945D01*
X026583Y01806D02*
X0272Y018677D01*
X026583Y015299D02*
Y01806D01*
X036142Y041098D02*
Y04272D01*
X037315Y043894D01*
X034567Y027736D02*
X036898Y025405D01*
Y021378D02*
Y025405D01*
X013051Y01615D02*
Y018638D01*
X011882Y01498D02*
X013051Y01615D01*
X034567Y036634D02*
Y03986D01*
X0344Y040027D02*
X034567Y03986D01*
X0344Y040027D02*
Y043615D01*
X036813Y046028D01*
X044071Y038378D02*
X04507Y037379D01*
Y030227D02*
Y037379D01*
X044213Y02937D02*
X04507Y030227D01*
X044071Y037378D02*
X04465Y036799D01*
Y03487D02*
Y036799D01*
X04364Y03386D02*
X04465Y03487D01*
X04364Y028943D02*
Y03386D01*
Y028943D02*
X044213Y02837D01*
X04358Y022928D02*
X044161Y022346D01*
X04358Y022928D02*
Y027737D01*
X044213Y02837D01*
X044161Y023346D02*
X04479Y023975D01*
Y028793D01*
X044213Y02937D02*
X04479Y028793D01*
X039383Y040027D02*
Y041118D01*
Y040027D02*
X0395Y03991D01*
Y038827D02*
Y03991D01*
X012837Y022716D02*
Y023716D01*
D43*
X011882Y01598D02*
D03*
Y01498D02*
D03*
X013051Y018638D02*
D03*
X014051D02*
D03*
D44*
X036898Y021378D02*
D03*
D45*
X039898D02*
D03*
D46*
X039602Y0275D02*
D03*
Y023484D02*
D03*
X029945Y018677D02*
D03*
X025929D02*
D03*
X024724Y018547D02*
D03*
X020709D02*
D03*
X015343Y018567D02*
D03*
X019358D02*
D03*
X039917Y047445D02*
D03*
Y043429D02*
D03*
X0395Y034811D02*
D03*
Y038827D02*
D03*
X03948Y033362D02*
D03*
Y029346D02*
D03*
X037315Y043894D02*
D03*
X033299D02*
D03*
X036386Y039323D02*
D03*
X03237D02*
D03*
D47*
X031791Y01789D02*
D03*
X020622Y015256D02*
D03*
X034559D02*
D03*
X026583Y015299D02*
D03*
D48*
X039383Y041118D02*
D03*
X037287Y041098D02*
D03*
X035142D02*
D03*
D49*
X040383Y041118D02*
D03*
X038287Y041098D02*
D03*
X036142D02*
D03*
D50*
X034602Y027697D02*
D03*
Y036594D02*
D03*
D51*
X040118Y019417D02*
D03*
X044213Y02837D02*
D03*
X044071Y036378D02*
D03*
X044161Y022346D02*
D03*
X044102Y015437D02*
D03*
D52*
X040118Y018417D02*
D03*
X044213Y03337D02*
D03*
Y03237D02*
D03*
Y03137D02*
D03*
Y02937D02*
D03*
Y03037D02*
D03*
X044071Y037378D02*
D03*
Y038378D02*
D03*
X023622Y015256D02*
D03*
X021622D02*
D03*
X022622D02*
D03*
X039559D02*
D03*
X038559D02*
D03*
X037559D02*
D03*
X035559D02*
D03*
X036559D02*
D03*
X044161Y025346D02*
D03*
Y023346D02*
D03*
Y024346D02*
D03*
X044102Y018437D02*
D03*
Y016437D02*
D03*
Y017437D02*
D03*
X028583Y015299D02*
D03*
X027583D02*
D03*
X029583D02*
D03*
X030583D02*
D03*
X031583D02*
D03*
D53*
X033163Y046078D02*
D03*
X038063Y046028D02*
D03*
X036813D02*
D03*
X035613Y046078D02*
D03*
X034413Y046028D02*
D03*
X022927Y02488D02*
D03*
X030177Y04023D02*
D03*
X022127Y02248D02*
D03*
X030577D02*
D03*
X022127Y04253D02*
D03*
X030627D02*
D03*
D54*
X01165Y047232D02*
D03*
X046303Y04722D02*
D03*
X046287Y012591D02*
D03*
X011634Y012579D02*
D03*
D55*
X018827Y03872D02*
D03*
Y03972D02*
D03*
Y04172D02*
D03*
Y03772D02*
D03*
Y04072D02*
D03*
Y03672D02*
D03*
X012837Y026716D02*
D03*
Y022716D02*
D03*
Y025716D02*
D03*
Y024716D02*
D03*
Y023716D02*
D03*
Y027716D02*
D03*
Y028716D02*
D03*
Y030716D02*
D03*
Y031716D02*
D03*
Y032716D02*
D03*
Y029716D02*
D03*
Y033716D02*
D03*
Y035716D02*
D03*
Y041716D02*
D03*
Y040716D02*
D03*
Y039716D02*
D03*
Y038716D02*
D03*
Y034716D02*
D03*
Y037716D02*
D03*
Y036716D02*
D03*
X018827Y02672D02*
D03*
Y02271D02*
D03*
Y02572D02*
D03*
Y02472D02*
D03*
Y02372D02*
D03*
Y02772D02*
D03*
Y03272D02*
D03*
Y03572D02*
D03*
Y03472D02*
D03*
Y03372D02*
D03*
Y03172D02*
D03*
Y03072D02*
D03*
Y02972D02*
D03*
Y02872D02*
D03*
D56*
X043555Y043854D02*
D03*
Y042854D02*
D03*
Y041854D02*
D03*
Y040854D02*
D03*
X044555D02*
D03*
Y041854D02*
D03*
Y042854D02*
D03*
D57*
Y043854D02*
D03*
D58*
X015276Y015402D02*
D03*
X013276D02*
D03*
X018583Y015398D02*
D03*
X016583D02*
D03*
D59*
X022756Y022768D02*
D03*
X011287Y035224D02*
D03*
X04292Y029681D02*
D03*
X03995Y03201D02*
D03*
X04209Y041389D02*
D03*
X01767Y04291D02*
D03*
X01972Y03816D02*
D03*
X03115Y03808D02*
D03*
X03294Y026795D02*
D03*
X01523Y024356D02*
D03*
X028155Y035985D02*
D03*
X0278Y035344D02*
D03*
X01957Y04148D02*
D03*
X02706Y03314D02*
D03*
X03948Y03256D02*
D03*
X03399Y03471D02*
D03*
X01624Y02368D02*
D03*
M02*
